<svg xmlns="http://www.w3.org/2000/svg" xmlns:xlink="http://www.w3.org/1999/xlink" viewBox="0 0 175 175">
  <defs>
    <clipPath id="clip-path">
      <rect x="-1489.44" y="-849.4" width="1217.17" height="663" style="fill: none"/>
    </clipPath>
    <radialGradient id="radial-gradient" cx="-2227.4" cy="-2647.95" r="223.84" gradientTransform="translate(14573.69 16609.6) scale(6.88 6.47)" gradientUnits="userSpaceOnUse">
      <stop offset="0.13" stop-color="#fff"/>
      <stop offset="0.37" stop-color="#fbfbfb"/>
      <stop offset="0.62" stop-color="#efefef"/>
      <stop offset="0.86" stop-color="#dbdbdb"/>
      <stop offset="1" stop-color="#ccc"/>
    </radialGradient>
    <clipPath id="clip-path-2">
      <rect x="-1489.44" y="179.5" width="1217.17" height="663" style="fill: none"/>
    </clipPath>
    <radialGradient id="radial-gradient-2" cx="-2227.4" cy="-2488.83" r="223.84" xlink:href="#radial-gradient"/>
    <clipPath id="clip-path-3">
      <rect x="-116.85" y="-849.4" width="1217.17" height="663" style="fill: none"/>
    </clipPath>
    <radialGradient id="radial-gradient-3" cx="-2027.94" cy="-2647.95" r="223.84" xlink:href="#radial-gradient"/>
  </defs>
  <title>Gear</title>
  <g style="isolation: isolate">
    <g id="Mod_2_Rollovere" data-name="Mod 2 Rollovere">
      <g id="background_copy" data-name="background copy">
        <g style="opacity: 0.1">
          <g style="clip-path: url(#clip-path)">
            <rect x="-1590.24" y="-1186.36" width="1607.86" height="1302.12" style="fill: url(#radial-gradient)"/>
          </g>
        </g>
        <g style="opacity: 0.1">
          <g style="clip-path: url(#clip-path-2)">
            <rect x="-1590.24" y="-157.46" width="1607.86" height="1302.12" style="fill: url(#radial-gradient-2)"/>
          </g>
        </g>
        <g style="opacity: 0.1">
          <g style="clip-path: url(#clip-path-3)">
            <rect x="-217.65" y="-1186.36" width="1607.86" height="1302.12" style="fill: url(#radial-gradient-3)"/>
          </g>
        </g>
      </g>
      <g id="Icons_copy" data-name="Icons copy">
        <g>
          <!-- <path d="M154.3,79.17l-.09-1.35a10.62,10.62,0,0,1,7.53-10.12c-.54-2-1.17-4.07-1.89-6.11A10.6,10.6,0,0,1,150.27,43c-1.23-1.74-2.53-3.43-3.86-5A10.59,10.59,0,0,1,131.1,23.78c-1.66-1.15-3.42-2.28-5.34-3.42a10.64,10.64,0,0,1-19.6-5.82,10.39,10.39,0,0,1,.3-2.3c-2.22-.57-4.27-1-6.22-1.38a10.58,10.58,0,0,1-20.83-1c-2,.17-4,.42-6.3.77A10.12,10.12,0,0,1,73.22,12a10.64,10.64,0,0,1-20.11,4.9c-2.07,1-3.93,1.92-5.63,2.89A10.6,10.6,0,0,1,30.85,32.39c-1.53,1.53-3,3.09-4.33,4.67A10.6,10.6,0,0,1,15.19,54.62c-.88,1.9-1.7,3.87-2.46,5.88A10.61,10.61,0,0,1,8.12,80.91L7.9,84.07,7.81,87.2A10.73,10.73,0,0,1,17.89,96.5L18,97.85A10.67,10.67,0,0,1,10.44,108c.56,2.09,1.2,4.13,1.89,6.08a10.61,10.61,0,0,1,9.6,18.58c1.2,1.7,2.48,3.39,3.84,5a10.59,10.59,0,0,1,15.34,14.17c1.68,1.18,3.47,2.33,5.33,3.43A10.64,10.64,0,0,1,66,161.08a10.19,10.19,0,0,1-.31,2.31c2,.53,4,1,6.22,1.38a10.58,10.58,0,0,1,20.83,1c2.2-.18,4.27-.44,6.3-.78a9.89,9.89,0,0,1-.1-1.28,10.65,10.65,0,0,1,20.11-4.93c1.93-.9,3.82-1.87,5.64-2.89a10.58,10.58,0,0,1,16.62-12.63c1.5-1.49,3-3.06,4.36-4.69A10.59,10.59,0,0,1,157,121c.91-1.93,1.74-3.9,2.46-5.86a10.62,10.62,0,0,1,4.6-20.42l.09-1.19c.12-1.47.15-1.87.16-2v0s.05-2.19.07-3.16A10.74,10.74,0,0,1,154.3,79.17Z" style="fill: #7dad56"/> -->
          <circle cx="86.09" cy="89.33" r="58.27" style="fill: #83b15e"/>
          <g>
            <path d="M43.5,100.05a3.67,3.67,0,1,0,3.67-3.67,3.67,3.67,0,0,0-3.67,3.67" style="fill: #fff"/>
            <path d="M47.17,105.74a5.63,5.63,0,0,1-2.84-.79L41.47,124.5c-.3,3.7,9.55-1.62,9-3.8l-.89-15.54a5.61,5.61,0,0,1-2.45.58" style="fill: #fff"/>
            <path d="M132.32,78.06,86.19,62a1.51,1.51,0,0,0-1,0L40.1,78.25a1.52,1.52,0,0,0,.09,2.89l5.32,1.52,0,12A5.18,5.18,0,0,1,49,94.7l0-11L57.13,86l0,11.08s0,.08,0,.12c0,3.77,12.82,6.8,28.62,6.77s28.61-3.11,28.6-6.88c0,0,0-.07,0-.11l0-9.65c-1.52-3-12.83-6.13-28.45-6.1a1.48,1.48,0,1,1,0-3c12.65,0,27.38,2.24,30.77,7.23l15.64-4.56a1.52,1.52,0,0,0,.07-2.89" style="fill: #fff"/>
          </g>
        </g>
      </g>
    </g>
  </g>
</svg>
