<svg xmlns="http://www.w3.org/2000/svg" xmlns:xlink="http://www.w3.org/1999/xlink" viewBox="0 0 175 175">
  <defs>
    <clipPath id="clip-path">
      <rect x="-959.06" y="-849.4" width="1217.17" height="663" style="fill: none"/>
    </clipPath>
    <radialGradient id="radial-gradient" cx="-2870.15" cy="-2647.95" r="223.84" gradientTransform="translate(19526.98 16609.6) scale(6.88 6.47)" gradientUnits="userSpaceOnUse">
      <stop offset="0.13" stop-color="#fff"/>
      <stop offset="0.37" stop-color="#fbfbfb"/>
      <stop offset="0.62" stop-color="#efefef"/>
      <stop offset="0.86" stop-color="#dbdbdb"/>
      <stop offset="1" stop-color="#ccc"/>
    </radialGradient>
  </defs>
  <title>Gear</title>
  <g style="isolation: isolate">
    <g id="Mod_2_Rollovere" data-name="Mod 2 Rollovere">
      <g id="background_copy" data-name="background copy">
        <g style="opacity: 0.1">
          <g style="clip-path: url(#clip-path)">
            <rect x="-1059.86" y="-1186.36" width="1607.86" height="1302.12" style="fill: url(#radial-gradient)"/>
          </g>
        </g>
      </g>
      <g id="Icons_copy" data-name="Icons copy">
        <g>
          <!-- <path d="M156.11,79.17,156,77.82a10.62,10.62,0,0,1,7.53-10.12c-.54-2-1.17-4.07-1.89-6.11A10.6,10.6,0,0,1,152.09,43c-1.23-1.74-2.53-3.43-3.86-5a10.59,10.59,0,0,1-15.32-14.19c-1.66-1.15-3.42-2.28-5.34-3.42A10.64,10.64,0,0,1,108,14.55a10.39,10.39,0,0,1,.3-2.3c-2.22-.57-4.27-1-6.22-1.38a10.58,10.58,0,0,1-20.83-1c-2,.17-4,.42-6.3.77A10.12,10.12,0,0,1,75,12a10.64,10.64,0,0,1-20.11,4.9c-2.07,1-3.93,1.92-5.63,2.89A10.6,10.6,0,0,1,32.67,32.39c-1.53,1.53-3,3.09-4.33,4.67A10.6,10.6,0,0,1,17,54.62c-.88,1.9-1.7,3.87-2.46,5.88A10.61,10.61,0,0,1,9.94,80.91l-.22,3.15L9.63,87.2A10.73,10.73,0,0,1,19.7,96.5l.09,1.36A10.67,10.67,0,0,1,12.25,108c.56,2.09,1.2,4.13,1.89,6.08a10.61,10.61,0,0,1,9.6,18.58c1.2,1.7,2.48,3.39,3.84,5a10.59,10.59,0,0,1,15.34,14.17c1.68,1.18,3.47,2.33,5.33,3.43a10.64,10.64,0,0,1,19.59,5.79,10.19,10.19,0,0,1-.31,2.31c2,.53,4,1,6.22,1.38a10.58,10.58,0,0,1,20.83,1c2.2-.18,4.27-.44,6.3-.78a9.89,9.89,0,0,1-.1-1.28,10.65,10.65,0,0,1,20.11-4.93c1.93-.9,3.82-1.87,5.64-2.89a10.58,10.58,0,0,1,16.62-12.63c1.5-1.49,3-3.06,4.36-4.69A10.59,10.59,0,0,1,158.8,121c.91-1.93,1.74-3.9,2.46-5.86a10.62,10.62,0,0,1,4.6-20.42l.09-1.19c.12-1.47.15-1.87.16-2v0s.05-2.19.07-3.16A10.74,10.74,0,0,1,156.11,79.17Z" style="fill: #7dad56"/> -->
          <circle cx="87.91" cy="89.17" r="58.27" style="fill: #83b15e"/>
          <g>
            <path d="M69.88,90.31a9.84,9.84,0,0,1,9.82,9.62h5.4a15.25,15.25,0,0,0-15.23-15Z" style="fill: #fff"/>
            <path d="M69.88,79.86A20.3,20.3,0,0,1,90.15,99.92h5.4A25.71,25.71,0,0,0,69.88,74.46Z" style="fill: #fff"/>
            <path d="M74.26,100.14a4.39,4.39,0,1,1-4.39-4.39,4.39,4.39,0,0,1,4.39,4.39" style="fill: #fff"/>
            <path d="M58,104.65v-45h62.54v45h7.61V62c0-5.65-2.27-10.23-7.56-10.23H58c-5.28,0-7.55,4.59-7.55,10.23v42.7Z" style="fill: #fff"/>
            <path d="M40.44,110.14v3a7,7,0,0,0,6.83,7.24h84.08a7,7,0,0,0,6.84-7.24v-3Zm56.32,6.73H81.87v-3H96.76Z" style="fill: #fff"/>
          </g>
        </g>
      </g>
    </g>
  </g>
</svg>
