<svg id="Layer_1" data-name="Layer 1" xmlns="http://www.w3.org/2000/svg" xmlns:xlink="http://www.w3.org/1999/xlink" viewBox="18.7 16.7 141 141">
  <defs>
    <clipPath id="clip-path">
      <path d="M159.27,87.28a70,70,0,1,1-70-70,70,70,0,0,1,70,70" style="fill: #fff;clip-rule: evenodd"/>
    </clipPath>
  </defs>
  <title>W@W_timeline</title>
  <g>
    <path d="M159.27,87.28a70,70,0,1,1-70-70,70,70,0,0,1,70,70" style="fill: #fff;fill-rule: evenodd"/>
    <g style="clip-path: url(#clip-path)">
      <g>
        <rect x="35.37" y="138.52" width="114.35" height="28.85" style="fill: #cdc6d1"/>
        <g>
          <g>
            <path d="M99.14,81.3c-1.09,1.47-1,8.85-1,10.62,0,1.39,1.33,3.5,1.69,5.6a49.28,49.28,0,0,1,.19,8.1l-.52,31.74A4.38,4.38,0,0,1,95.29,142c-2.44,0-3.91-2.09-3.91-4.66V107.88H88.65v29.49S88.15,142,84.22,142a4.55,4.55,0,0,1-4.42-4.66l.16-32a52.52,52.52,0,0,1,0-7.24c.31-2.43,1.66-4,1.77-6.13s.39-9.45-1.93-10.68A22,22,0,0,1,74.5,77C71,73,67.81,66,67.84,54.9c0-.78,0-1.59,0-2.42a2.87,2.87,0,1,1,5.72.25c0,.75,0,1.47,0,2.17,0,7.24,1.46,12,3.18,15.12A14.41,14.41,0,0,0,81.8,75.6a8.31,8.31,0,0,0,1.39.69H95.75a8.23,8.23,0,0,0,1.39-.69A14.44,14.44,0,0,0,102.21,70c1.71-3.15,3.17-7.88,3.18-15.12q0-1.05,0-2.17a3,3,0,0,1,2.74-3.14,2.93,2.93,0,0,1,3,2.89c0,.83,0,1.64,0,2.42,0,11.13-3.19,18.09-6.67,22.1a18,18,0,0,1-5.29,4.27s0,0,0,0" style="fill: #cdc6d1"/>
            <path d="M87.45,73.53a8,8,0,0,0,9.66-6.33A8.51,8.51,0,0,0,91.1,57a8.05,8.05,0,0,0-9.67,6.34,8.5,8.5,0,0,0,6,10.17" style="fill: #cdc6d1"/>
          </g>
          <g>
            <path d="M45.39,73.53a8,8,0,0,0,9.66-6.33A8.51,8.51,0,0,0,49,57a8.05,8.05,0,0,0-9.66,6.34,8.5,8.5,0,0,0,6,10.17" style="fill: #cdc6d1"/>
            <path d="M56.88,81.3v56.06A4.55,4.55,0,0,1,52.47,142c-2.44,0-4.07-2.09-4.07-4.66V107.88H46v29.49S45.89,142,42,142a4.54,4.54,0,0,1-4.42-4.66V81.3a18.2,18.2,0,0,1-5.3-4.3c-3.48-4-6.69-11-6.67-22.1,0-.78,0-1.59,0-2.42a2.93,2.93,0,0,1,3-2.89,3,3,0,0,1,2.74,3.14q0,1.12,0,2.17c0,7.24,1.47,12,3.18,15.12a14.39,14.39,0,0,0,5.07,5.57,8.36,8.36,0,0,0,1.39.69H53.49a8.37,8.37,0,0,0,1.39-.69A14.44,14.44,0,0,0,59.95,70c1.71-3.15,3.17-7.88,3.18-15.12,0-.7,0-1.43,0-2.17a2.87,2.87,0,1,1,5.72-.25c0,.83,0,1.64,0,2.42C68.87,66,65.65,73,62.18,77a18,18,0,0,1-5.29,4.27Z" style="fill: #cdc6d1"/>
          </g>
          <g>
            <path d="M130.43,73.53a8,8,0,0,0,9.66-6.33,8.51,8.51,0,0,0-6-10.18,8.05,8.05,0,0,0-9.66,6.34,8.5,8.5,0,0,0,6,10.17" style="fill: #cdc6d1"/>
            <path d="M141.93,81.3v56.06a4.55,4.55,0,0,1-4.43,4.66c-2.44,0-4.06-2.09-4.06-4.66V107.88h-2.37v29.49S130.93,142,127,142a4.55,4.55,0,0,1-4.42-4.66V81.3a18.26,18.26,0,0,1-5.3-4.3c-3.47-4-6.69-11-6.66-22.1,0-.78,0-1.59,0-2.42a2.86,2.86,0,1,1,5.72.25q0,1.12,0,2.17c0,7.24,1.47,12,3.17,15.12a14.43,14.43,0,0,0,5.07,5.57,8.23,8.23,0,0,0,1.39.69h12.56a8.23,8.23,0,0,0,1.39-.69A14.43,14.43,0,0,0,145,70c1.71-3.15,3.17-7.88,3.18-15.12q0-1.05,0-2.17a2.87,2.87,0,1,1,5.72-.25c0,.83,0,1.64,0,2.42C153.91,66,150.7,73,147.22,77a18.05,18.05,0,0,1-5.29,4.27Z" style="fill: #cdc6d1"/>
          </g>
        </g>
        <g>
          <path d="M123,103.94c-.22.86-.46,1.73-.71,2.61a4.68,4.68,0,0,1-4.47,3.37,4.66,4.66,0,0,1-4.48-6q.64-2.2,1.11-4.3a51.1,51.1,0,0,0,1.39-11.2,32.37,32.37,0,0,0-.25-4,15.62,15.62,0,0,0-2.17-6.78l0,0a4.57,4.57,0,0,1-1.07-2.39,4.65,4.65,0,0,1,8.06-3.77s4.81,5.09,4.78,17A62.77,62.77,0,0,1,123,103.94Z" style="fill: #fff"/>
          <path d="M113.75,66.49c-4,1.14-5.83,7.22-4.55,12.27.07.45.15.92.22,1.42a29.55,29.55,0,0,1-1.91,2.45,24.84,24.84,0,0,1-7,5.74,29.27,29.27,0,0,1-10,2.49,4.67,4.67,0,0,1,1,.94,4.65,4.65,0,0,1-.77,6.53c4.72-.33,10.2-1.69,13.63-3.58a31.41,31.41,0,0,0,6.15-4.49c.52,6.12.85,12.26.85,14.56a13.65,13.65,0,0,0,.19,2.31v45.55a5.76,5.76,0,0,0,11.52,0V111.21c2.25-1.18,4.15-3.48,5-7.93,1.35-11.32.75-18-2.3-28.22C123.5,67.63,117.75,65.35,113.75,66.49ZM123,103.88c-.22.86-.46,1.73-.71,2.61a4.68,4.68,0,0,1-4.47,3.36,4.74,4.74,0,0,1-1.3-.18,4.66,4.66,0,0,1-3.18-5.77q.64-2.2,1.11-4.3a51.06,51.06,0,0,0,1.39-11.2,32.48,32.48,0,0,0-.25-4,15.65,15.65,0,0,0-2.17-6.78l0,0a4.57,4.57,0,0,1-1.07-2.39,4.66,4.66,0,0,1,8.06-3.77s4.81,5.09,4.78,17A62.78,62.78,0,0,1,123,103.88Z" style="fill: #37164a"/>
          <path d="M122,102a59.73,59.73,0,0,0,1.73-13.61c0-11.21-4.36-16-4.41-16.09a3.26,3.26,0,0,0-3.85-.76,3.31,3.31,0,0,0-.77.52,3.28,3.28,0,0,0-.28,4.55l.11.15a16,16,0,0,1,2.25,6.35,32.42,32.42,0,0,1,.42,5.28A51.74,51.74,0,0,1,116,99.22c-.36,1.65-.79,3.35-1.28,5.06A3.26,3.26,0,1,0,121,106.1C121.36,104.73,121.72,103.35,122,102Z" style="fill: #37164a"/>
          <circle cx="111.35" cy="54.12" r="9.96" transform="translate(33.38 150.29) rotate(-76.89)" style="fill: #37164a"/>
        </g>
        <g>
          <circle cx="67.46" cy="54.73" r="9.96" transform="translate(-1.14 108.02) rotate(-76.89)" style="fill: #37164a"/>
          <g>
            <path d="M66,89.69q.53.46,1.08.9c5,4,11.1,6.31,18.69,7.19a3.43,3.43,0,0,0,.75,0,3.26,3.26,0,0,0,0-6.48c-8.88-1.1-15-4.17-19.12-9.64" style="fill: #37164a"/>
            <g>
              <path d="M66.49,111s.19-5.31.19-6.1c0-2.3.33-8.44.85-14.56l1.08-10.08c.07-.5.15-1,.22-1.42,1.28-5-.55-11.13-4.55-12.27s-9.75,1.15-12,8.57C49.23,85.34,48.63,92,50,103.34c.85,4.45,2.75,6.76,5,7.94A20.75,20.75,0,0,0,66.49,111ZM55,138.48v14.27a5.76,5.76,0,1,0,11.52,0V138.48Zm-2.11-50c0-12,4.75-17,4.78-17a4.65,4.65,0,0,1,8.06,3.77,4.57,4.57,0,0,1-1.07,2.39l0,0a15.62,15.62,0,0,0-2.17,6.78,32.22,32.22,0,0,0-.25,4,51.1,51.1,0,0,0,1.39,11.2q.48,2.1,1.11,4.3a4.67,4.67,0,0,1-4.48,6,4.68,4.68,0,0,1-4.47-3.37c-.25-.88-.49-1.75-.71-2.61A62.76,62.76,0,0,1,52.87,88.46Z" style="fill: #37164a"/>
              <path d="M52.83,88.46c0-12,4.75-17,4.78-17a4.65,4.65,0,0,1,8.06,3.77,4.57,4.57,0,0,1-1.07,2.39l0,0a15.62,15.62,0,0,0-2.17,6.78,32.09,32.09,0,0,0-.25,4,51.14,51.14,0,0,0,1.39,11.2q.48,2.1,1.11,4.3a4.67,4.67,0,0,1-4.48,6,4.68,4.68,0,0,1-4.47-3.37c-.25-.88-.49-1.75-.71-2.61A62.77,62.77,0,0,1,52.83,88.46Z" style="fill: #fff"/>
              <path d="M56,102a59.77,59.77,0,0,1-1.74-13.61c0-11.21,4.36-16,4.41-16.09a3.26,3.26,0,0,1,4.9,4.31l-.11.15a16,16,0,0,0-2.25,6.35,32.36,32.36,0,0,0-.42,5.28,51.84,51.84,0,0,0,1.27,10.83c.36,1.65.79,3.35,1.28,5.06a3.26,3.26,0,1,1-6.26,1.81C56.68,104.73,56.32,103.35,56,102Z" style="fill: #37164a"/>
              <polygon points="45.41 136.52 44.77 135.88 44.77 125.52 46.39 127.14 58.27 127.14 58.27 129.63 63.44 129.63 63.44 127.14 74.11 127.14 76.72 124.53 76.72 135.88 76.08 136.52 45.41 136.52" style="fill: #37164a"/>
              <rect x="59.47" y="123.32" width="2.77" height="5.17" style="fill: #37164a"/>
              <path d="M63.57,124.53v-2.37H58.36v2.37H47l-2.78-2.39V113.9L45,113H55l.06-.11a.59.59,0,0,0,.06-.26V109.5a.89.89,0,0,1,.89-.89h9.74a.89.89,0,0,1,.89.89v3.18a.57.57,0,0,0,.06.26l.06.11h9.93l.86.86v7.21l-3.81,3.42Zm-6.43-14.24a.58.58,0,0,0-.57.57v1.81a.58.58,0,0,0,.06.26l.06.11H65l.06-.11a.57.57,0,0,0,.06-.26v-1.81a.58.58,0,0,0-.57-.57Z" style="fill: #37164a"/>
            </g>
          </g>
        </g>
      </g>
    </g>
  </g>
</svg>
