<svg id="Layer_1" data-name="Layer 1" xmlns="http://www.w3.org/2000/svg" viewBox="18.7 16.7 141 141">
  <title>W@W_timeline</title>
  <g>
    <g>
      <g>
        <path d="M159.27,87.28a70,70,0,1,1-70-70,70,70,0,0,1,70,70" style="fill: #fff;fill-rule: evenodd"/>
        <path d="M159.27,87.28a70,70,0,1,1-70-70,70,70,0,0,1,70,70" style="fill: #fff;fill-rule: evenodd"/>
      </g>
      <path d="M126.71,120.47a3.57,3.57,0,0,1-.65-.06,5,5,0,0,1-1.86-.77c-2,.8-3.93,0-5-2.12-1.17-2.33-1.24-5.39,1.38-8.8l1.12.36a7.31,7.31,0,0,0-1.18,7.39,2.42,2.42,0,0,0,2.05,1.51,6.42,6.42,0,0,1-.62-1.23,5.48,5.48,0,0,1,.1-4.22l.08-.16.11-.11a1.8,1.8,0,0,1,2.43-.29,5.18,5.18,0,0,1,1.73,4.35,4.22,4.22,0,0,1-.6,2,3,3,0,0,0,.5.13,3.74,3.74,0,0,0,3.62-1.77l.22-.4a4.61,4.61,0,0,1-1.55-2.33c-.46-2,.14-3.11.85-3.46.89-.45,2,.17,2.5,1.41a5.15,5.15,0,0,1,.35,1.71,6,6,0,0,1-.1,1.66,5.52,5.52,0,0,0,2.56.13c2.42-.33,4.1-2.64,4.72-4.78a3.59,3.59,0,0,1-2.53-3.85c.18-1.08,1-1.78,1.79-1.65,1.59.26,2.57,1.76,2.55,3.9,0,0,0,.05,0,.07a2.35,2.35,0,0,0,1.31-.21c1.8-.88,2.49-2.71,2.07-5.43a6.69,6.69,0,0,0-.94-2.26l-.12-.2a3.94,3.94,0,0,1-1.49.9,3.86,3.86,0,0,1-3.14-.45,2.78,2.78,0,0,1-1.36-2.14,2.48,2.48,0,0,1,1.88-2.77c1.27-.26,2.84.53,4.07,1.7a6.33,6.33,0,0,0,.49-1.31,6.22,6.22,0,0,0-.85-5,8.45,8.45,0,0,0-3.9-2.93A7.31,7.31,0,0,1,138,90.42l-.11.08c-1.9,1.1-3.37,1.23-4.14.36a2,2,0,0,1-.39-1.87,3.09,3.09,0,0,1,2.68-2.2,5.76,5.76,0,0,1,2.59,0,4.43,4.43,0,0,0,.36-1.27,3.45,3.45,0,0,0-.55-2.35c-.9-1.29-3-1.28-4.19-.39a1.91,1.91,0,0,0-.73,2.22l-1.47.65a4.11,4.11,0,0,1,1.4-4.57,4.44,4.44,0,0,1,6.17.81,5.84,5.84,0,0,1,.9,3.92,6.82,6.82,0,0,1-.36,1.48,10.05,10.05,0,0,1,4.17,3.36,8.54,8.54,0,0,1,1.15,6.88,8,8,0,0,1-.82,2.06c.1.15.19.3.28.45a8.76,8.76,0,0,1,1.21,3c.58,3.69-.5,6.41-3,7.65a3.7,3.7,0,0,1-2.15.32c-.77,3-3.05,5.9-6.06,6.31a6.44,6.44,0,0,1-3.36-.27q-.19.39-.41.78a5.23,5.23,0,0,1-4.43,2.59m-3.41-6.75a3.06,3.06,0,0,0,0,2.19,4.2,4.2,0,0,0,1,1.5,1.78,1.78,0,0,0,.51-1.24,3.06,3.06,0,0,0-.92-2.46.46.46,0,0,0-.61,0m6.73-1.39h0a2.1,2.1,0,0,0,.06,1,2.54,2.54,0,0,0,.66,1.08,3.37,3.37,0,0,0,0-.65,2.92,2.92,0,0,0-.18-1c-.15-.36-.4-.49-.51-.49m8.47-5.23s0,0-.06.1c-.06.33.25,1,1.25,1.46-.1-1.39-.9-1.52-1.18-1.57ZM140,98.46l-.26,0c-.41.09-.61.31-.59.65,0,.05.05.25.54.57a2.63,2.63,0,0,0,2,.28,2.35,2.35,0,0,0,.68-.36A4.21,4.21,0,0,0,140,98.46m-5.06-9c.26.06.93.08,2.27-.69l.14-.12a4.11,4.11,0,0,0-1,.11,2,2,0,0,0-1.37.7" style="fill: #cdc6d1"/>
      <path d="M108.59,72.24a3.13,3.13,0,0,0,.21,3.08c1.87,2.69,18.9,11.19,22.85,12.33,1.26.36,3.16.46,3.81-1,1.76-2.44,2.46-4.76,1.45-6.46-2.32-1.31-21.08-10.79-23.8-12.2-1.66-.86-4.09,3.08-4.52,4.27" style="fill: #37164a;fill-rule: evenodd"/>
      <path d="M137.66,73a14,14,0,0,0-5-9.1A12.36,12.36,0,0,0,122,61.56a13.26,13.26,0,0,0-7.95,5.15c3.62,1.56,22.12,11,23,11.61a14.76,14.76,0,0,0,.63-3.76,15.53,15.53,0,0,0-.05-1.57" style="fill: #37164a"/>
      <path d="M121.55,58.93a13.71,13.71,0,0,1,11.73,2.61,14.77,14.77,0,0,1,2.8,3c-.2-.75-.55-2-1-3.31-1-2.79-1.87-3.87-3.95-4.62C127.61,55.29,124,54.1,120.4,53,96.73,46,79.94,46,56.28,53c-3.58,1.07-7.21,2.26-10.72,3.53-2.08.75-3,1.83-3.95,4.62-.54,1.51-.94,3-1.1,3.65a14.7,14.7,0,0,1,3-3.3,13.72,13.72,0,0,1,11.73-2.61,14.66,14.66,0,0,1,8.5,5.3c1-3.39,5.18-3.07,8.51-3,10.77.09,21.34.09,32.11,0,3.37,0,7.6-.35,8.54,3.2a14.57,14.57,0,0,1,8.61-5.46" style="fill: #37164a"/>
      <path d="M122.74,108.76v-1.28h0v-.2c-11.7.43-23.39.64-35,.64-11.83,0-35.15-.76-35.14-.69l.27,1.56c-.07,2.5-.33,6.78-.32,9.22-.37,5.1.57,8.24,1.44,8.34a108.06,108.06,0,0,0,11,.1l2.33-2.69H108l2.32,2.69a108,108,0,0,0,11-.1c.88-.11,1.83-3.27,1.44-8.42,0-2.29,0-6.13,0-9.17" style="fill: #37164a"/>
      <path d="M122.51,104.77a2.38,2.38,0,0,0-.42-.49c-.23-.37-8.56-8.38-10-11.94-3.4-8.17-3.89-21.9-4.83-30.69-.29-2.76-6.84-2.9-7.17.11q-.33,3-.66,5.91H75.91l-.66-5.91c-.33-3-6.88-2.87-7.17-.11-.94,8.76-.29,22.91-4.78,30.61-2.74,4.7-8.62,10-10.28,12.49,22.77.86,46,.86,69.49,0" style="fill: #37164a"/>
      <path d="M87.88,97.71c10.6,0,19.25-6.27,19.25-14s-8.65-14-19.25-14-19.25,6.28-19.25,14,8.65,14,19.25,14" style="fill: #fff;fill-rule: evenodd"/>
      <path d="M88,88.71c4.44,0,8.07-2.75,8.07-6.11S92.46,76.48,88,76.48,80,79.23,80,82.6s3.62,6.11,8.07,6.11" style="fill: #37164a;fill-rule: evenodd"/>
      <path d="M99.15,92.42c1.69,0,3.06-1,3.06-2.32s-1.37-2.32-3.06-2.32-3.06,1-3.06,2.32,1.37,2.32,3.06,2.32" style="fill: #cdc6d1;fill-rule: evenodd"/>
      <path d="M92.56,95.59c1.69,0,3.06-1,3.06-2.32s-1.38-2.32-3.06-2.32-3.06,1-3.06,2.32,1.38,2.32,3.06,2.32" style="fill: #cdc6d1;fill-rule: evenodd"/>
      <path d="M84.93,96c1.69,0,3.06-1,3.06-2.32s-1.37-2.32-3.06-2.32-3.06,1-3.06,2.32S83.24,96,84.93,96" style="fill: #cdc6d1;fill-rule: evenodd"/>
      <path d="M78.09,93.37c1.69,0,3.06-1,3.06-2.32s-1.37-2.32-3.06-2.32S75,89.78,75,91.06s1.37,2.32,3.06,2.32" style="fill: #cdc6d1;fill-rule: evenodd"/>
      <path d="M74.17,88.62c1.69,0,3.06-1,3.06-2.32S75.86,84,74.17,84s-3.06,1-3.06,2.32,1.37,2.32,3.06,2.32" style="fill: #cdc6d1;fill-rule: evenodd"/>
      <path d="M74.09,83.28c1.69,0,3.06-1,3.06-2.32s-1.38-2.32-3.06-2.32S71,79.69,71,81s1.37,2.32,3.06,2.32" style="fill: #cdc6d1;fill-rule: evenodd"/>
      <path d="M77.67,78.36c1.69,0,3.06-1,3.06-2.32s-1.38-2.32-3.06-2.32-3.06,1-3.06,2.32,1.37,2.32,3.06,2.32" style="fill: #cdc6d1;fill-rule: evenodd"/>
      <path d="M83.86,75.28c1.56,0,2.82-1,2.82-2.14S85.42,71,83.86,71,81,72,81,73.14s1.27,2.14,2.83,2.14" style="fill: #cdc6d1;fill-rule: evenodd"/>
      <path d="M91.11,74.95c1.56,0,2.83-1,2.83-2.14s-1.27-2.14-2.83-2.14-2.83,1-2.83,2.14,1.27,2.14,2.83,2.14" style="fill: #cdc6d1;fill-rule: evenodd"/>
      <path d="M97.41,77.49c1.55,0,2.82-1,2.82-2.14S99,73.2,97.41,73.2s-2.83,1-2.83,2.14,1.27,2.14,2.83,2.14" style="fill: #cdc6d1;fill-rule: evenodd"/>
      <path d="M106.79,88c.11-1,.14-2.45.16-3.5a12.17,12.17,0,0,1-6.3-.84c-2.51-1.08-1.2-2,.82-1.48,2.33.55,3.73.19,6.39.07,1,2.32,0,5-1.08,5.75" style="fill: #37164a;fill-rule: evenodd"/>
    </g>
    <path d="M67.14,71.75a3.13,3.13,0,0,1-.21,3.08C65.06,77.53,48,86,44.08,87.16c-1.26.36-3.16.46-3.81-1-1.76-2.44-2.46-4.76-1.44-6.46,2.31-1.31,21.08-10.79,23.8-12.2,1.66-.86,4.09,3.08,4.52,4.27" style="fill: #37164a;fill-rule: evenodd"/>
    <path d="M54.17,61.39a12.14,12.14,0,0,0-10.39,2.3,13.75,13.75,0,0,0-5,9.73,12.82,12.82,0,0,0,.52,4.44c.85-.57,19.38-10.06,22.68-11.45a13.05,13.05,0,0,0-7.77-5" style="fill: #37164a"/>
  </g>
</svg>
