<svg id="Layer_1" data-name="Layer 1" xmlns="http://www.w3.org/2000/svg" viewBox="18.7 16.7 141 141">
  <title>W@W_timeline</title>
  <g>
    <path d="M161.25,87.28a70,70,0,1,1-70-70,70,70,0,0,1,70,70" style="fill: #fff;fill-rule: evenodd"/>
    <g>
      <g>
        <polygon points="133.07 98.31 49.44 98.31 40.48 116.23 43.46 119.22 139.05 119.22 142.03 116.23 133.07 98.31" style="fill: #37164a"/>
        <path d="M129.75,47h-77a3.33,3.33,0,0,0-3.32,3.32V94.83h83.63V50.36A3.33,3.33,0,0,0,129.75,47" style="fill: #37164a"/>
        <rect x="56.2" y="53.43" width="35.01" height="35.01" rx="1.64" ry="1.64" style="fill: #fff"/>
        <!-- <g>
          <polygon points="86.17 65.69 81.89 65.69 82.16 64.95 86.17 64.95 86.17 65.69" style="fill: #826f8b"/>
          <polygon points="74.76 64.95 78.73 64.95 78.99 65.69 74.76 65.69 74.76 64.95" style="fill: #826f8b"/>
          <path d="M71.6,65a2.86,2.86,0,0,1,1.71.74H66.1V65Z" style="fill: #826f8b"/>
          <rect x="60.44" y="64.95" width="5.01" height="0.74" style="fill: #826f8b"/>
          <polygon points="86.17 67.08 81.4 67.08 81.66 66.34 86.17 66.34 86.17 67.08" style="fill: #826f8b"/>
          <polygon points="79.49 67.08 74.76 67.08 74.76 66.34 79.23 66.34 79.49 67.08" style="fill: #826f8b"/>
          <path d="M73.87,66.34a1.9,1.9,0,0,1,.21.74h-8v-.74Z" style="fill: #826f8b"/>
          <rect x="60.44" y="66.34" width="5.01" height="0.74" style="fill: #826f8b"/>
          <polygon points="80.91 68.47 81.17 67.73 84.76 67.73 84.76 68.47 80.91 68.47" style="fill: #826f8b"/>
          <polygon points="79.72 67.75 79.98 68.49 76.17 68.49 76.17 67.75 79.72 67.75" style="fill: #826f8b"/>
          <path d="M74.14,67.73a2.43,2.43,0,0,1-.11.74H71.85v-.74Z" style="fill: #826f8b"/>
          <rect x="61.84" y="67.73" width="2.15" height="0.73" style="fill: #826f8b"/>
          <rect x="67.55" y="67.73" width="2.15" height="0.74" style="fill: #826f8b"/>
          <polygon points="78.28 69.26 78.28 69.82 76.17 69.82 76.17 69.09 80.2 69.09 80.45 69.77 80.69 69.09 84.76 69.09 84.76 69.82 82.65 69.82 82.65 69.26 82.46 69.82 78.48 69.82 78.28 69.26" style="fill: #826f8b"/>
          <path d="M67.55,69.09h6.17a2.78,2.78,0,0,1-.61.74H67.55Z" style="fill: #826f8b"/>
          <rect x="61.84" y="69.09" width="2.15" height="0.74" style="fill: #826f8b"/>
          <rect x="82.65" y="70.47" width="2.11" height="0.74" style="fill: #826f8b"/>
          <polygon points="78.28 70.47 76.17 70.47 76.17 71.21 78.28 71.21 78.28 70.47" style="fill: #826f8b"/>
          <path d="M82.23,70.47s-.25.73-.26.74H79l-.26-.74Z" style="fill: #826f8b"/>
          <path d="M67.55,70.47H73.1a3.61,3.61,0,0,1,.66.74H67.55Z" style="fill: #826f8b"/>
          <polygon points="63.99 71.21 63.99 70.47 61.84 70.47 61.84 71.21 63.99 71.21" style="fill: #826f8b"/>
          <rect x="82.65" y="71.86" width="2.11" height="0.74" style="fill: #826f8b"/>
          <rect x="76.17" y="71.86" width="2.12" height="0.74" style="fill: #826f8b"/>
          <path d="M81.48,72.6s.26-.74.26-.74H79.19s.26.74.26.74Z" style="fill: #826f8b"/>
          <polygon points="67.55 72.59 67.55 71.86 69.73 71.86 69.73 72.59 67.55 72.59" style="fill: #826f8b"/>
          <path d="M74.06,71.86a2.15,2.15,0,0,1,.14.74H71.89v-.74Z" style="fill: #826f8b"/>
          <rect x="61.84" y="71.86" width="2.15" height="0.74" style="fill: #826f8b"/>
          <rect x="82.65" y="73.22" width="3.52" height="0.74" style="fill: #826f8b"/>
          <rect x="74.76" y="73.22" width="3.53" height="0.74" style="fill: #826f8b"/>
          <polygon points="81 73.95 79.93 73.95 79.67 73.22 81.25 73.22 81 73.95" style="fill: #826f8b"/>
          <path d="M60.44,73.22V74h5v-.73Z" style="fill: #826f8b"/>
          <path d="M74.11,73.22a1.57,1.57,0,0,1-.28.74H66.1v-.74Z" style="fill: #826f8b"/>
          <polygon points="80.52 75.34 80.42 75.34 80.17 74.6 80.77 74.6 80.52 75.34" style="fill: #826f8b"/>
          <rect x="82.65" y="74.6" width="3.52" height="0.74" style="fill: #826f8b"/>
          <path d="M66.1,75.34V74.6h7.25a2.74,2.74,0,0,1-1.87.74H66.1" style="fill: #826f8b"/>
          <rect x="74.76" y="74.6" width="3.53" height="0.74" style="fill: #826f8b"/>
          <polygon points="65.45 74.61 65.45 75.34 60.44 75.34 60.44 74.61 65.45 74.61" style="fill: #826f8b"/>
        </g> -->
        <rect x="114.51" y="57.86" width="10.84" height="26.01" style="fill: #b5aaba"/>
        <rect x="114.51" y="57.86" width="10.84" height="26.01" style="fill: none;stroke: #fff;stroke-miterlimit: 10;stroke-width: 0.746551676273346px"/>
        <rect x="100.69" y="57.86" width="10.84" height="26.01" style="fill: #b5aaba"/>
        <rect x="100.69" y="57.86" width="10.84" height="26.01" style="fill: none;stroke: #fff;stroke-miterlimit: 10;stroke-width: 0.746551676273346px"/>
        <polygon points="107.93 74.3 106.64 74.3 106.64 80.62 105.25 80.62 105.25 74.3 103.97 74.3 103.97 67.42 105.25 67.42 105.25 61.1 106.64 61.1 106.64 67.42 107.93 67.42 107.93 74.3" style="fill: #37164a"/>
        <polygon points="121.91 67.42 120.62 67.42 120.62 61.1 119.23 61.1 119.23 67.42 117.94 67.42 117.94 74.3 119.23 74.3 119.23 80.62 120.62 80.62 120.62 74.3 121.91 74.3 121.91 67.42" style="fill: #37164a"/>
        <path d="M123.53,102l2.39,0a1,1,0,0,1,.88.49l.79,1.74c.12.27-.08.48-.44.48h-2.38a1,1,0,0,1-.88-.49l-.79-1.75c-.12-.27.08-.48.44-.48" style="fill: #b5aaba"/>
        <path d="M118.68,104.2l-.8-1.75c-.12-.27.07-.49.44-.48h2.39a1,1,0,0,1,.89.49l.79,1.75c.12.27-.07.48-.44.48h-2.38a1,1,0,0,1-.88-.49" style="fill: #b5aaba"/>
        <path d="M120.43,108.53l-.8-1.76c-.12-.27.07-.49.44-.48h2.38a1,1,0,0,1,.88.49l.8,1.75c.12.27-.08.49-.44.49h-2.38a1,1,0,0,1-.88-.49" style="fill: #b5aaba"/>
        <path d="M125.7,113.63h-2.37a1,1,0,0,1-.88-.49l-.8-1.75c-.12-.27.08-.49.44-.49h2.37a1,1,0,0,1,.88.49l.8,1.75c.12.27-.07.49-.44.49" style="fill: #b5aaba"/>
        <path d="M125.62,108.55l-.79-1.75c-.12-.27.08-.49.44-.48h2.38a1,1,0,0,1,.88.49l.79,1.75c.12.27-.08.48-.44.48H126.5a1,1,0,0,1-.88-.49" style="fill: #b5aaba"/>
        <path d="M130.87,113.63H128.5a1,1,0,0,1-.88-.49l-.79-1.75c-.12-.27.07-.49.44-.48h2.37a1,1,0,0,1,.88.49l.79,1.74c.12.27-.07.49-.44.49" style="fill: #b5aaba"/>
        <path d="M109.31,102h1.91a1.32,1.32,0,0,1,1.14.66l.64,1.48c.16.36-.11.66-.6.66h-2a1.28,1.28,0,0,1-1.15-.66l-.56-1.48c-.14-.37.13-.66.61-.66" style="fill: #b5aaba"/>
        <path d="M104.22,102h1.91a1.2,1.2,0,0,1,1.09.66l.53,1.48c.13.36-.16.66-.66.66h-2a1.17,1.17,0,0,1-1.09-.66l-.45-1.48c-.11-.37.18-.66.66-.66" style="fill: #b5aaba"/>
        <path d="M97.78,106.94l.31,1.48c.08.36-.28.66-.8.66H95.19a1,1,0,0,1-1-.66l-.23-1.48c-.06-.37.3-.66.8-.66h2a1.05,1.05,0,0,1,1,.66" style="fill: #b5aaba"/>
        <path d="M94,102h1.91a1,1,0,0,1,1,.66l.31,1.48c.08.36-.26.66-.75.66h-2a1,1,0,0,1-1-.66l-.23-1.48c-.06-.37.28-.66.75-.66" style="fill: #b5aaba"/>
        <path d="M52.77,111.54,52.21,113a1.38,1.38,0,0,1-1.24.66H48.76c-.54,0-.86-.3-.71-.66l.64-1.48a1.41,1.41,0,0,1,1.24-.66h2.13c.52,0,.84.3.7.66" style="fill: #b5aaba"/>
        <path d="M58.56,111.53,58.11,113a1.26,1.26,0,0,1-1.19.66h-2.2c-.55,0-.88-.3-.76-.66l.53-1.48a1.3,1.3,0,0,1,1.19-.67h2.13c.53,0,.87.3.76.67" style="fill: #b5aaba"/>
        <path d="M64.28,111.53,63.94,113a1.16,1.16,0,0,1-1.15.66H60.59c-.54,0-.9-.3-.8-.66l.42-1.48a1.19,1.19,0,0,1,1.14-.67h2.13c.53,0,.89.3.8.67" style="fill: #b5aaba"/>
        <path d="M98.07,113.67H66.47c-.55,0-.93-.3-.85-.66l.31-1.47a1.1,1.1,0,0,1,1.1-.67H97.51a1.1,1.1,0,0,1,1.1.67l.31,1.47c.08.37-.31.66-.85.66" style="fill: #b5aaba"/>
        <path d="M98.77,104.1l-.34-1.48c-.09-.36.23-.66.7-.66H101a1.1,1.1,0,0,1,1,.66l.42,1.48c.1.37-.21.66-.7.66h-2a1.06,1.06,0,0,1-1-.66" style="fill: #b5aaba"/>
        <path d="M99.68,108.42l-.34-1.48c-.08-.36.25-.66.76-.66h2a1.15,1.15,0,0,1,1.09.66l.42,1.48c.1.36-.24.66-.76.66h-2.1a1.11,1.11,0,0,1-1.1-.66" style="fill: #b5aaba"/>
        <path d="M103.94,113.67h-2.21a1.16,1.16,0,0,1-1.14-.66l-.34-1.47c-.09-.37.27-.67.8-.67h2.13a1.19,1.19,0,0,1,1.15.67l.42,1.47c.11.37-.26.66-.8.66" style="fill: #b5aaba"/>
        <path d="M105.22,108.42l-.45-1.48c-.11-.36.21-.66.7-.66h7.4a1.36,1.36,0,0,1,1.19.66l.64,1.48c.16.36-.14.66-.65.66h-7.69a1.21,1.21,0,0,1-1.14-.66" style="fill: #b5aaba"/>
        <path d="M109.82,113.67h-2.21a1.25,1.25,0,0,1-1.19-.66l-.46-1.47c-.11-.37.23-.67.76-.67h2.13a1.31,1.31,0,0,1,1.2.67l.53,1.47c.13.37-.21.66-.75.66" style="fill: #b5aaba"/>
        <path d="M115.7,113.67h-2.21a1.37,1.37,0,0,1-1.24-.66l-.56-1.47c-.14-.37.18-.67.7-.67h2.13a1.42,1.42,0,0,1,1.24.67l.64,1.47c.16.37-.16.66-.7.66" style="fill: #b5aaba"/>
        <path d="M92.34,106.94l.2,1.48c.05.36-.33.66-.85.66H89.6c-.52,0-1-.3-1-.66l-.12-1.48c0-.37.35-.66.85-.66h2a1,1,0,0,1,1,.66" style="fill: #b5aaba"/>
        <path d="M88.95,102h1.91a.92.92,0,0,1,.95.66l.2,1.48c.05.36-.31.66-.8.66h-2a.89.89,0,0,1-1-.66l-.12-1.48c0-.37.33-.66.8-.66" style="fill: #b5aaba"/>
        <path d="M87,108.42c0,.36-.38.66-.9.66H84c-.52,0-.94-.3-.95-.66l0-1.48c0-.36.4-.66.9-.66h2c.5,0,.93.3.95.66Z" style="fill: #b5aaba"/>
        <path d="M83.86,102h1.91a.84.84,0,0,1,.9.66l.09,1.48c0,.36-.36.66-.85.66h-2c-.49,0-.9-.3-.9-.66l0-1.48a.77.77,0,0,1,.85-.66" style="fill: #b5aaba"/>
        <path d="M77.87,102.63a.84.84,0,0,1,.9-.66h1.91a.77.77,0,0,1,.85.66l0,1.48c0,.36-.41.66-.9.66h-2c-.49,0-.87-.3-.85-.66Z" style="fill: #b5aaba"/>
        <path d="M77.62,106.94c0-.37.45-.66.95-.66h2c.5,0,.91.3.9.66l0,1.48c0,.36-.43.66-1,.66h-2.1c-.52,0-.92-.3-.9-.66Z" style="fill: #b5aaba"/>
        <path d="M72.52,104.1l.2-1.48a.93.93,0,0,1,.95-.66h1.91c.47,0,.83.3.8.66l-.12,1.48a.89.89,0,0,1-1,.66h-2c-.49,0-.85-.3-.8-.66" style="fill: #b5aaba"/>
        <path d="M72.19,106.94a1,1,0,0,1,1-.66h2c.5,0,.88.3.85.66l-.12,1.48c0,.36-.48.66-1,.66h-2.1c-.52,0-.9-.3-.85-.66Z" style="fill: #b5aaba"/>
        <path d="M67.27,104.1l.31-1.48a1,1,0,0,1,1-.66h1.91c.47,0,.81.3.75.66L71,104.1a1,1,0,0,1-1,.66H68c-.49,0-.83-.3-.75-.66" style="fill: #b5aaba"/>
        <path d="M66.45,108.42l.31-1.48a1.05,1.05,0,0,1,1-.66h2c.5,0,.86.3.8.66l-.24,1.48a1,1,0,0,1-1,.66h-2.1c-.52,0-.88-.3-.8-.66" style="fill: #b5aaba"/>
        <path d="M56.78,104.1l.53-1.48a1.21,1.21,0,0,1,1.1-.66h1.91c.47,0,.77.3.65.66l-.45,1.48a1.17,1.17,0,0,1-1.1.66h-2c-.49,0-.79-.3-.65-.66" style="fill: #b5aaba"/>
        <path d="M51.53,104.1l.64-1.48a1.32,1.32,0,0,1,1.14-.66h1.91c.47,0,.75.3.61.66l-.56,1.48a1.27,1.27,0,0,1-1.14.66h-2c-.49,0-.76-.3-.61-.66" style="fill: #b5aaba"/>
        <path d="M59.31,108.42a1.21,1.21,0,0,1-1.15.66H50.48c-.52,0-.81-.3-.65-.66l.64-1.48a1.36,1.36,0,0,1,1.19-.66h7.4c.5,0,.82.3.71.66Z" style="fill: #b5aaba"/>
        <path d="M66.44,106.41l-.34,1.48a1.12,1.12,0,0,1-1.1.66h-2.1c-.52,0-.86-.3-.75-.66l.42-1.48a1.15,1.15,0,0,1,1.1-.66h2c.5,0,.84.3.75.66" style="fill: #b5aaba"/>
        <path d="M64.72,104.77h-2c-.49,0-.81-.3-.7-.66l.42-1.48a1.11,1.11,0,0,1,1-.66H65.4c.47,0,.79.3.71.66l-.34,1.48a1.06,1.06,0,0,1-1,.66" style="fill: #b5aaba"/>
      </g>
      <path d="M128.86,102.14l2.38,0a1,1,0,0,1,.88.49l.79,1.74c.12.27-.08.48-.44.48h-2.38a1,1,0,0,1-.88-.49l-.79-1.74c-.12-.27.08-.48.44-.48" style="fill: #b5aaba"/>
      <path d="M130.93,108.66l-.79-1.74c-.12-.26.08-.48.44-.48H133a1,1,0,0,1,.88.48l.79,1.74c.12.27-.08.48-.44.48h-2.38a1,1,0,0,1-.88-.49" style="fill: #b5aaba"/>
      <path d="M136.16,113.73H133.8a1,1,0,0,1-.88-.49l-.79-1.74c-.12-.27.08-.48.44-.48h2.37a1,1,0,0,1,.88.48l.78,1.73c.12.27-.08.49-.44.49" style="fill: #b5aaba"/>
    </g>
  </g>
</svg>
