<svg id="Layer_1" data-name="Layer 1" xmlns="http://www.w3.org/2000/svg" xmlns:xlink="http://www.w3.org/1999/xlink" viewBox="18.7 16.7 141 141">
  <defs>
    <clipPath id="clip-path">
      <path d="M157.51,86.29a69,69,0,1,1-69-69,69,69,0,0,1,69,69" style="fill: #fff;clip-rule: evenodd"/>
    </clipPath>
    <clipPath id="clip-path-2">
      <path d="M-49,85.72a68.43,68.43,0,0,1-68.44,68.43,68.43,68.43,0,0,1-68.43-68.43,68.43,68.43,0,0,1,68.43-68.44A68.44,68.44,0,0,1-49,85.72" style="fill: #fff;clip-rule: evenodd"/>
    </clipPath>
  </defs>
  <title>W@W_timeline</title>
  <g>
    <path d="M157.51,86.29a69,69,0,1,1-69-69,69,69,0,0,1,69,69" style="fill: #fff;fill-rule: evenodd"/>
    <g style="clip-path: url(#clip-path)">
      <g>
        <path d="M65.21,107h55.28l-6.15-30.75-8.47,1.9-.83-3.9,15.6-3.43.83,3.9-.85.18L127,107h1a4.6,4.6,0,0,1,0,9.21H65.21a4.6,4.6,0,0,1,0-9.21Z" style="fill: #cdc6d1"/>
        <path d="M99,51.79a6.43,6.43,0,1,1,7.69-4.8A6.43,6.43,0,0,1,99,51.79Z" style="fill: #cdc6d1"/>
        <path d="M94.95,54.89c-2.38-.18-3.4,2.22-3.4,3.83h0v0a21.38,21.38,0,0,0,1,5,15,15,0,0,0,5.29,7.24A15.48,15.48,0,0,0,98,74.83a13,13,0,0,1,0,1.67,64.36,64.36,0,0,1,5.44,24.66,3.64,3.64,0,0,1-3.51,3.77h-.13a3.64,3.64,0,0,1-3.63-3.52,62.29,62.29,0,0,0-2.44-15.57,17.49,17.49,0,0,1-5,5.1,22.39,22.39,0,0,1-9.65,3.43,3.64,3.64,0,0,1-1-7.22,15.21,15.21,0,0,0,6.57-2.27,10.41,10.41,0,0,0,4.07-5.31,12.75,12.75,0,0,0,.53-2,6.68,6.68,0,0,1-1.68-3.55,32.33,32.33,0,0,1,1.65-16.19c1.46-4.27,5.06-5.62,7.54-5s3.57,4.09,2.74,7c-.16.82-.23,1.16-.42,2.1a7.15,7.15,0,0,1-1.11-4A3.06,3.06,0,0,0,94.95,54.89Z" style="fill: #cdc6d1"/>
        <path d="M98.09,69.43a13.82,13.82,0,0,1-4.55-6.65,15.35,15.35,0,0,1-.78-4.35,2.12,2.12,0,1,1,4.25,0,11.68,11.68,0,0,0,1.47,5.08l.15.25,0,.07a8.62,8.62,0,0,0,2.88,2.85,12.26,12.26,0,0,0,6.17,1.58,2.13,2.13,0,0,1,0,4.26h-.05a16.29,16.29,0,0,1-8.47-2.32C98.79,70,98.45,69.71,98.09,69.43Z" style="fill: #cdc6d1"/>
        <path d="M14.33,124.76h86.85l-8.2-41L81.68,86.29l-1.11-5.2,20.81-4.58,1.11,5.2-1.13.24,8.56,42.8h1.27a6.14,6.14,0,0,1,0,12.27H14.33a6.14,6.14,0,0,1,0-12.27Z" style="fill: #37164a;stroke: #37164a;stroke-linecap: round;stroke-linejoin: round;stroke-width: 4.32px"/>
        <path d="M14.33,124.76h86.85l-8.2-41L81.68,86.29l-1.11-5.2,20.81-4.58,1.11,5.2-1.13.24,8.56,42.8h1.27a6.14,6.14,0,0,1,0,12.27H14.33a6.14,6.14,0,0,1,0-12.27Z" style="fill: #fff"/>
        <path d="M72.46,51.09a8.57,8.57,0,1,1,10.26-6.4A8.57,8.57,0,0,1,72.46,51.09Z" style="fill: #37164a"/>
        <path d="M67.12,55.22c-3.18-.24-4.54,3-4.54,5.11h0v0A28.66,28.66,0,0,0,63.94,67,20,20,0,0,0,71,76.62a20.77,20.77,0,0,0,.22,5.18,17.42,17.42,0,0,1,0,2.23c2.69,5.82,6.71,17,7.26,32.88a4.85,4.85,0,0,1-4.67,5h-.17a4.85,4.85,0,0,1-4.84-4.69,83.09,83.09,0,0,0-3.25-20.76,23.33,23.33,0,0,1-6.7,6.81A29.88,29.88,0,0,1,46,107.87a4.86,4.86,0,0,1-1.27-9.63,20.3,20.3,0,0,0,8.76-3,13.89,13.89,0,0,0,5.43-7.08,16.51,16.51,0,0,0,.7-2.61,8.91,8.91,0,0,1-2.24-4.73c-1-8.63-.44-13.74,2.2-21.58,2-5.69,6.75-7.49,10.06-6.67s4.76,5.46,3.65,9.33c-.21,1.1-.31,1.54-.56,2.81a9.54,9.54,0,0,1-1.48-5.38A4.08,4.08,0,0,0,67.12,55.22Z" style="fill: #37164a"/>
        <path d="M71.31,74.61a18.42,18.42,0,0,1-6.06-8.86,20.51,20.51,0,0,1-1-5.8,2.83,2.83,0,1,1,5.66,0,15.57,15.57,0,0,0,2,6.78L72,67l.06.09a11.48,11.48,0,0,0,3.83,3.8A16.33,16.33,0,0,0,84.15,73a2.84,2.84,0,0,1-.06,5.68H84a21.72,21.72,0,0,1-11.3-3.09C72.25,75.31,71.79,75,71.31,74.61Z" style="fill: #37164a"/>
        <g>
          <g>
            <path d="M95.25,68.58l3,2.6a1.08,1.08,0,0,0,1.46-1.59l-3-2.6a1.08,1.08,0,1,0-1.46,1.59Z" style="fill: #fff;stroke: #fff;stroke-miterlimit: 10;stroke-width: 2.16px"/>
            <path d="M102.84,64.76l.2,3.94a1.08,1.08,0,0,0,2.16-.07l-.2-3.93a1.08,1.08,0,1,0-2.16.07Z" style="fill: #fff;stroke: #fff;stroke-miterlimit: 10;stroke-width: 2.16px"/>
            <path d="M111.07,66.39l-2.67,2.87a1.09,1.09,0,0,0,0,1.53,1.06,1.06,0,0,0,1.51,0l2.67-2.87a1.09,1.09,0,0,0,0-1.53A1.06,1.06,0,0,0,111.07,66.39Z" style="fill: #fff;stroke: #fff;stroke-miterlimit: 10;stroke-width: 2.16px"/>
            <path d="M115.17,73.85l-3.92.14a1.1,1.1,0,0,0-1.07,1.09,1,1,0,0,0,1.07,1.05l3.92-.14a1.1,1.1,0,0,0,1.08-1.09A1,1,0,0,0,115.17,73.85Z" style="fill: #fff;stroke: #fff;stroke-miterlimit: 10;stroke-width: 2.16px"/>
            <path d="M113.11,81.86l-2.87-2.66a1.1,1.1,0,0,0-1.53,0,1,1,0,0,0,0,1.5l2.87,2.66a1.1,1.1,0,0,0,1.53,0A1,1,0,0,0,113.11,81.86Z" style="fill: #fff;stroke: #fff;stroke-miterlimit: 10;stroke-width: 2.16px"/>
          </g>
          <g>
            <path d="M95.25,68.58l3,2.6a1.08,1.08,0,0,0,1.46-1.59l-3-2.6a1.08,1.08,0,1,0-1.46,1.59Z" style="fill: #37164a"/>
            <path d="M102.84,64.76l.2,3.94a1.08,1.08,0,0,0,2.16-.07l-.2-3.93a1.08,1.08,0,1,0-2.16.07Z" style="fill: #37164a"/>
            <path d="M111.07,66.39l-2.67,2.87a1.09,1.09,0,0,0,0,1.53,1.06,1.06,0,0,0,1.51,0l2.67-2.87a1.09,1.09,0,0,0,0-1.53A1.06,1.06,0,0,0,111.07,66.39Z" style="fill: #37164a"/>
            <path d="M115.17,73.85l-3.92.14a1.1,1.1,0,0,0-1.07,1.09,1,1,0,0,0,1.07,1.05l3.92-.14a1.1,1.1,0,0,0,1.08-1.09A1,1,0,0,0,115.17,73.85Z" style="fill: #37164a"/>
            <path d="M113.11,81.86l-2.87-2.66a1.1,1.1,0,0,0-1.53,0,1,1,0,0,0,0,1.5l2.87,2.66a1.1,1.1,0,0,0,1.53,0A1,1,0,0,0,113.11,81.86Z" style="fill: #37164a"/>
          </g>
        </g>
      </g>
    </g>
  </g>
  <g>
    <path d="M-49,85.72a68.43,68.43,0,0,1-68.44,68.43,68.43,68.43,0,0,1-68.43-68.43,68.43,68.43,0,0,1,68.43-68.44A68.44,68.44,0,0,1-49,85.72" style="fill: #fff;fill-rule: evenodd"/>
    <g style="clip-path: url(#clip-path-2)">
      <path d="M136.47,111.88a1.38,1.38,0,0,0-1.68-.32c-.87.53-1.62,1.06-2.48,1.59a22.51,22.51,0,0,1-4-9.76l2.64-1.52a1.38,1.38,0,0,0,.52-1.62l-1.55-5.47c-.25-.7-.66-1.1-1.3-1.07l-4.35.39c-1.28.09-1.51.55-1.52,1.49.6,11,4.72,21.21,13.64,26.16.83.45,1.34.46,2-.62l2.43-3.64a1.31,1.31,0,0,0-.32-1.65Z" style="fill: #fff"/>
    </g>
  </g>
</svg>
