<svg id="Layer_1" data-name="Layer 1" xmlns="http://www.w3.org/2000/svg" xmlns:xlink="http://www.w3.org/1999/xlink" viewBox="18.7 16.7 141 141">
  <defs>
    <clipPath id="clip-path">
      <path d="M158.65,87.28a69,69,0,1,1-69-69,69,69,0,0,1,69,69" style="fill: none;clip-rule: evenodd"/>
    </clipPath>
    <clipPath id="clip-path-2">
      <rect x="37.38" y="52.89" width="114.34" height="70.95" style="fill: none"/>
    </clipPath>
  </defs>
  <title>W@W_timeline</title>
  <g>
    <circle cx="89.65" cy="87.28" r="69" style="fill: #fff"/>
    <circle cx="113.87" cy="83.59" r="20.67" style="fill: #fff"/>
    <g style="clip-path: url(#clip-path)">
      <rect x="18.32" y="42.44" width="148.95" height="87.62" style="fill: #37164a"/>
    </g>
    <g style="clip-path: url(#clip-path-2)">
      <path d="M56.08,92.34c-4.54,0-7.83.72-10.77,3.22a11.93,11.93,0,0,0-4.41,9.51,8.51,8.51,0,0,0,2.87,6.79,11.6,11.6,0,0,0,7.84,2.48q9.38,0,18.24-8.23t8.87-16.89A10.68,10.68,0,0,0,75.46,81,12.38,12.38,0,0,0,66.65,78a22.11,22.11,0,0,0-8.09,1.77Q53.18,87,51.13,87q-.62,0-.61-.54,0-2.15,7.54-6.72,9-12.69,9-21.78a7,7,0,0,0-.1-1.45,1.26,1.26,0,0,1-.1-.54c0-.47.2-.7.61-.7s.66.59.66,1.77a20.28,20.28,0,0,1-.66,4.41q2.91-5.27,7.68-5.27Q77,56.17,85,59a14.44,14.44,0,0,0,4.3,1,3.82,3.82,0,0,0,2.79-1.21A3.89,3.89,0,0,0,93.29,56a3.22,3.22,0,0,0-.2-1,3.24,3.24,0,0,1-.21-.75c0-.43.18-.65.54-.65s.66.47.66,1.4a7.84,7.84,0,0,1-2.95,6,9.87,9.87,0,0,1-6.74,2.61,17.08,17.08,0,0,1-6.1-1.24,24.19,24.19,0,0,0-7.22-1.83q-3,0-4.3,3.71a63.17,63.17,0,0,1-7.54,14.9A19.29,19.29,0,0,1,67.83,77a16.65,16.65,0,0,1,11.52,4.12A13.23,13.23,0,0,1,84,91.42q0,9.1-9.66,16.39a35.28,35.28,0,0,1-21.81,7.29,17,17,0,0,1-10.46-3,9.4,9.4,0,0,1-4-7.84q0-5.55,5.23-9.29a21.62,21.62,0,0,1,12.92-3.75c1.93,0,12.12.36,23.43,9.67.67.56,1.36,1.27,2.21,1.87,20.73,14.76,46.82,18.89,62.44-7.44,0,0-19.28,39.74-63.36,8.36-1-.69-1.91-1.57-3.06-2.45-5.28-4.05-11.67-7.57-17.68-8.51a33.56,33.56,0,0,0-4-.33" style="fill: #fff"/>
      <path d="M56.08,92.34c-4.54,0-7.83.72-10.77,3.22a11.93,11.93,0,0,0-4.41,9.51,8.51,8.51,0,0,0,2.87,6.79,11.6,11.6,0,0,0,7.84,2.48q9.38,0,18.24-8.23t8.87-16.89A10.68,10.68,0,0,0,75.46,81,12.38,12.38,0,0,0,66.65,78a22.11,22.11,0,0,0-8.09,1.77Q53.18,87,51.13,87q-.62,0-.61-.54,0-2.15,7.54-6.72,9-12.69,9-21.78a7,7,0,0,0-.1-1.45,1.26,1.26,0,0,1-.1-.54c0-.47.2-.7.61-.7s.66.59.66,1.77a20.28,20.28,0,0,1-.66,4.41q2.91-5.27,7.68-5.27Q77,56.17,85,59a14.44,14.44,0,0,0,4.3,1,3.82,3.82,0,0,0,2.79-1.21A3.89,3.89,0,0,0,93.29,56a3.22,3.22,0,0,0-.2-1,3.24,3.24,0,0,1-.21-.75c0-.43.18-.65.54-.65s.66.47.66,1.4a7.84,7.84,0,0,1-2.95,6,9.87,9.87,0,0,1-6.74,2.61,17.08,17.08,0,0,1-6.1-1.24,24.19,24.19,0,0,0-7.22-1.83q-3,0-4.3,3.71a63.17,63.17,0,0,1-7.54,14.9A19.29,19.29,0,0,1,67.83,77a16.65,16.65,0,0,1,11.52,4.12A13.23,13.23,0,0,1,84,91.42q0,9.1-9.66,16.39a35.28,35.28,0,0,1-21.81,7.29,17,17,0,0,1-10.46-3,9.4,9.4,0,0,1-4-7.84q0-5.55,5.23-9.29a21.48,21.48,0,0,1,12.88-3.73c1.93,0,12.16.34,23.47,9.65.67.56,1.36,1.27,2.21,1.87,20.73,14.76,46.82,18.89,62.44-7.44,0,0-19.28,39.74-63.36,8.36-1-.69-1.91-1.57-3.06-2.45-5.28-4.05-11.67-7.57-17.68-8.51a33.56,33.56,0,0,0-4-.33" style="fill: #fff"/>
      <path d="M56.08,92.34c-4.54,0-7.83.72-10.77,3.22a11.93,11.93,0,0,0-4.41,9.51,8.51,8.51,0,0,0,2.87,6.79,11.6,11.6,0,0,0,7.84,2.48q9.38,0,18.24-8.23t8.87-16.89A10.68,10.68,0,0,0,75.46,81,12.38,12.38,0,0,0,66.65,78a22.11,22.11,0,0,0-8.09,1.77Q53.18,87,51.13,87q-.62,0-.61-.54,0-2.15,7.54-6.72,9-12.69,9-21.78a7,7,0,0,0-.1-1.45,1.26,1.26,0,0,1-.1-.54c0-.47.2-.7.61-.7s.66.59.66,1.77a20.28,20.28,0,0,1-.66,4.41q2.91-5.27,7.68-5.27Q77,56.17,85,59a14.44,14.44,0,0,0,4.3,1,3.82,3.82,0,0,0,2.79-1.21A3.89,3.89,0,0,0,93.29,56a3.22,3.22,0,0,0-.2-1,3.24,3.24,0,0,1-.21-.75c0-.43.18-.65.54-.65s.66.47.66,1.4a7.84,7.84,0,0,1-2.95,6,9.87,9.87,0,0,1-6.74,2.61,17.08,17.08,0,0,1-6.1-1.24,24.19,24.19,0,0,0-7.22-1.83q-3,0-4.3,3.71a63.17,63.17,0,0,1-7.54,14.9A19.29,19.29,0,0,1,67.83,77a16.65,16.65,0,0,1,11.52,4.12A13.23,13.23,0,0,1,84,91.42q0,9.1-9.66,16.39a35.28,35.28,0,0,1-21.81,7.29,17,17,0,0,1-10.46-3,9.4,9.4,0,0,1-4-7.84q0-5.55,5.23-9.29a21.48,21.48,0,0,1,12.88-3.73c1.93,0,12.16.34,23.47,9.65.67.56,1.36,1.27,2.21,1.87,20.73,14.76,46.82,18.89,62.44-7.44,0,0-19.28,39.74-63.36,8.36-1-.69-1.91-1.57-3.06-2.45-5.28-4.05-11.67-7.57-17.68-8.51A33.56,33.56,0,0,0,56.08,92.34Z" style="fill: none;stroke: #fff;stroke-linecap: round;stroke-linejoin: round;stroke-width: 0.53777628px"/>
      <path d="M132.83,83.65c0,11.63-9,21.06-20,21.06s-20-9.43-20-21.06,9-21.05,20-21.05,20,9.42,20,21.05" style="fill: none;stroke: #fff;stroke-miterlimit: 10;stroke-width: 2.8681452px"/>
      <path d="M159.33,71c.48-1.59.51-1.84-.37-2l-.38-.07a.27.27,0,0,1,.09-.42c.64,0,1.19.05,1.87.05s1.16,0,1.93-.05a.28.28,0,0,1,0,.42L162,69c-.93.15-1,.32-1.5,2l-1.88,6.29c-.47,1.58-.52,1.93.3,2l.5.05a.33.33,0,0,1-.07.42c-.79,0-1.34-.05-2-.05s-1.21,0-1.85.05a.29.29,0,0,1,0-.42l.5-.05c.78-.08.93-.29,1.45-2Z" style="fill: #fff"/>
      <path d="M167.55,75l-.61,1.55,0,0c1.55-2.59,2.77-3.79,3.83-3.79a.82.82,0,0,1,.9.91,4.19,4.19,0,0,1-.25,1.19c-.29.84-1.45,3.6-1.5,3.74s-.08.32,0,.32a3.34,3.34,0,0,0,1.51-1.15c.23,0,.26.1.26.24A3.75,3.75,0,0,1,169,79.93a.49.49,0,0,1-.39-.42,3.92,3.92,0,0,1,.39-1.11c.34-.83,1-2.47,1.3-3.33a4.7,4.7,0,0,0,.34-1.23c0-.21,0-.41-.26-.41-.47,0-1.24.86-2.11,2a31.45,31.45,0,0,0-2.53,4.28c-.08.13-.15.2-.29.2s-.61,0-.47-.44l1.59-4.43c.06-.19.71-1.64.13-1.64s-1.35.88-2.24,2a27.41,27.41,0,0,0-2.41,4.28c-.08.15-.15.2-.29.2s-.61,0-.47-.44c0-.13,1.77-5.07,1.83-5.32s.07-.47-.11-.47a2.13,2.13,0,0,0-1.42.93.21.21,0,0,1-.23-.25,2.76,2.76,0,0,1,2.48-1.57c.37,0,.53.3.39.69l-1.11,3.06,0,0c1.16-2,2.67-3.79,3.9-3.79s.81,1.33.47,2.2" style="fill: #fff"/>
      <path d="M176.41,73.07c.13,0,.3,0,.61,0A2,2,0,0,1,179.2,75a5.5,5.5,0,0,1-2.12,4,4,4,0,0,1-2.3,1,1.74,1.74,0,0,1-.5-.1.38.38,0,0,0-.26.31l-.66,2c-.43,1.3-.4,1.46.13,1.54l.66.1a.25.25,0,0,1-.06.37c-1.23,0-2.43.07-3.51.1a.25.25,0,0,1,0-.37l.36-.07c.9-.17,1-.56,1.21-1.25l3-8.82a7.67,7.67,0,0,0-1.63.7.24.24,0,0,1-.16-.32,5.82,5.82,0,0,1,2-.93l.48-1.37c.21-.19.85,0,.92.23Zm-1.8,5.44a.54.54,0,0,0,0,.46.77.77,0,0,0,.59.39A2.6,2.6,0,0,0,177,78a6.12,6.12,0,0,0,1-3.18,1.19,1.19,0,0,0-1.27-1.27,3.14,3.14,0,0,0-.42,0Z" style="fill: #fff"/>
      <path d="M158.22,92.06l-1.5,4.6c-.09.32,0,.42.11.42a5.92,5.92,0,0,0,1.84-1.52c.16,0,.26.1.23.3-.9,1.4-2.42,2.44-3.09,2.44a.49.49,0,0,1-.44-.46,3.48,3.48,0,0,1,.22-1l1.56-4.81H155.9a.43.43,0,0,1,.18-.47l1.29-.24.9-1.67a.52.52,0,0,1,.61.1l-.47,1.66h1.75a.5.5,0,0,1-.19.63Z" style="fill: #fff"/>
      <path d="M164.66,86.08c-.32.94-.84,2.48-1.16,3.45l-1.66,5.05,0,0a10.4,10.4,0,0,1,2.55-2.79,2.67,2.67,0,0,1,1.53-.66c.71,0,1,.54,1,1.13a10,10,0,0,1-1.26,4,5.81,5.81,0,0,1-1,1.38,1.75,1.75,0,0,1-1.18.66c-.53,0-.6-.36-.6-.49a.53.53,0,0,1,.43-.54.36.36,0,0,1,.23.1,1,1,0,0,0,.42.22c.24,0,.4-.25.64-.84a18.1,18.1,0,0,0,1.16-4.36c0-.32-.11-.51-.34-.51a1.75,1.75,0,0,0-.87.46,10.45,10.45,0,0,0-2,2.25,27.26,27.26,0,0,0-1.95,3.51.3.3,0,0,1-.29.21c-.18,0-.59-.05-.47-.44l3.06-9.5c.35-1.12.43-1.36.17-1.54l-.33-.24a.17.17,0,0,1,0-.22,8.61,8.61,0,0,1,1.88-.39Z" style="fill: #fff"/>
      <path d="M170.45,92.77l-.69,2.13h.08A25.1,25.1,0,0,1,171.53,92c.37-.51.77-.88,1.18-.88.56,0,.64.57.64.83a2.14,2.14,0,0,1-.34,1c-.19.26-.45.27-.51-.08s-.18-.66-.34-.66-.32.17-.56.51a29.68,29.68,0,0,0-2.73,5.32.3.3,0,0,1-.28.21c-.18,0-.64-.07-.53-.44.21-.68,1.22-3.67,1.66-5.32,0-.19,0-.36-.13-.36-.42,0-.85.47-1.14.88-.16,0-.27-.07-.26-.27.52-.91,1.13-1.62,1.9-1.62s.51,1.15.37,1.61" style="fill: #fff"/>
      <path d="M179.06,93.3a6.57,6.57,0,0,1-1.7,3.83,3,3,0,0,1-2.3,1.17c-1,0-1.71-.8-1.61-2.25a6.49,6.49,0,0,1,1.76-3.79,3.07,3.07,0,0,1,2.22-1.1c1.14,0,1.7.9,1.64,2.13m-2.93-.81a10,10,0,0,0-1.61,4.23c0,.59.19,1.08.66,1.08s.76-.15,1.27-.88a10.75,10.75,0,0,0,1.49-4.12c0-.53-.08-1.12-.64-1.12-.32,0-.71.15-1.17.81" style="fill: #fff"/>
      <path d="M98.07,89.91a.61.61,0,0,1,.64-.68H99a.58.58,0,0,0,.53-.3,10.74,10.74,0,0,0,.93-1.88,2.6,2.6,0,0,0,.16-.73,3.37,3.37,0,0,0-.27-1.17l-1.26-3.62c-.27-.8-.39-1.2-1-1.32l-.4-.08c-.1-.09-.08-.37,0-.42.51,0,1,.05,1.53.05s.89,0,1.4-.05c.13.05.15.34,0,.42l-.4.08c-.22.05-.35.1-.35.22a13.11,13.11,0,0,0,.47,1.59l.51,1.55a9.78,9.78,0,0,0,.47,1.2,8.36,8.36,0,0,0,.6-1.25l.55-1.33a8.16,8.16,0,0,0,.56-1.69c0-.12-.1-.24-.39-.29l-.5-.08c-.11-.09-.1-.37,0-.42.52,0,1,.05,1.42.05s.77,0,1.22-.05a.29.29,0,0,1,0,.42l-.27.05c-.53.1-.82.59-1.37,1.79l-.9,1.94c-.53,1.13-1.85,4.08-2.64,5.91a1.08,1.08,0,0,1-1,.8.66.66,0,0,1-.71-.73" style="fill: #b5aaba"/>
      <path d="M106.58,82.1c-.42,0-.43,0-.43.46,0,1.71.95,3.16,2.67,3.16a1.72,1.72,0,0,0,1.49-.83.21.21,0,0,1,.29.2,2.79,2.79,0,0,1-2.53,1.57,2.84,2.84,0,0,1-2.34-1.11,3.73,3.73,0,0,1-.67-2.2c0-2.08,1.3-3.82,3.23-3.82a2.15,2.15,0,0,1,2.29,2,1.1,1.1,0,0,1-.07.44c0,.1-.27.12-.95.12Zm1-.51c1.19,0,1.55-.07,1.67-.17s.1-.1.1-.32A1.08,1.08,0,0,0,108.11,80a1.92,1.92,0,0,0-1.79,1.47s0,.08.11.08Z" style="fill: #b5aaba"/>
      <path d="M114.92,82.93c.24-.09.27-.24.27-.49l0-.77c0-.63-.18-1.47-1.18-1.47-.45,0-1,.24-1,.76,0,.27,0,.47-.16.58a1.68,1.68,0,0,1-.92.32.21.21,0,0,1-.23-.24c0-.88,1.82-2.08,3-2.08s1.72.71,1.67,2l-.09,2.94c0,.78.11,1.47.74,1.47a.89.89,0,0,0,.4-.1c.08-.05.16-.12.21-.12s.11.1.11.22a1.68,1.68,0,0,1-1.35.74,1.26,1.26,0,0,1-1-.52c-.07-.1-.16-.23-.26-.23a2.38,2.38,0,0,0-.63.34,2.3,2.3,0,0,1-1.16.42,1.52,1.52,0,0,1-1.62-1.57c0-.66.3-1,1.34-1.44Zm-1,3a1.78,1.78,0,0,0,1-.42c.19-.2.19-.44.21-.8l0-1c0-.19-.07-.22-.16-.22a2.75,2.75,0,0,0-.66.17c-1,.34-1.42.59-1.42,1.25a1,1,0,0,0,1,1" style="fill: #b5aaba"/>
      <path d="M119.1,81.58c0-.66,0-.74-.43-1l-.14-.1a.24.24,0,0,1,0-.3,12.57,12.57,0,0,0,1.63-.83c.08,0,.13,0,.13.12v1c0,.08,0,.14,0,.15a3.22,3.22,0,0,1,1.77-1,.68.68,0,0,1,.73.68.73.73,0,0,1-.69.78.6.6,0,0,1-.36-.12,1.29,1.29,0,0,0-.71-.27.7.7,0,0,0-.58.34,2.69,2.69,0,0,0-.21,1.3v2.3c0,1.22,0,1.42.64,1.47l.58,0a.31.31,0,0,1,0,.43c-.76,0-1.22-.05-1.79-.05s-1.06,0-1.48.05a.31.31,0,0,1,0-.43l.3,0c.6-.1.61-.25.61-1.47Z" style="fill: #b5aaba"/>
      <path d="M127.28,79.84a4.12,4.12,0,0,1,.26,1.37.27.27,0,0,1-.39,0c-.28-.74-.76-1.23-1.42-1.23a1,1,0,0,0-1,1c0,.69.68,1.07,1.24,1.4a2.61,2.61,0,0,1,1.64,2.28c0,1.28-1.13,1.92-2.32,1.92a2.57,2.57,0,0,1-1.72-.51,5.32,5.32,0,0,1-.19-1.71.27.27,0,0,1,.37,0c.28.93.79,1.74,1.71,1.74a1,1,0,0,0,1.07-1.08c0-.77-.64-1.2-1.24-1.55-.93-.56-1.59-1.15-1.59-2.08a2,2,0,0,1,2.19-1.92,2.75,2.75,0,0,1,1.42.3" style="fill: #b5aaba"/>
    </g>
  </g>
</svg>
