<svg xmlns="http://www.w3.org/2000/svg" viewBox="0 0 142.35 88.76">
  <title>_</title>
  <path d="M134,73a17.28,17.28,0,0,1-1.37,1.68,2.59,2.59,0,0,0-.68.4,3.28,3.28,0,0,1-1.4,1.5,3,3,0,0,0-.62.84,4.36,4.36,0,0,1-1.14,1c-.22,0-.25,0-.29-.13a.42.42,0,0,1,0-.33c.17-.46,1.06-1.17,1.47-1.57.62-.59,1-1.15,1.42-1.55.31-.11.37,0,.71-.17.13-.21.18-.25.18-.4s-.14-.14-.07-.29.35-.36.42-.61-.05-.3-.11-.41a1.14,1.14,0,0,0,0-.72c0-.07-.23-.12,0-.31s.17-.05.28,0a1,1,0,0,1,.47.18s.15,0,.17.07-.19.61-.08.85S133.9,72.8,134,73ZM120.61,34.53a.29.29,0,0,0,0,.35c.07.08.27,0,.37.06s.58.27.69.08a2.12,2.12,0,0,1,.64-.47c.14,0,.21-.14.38-.15a.44.44,0,0,0,.33-.11.83.83,0,0,0,.27-.49c0-.09.22-.15.28-.22s.24-.15.4-.24a6,6,0,0,0,1.13-1.06,7.92,7.92,0,0,0,.88-1.34c.11-.23.2-.48.29-.71s-.09-.22-.18-.18a2.87,2.87,0,0,0-.39.23,3.44,3.44,0,0,0-.87,1.26c-.11.24-.22.49-.35.75,0,.06-.16.07-.24.13a.65.65,0,0,0-.31.34,1.41,1.41,0,0,1-.18.27c-.09.08-.24.08-.33.12a1.1,1.1,0,0,0-.49.32,1.73,1.73,0,0,1-1,.58c-.2,0-.35-.18-.48-.31s-.33-.43-.49-.27,0,.22,0,.32a2.33,2.33,0,0,1,0,.3.75.75,0,0,1-.23.44Zm2.3,23.91c.11,0,.26-.24.29-.33s0,.14.11.16.13,0,.18,0,.15.07.24.07a.37.37,0,0,1,.24.11,1.14,1.14,0,0,0,.51.68,3.57,3.57,0,0,0,.81.29c.12,0,.34.09.34-.11s-.2-.31-.31-.4a4.23,4.23,0,0,1-.79-.62c-.07-.08-.23-.42-.1-.44s.18-.15.18-.29v-.11a.18.18,0,0,0,.16-.11c0-.07.07-.09,0-.18a.12.12,0,0,0-.18-.06,1,1,0,0,0-.26.11c-.11,0-.2.16-.27.06s-.2-.3-.35-.22a.53.53,0,0,0-.33-.48,2.45,2.45,0,0,1-.33-.18c-.1-.06-.12-.24-.25-.27s-.15,0-.28,0a.72.72,0,0,1-.38-.13c-.09,0-.18-.17-.31-.2s-.31,0-.47-.08a4,4,0,0,0-.86-.3c-.13,0-.22.14-.26.21s-.07.11-.11.11-.16.06-.21.13-.06.2-.12.26a.45.45,0,0,1-.27.11c-.22,0-.35-.5-.42-.66a1.16,1.16,0,0,0,0-.42c0-.07-.21-.15-.3-.17a.89.89,0,0,0-.81.1.27.27,0,0,0-.17.26c0,.12.11.1.23.13a.44.44,0,0,1,.26.26,1.54,1.54,0,0,1,.13.14c.09.1.07.08,0,.12s.09.24.14.34.08.24.2.25a.19.19,0,0,0,.21-.08c.11-.11.25,0,.34.08a2,2,0,0,1,.33.24c0,.11.18,0,.28.06a1.56,1.56,0,0,1,.8.37c.33.22.2.62.08.91s-.12.42.16.37a1.55,1.55,0,0,1,.56-.06c.17,0,.08.27.26.31a1.18,1.18,0,0,0,.49.09c.16,0,.44,0,.55-.13s-.15-.32.09-.32C123,58.42,122.8,58.44,122.91,58.44ZM121.05,32c-.21,0-.13.37-.13.49s0,.15.07.21.13,0,.22,0,.15-.15.08-.29-.06-.46-.24-.43S121.12,32,121.05,32ZM111.57,58.8c.2,0,.11-.25.09-.33s-.22-.14-.34-.09-.19-.11-.31-.2a1.64,1.64,0,0,0-.46-.29c-.11,0-.29-.15-.38,0s-.15.13-.28.13c-.41,0-.8-.41-1.24-.41a.46.46,0,0,0-.29.15c-.13.2,0,.24.16.31s.08.2.24.22a1.56,1.56,0,0,1,.32.07.41.41,0,0,0,.23.06,4.51,4.51,0,0,1,1.26.22,1.26,1.26,0,0,0,.61,0s.06,0,.11.07a.52.52,0,0,0,.28.09ZM123,45.39c-.13-.08-.35-.32-.48-.11s.11.45.15.58c.18.53.24,1.11.38,1.65a.15.15,0,0,0,.16.1c.13,0,.13-.15.15-.27a1.38,1.38,0,0,0,.09-.67,2.15,2.15,0,0,0-.24-.59.57.57,0,0,1-.12-.35c0-.1,0-.26-.09-.34Zm3.32,11.45c.11-.09,0-.21-.13-.24s-.25.19-.33.3a.61.61,0,0,1-.38.2l-.24.06c-.11,0-.11-.09-.25,0a.16.16,0,0,0-.1.24c.1.13.41.13.57.11.35,0,.91-.2.86-.63C126.32,56.82,126.29,57,126.27,56.84Zm-4.79-25.61c.33,0,0-.58,0-.69-.07-.33-.14-.64-.21-1,0-.15,0-.75-.26-.74s-.31,0-.31.15,0,.31,0,.45a1.28,1.28,0,0,0,.16.78c0,.06.08.06.08.14a1.18,1.18,0,0,0,0,.27,2.85,2.85,0,0,0,0,.5c0,.15-.07.74.18.74s.07-.69.43-.62C121.54,31.23,121.45,31.21,121.48,31.23ZM36.68,52.66c-.13,0-.3-.2-.39-.25a1.69,1.69,0,0,0-.45-.21c-.15-.06-.26,0-.31-.21a.61.61,0,0,0-.23-.29c-.21-.16-.57-.2-.57-.47a.9.9,0,0,0-.35-.64,3.59,3.59,0,0,1-.25-.33.88.88,0,0,1-.06-.17.44.44,0,0,1-.2,0c-.13,0-.18,0-.29,0a1.28,1.28,0,0,0-.42-.17,1.17,1.17,0,0,1-.38-.17,3.58,3.58,0,0,0-.36-.3,4.21,4.21,0,0,0-.75-.49l-.27-.12a.59.59,0,0,1-.17.12.61.61,0,0,1-.36.1,1.1,1.1,0,0,1-.4,0c-.13,0-.27,0-.37-.06a2.21,2.21,0,0,1-.4-.28l-.41-.22c-.24-.13-.51-.25-.77-.38a5.56,5.56,0,0,1-.72-.47c-.17-.17-.44-.38-.36-.61a1.58,1.58,0,0,0-.37-1.42,6.75,6.75,0,0,0-.57-.63c-.11-.1-.22-.2-.32-.31s-.14-.13-.13-.29,0-.23-.16-.36l-.26-.28a6.8,6.8,0,0,1-.46-.6,4.19,4.19,0,0,1-.41-.75c0-.14-.08-.27-.13-.41s0-.06-.13-.06h-.24c-.06,0,0,.2,0,.25s-.05.44.12.59.12,0,.19.05a.78.78,0,0,1,.11.2,3.73,3.73,0,0,1,.2.4,5,5,0,0,0,.45.71c.16.19.16.48.25.71a1,1,0,0,0,.17.3c.09.1.2.14.27.23s0,.61-.3.37-.28-.41-.48-.59,0-.43-.13-.66a.78.78,0,0,0-.36-.36c-.39-.23-.89-.34-1-.81-.09-.3.56,0,.35-.38-.06-.1-.15-.13-.24-.2a1.14,1.14,0,0,1-.18-.41,4.7,4.7,0,0,0-.54-1.31,1.32,1.32,0,0,0-.47-.44,1.22,1.22,0,0,0-.34-.14c-.1,0-.26,0-.29-.15s0-.22-.1-.29-.17,0-.2-.21a5.38,5.38,0,0,1-.31-.81c0-.09,0-.18-.06-.24a.73.73,0,0,1-.3-.41c-.12-.24-.16-.52-.27-.78-.06-.1,0-.3,0-.42a1.89,1.89,0,0,1,0-.42,1.92,1.92,0,0,1,0-.86A4.75,4.75,0,0,0,20.94,34a3.07,3.07,0,0,1-.15-.78c0-.08,0-.12-.06-.17s-.12-.09-.16-.14a2.74,2.74,0,0,1-.3-.28,4.21,4.21,0,0,0-.37-.36c-.08-.06-.28-.13-.24-.26s0-.1,0-.15.05-.06.05-.11a1.34,1.34,0,0,0,0-.21,1,1,0,0,0-.17-.53.47.47,0,0,0-.22-.18c-.14-.07-.14-.12-.14-.25s-.26-.42-.38-.64a.44.44,0,0,1,0-.32s.09-.1.05-.16-.1,0-.13,0-.05-.21-.12-.15a.15.15,0,0,1-.24-.11c0-.13-.05-.11-.11-.21s0-.22,0-.33-.13-.24-.22-.17-.05.18-.19.22-.17-.09-.17-.19-.13-.19,0-.28.08,0,.09-.09a1,1,0,0,0,0-.17c0-.11-.08-.18-.16-.08s-.1.19-.15.25a.23.23,0,0,1-.16.06s-.06.07-.1.08-.22-.16-.26-.27a1.06,1.06,0,0,1-.21-.31c0-.16.34-.43.07-.56s-.07.13-.07.18-.13.16-.24.11A.85.85,0,0,1,16,26.9c0-.08-.07,0-.17,0a.59.59,0,0,1-.16-.06c-.09,0-.16-.06-.18-.16s0-.14-.05-.14l-.39,0a5.62,5.62,0,0,1-1.53-.24,2.27,2.27,0,0,1-.58-.36.25.25,0,0,0-.29-.09c-.11,0-.26.07-.3-.08-.16.17.12.71-.23.72a1,1,0,0,0-.47.16c-.11.05-.24.17-.35.21a.15.15,0,0,1-.18-.07c0-.07-.07-.07-.11-.13s0-.23.1-.33,0-.27.2-.37a.43.43,0,0,1,.41,0,.18.18,0,0,0-.12-.22c-.14-.08-.24,0-.38.08a3.33,3.33,0,0,0-.51.55,2.18,2.18,0,0,1-.61.6c0,.17.31.29.11.45a.63.63,0,0,0-.2.26.72.72,0,0,1-.34.16,1,1,0,0,0-.52.45c-.12.22-.5.33-.72.46S8,29,7.8,29s-.28,0-.22-.16.24-.22.33-.3a5.62,5.62,0,0,0,.53-.44,1.31,1.31,0,0,0,.37-.6c0-.05.1-.33,0-.33s-.22.1-.33.06-.11-.15-.22,0-.19.05-.27,0A2.47,2.47,0,0,0,7.65,27c-.05,0-.05.06-.09.12s-.13,0-.18.06c-.32.19-.19-.39-.19-.48s-.05-.31-.18-.28-.16.11-.22.17-.44-.05-.51-.18-.31-.34-.1-.53c-.15,0-.53-.38-.44-.55a.71.71,0,0,1,.31-.47c.13-.06.18,0,.16-.16s0-.2.16-.18a1.32,1.32,0,0,0,.49-.07c.12-.07.19-.17.3-.24s.24,0,.35,0a.32.32,0,0,0,.21-.2c0-.14,0-.24,0-.37s.1-.1.09-.21,0-.13-.15-.13a.64.64,0,0,0-.36.15c-.07.07-.13.21-.26.14a2.05,2.05,0,0,0-.92,0c-.11,0-.27,0-.33-.07a1.63,1.63,0,0,1-.11-.31c0-.06,0-.17,0-.2a1.1,1.1,0,0,0-.16,0c-.09,0-.16,0-.16-.12s.34-.36.49-.42.29-.11.44-.17a1.24,1.24,0,0,1,.39-.09c.09,0,.13.08.13.18s.06.08.18.1l.35,0c.13,0,.25.07.27-.11s-.32-.35-.33-.57c-.11,0-.32.1-.34-.08a1,1,0,0,0-.13-.37c-.09-.13-.22-.06-.35-.11a2.85,2.85,0,0,1-.3-.16C6,21,5.82,21,5.84,20.81s.12-.14.13-.24.21-.11.33-.11a1,1,0,0,0,.37-.07A1,1,0,0,0,7.16,20c.11-.16.27-.53.47-.55a1.28,1.28,0,0,0,.7-.34A.44.44,0,0,1,8.69,19,3.15,3.15,0,0,0,9.12,19a1,1,0,0,0,.33-.2c.08-.06.14-.17.27-.09s.26.09.17.23.11.11.17.06.1-.17.22-.14.12.16.25.11a1.14,1.14,0,0,1,.66,0c.1.07.16.18.31.21s.26,0,.39.06a2.63,2.63,0,0,1,.79.05c.11,0,.25.14.36.13a1.91,1.91,0,0,1,.42,0c.29.07.56.21.82,0s.36,0,.46.08a1.41,1.41,0,0,1,.37.18,1.39,1.39,0,0,1,.81.09c.28.11.54.29.83.39a.53.53,0,0,0,.2.07.47.47,0,0,1,.16,0c.06,0,0-.13.08-.18s.24-.06.34-.16.09-.17.18-.2.18,0,.24.09.21,0,.33,0c.29-.12.53-.28.82-.38a1,1,0,0,1,.39-.09c.12,0,.11.15.17.23.12-.11.22,0,.33-.06s.1-.3.21-.37.5.45.62.58.2.21.29.07,0-.22.12-.31.43.21.41.36a1.44,1.44,0,0,1,.88-.25c.13,0,.36,0,.37.16a.19.19,0,0,0,.19.19c.13,0,.27-.06.37,0a1.94,1.94,0,0,1,.36.15,1.81,1.81,0,0,1,.47.13c.07,0,.11.1.15,0a.16.16,0,0,1,.16,0,.24.24,0,0,0-.15-.24c-.09-.05-.21,0-.23-.14s-.11-.24-.07-.34.18-.14.27-.18.31,0,.24-.17-.22-.11-.33-.11-.5,0-.46-.26a.47.47,0,0,0-.19-.53c-.19-.12,0-.39.12-.51a.58.58,0,0,0,0-.32.31.31,0,0,0-.18,0c-.09.07-.07.17-.11.26s-.13.08-.21.1-.27.35-.35.54-.22.09-.32.13a.76.76,0,0,0-.3.12c-.19.08-.4.17-.54-.06s-.06-.27-.16-.29L21.35,18c-.12,0-.3,0-.27-.18a1.33,1.33,0,0,1,.13-.4c.11-.22.26-.44.36-.67a1.42,1.42,0,0,0,.08-.4c0-.1-.06-.24,0-.33s.35-.31.46-.14c.12-.11.33-.09.49-.09s.48-.08.55.06.66.22.95.17c.09,0,.21-.06.27,0a1,1,0,0,0,.22.16,1.74,1.74,0,0,1,.44.35c0,.05.05.18.12.18h.14c.14,0,.22.05.22.2s-.05.16.05.16.1,0,.17,0a.27.27,0,0,1,.24-.08,1.63,1.63,0,0,0,.31.11c.13,0,.16.17.21.26s.3-.28.36-.29.48.09.56.2.08.17.18.06,0-.19,0-.28.05-.3.28-.3c0,0,.17,0,.19,0s.07-.24.16-.3.26,0,.35.06.31,0,.35.14,0,.5-.19.57.17.68.22.8.11.28.16.42a.44.44,0,0,0,.08.17c0,.07.09.07.16.11.26.12.51.27.76.41s.24.15.13.33-.12.12-.25.09h-.24c0,.07,0,.11,0,.17s0,.1.09.16c.26.25-.49.34-.62.34a1.05,1.05,0,0,1-.69-.19c-.27.48.44.55.75.67a.68.68,0,0,1,.21.17c.06.08.21.06.3.06a6.29,6.29,0,0,0,.65-.11,4,4,0,0,0,.62-.18c0-.2.29-.1.16-.31s-.31-.09-.44-.18.08-.28.17-.37.13-.27.23-.33.28,0,.39.06a1.33,1.33,0,0,1,.57.38.55.55,0,0,1,.12.44c0,.13-.12.28.09.28a.48.48,0,0,0,.32-.17c.09-.08-.08-.13-.13-.15-.25-.14.23-.44,0-.6a1.68,1.68,0,0,0-.34-.15c-.12,0-.27,0-.27-.15,0-.3,0-.6,0-.89s0-.22.13-.3A.64.64,0,0,0,32.3,18a.8.8,0,0,0,0-.46c0-.13-.11-.2-.15-.32a1,1,0,0,1,0-.42,1.72,1.72,0,0,1,.1-.39c0-.09,0-.26.17-.29a1.84,1.84,0,0,1,.42-.07,2.68,2.68,0,0,1,.85.09c.08,0,.25,0,.3.1s0,.21,0,.31a1.76,1.76,0,0,1-.33.56.7.7,0,0,1-.32.14c-.11,0-.26,0-.3.07s-.34.37-.4.62a.67.67,0,0,1,.46.33.86.86,0,0,1,.09.27c0,.11,0,.11.09.17a.59.59,0,0,1,.22.48c0,.11-.16.35-.09.4s.29,0,.38.09,0,.31.2.39.22-.14.33-.2.33.05.44.13.29.34.18.47A.44.44,0,0,0,35,21c0,.06.24.33.33.15s.08-.11,0-.19a.25.25,0,0,1,0-.19c0-.1.13-.07.23-.06s.09-.18.13-.22a1.31,1.31,0,0,1,.36-.38c.14-.1-.15-.22-.15-.36s.16-.23.3-.31-.33-.12-.38-.13c-.31-.09-.62-.13-.93-.24-.08,0-.27-.1-.31-.19s0-.21-.05-.29-.31-.25-.32-.41a.88.88,0,0,1,.06-.36c.16-.6.49-1.46,1.29-1.52a.71.71,0,0,1,.47.09c.13.05,0,.22-.07.28a2.18,2.18,0,0,0-.36.69.59.59,0,0,0,.09.46.15.15,0,0,0,.18-.13c0-.16-.11-.55.09-.62s.15-.14.23-.27.24-.14.34-.17a2.31,2.31,0,0,1,.84-.21c.18,0,.18.21.23.3s0,.1.11.12a.15.15,0,0,1,.11.12c0,.25-.16.6,0,.82.08-.35.43-.3.74-.29,0-.22.3-.31.49-.35-.09-.08-.44,0-.55,0s-.3.14-.45,0a3.18,3.18,0,0,0-.17-.27c-.08-.05-.14-.07-.17-.15s.07-.3.25-.28a3.26,3.26,0,0,1,1,.17c.22.08.71.54.17.57,0,0,.22.06.25.07l.2.09a1.11,1.11,0,0,1,.35.28c0,.07.11.35.18.35s.2.08.2.22c.25-.12.7-.24.91,0a.15.15,0,0,1,0,.17s-.09.13,0,.13.21.08.18.2a1.2,1.2,0,0,1,.7.06c.17.11-.06.26-.06.39s0,.14.09.14.09,0,.11-.07.07-.1.16-.1.13.33-.05.33-.15.34-.15.5a.51.51,0,0,0,.07.28c.08.16.08.08.21.08s.35.21.49.28.43,0,.41.2c.08,0,.24-.07.31,0a.49.49,0,0,1,.13.23s0,.19,0,.19.1-.08.17,0,.18.18.15.25c.19,0,.46,0,.52.14s-.06.29-.23.42a1.79,1.79,0,0,0-.4.42c-.11.15-.15.36-.37.26a1.32,1.32,0,0,1-.51-.36c0-.08-.11-.17-.15-.26s0-.16-.14-.15-.31-.09-.49-.09-.2.29-.13.43.13.21.19.3.12.22.23.22a.75.75,0,0,1,.49.17.76.76,0,0,1,.29.83.42.42,0,0,1-.11.15.61.61,0,0,0,.05.12.19.19,0,0,1,0,.15c-.1.17-.34,0-.47,0s-.25-.06-.36-.11-.07-.11-.12-.15-.31-.15-.46-.24c0,.33.46.47.67.64s.27.24.14.36-.16.05-.24,0l-.25-.12c-.12,0-.19.05-.27.05s-.22-.16-.32-.22a.7.7,0,0,0-.44-.16c-.11,0-.15.09-.24,0s-.24-.19-.24-.29.13-.19,0-.21a.8.8,0,0,1-.51-.4c-.09-.13-.15-.3-.36-.27s-.15.16-.26.16-.22-.07-.36,0-.22.19-.33.17-.63-.18-.51-.43.33-.43.56-.37a2,2,0,0,0,.87-.08c.1,0,.32,0,.26-.14s-.16-.11-.21-.2.32-.44.44-.57a1,1,0,0,0,.22-.61.69.69,0,0,0-.2-.42c0-.05-.1,0-.16-.07s-.08-.08-.09-.13a1,1,0,0,0-.26-.2.25.25,0,0,1-.12-.13l-.18,0c-.08,0-.08-.13-.15-.19l-.14-.12a.74.74,0,0,0-.28-.22c-.09,0-.24,0-.24-.2s-.05-.14-.16-.21a.56.56,0,0,0-.2-.06c-.09,0,0,.06-.08.13a.32.32,0,0,1-.22.26c-.13,0-.15-.08-.26-.11s-.31,0-.36-.08c0,.25-.75.08-.93.11s-.31.09-.13.15.2,0,.29,0,.08.19.24.26.31,0,.34.18,0,.27-.16.28-.09.1-.18.15a1.57,1.57,0,0,0,.18.42c.05.1.17.21.2.32s-.2.41-.33.51a.67.67,0,0,1-.31.17c-.05,0-.31,0-.33,0s-.12.15-.29.15-.24,0-.29-.17a4.83,4.83,0,0,0-.34.45c-.05.11-.29.32-.27.43.06.33-.19.53-.42.75-.06,0-.11.12-.18.16s-.15,0-.24,0-.22.1-.35.21a.28.28,0,0,1-.2.06.68.68,0,0,0,0,.22.23.23,0,0,1-.18.29.51.51,0,0,1-.4.05,1.22,1.22,0,0,0-.24.32,1.31,1.31,0,0,1-.52.55c-.08.31-.15.63-.22.94,0,.14-.18.43,0,.56a.61.61,0,0,0,.35.07c.13,0,.17.13.22.23a2.94,2.94,0,0,1,.2.76,4,4,0,0,1,.49,0c.11,0,.2.14.29.19s.44.13.66.24a.6.6,0,0,1,.27.22c0,.09,0,.09.1.11a1,1,0,0,1,.21.09c.23.09.49.09.56.35a3.53,3.53,0,0,1,.86,0c.24,0,.29.3.31.49a3.53,3.53,0,0,0,0,.46v.22c0,.09,0,.09.06.16s0,.09,0,.18.06.11.09.17.17.23.27.34a4.35,4.35,0,0,0,.3.35c.13,0,.11-.15.2-.22a.23.23,0,0,1,.14,0c.07,0,.07-.05.11-.11s.09-.19.22-.2a1.39,1.39,0,0,1-.2-.72l-.06-.4c0-.08-.11-.21-.07-.28s.2-.13.28-.18a2.42,2.42,0,0,0,.28-.22,1.35,1.35,0,0,0,.3-.54,1.33,1.33,0,0,0-.28-1.38c-.09-.08-.27-.14-.32-.26a.29.29,0,0,1,.17-.26c.07-.08.21-.11.3-.2s.07-.26,0-.38-.28-.42-.2-.6a.49.49,0,0,1,.11-.2c0-.09,0-.1-.05-.17a.56.56,0,0,1-.14-.3.83.83,0,0,1,.3-.29c.11-.07.29,0,.4.06a1.61,1.61,0,0,0,.86.08.42.42,0,0,1,.45.05,1.38,1.38,0,0,0,.27.27c.09.06.22.1.2.22s0,.08,0,.13l.15.08c.25.11.65.05.58.37a1.68,1.68,0,0,0,.07.77c0,.05,0,.37.13.3s.22.06.29.14.15.26.27.19l.3-.19a.92.92,0,0,0,.45-.54c0-.08,0-.22.07-.28a.16.16,0,0,1,.24,0c.06.11.22.06.31.16a2.53,2.53,0,0,1,.2.36,8.21,8.21,0,0,0,.44.83c.05.09.23.29.2.43a.57.57,0,0,0,0,.34,1,1,0,0,0,.39.45,4.17,4.17,0,0,1,.38.26c.09.09.07.1.2.1a.45.45,0,0,1,.43.17c.06.08,0,.16,0,.23a.71.71,0,0,1,.12.15c.06.1,0,.16.16.16s.28,0,.31.29a4.34,4.34,0,0,1,0,.72c0,.2-.46.3-.62.36a1.45,1.45,0,0,1-.29.11c-.09,0-.07,0-.11.12a.6.6,0,0,1-.23.19,2,2,0,0,1-.68.2l-.49.07c-.13,0-.31-.07-.44-.07-.31,0-.63.07-.94.1a.32.32,0,0,0-.27.11l-.17.15-.31.25a1.38,1.38,0,0,0-.44.6,7.51,7.51,0,0,1,.75-.27,2,2,0,0,0,.4-.17.62.62,0,0,1,.35-.11c.12,0,.29.09.32.22s-.07.22-.16.28a.54.54,0,0,1-.34.12s-.13-.09-.15,0,0,0,0,.07.41,0,.43.27c0,.05-.05.57.15.49s.1-.08.22,0,.18-.09.32,0,.2.06.17.17-.11.14-.15.21h.49a.66.66,0,0,1,.15-.26c.2-.17.42.28.23.37s-.34.25-.52.36a2.23,2.23,0,0,1-.64.24c-.08,0-.11,0-.17.06a.67.67,0,0,1-.12.16,1,1,0,0,1-.25.19c-.09.09-.15.2-.28.11a.37.37,0,0,1-.14-.23.9.9,0,0,1,.14-.53c-.18-.07-.54-.08-.65.13s0,.17-.11.24a.46.46,0,0,1-.24.09c-.11,0-.11-.07-.2,0l-.18.15c-.07.05-.13.11-.2.15a1.4,1.4,0,0,0-.3.41.78.78,0,0,0,0,.54c.1.19-.21.19-.32.23a.37.37,0,0,0-.25.14c-.05,0-.05.15-.14.19a1.66,1.66,0,0,1-.64.11.5.5,0,0,1,0,.56c-.06.11-.24.24-.37.13a.4.4,0,0,1-.21.38c-.19.07-.16-.18-.16-.28-.34.28,0,.83,0,1.14a1.22,1.22,0,0,1,0,.27c0,.07-.11.11-.09.18s.11.1.09.19-.12.11-.22.11.1.19,0,.28-.19.08-.29.13a2.24,2.24,0,0,0-.46.35,3.8,3.8,0,0,1-.52.46,1.83,1.83,0,0,0-.46.34c-.53.65,0,1.59.18,2.29a1.43,1.43,0,0,1,0,.65c0,.12-.14.42-.31.28a1.43,1.43,0,0,1-.33-.47,5,5,0,0,1-.23-.53,1.85,1.85,0,0,1-.06-.66c-.07-.18-.25-.27-.31-.43s0-.15-.2-.11a.67.67,0,0,0-.19.09c-.18.11-.39,0-.54-.13s-.3-.16-.43-.09a.42.42,0,0,1-.33,0c-.11,0-.25,0-.38,0s-.27-.09-.35,0a.36.36,0,0,0-.22.31c0,.09,0,.23-.1.26s-.19,0-.26-.11,0-.11-.15-.11a.49.49,0,0,1-.2,0,2.46,2.46,0,0,0-.76.08c-.22.08-.22.21-.31.37s-.22.15-.29.12-.09,0-.16.05a1.27,1.27,0,0,0-.11.13,1,1,0,0,0-.2.62,3.17,3.17,0,0,0,0,.42c0,.11,0,.27-.07.35l-.08,0a.68.68,0,0,0-.05.22,3.11,3.11,0,0,0-.06.44,2.08,2.08,0,0,0,.21,1.27c.21.25.34.55.52.8l.26.29c.11.08.34,0,.47-.06a4.51,4.51,0,0,1,.53-.08c.15,0,.25,0,.37-.08a1.43,1.43,0,0,0,.21-.67c.05-.21.12-.48.36-.52s.15,0,.24-.06.13-.07.22-.07.58-.09.73.07-.13.59-.19.75a8.83,8.83,0,0,0-.52,1.73c0,.09,0,.07.11.1a.79.79,0,0,0,.2,0c.07,0,.11,0,.18,0s.07,0,.11,0,.09-.05.16,0,.06,0,.11,0,.29,0,.4.06a3.62,3.62,0,0,0,.44.2c.18.06.22.07.27.24a1.86,1.86,0,0,1-.09.76,1.79,1.79,0,0,0-.12.89,1.38,1.38,0,0,0,.25.5,3.25,3.25,0,0,0,.23.29c0,.07.09.13.11.18h.15l.14.08a.7.7,0,0,1,.17-.09,1,1,0,0,1,.36-.12c.27,0,0,.38-.15.43s-.1,0-.1.07a.19.19,0,0,0,0,.11.15.15,0,0,1-.12.23Zm5.65-33.49s0,0,0,0h.05a0,0,0,0,1,0,0Zm-5.62,15.1c.07.23-.26.14-.38.09l-.26-.19c-.09-.07-.07,0-.14.06s-.4,0-.53,0a1.08,1.08,0,0,0-.49.15c-.07.07-.18.1-.16.2a.31.31,0,0,1,0,.23,2.73,2.73,0,0,1-.15.56,1,1,0,0,0,0,1c.1.1.13.08.22,0s.1-.09.13-.13a.92.92,0,0,0,.05-.37c0-.21,0-.4,0-.62s.11-.24.26-.38.22-.3.36-.45.34,0,.45.1.14.58,0,.82c.08,0,.14,0,.21,0s.11.1.13.15,0,.15.18.11a.54.54,0,0,1,.22,0c0-.18,0-.53.13-.66s.36.06.49.07c.18-.24-.11-.46-.22-.66s-.13,0-.22-.06-.22-.08-.29,0Zm.84,1.84c0-.06.05-.17,0-.22s-.15,0-.18.09c-.18.19-.29,0-.49.07a.53.53,0,0,0-.22.2c0,.06,0,.13-.13.16s-.27,0-.27-.08v-.12a.76.76,0,0,0,0,.26c0,.11,0,.11.18.11a.88.88,0,0,0,.29,0,2,2,0,0,0,.46-.18c.08,0,.38-.18.38-.24ZM35.73,34c.11-.25-.08-.53-.11-.77-.3.07-.3-.16-.47-.35a.22.22,0,0,0-.18-.08.32.32,0,0,1-.25-.06l-.17-.07-.13.16a2.47,2.47,0,0,1-.29.24,4.94,4.94,0,0,0-.64.49c-.07.06-.22.23-.11.29a.5.5,0,0,0,.38.06c.13,0,.48-.33.59-.16s.2,0,.29.12.11.15.27.1c.31,0,.54-.12.82,0C35.8,33.82,35.59,33.9,35.73,34Zm3.13,1.29a.3.3,0,0,1-.11-.07c-.15.27-.66.16-.86.42a5.61,5.61,0,0,1,.71,0,.37.37,0,0,0,.25-.12s.1-.22,0-.23ZM27.5,21c0-.1.06-.11.11-.18s-.11-.13-.21-.14-.09-.18-.1-.34l-1.07.1a4.18,4.18,0,0,0-.51.06c-.16,0-.19-.17-.24-.27s-.31-.34-.47-.09.16.18.23.28a.15.15,0,0,1-.1.24c-.15,0-.29.1-.15.23s.25.05.36.05a7.73,7.73,0,0,0,.83,0,1.28,1.28,0,0,0,.43-.1.24.24,0,0,1,.29,0,1.21,1.21,0,0,0,.6.11S27.15,21,27.5,21ZM54.15,58.62c-.07-.07,0-.2,0-.26s-.15-.18-.25-.2a1.42,1.42,0,0,0-.35-.14h-.19a.46.46,0,0,1-.21-.1,3.07,3.07,0,0,1-.44-.6,1.43,1.43,0,0,0-.24-.31c-.09-.09-.36,0-.49,0a2.72,2.72,0,0,1-.43-.09.8.8,0,0,0-.34-.13c-.12,0-.25.06-.37.07h-.17a.65.65,0,0,0-.14-.19A3.2,3.2,0,0,0,49.12,56c-.13,0-.26-.09-.39-.12s-.23,0-.34,0-.25-.39-.18-.54.16-.18.18-.25-.11-.28-.15-.39-.24-.46-.38-.68a2,2,0,0,0-1-.92,1.11,1.11,0,0,0-.74,0,.84.84,0,0,1-.42,0,2.78,2.78,0,0,1-.34-.29A5.14,5.14,0,0,1,45,52.3c-.11-.2-.19-.18-.42-.24s-.31-.1-.36-.23,0-.19-.15-.2a.74.74,0,0,1-.29-.12.53.53,0,0,1-.18-.21c0-.07,0-.2-.12-.23s-.27,0-.37,0a2.47,2.47,0,0,1-.39,0l-.67,0a2,2,0,0,0-.35,0c-.14,0-.22-.19-.34-.28a.52.52,0,0,0-.57-.11c-.19,0-.38.2-.58.16s.24-.39-.07-.4-.38.28-.53.35-.36,0-.49.2-.18,0-.27.05-.2.09-.22.17a1.4,1.4,0,0,0,0,.29.71.71,0,0,1-.13.22c-.14.16-.32.27-.45.44a1.29,1.29,0,0,0-.51-.44c-.09,0-.27-.11-.35,0s0,.22.08.26.18.15.29.21,0,.15,0,.26.13.16.16.25a1.49,1.49,0,0,1,.14.37c0,.27,0,.51,0,.77s0,.3,0,.43a.41.41,0,0,1-.14.36.46.46,0,0,1-.26.19c-.15.09-.14.13-.18.29a.94.94,0,0,1-.42.52c-.11.06-.15.1-.15.23a2,2,0,0,1-.1.37c-.06.2-.3.67-.13.84s.2,0,.27,0,0,.22,0,.29-.31.29-.42.47a.36.36,0,0,0-.11.26.81.81,0,0,0,.11.33c0,.09,0,.25.07.34a3.44,3.44,0,0,1,.3.35,4.87,4.87,0,0,1,.69,1.52c.11.29.2.58.32.84s.13.27.17.4.23.27.13.36.18.44.31.59a5.58,5.58,0,0,0,.72.51l.68.44a4,4,0,0,1,.29.29l.14.13c0,.09.13.14,0,.21s0,.28,0,.39v.47c0,.35,0,.7,0,1-.11,1.26-.38,2.53-.58,3.81A15.54,15.54,0,0,0,39.47,72v.25s-.08.13-.12.18-.13.28-.18.41-.13.29-.17.4-.2.28-.18.4a5.77,5.77,0,0,1-.13,1.44,1.75,1.75,0,0,0,0,.68c.05.26.11.39.38.31A8.49,8.49,0,0,1,39,77.37c-.05.24-.09.47-.15.71a.86.86,0,0,0-.11.28.67.67,0,0,1,0,.31.2.2,0,0,1-.11.11c-.1,0-.1-.11-.21-.08a.48.48,0,0,0-.32.19c-.09.16.14.19.25.23.33.13-.16.3,0,.48.06,0,.12,0,.13,0s0,.14.06.14a.74.74,0,0,1-.06.46c0,.09-.13.2-.13.29s.09.22.12.33c0,.31,0,.65,0,1s.39.15.45.42a.76.76,0,0,1,0,.37c0,.11-.2.26-.11.38s0,.6.26.46.14.07.23.15.19.14.27.25.06.18.24.2l.46.13a2.07,2.07,0,0,0,.5.06l.17,0,.12-.07a.18.18,0,0,0,.1,0c.09,0,.18-.07.27-.09s.2,0,.26,0c.29-.13-.24-.46-.35-.53a1.16,1.16,0,0,1-.49-.35.76.76,0,0,1-.14-.3c0-.08,0-.33-.16-.28s-.17,0-.14-.11.15-.07.19-.13,0-.18,0-.22a2.69,2.69,0,0,1-.05-.47,1.11,1.11,0,0,1,.17-.55.62.62,0,0,1,.23-.2c.13-.07.11-.18.13-.31.16-.46.78-.62.91-1.06a.37.37,0,0,0-.05-.31c-.08-.15-.15-.11-.3-.15a1.65,1.65,0,0,1-.27-.19.81.81,0,0,1,0-.41.46.46,0,0,1,.35-.42c.09,0,.24,0,.29-.14a4.58,4.58,0,0,0,.2-.46,5,5,0,0,1,.27-.77c0-.14.15,0,.26,0a.24.24,0,0,0,.07-.31c-.09-.06-.25,0-.33-.11a.29.29,0,0,1-.17-.26c0-.07,0-.11,0-.15s0-.16.1-.11.31.06.47.06.49-.06.51-.35,0-.27,0-.42,0-.14,0-.2,0-.18.14-.18a8.19,8.19,0,0,0,1.42-.35c.22-.07.33-.38.44-.58a.61.61,0,0,0,.06-.71c0-.07-.11-.07-.06-.15s0-.06,0-.11,0-.18,0-.25-.2-.06-.22-.12.29-.08.4-.08.71.17.87,0,.12-.27.19-.38a2.16,2.16,0,0,1,.29-.37,9.3,9.3,0,0,0,1-1.29,7.27,7.27,0,0,1,.35-.75,2.59,2.59,0,0,0,.43-.57,1,1,0,0,0,.15-.64c0-.14,0-.27,0-.4a.65.65,0,0,1,.13-.4A3,3,0,0,1,50,66.61a1.27,1.27,0,0,0,.35-.25c.08-.07.25,0,.38,0a1.36,1.36,0,0,0,.63-.29,4.48,4.48,0,0,0,.75-1.35c0-.09.17-.26.14-.37s0-.2,0-.31.18-.18.18-.29a4.52,4.52,0,0,1,0-.51c0-.24.06-.5.08-.77a1.8,1.8,0,0,0,0-.4c0-.16-.07-.3.09-.37s.27-.42.37-.6a3.87,3.87,0,0,1,.51-.64,2.63,2.63,0,0,0,.68-1.15c0-.16.13-.58,0-.69Zm7.14-35.37a2.39,2.39,0,0,0,1.22-.84c.11-.18-.21-.47-.33-.57a2.08,2.08,0,0,1-.31-.21c-.12-.05-.22-.18-.36-.21a.14.14,0,0,0-.18.09.25.25,0,0,1-.27.1c-.31,0-.57.12-.86.12s-.2,0-.24.2,0,.08-.1.08h-.19c-.05,0-.08-.13-.09-.18,0-.21-.45-.18-.6-.14s-.26,0-.29.13a.32.32,0,0,0,0,.28c.1.12.52,0,.52.07v.23c0,.07,0,.11,0,.17s.07.16.12.24,0,.25,0,.36.55.19.7.25.18.15.3.17a1.4,1.4,0,0,0,.41,0,4,4,0,0,0,.65-.34C61.78,23.06,61.18,23.29,61.29,23.25ZM86.72,61.68a1.12,1.12,0,0,0-.13-.65.23.23,0,0,0-.24-.16c-.16.1-.06.3-.09.41s-.16.13-.24.19-.14.12-.14.25a.81.81,0,0,1-.33.53c-.09.07-.2.11-.29.18a.63.63,0,0,0-.3.13c-.12.07-.18.26-.23.38a3.47,3.47,0,0,0-.13.46,1.71,1.71,0,0,0,0,.84.49.49,0,0,0,.05.2.87.87,0,0,0-.1.19,4.25,4.25,0,0,0-.21.49.54.54,0,0,0-.16.36,3.66,3.66,0,0,0,.13.44c0,.15.07.28.09.44s0,.4.13.46.2.18.31.23.24,0,.4,0,.31-.07.42-.19.11-.23.14-.37a23.69,23.69,0,0,0,.79-3.4c0-.16,0-.29.07-.46s0-.12.15-.18,0-.25,0-.36a2.63,2.63,0,0,0-.06-.39C86.72,61.32,86.76,61.87,86.72,61.68Zm41.43-4c-.09,0-.16-.07-.24-.09s-.14,0-.2.07-.07.22-.07.31-.17,0-.22.08.11.25.2.31a4.28,4.28,0,0,0,.29.33,1.17,1.17,0,0,0,.46.23,3.49,3.49,0,0,1,.86.37l.49.23c.09.06.33.19.44.1s-.08-.55-.14-.68a2.17,2.17,0,0,0-.52-.58,5.69,5.69,0,0,0-1.35-.68C128.06,57.61,129.08,58,128.15,57.63Zm-19.79-.91v-.37c0-.07-.11-.14-.2-.18l-.56-.56a.66.66,0,0,1-.23-.5v-.2s0,0,0-.06-.16-.05-.18-.09,0-.2-.11-.29a2.35,2.35,0,0,0-.26-.22c-.09-.09-.12-.16-.27-.16s-.22-.11-.36-.11-.17-.22-.23-.29l-.29-.28a7.38,7.38,0,0,1-.69-.68c-.11-.14-.16-.1-.33-.1l-.32-.08c-.1,0-.19,0-.21.11a.45.45,0,0,0,.17.33,4.44,4.44,0,0,1,.58.57c0,.09.22.09.31.11s.18.29.22.4a2.46,2.46,0,0,1,.28.73c0,.09.16.16.23.22a1.12,1.12,0,0,1,.24.34c.13.23.13.53.31.74s.44.5.68.74l.48.48c.16.13.19.22.44.2.08,0,.24,0,.3-.09a4.15,4.15,0,0,0,0-.71Zm-9.61-5.51c0-.2-.29-.09-.4-.09s-.22.2-.22.36-.11.72.13.93a.37.37,0,0,0,.58-.23,2.65,2.65,0,0,0-.09-1ZM7.43,29c-.13-.06-.42-.05-.38.15a.21.21,0,0,0-.31.18c0,.25.4.09.35-.11.22.19.59-.11.34-.22C7.33,28.93,7.47,29,7.43,29ZM113.11,52.43c-.28-.13-.41-.37-.64-.53s-.21-.08-.3,0a3.74,3.74,0,0,1-.32.4.55.55,0,0,1-.1.18c0,.08-.07.06-.16.09a.65.65,0,0,0-.28.2c-.18.18-.3.42-.47.57a.62.62,0,0,1-.31.18c-.18,0-.19.12-.27.24s-.09.29-.22.32-.26-.14-.39-.09-.25.41-.25.58,0,.25,0,.39.14.15.24.25.16.42.21.63a1,1,0,0,0,.09.37c.08.12.35.1.48.12a4.46,4.46,0,0,1,.82.06,1.29,1.29,0,0,1,.33.17c.16.12.22.07.38,0s.22-.11.29-.27a.75.75,0,0,0,.13-.32c0-.11,0-.19,0-.33a1,1,0,0,1,.18-.27.44.44,0,0,0,.15-.26c0-.14,0-.29,0-.36s.48-.4.27-.65a1.16,1.16,0,0,1-.22-.39.94.94,0,0,0-.12-.22c-.06-.11-.06-.09,0-.23s.24-.3.3-.44.35-.33.15-.42S113.14,52.43,113.11,52.43Zm.18,3.94a.56.56,0,0,1,.22.62c0,.08-.1.15,0,.24s0,.2.18.2.29-.25.29-.48,0-.47-.07-.7h.24c-.06.35.2.52.34.82s.12.16.3.11.18-.15.16-.34,0-.14-.09-.19a.32.32,0,0,1-.13-.1c-.1-.14,0-.31-.1-.45s-.23-.1-.19-.26a.32.32,0,0,1,.24-.27c.11,0,.29,0,.36-.07s0-.31-.07-.39-.24,0-.4,0a1.83,1.83,0,0,1-.48.11c-.11.07-.11.09-.22,0s-.1-.13-.18-.13-.18.17-.24.29a2.78,2.78,0,0,0-.14.44c0,.13-.13.46,0,.53S113.26,56.35,113.29,56.37Zm24.87-35.8c0,.15-.19.34-.32.4a.92.92,0,0,1-.23.09c-.11,0-.13,0-.18.09a.21.21,0,0,1,0,.11.88.88,0,0,1-.16.3c0,.07-.06.24-.17.28s-.36-.07-.47-.11a1.29,1.29,0,0,1-.48-.28,1.21,1.21,0,0,1-.2-.19c0-.09,0-.11-.11-.11h-.14c-.12,0-.5.1-.57-.06s-.24-.26-.24-.48c-.11,0-.16.1-.27.05,0,.23.35.54,0,.71a1.24,1.24,0,0,0-.23.12c0,.05,0,.11-.11.18s-.24.05-.35.05-.18,0-.2.11.09.08.18.14.18.24.22.33a2.17,2.17,0,0,0,.15.35c.09.2.18.66-.19.55a1.34,1.34,0,0,0-.4-.13,2,2,0,0,0-.42.18,7.29,7.29,0,0,0-1.47.89,7.92,7.92,0,0,0-.61.56c-.11.13-.55-.12-.69-.2s-.11-.08-.24,0l-.2.08-.3.18c-.14.09-.18.06-.27,0s-.12-.1-.19,0a2.24,2.24,0,0,1-.74.29c0,.06-.05.1-.05.17s.05.11,0,.18-.17.17-.24.27a.77.77,0,0,0-.09.41c.09.06.23,0,.33.09s-.24.38,0,.62c.07.09.22.25.16.4s-.18.06-.27,0c-.25-.1-.29.37-.26.49s.13.26.11.35-.21.18-.31.21-.36.09-.42.26,0,.21,0,.33-.17.12-.24.18a.62.62,0,0,0-.27.53c0,.15-.08.18-.2.3s-.15.23-.26.26-.29-.47-.33-.6a7.74,7.74,0,0,1-.38-1.73,2.35,2.35,0,0,1,.09-.95c0-.09.14-.13.22-.17s0-.07.05-.16a.47.47,0,0,1,0-.17c0-.13.24-.14.36-.2a1.07,1.07,0,0,0,.26-.2,5,5,0,0,0,.42-.55,2.55,2.55,0,0,1,.24-.31c.09-.07.27-.14.29-.22a.61.61,0,0,1,.39-.42c.14-.05.25-.05.34-.16a.72.72,0,0,0,.11-.33c.05-.23,0-.52.19-.72-.14,0-.19.11-.34.09a.76.76,0,0,1-.12.41c-.1.1-.28.12-.37.23s-.36.53-.66.32c-.09-.09-.14-.19-.07-.29s.16-.24,0-.27a3.52,3.52,0,0,0-1,.05,4.51,4.51,0,0,1-.62.7,1.52,1.52,0,0,0-.3.38.56.56,0,0,0-.1.24c0,.05,0,.08.08.12s-.15.2-.26.23a3.69,3.69,0,0,1-.53.15c-.11,0-.35,0-.29-.15s0-.07,0-.12a.25.25,0,0,1,0-.12,1.21,1.21,0,0,1-.6,0c-.13-.07-.26-.16-.36,0a.19.19,0,0,1-.24.16,1.25,1.25,0,0,0-.46-.05.48.48,0,0,0-.22.05c-.07,0-.11.08-.18.08s-.2-.13-.32-.13a1.64,1.64,0,0,0-1,.18c-.13.13-.24.27-.39.4s-.29.17-.29.26c0,.25-.35.44-.54.62s-.28.28-.39.42a1.62,1.62,0,0,1-.26.4c-.25.17-.5.28-.51.59.28-.07.35.24.56.26s.1.15.14.24.07.06.16.06.22-.1.3-.28.45,0,.54.1.15.19.24.27.16.12.18.28a2.41,2.41,0,0,0,.09.59.71.71,0,0,1-.14.29c0,.12-.08.23-.13.35a1.76,1.76,0,0,0,0,.76.91.91,0,0,1-.16.65l-.2.32c0,.08-.07.24-.17.27s-.16.19-.18.3a1.2,1.2,0,0,0-.18.38,7.15,7.15,0,0,1-.4.61,7.59,7.59,0,0,1-1,1.09c-.06.07-.16.19-.25.17a2.09,2.09,0,0,1-.37-.17.7.7,0,0,0-.54.23c-.3.31-.29.8-.61,1.08a.74.74,0,0,1-.36.16c-.13,0-.15.09-.21.19s.1.23.17.33.13.17.17.25a1.93,1.93,0,0,1,.49,1.51c0,.12-.07.36-.19.37a.91.91,0,0,0-.34,0c-.13,0-.57.28-.6,0s-.07-.59-.11-.9a2.85,2.85,0,0,0,0-.42c0-.14-.2-.12-.31-.15s-.34-.12-.24-.25a1.36,1.36,0,0,0,.11-.38c0-.1.08-.18,0-.23a.59.59,0,0,0-.38-.12,1.58,1.58,0,0,0-.77.3.16.16,0,0,1-.25-.15,1.91,1.91,0,0,0,.11-.41c.09-.32-.27-.21-.43-.08a.48.48,0,0,1-.32.14c-.08,0-.15,0-.17.08s.09.27,0,.37-.23.08-.35.13-.11.35.07.46a.64.64,0,0,1,.26.3h.4c.09,0,.19-.14.27-.14s.28.08.41.1.29.05.27.2-.11.15-.18.17a1.11,1.11,0,0,0-.58.36c-.19.16-.37.36-.32.6s.19.3.37.42.06.21.11.36a1,1,0,0,0,.14.33,1.52,1.52,0,0,0,.22.22c.08.09,0,.24,0,.35s.08.25,0,.36-.12.07,0,.15a1.29,1.29,0,0,0,.09.16,1.63,1.63,0,0,1,0,.66,2.18,2.18,0,0,1-.26.34c-.05.11-.12.22-.17.34a.46.46,0,0,1-.25.22c-.05.13-.07.26-.11.4a4.76,4.76,0,0,1-.91,1.25c-.35.4-1,.06-1.42.4-.08.07-.08.23-.17.28s-.31.06-.42.11a2.75,2.75,0,0,1-.4.12c-.1,0-.07.12,0,.24s0,.25,0,.26.22,0,.24.15-.11.51-.32.56-.52.18-.59-.09a.48.48,0,0,1,.36-.54c.11,0,0-.08,0-.17a.58.58,0,0,1,0-.19c0-.11.09-.22-.09-.27a1.09,1.09,0,0,0-.71.08,1.49,1.49,0,0,0-.64,1.13c0,.24.31.57.47.73l.48.49a2.07,2.07,0,0,1,.53,1.33.21.21,0,0,1,.22.18c0,.1-.06.12-.15.16s-.09,0-.09.1a.58.58,0,0,1,0,.18c0,.08,0,.19-.14.23s-.26.27-.48.36-.16,0-.22.09-.13.17-.18.26-.36.54-.55.37,0-.35,0-.46a.43.43,0,0,0-.38-.28c-.11,0-.11-.08-.15-.15s-.16,0-.2-.08-.09-.2-.14-.29a.38.38,0,0,0-.13-.2,1,1,0,0,0-.48-.22c-.2,0,0-.33-.24-.36s-.18.14-.18.27a2.7,2.7,0,0,1-.07.63s0,.06-.06.09v.12a1.17,1.17,0,0,1-.05.27c0,.14.06.18,0,.31s-.09.18,0,.23a.78.78,0,0,1,.34.42c.06.18.06.44.26.55s.22,0,.29.09a.69.69,0,0,0,.28.28,3.8,3.8,0,0,1,.38.29c.07.07.07.22.09.32a3.55,3.55,0,0,1,.06.8,1.15,1.15,0,0,0,.24.35.33.33,0,0,1,.1.33c0,.13-.1.15-.23.15a.3.3,0,0,1-.26-.15.81.81,0,0,0-.35-.24.27.27,0,0,1-.19-.18s-.08,0-.1-.07-.07-.06-.11-.13a1.66,1.66,0,0,0-.16-.33,3.18,3.18,0,0,1-.24-.76c0-.2,0-.57-.22-.68s-.16,0-.18-.11-.07-.15-.09-.21l-.2-.35a1.61,1.61,0,0,1-.15-.33c0-.06,0-.14,0-.2s0-.09-.11-.13c-.47-.3-.23-1,0-1.39,0-.08.09-.16.11-.23l-.06-.22c0-.14-.09-.29-.14-.44s-.22-.61-.3-.92c-.16.11-.32.42-.51.44a2.38,2.38,0,0,1-.38,0c-.07,0-.18,0-.22-.09s0-.36,0-.49a1.87,1.87,0,0,1-.07-.4.43.43,0,0,0-.15-.34c-.05-.09-.05-.22-.14-.28a2.63,2.63,0,0,1-.77-1.3c-.08-.19-.55.27-.66.35a.5.5,0,0,1-.34.14c-.13,0-.28-.06-.36,0-.41.4-.68.91-1.2,1.14-.13.06-.13.06-.18.18a1.2,1.2,0,0,1-.11.17c-.07.1-.16.2-.22.29l-.58.52c-.2.12-.57.42-.53.66s.07.19.07.31a1.12,1.12,0,0,1-.07.4c0,.26-.06.51-.06.78v.41c0,.11-.09.23-.14.32a7.66,7.66,0,0,1-.55.75c-.11.1-.2.16-.35.1a.45.45,0,0,1-.2-.21.86.86,0,0,1-.11-.33.91.91,0,0,0-.16-.4l-.4-.79a6.55,6.55,0,0,1-.61-1.57,1.65,1.65,0,0,0-.16-.42c-.05-.08-.08-.17-.13-.27a2.43,2.43,0,0,1-.14-.68A5,5,0,0,1,95.1,46c0-.11,0-.22,0-.33s0-.11,0-.11a.19.19,0,0,0-.11.05c-.11.08-.19.22-.28.28s-.27,0-.37,0a1.09,1.09,0,0,1-.54-.56,1.41,1.41,0,0,0-.07-.45,2.69,2.69,0,0,0-.27-.32c-.17-.19-.39-.36-.57-.58s0-.2-.15-.18l-.24,0-.49,0q-.5,0-1,0c-.67,0-1.31-.06-2-.08a.58.58,0,0,0,.36.6c.13.06.28,0,.42.09s.2.17.24.25A1.06,1.06,0,0,1,89.71,46c-.1,0-.18,0-.18.13v.22a1.09,1.09,0,0,1-.07.3c-.07.07-.17.08-.24.13a.62.62,0,0,0-.16.28c0,.13-.24.13-.33.18a.33.33,0,0,0-.18.19c-.08.21-.44.17-.68.25a2.13,2.13,0,0,0-.55.44c0,.08-.14.16-.18.23a.46.46,0,0,1-.33.15,1.6,1.6,0,0,0-.67.32c-.06.06-.11.18-.21.18a.37.37,0,0,0-.31.1.4.4,0,0,1-.36.12.86.86,0,0,0-.33.11,1.63,1.63,0,0,0-.22.17c-.11.09-.18.06-.31,0s-.31,0-.37-.18-.09-.28-.14-.43a2.71,2.71,0,0,1-.11-.74,1,1,0,0,0-.09-.4,2.88,2.88,0,0,0-.22-.38,4.42,4.42,0,0,0-.4-.74A5.19,5.19,0,0,0,82.5,46a.59.59,0,0,1-.17-.33,2.22,2.22,0,0,1,0-.37,1,1,0,0,0-.13-.48,1.11,1.11,0,0,0-.24-.28,4.61,4.61,0,0,1-.44-.62,3.8,3.8,0,0,0-.89-1.41c-.09.14-.11.32-.33.22a2.81,2.81,0,0,0,.33,1c.1.18.18.36.28.54a.43.43,0,0,1,.14.24.77.77,0,0,0,0,.26c.11.29.38.52.47.79a.74.74,0,0,1,.13.46,1.22,1.22,0,0,0,0,.27l.06.24c.06.18.11.34.16.53s.22.11.32.21.14.35.18.47a1.35,1.35,0,0,0,.15.44c.09.12.36.19.36.33s0,.08.1.15a.84.84,0,0,1,.23.18,1.71,1.71,0,0,1,.32.39,4.79,4.79,0,0,1,.41.36c.06.1,0,.27,0,.38a.78.78,0,0,0,.2.35c.06.11.17.2.24.33s.31,0,.42,0q1-.23,2-.54c.36-.11.27.27.27.49s-.11.17-.16.27a1.77,1.77,0,0,1-.08.4,9.68,9.68,0,0,1-.67,1.6,12.32,12.32,0,0,1-1,1.46c-.09.08-.21.13-.31.22a.22.22,0,0,1-.15,0,1,1,0,0,1-.18.18c-.18.2-.37.4-.53.59a4.46,4.46,0,0,0-.28.43.56.56,0,0,1-.19.28,1.83,1.83,0,0,0-.49.58,5.2,5.2,0,0,1-.32.77,1.26,1.26,0,0,1-.22.33c-.06.09-.22.18-.2.29a.53.53,0,0,0,.17.33c0,.07.19.09.21.18s0,.29,0,.42a1.11,1.11,0,0,0,0,.37A3,3,0,0,0,83,60c.06.11.17.22.17.34s-.05.26-.05.37c0,.31.05.64.05.95a1.5,1.5,0,0,1-.05.84,4.31,4.31,0,0,1-1.28,1,2.36,2.36,0,0,0-.25.15,1.27,1.27,0,0,0-.06.18c-.07.11-.16.2-.22.3L81,64.4c-.07.06-.11.08-.08.17a.42.42,0,0,0,0,.15,4,4,0,0,1,.22,1.6,2.18,2.18,0,0,1-.09.37c-.06.13-.16.13-.26.15a1.81,1.81,0,0,0-.36.23c-.07.05-.28.13-.28.24a7.16,7.16,0,0,0,0,.8c0,.15,0,.52-.11.64l-.22.17c-.11.07-.1,0-.16.16a5.1,5.1,0,0,1-.38.73,5.73,5.73,0,0,1-1,1.28,1.83,1.83,0,0,1-.36.26c-.09.1-.22,0-.33.07s-.2.16-.29.18a2.54,2.54,0,0,1-.39,0,1.09,1.09,0,0,1-.44-.06c-.11.06-.28.08-.44.14s-.53.14-.8.23c-.1,0-.2-.09-.28-.18s-.21,0-.27-.13-.19-.57-.19-.8.11-.28,0-.46A1.59,1.59,0,0,0,74.3,70a1.73,1.73,0,0,1-.16-.37,1,1,0,0,0-.06-.37,4.17,4.17,0,0,1-1-2.48c0-.31-.08-.64-.09-.93a7,7,0,0,1-.35-.82c-.07-.13-.15-.31-.23-.47s-.09-.08-.2-.12-.21-.6-.21-.78a5.28,5.28,0,0,1,.21-1.75,1.92,1.92,0,0,1,.28-.79A.27.27,0,0,1,72.7,61a2.85,2.85,0,0,0,0-.4,12.4,12.4,0,0,1-.26-1.52c0-.11-.14-.09-.23-.14s-.11-.22-.11-.31,0-.51,0-.75a1.75,1.75,0,0,0-.45-.73,5.27,5.27,0,0,1-.51-.55,2.82,2.82,0,0,1-.24-.4.94.94,0,0,1,0-.41c.06-.23.13-.43.17-.67a2.17,2.17,0,0,0,0-1.31c-.07-.15-.25-.42-.47-.39a2.09,2.09,0,0,0-.39.11c-.12,0-.31.09-.41,0s-.15-.28-.22-.38-.13-.19-.19-.28a1,1,0,0,0-.27-.24,3.7,3.7,0,0,0-.47,0,4,4,0,0,0-1.46.52c-.19.08-.32.16-.46.23s-.22,0-.32-.09a1.84,1.84,0,0,0-.81-.06l-.28.06c-.13,0-.09,0-.16.09a1.07,1.07,0,0,1-.33.13c-.17.07-.22,0-.38,0s-.3,0-.38-.1a4.93,4.93,0,0,0-.62-.58l-.26-.32c0-.07,0-.1-.1-.13a.47.47,0,0,1-.19-.07c-.44-.25-.37-.88-.84-1.13-.11-.06-.11-.26-.2-.37a1.79,1.79,0,0,1-.22-.25,1,1,0,0,0-.07-.15c0-.09,0-.06-.11-.08a.53.53,0,0,1-.25-.15,1.51,1.51,0,0,1-.18-.64,2.57,2.57,0,0,0-.06-.4.29.29,0,0,1,0-.33c0-.09.23-.22.23-.33s0-.27,0-.4a.8.8,0,0,1,0-.4.6.6,0,0,1,.09-.18,1,1,0,0,1-.05-.18c0-.27-.07-.54-.09-.8a1.81,1.81,0,0,1-.11-.82,14.67,14.67,0,0,1,.76-1.6c.06-.16.13-.31.2-.47s.09-.14.21-.23.22-.44.41-.57.16,0,.22-.05a.91.91,0,0,0,.27-.25,1,1,0,0,1,.26-.25.81.81,0,0,0,.31-.23c.32-.46,0-1.11.43-1.53a3.18,3.18,0,0,0,.33-.3c.08-.09.08-.14.22-.18a.55.55,0,0,0,.35-.43c.06-.14.09-.28.14-.43a.65.65,0,0,1,.09-.19c0-.09.06,0,0-.13s-.24-.55-.53-.51-.66.21-.63-.16a1,1,0,0,0-.13-.68c-.06-.12.07-.29.1-.4a3.29,3.29,0,0,0,.09-.43,3.06,3.06,0,0,0,0-.8c0-.22-.21-.56,0-.7a1.39,1.39,0,0,1,.63-.21,11,11,0,0,1,2,0c.27,0,.27-.46.27-.63V34c0-.08,0-.11,0-.19a.72.72,0,0,1-.11-.15,3.09,3.09,0,0,1-.24-.44c0-.13,0-.12-.2-.15a1.29,1.29,0,0,1-.71-.32c-.21-.14.15-.41.3-.45a.72.72,0,0,1,.68.08c.15,0,.21-.14.21-.22s-.09-.18-.11-.27c-.06-.36.51,0,.6,0s.44-.27.54-.38a1.42,1.42,0,0,0,.15-.34c0-.14.09-.15.24-.18s.24-.13.39-.17.11,0,.18-.08.06-.11.1-.16.45-.29.47-.52-.11-.26,0-.33a2.12,2.12,0,0,1,.37-.18,2.61,2.61,0,0,1,.42-.16l.22,0c.12,0,.12-.06.13-.16a1.67,1.67,0,0,0-.11-.93c0-.18-.17-.68.1-.8s.59-.5.74-.32,0,.56-.09.74,0,.58.22.46.3-.31.56-.3a2.71,2.71,0,0,0-.34-1.2c0-.2-.14-.41-.19-.61s-.11-.07-.22,0a.62.62,0,0,0-.22.1,1.51,1.51,0,0,0-.46.48c-.12.19-.32.16-.52.11a.85.85,0,0,1-.62-.46.64.64,0,0,1-.07-.33c0-.09.16-.14.22-.24a.65.65,0,0,0,0-.39.84.84,0,0,0-.23-.26c-.08-.09,0-.28,0-.38a1.58,1.58,0,0,1,0-.37c0-.14.23-.26.34-.31s.24-.19.39-.27a1.76,1.76,0,0,1,.34-.25c.12,0,.15,0,.15-.13a.29.29,0,0,1,0-.16c.12-.13.21,0,.31,0a1.14,1.14,0,0,1,.18-.32,3.35,3.35,0,0,1,.49-.51l.28-.32c0-.09,0-.26.13-.31s.08,0,.12-.18a.87.87,0,0,1,.14-.33c.22-.47.76-.73,1-1.2.09-.22-.53,0-.48-.27,0-.09,0-.13.09-.21a.2.2,0,0,1,.26,0c0-.07.14-.22.27-.1s.11.19.24.19,0-.2,0-.29a.57.57,0,0,1,.09-.32c.09-.1.27,0,.38-.08s.16-.16.27-.27a.54.54,0,0,1,.31-.05c.11,0,.15.13.25.21.06-.08.2-.1.28-.13s.11-.13.19-.19.21,0,.33-.08.19-.14.28-.21a3.71,3.71,0,0,1,.56-.35.49.49,0,0,1,.32,0,1.17,1.17,0,0,0,.25.13.54.54,0,0,0,.28,0c.1,0,.12-.09.2-.13s.24,0,.34.07l.43.14c.13,0,.35.08.35.21s-.09.15-.17.16-.4.11-.31.32.09.09.13.13.11,0,.18,0h.36c.17,0,.52-.26.59,0s-.09.2.11.26a2.75,2.75,0,0,0,.41,0,1.57,1.57,0,0,1,.64.11,13.23,13.23,0,0,0,1.4.72,1,1,0,0,1,.55.46.47.47,0,0,1-.06.62c-.77.75-2.28.11-3-.24,0,.21.14.34.31.43s.43.22.46.44a.66.66,0,0,1-.08.36.56.56,0,0,0,.1.28.47.47,0,0,1,0,.25.44.44,0,0,1,.18,0,1.17,1.17,0,0,1,.31.2.62.62,0,0,0,.33.13c.06,0,.29,0,.29-.07v-.23s-.23-.05-.24-.06c-.16-.06-.38-.37-.14-.46s.36.12.48.16a3.36,3.36,0,0,0,.45.14,1.14,1.14,0,0,0,.41,0,.32.32,0,0,0-.11-.31c0-.08-.24-.19-.13-.33s.13-.19.27-.25l.32-.2c.12-.06.23-.2.33-.23s.29.11.38.17.18.12.27,0,.18-.46,0-.61-.1-.15-.08-.31a1.88,1.88,0,0,0,0-.41c0-.1-.09-.22,0-.29s.22,0,.3,0c.25,0,.49.13.54.37s-.33.13-.44.27.17.44.32.52a.55.55,0,0,0,.38,0c.13,0,.18-.12.22-.26s0-.26.22-.31.27-.16.4-.22a2.5,2.5,0,0,1,.71-.36,1.36,1.36,0,0,1,.41,0s0-.16.16-.16.13-.1.22-.13.23.09.23.2a.25.25,0,0,0,.09.22c.15.06.17-.05.31-.1a2.45,2.45,0,0,1,.76-.21c.17,0,.74-.28.76,0,0,.07,0,.15,0,.22s.22,0,.27-.11.26-.16.28-.25a.47.47,0,0,0,0-.3c0-.08-.12-.22,0-.3s.29-.05.41,0a3.48,3.48,0,0,1,1.56.44,2.06,2.06,0,0,1,.31.23,1.45,1.45,0,0,0,.16.18c.11,0,.24,0,.32.05s.14-.18.25-.2c-.13-.12-.2-.31-.33-.45s-.36-.08-.4-.24.18-.56,0-.75-.09-.12-.09-.26,0-.2.2-.28a1,1,0,0,0,.42-.63c.09-.16.18-.59.4-.59a.61.61,0,0,0,.19,0c.1-.09,0-.22.1-.31s.35-.06.41.06.07.22.2.28.23,0,.27.1a1,1,0,0,1,.07.67c0,.08-.15.14-.22.22s.11.23.17.36.22.4.09.6c0,0-.07.09-.09.13a.52.52,0,0,1,.07.11.55.55,0,0,1,0,.18,1.48,1.48,0,0,1,0,.42.33.33,0,0,0,.13.31c.12.09.18.12.18.26,0,.54-.46.85-.69,1.31,0,.09,0,.12.11.16a.93.93,0,0,0,.2-.09.9.9,0,0,0,.27-.24c.18-.19.28-.42.46-.62s.13-.13.09-.22-.07-.07-.09-.12a.21.21,0,0,1-.07-.26c0-.09.2-.14.3-.23s-.19-.11-.25-.08c-.33,0-.33-.41-.33-.63a1,1,0,0,1,.09-.31c0-.14.13-.18.08-.33s-.46-.51-.4-.68a.85.85,0,0,1,.51-.42c.11,0,.3-.12.38,0a1,1,0,0,1,0,.39c0,.06,0,.22.11.15s0-.15,0-.21c0-.28.62,0,.46-.33,0-.13-.13-.13-.06-.27a.24.24,0,0,1,.25-.14c.12,0,.15.12.26.19s.26,0,.37.05a1.54,1.54,0,0,1,.55.29,2.29,2.29,0,0,0,.43.2c.13,0,.15-.11.28-.09.33.07,0,.35-.13.43s-.34.28-.26.52.46,0,.44.31c.13,0,.13-.18.28-.13,0-.35-.33-.71,0-1-.08,0-.11-.14-.15-.14s-.16-.07-.25-.15-.44-.2-.63-.35,0-.16,0-.28,0-.15-.11-.21,0-.37.24-.45a4.88,4.88,0,0,1,1.37-.11,1,1,0,0,0,.62-.27c0-.12-.18-.1-.2-.19a.29.29,0,0,1,.07-.23c0-.1.19-.09.22-.22a.54.54,0,0,0,0-.18c0-.18.53-.2.68-.27a9.62,9.62,0,0,1,1.4-.37s.17,0,.17-.07a.13.13,0,0,1,.08-.16c.08,0,.23,0,.35,0s.52-.25.64-.09,0,.09,0,.13a.53.53,0,0,0,.26,0,1.06,1.06,0,0,0,.31-.09c.24-.11.47-.22.69,0,.09-.1-.09-.23.06-.31s.33,0,.47-.09-.11-.19,0-.31a1.52,1.52,0,0,1,.31-.31,2.12,2.12,0,0,1,.42-.32,1.1,1.1,0,0,1,.54,0,1,1,0,0,1,.4.13c.17.13-.07.22-.14.31a1.46,1.46,0,0,0,.62.09c.22,0,.22.15.09.26s-.12.25.13.23.18-.24.31-.24a2.24,2.24,0,0,1,1.92.5c.16.15.22.25.13.47a1.57,1.57,0,0,1-.24.4,3,3,0,0,1-.82.55,5.21,5.21,0,0,0-.55.32c-.13.1-.21.25-.37.35a.62.62,0,0,1-.27,0c-.16,0-.2.2-.27.28.42.19.89-.19,1.29-.24.06-.13-.07-.1-.12-.19s.05-.2.18-.22.58.2.84,0c.11-.06.25,0,.33.11s.07.24.16.2.08-.08.11-.11a.31.31,0,0,1,.18,0,3.85,3.85,0,0,0,.5,0,1.21,1.21,0,0,1,.43,0c.11,0,.18.15.26.08s.18,0,.26,0,.13.12.16.2.2.1.33.13l.45.1c.17,0,.75.09.7-.18s0-.51.26-.53a1.56,1.56,0,0,1,.61,0s.06.08.11.14.06,0,.15,0a1.91,1.91,0,0,1,.42,0,1.33,1.33,0,0,1,.64.22,1,1,0,0,1,.36.66,1,1,0,0,1-.09.41.27.27,0,0,1,0,.19c-.05.11,0,.09,0,.15a2,2,0,0,0,.68.41c.25-.07.25-.38.31-.56s.51.05.71.12a.67.67,0,0,0,.42,0c.09,0,.19-.14.31-.11a3.65,3.65,0,0,0,.93,0,1.68,1.68,0,0,1,.28.08,1.41,1.41,0,0,0,.18-.17.42.42,0,0,0,0-.33c-.1-.07-.18-.1-.12-.2s.12-.1.23-.08.17-.08.26-.14.16-.21.37-.14a1.7,1.7,0,0,0,.47.11c.11,0,.27-.11.39-.07a1.48,1.48,0,0,0,.41.12,5.79,5.79,0,0,0,1,.15,1.17,1.17,0,0,1,.44.1c.09.08,0,.22.07.3.15.46.93.13,1.12.54a.23.23,0,0,1,.07.2h.2l.51-.05.93-.08a1.5,1.5,0,0,1,1.26.39.53.53,0,0,1,.44-.71.68.68,0,0,1,.73.54c0,.19,0,.26-.17.35s-.08.31-.26.31a.92.92,0,0,1-.72-.31c-.09.15-.14.28.08.35s.34.1.43.23c.51-.49,1.37-.11,2-.11a.54.54,0,0,0,.38-.24.29.29,0,0,1,.36-.12c.13,0,.24.12.21.24s-.13.07-.24.1a1,1,0,0,0,.27.39c.1,0,.38.15.44.06s.11-.35,0-.43,0-.34,0-.4a.52.52,0,0,1,.6.11c.06.06.09.07.2.06a.49.49,0,0,0,.21,0,1.51,1.51,0,0,1,.61-.07,2.71,2.71,0,0,1,.92.23,11.68,11.68,0,0,1,1.29.57c.38.21.73.44,1.1.69.07,0,.07.09.14.07a.12.12,0,0,1,.1,0,.46.46,0,0,1,.16.07c.09.15.24.17.2.37a2.2,2.2,0,0,1,1,.17,2.28,2.28,0,0,1,.47.23c.11.05.36.13.37.24S138.15,20.55,138.16,20.57ZM87.57,33.79a.82.82,0,0,1,.44.11c-.08-.34-.38-.53-.49-.83,0-.08-.12-.06-.23-.08a1.2,1.2,0,0,1-.24,0c-.2,0-.38,0-.48.11s-.33,0-.45.11-.19.19-.32.28-.14.09-.22,0,0-.09-.16,0a1.94,1.94,0,0,1-.16.48c-.09.09-.22.32-.13.43a.83.83,0,0,1,.24.29.63.63,0,0,1,0,.35,1.17,1.17,0,0,0,.11.33c.13.22.33.38.49.61a1.27,1.27,0,0,1,.17.71.94.94,0,0,1-.13.41c0,.13-.09.14-.09.27s0,.41.11.61a.63.63,0,0,0,.33.4.7.7,0,0,0,.35,0,3.42,3.42,0,0,0,.35-.11c.24-.05.68,0,.76-.29s-.14-.42-.17-.63,0-.62-.21-.87a1.15,1.15,0,0,1-.2-.81.62.62,0,0,0-.13-.44c0-.09-.2,0-.28-.11a.46.46,0,0,1-.07-.3,1.54,1.54,0,0,1,0-.17.5.5,0,0,1-.19-.07c-.14-.07-.19-.14-.17-.26s.21-.14.3-.19a2.62,2.62,0,0,1,.87-.34ZM71.92,28.85c-.12,0-.2,0-.28-.07l-.32-.11c0,.22.18.32.36.43s.07.08.12,0a.88.88,0,0,1,.2-.09,2,2,0,0,1,.32-.11c.27-.05.29.21.51.32s.51-.23.66-.32a1.43,1.43,0,0,1,.56-.25c.11,0,.3-.06.38,0s.08.13.18.16a.63.63,0,0,0,.31,0,.28.28,0,0,1,.08-.21c.12-.09.3-.05.44-.07a1.35,1.35,0,0,1,.17-1.52c.08-.08.23-.2.32-.11s.16.25.29.3c.33.1.35-.16.35-.38s0-.19,0-.22-.1-.05-.13-.1a.44.44,0,0,1-.18-.39c0-.31.42-.35.69-.37a8,8,0,0,1,1,0c.27-.13.45-.41.78-.29-.06-.2-.45-.09-.51-.3a.11.11,0,0,1,0-.09h-.37a2.13,2.13,0,0,0-.42.06c-.28.09-.55.22-.82.29s-.44-.13-.74-.22-.21,0-.31-.15-.15-.13-.09-.25,0-.6,0-.85a.43.43,0,0,1,0-.37c.06-.08.21,0,.31,0s.21-.23.24-.29l.29-.31a2.68,2.68,0,0,0,.49-.61,2.48,2.48,0,0,0,.17-.37c0-.07-.14-.21-.21-.26s-.55-.11-.74,0a.74.74,0,0,0-.39.57c0,.13.07.31,0,.41s-.19.17-.26.26a1.2,1.2,0,0,1-.6.34c0,.18-.22.07-.27.18a2.9,2.9,0,0,0-.19.29,3.74,3.74,0,0,0-.24.69,1.78,1.78,0,0,0-.06.47,2.34,2.34,0,0,0,.3.25c.19.12.37.31.24.54a.94.94,0,0,1-.43.53,2.45,2.45,0,0,1-.31.12,3.28,3.28,0,0,1,0,.43,3.71,3.71,0,0,1-.2.83c0,.15-.09.15-.25.24l-.32.24a1.41,1.41,0,0,0-.29.25c-.09.09-.2,0-.31.06s-.29.27-.47.38ZM80,35.71a1.62,1.62,0,0,1,1,.11,2.69,2.69,0,0,0,.88.39,2.28,2.28,0,0,0,.6-.1,1.74,1.74,0,0,0,.41-.1.46.46,0,0,0,.32-.49c0-.12-.22-.23-.29-.31a3.23,3.23,0,0,1-.44-.39c-.31-.21-.6-.43-1-.64-.17-.09-.17-.2,0-.3a.46.46,0,0,0,.28-.3c0-.11,0-.31.12-.39s.17-.08.22-.24a2.37,2.37,0,0,0-1.14.41,4.36,4.36,0,0,0-.4.35c.05.13.18.17.34.16a.13.13,0,0,1,.15.15c0,.12-.15.12-.23.16a3.69,3.69,0,0,1-.53.26c-.15.06-.3-.17-.35-.27a.49.49,0,0,1-.06-.55c-.3.05-.36-.15-.55-.29a.76.76,0,0,0-.57.43,2.34,2.34,0,0,1-.46.71.6.6,0,0,1-.18.6.75.75,0,0,0,.36,1.11c.22-.13.71.15.83-.07a1,1,0,0,1,.63-.4C80.08,35.67,80,35.71,80,35.71ZM65.61,38.88c0,.07-.06,0,0,.1s0,.07,0,.11a.28.28,0,0,0,.15.17c.18.1.29-.06.52,0s.55.17.64,0a.86.86,0,0,1,.42-.3,1.31,1.31,0,0,0,.57-.3.91.91,0,0,1,.52-.15,5.58,5.58,0,0,1,.78-.08c.1,0,.48.07.49,0s.5-.09.6-.09a2.25,2.25,0,0,0,.84-.14c.15-.07.22.1.33.14s.2,0,.22.15a2.06,2.06,0,0,1,0,.43c0,.13,0,.26,0,.42s-.07.21-.25.32-.14,0-.14.12,0,.14,0,.21.15.17.33.22.3.06.47.09c.42.07,1,.15,1.18.53a.58.58,0,0,1,.08.18c0,.1,0,.11.11.11a1.26,1.26,0,0,1,.38.06,2.28,2.28,0,0,0,.74.27c.08,0,.19,0,.19-.08v-.19a2.86,2.86,0,0,0,.07-.28.89.89,0,0,1,.34-.43c.1-.08.46-.26.62-.17a1,1,0,0,0,.26.17c.09,0,.15.09.11.2.31.11.64.09.93.21l.19.08h.2a.73.73,0,0,1,.3.12,1.42,1.42,0,0,0,.93,0c.19,0,.67-.23.8-.09a.45.45,0,0,0,.27.14.54.54,0,0,0,.35-.11.38.38,0,0,1,.17,0c.1,0,.08-.06.1-.16a1.18,1.18,0,0,1,.09-.38A4.87,4.87,0,0,0,81.11,39a2.5,2.5,0,0,0,0-.47.45.45,0,0,0-.39,0c-.21,0-.49.34-.7.26s-.43-.33-.72-.37-.17.35-.43.35-.21-.15-.3-.22a.44.44,0,0,0-.36,0c-.22.07-.37-.39-.45-.52a4.8,4.8,0,0,1-.21-.85c0-.14,0-.27-.07-.42s0-.22-.17-.26a1.7,1.7,0,0,0-.45,0l-.23,0a.85.85,0,0,0,0,.16c0,.29-.24.2-.42.15a.61.61,0,0,0,.18.54c.08.12.37.25.37.43s-.35.08-.46.08-.09.42,0,.54c.13.29-.37.12-.49,0s0-.24-.09-.33a.81.81,0,0,0-.16-.32c-.12-.12-.19-.15-.21-.32a.9.9,0,0,0-.12-.3,1.39,1.39,0,0,0-.22-.21c-.13-.1-.11-.2-.13-.36a3.85,3.85,0,0,1,0-.48c0-.06,0-.12,0-.18s-.1-.1-.13-.14c-.24-.18-.45-.31-.67-.45a1.79,1.79,0,0,1-1-1c-.1-.05-.28.08-.4,0s-.06-.2-.16-.28-.14,0-.17.1a1.45,1.45,0,0,0,0,.45,1.29,1.29,0,0,1,.25.28c.12.22.2.46.33.69a.67.67,0,0,0,.53.33c.12,0,.14,0,.22.16a.22.22,0,0,1,0,.14l.21.06c.22.07.51.19.57.42a.15.15,0,0,1-.13.19c-.16,0-.27-.06-.41,0a.63.63,0,0,1,.08.62c-.08.11-.32.42-.43.16,0-.09,0-.2,0-.29a.71.71,0,0,0-.1-.32.89.89,0,0,0-.43-.33c-.09,0-.32,0-.31-.19a.22.22,0,0,0-.14-.23,2.13,2.13,0,0,1-.61-.34,2,2,0,0,1-.46-.54.82.82,0,0,1-.12-.32.33.33,0,0,1-.06-.14c0-.12-.06,0-.15-.08s-.11-.21-.31-.17a1.48,1.48,0,0,1-.35.25,1.31,1.31,0,0,0-.32.22c-.11.08-.13.19-.28.21a1.09,1.09,0,0,1-.49-.06c-.13,0-.34-.13-.4,0s-.22.1-.28.22.06.21.06.32a.77.77,0,0,1-.38.52,1.77,1.77,0,0,1-.31.15l-.15.06c0,.06-.06.12-.08.17-.11.22-.29.36-.3.59s0,.22-.05.34a1.91,1.91,0,0,0-.16.32.89.89,0,0,1-.09.26.48.48,0,0,1-.13.09,2.83,2.83,0,0,1-.24.25.51.51,0,0,1-.38.08l-.47,0c-.06,0-.15.11-.2.14a.44.44,0,0,1-.29.14S65.77,38.87,65.61,38.88Zm61.52,28.25a3.06,3.06,0,0,0-.61-1.36l-.27-.21c-.09,0-.09,0-.11-.1a1.21,1.21,0,0,0,0-.18,1.06,1.06,0,0,0-.18-.27c-.09-.09-.23-.13-.28-.24a2.11,2.11,0,0,1-.34-.73c0-.2-.48-.38-.63-.49a1.08,1.08,0,0,1-.53-.48c0-.11,0-.27,0-.4s-.18-.37-.25-.53a5.89,5.89,0,0,0-.29-.84c-.1-.15-.19-.11-.35-.11s-.11-.2-.16-.32-.22-.43-.3-.66,0-.55-.27-.51-.3.58-.3.76c-.07.57,0,1.17,0,1.75a1.81,1.81,0,0,1-.09.35.34.34,0,0,0-.09.15c-.06,0-.09,0-.15,0-.27,0,0-.31-.11-.47s-.34.11-.51.09-.55-.24-.82-.38-.45-.3-.38-.55a2.4,2.4,0,0,1,.36-.69,1.31,1.31,0,0,0,.13-.34c0-.16-.2-.16-.29-.19-.33,0-.66-.08-1-.15a2.44,2.44,0,0,0-.88-.17L118,60c-.28,0-.21.15-.16.33a1.09,1.09,0,0,1-.2.75l-.2.36c-.07.08,0,.13-.16.11s-.2-.07-.28-.11a.86.86,0,0,1-.38-.16c-.06,0-.13-.15-.24-.11a1.34,1.34,0,0,0-.57.53,2.06,2.06,0,0,1-.45.6.82.82,0,0,1-.33.15c-.13,0-.19.25-.24.34-.13.39-.21.88-.6,1.1a1.28,1.28,0,0,1-.31.11c-.11,0-.26,0-.31.07a1.85,1.85,0,0,1-.79.26.65.65,0,0,0-.45.35c0,.05,0,.12-.06.12a.11.11,0,0,0-.13,0c-.12.11-.21.09-.25.22a2.33,2.33,0,0,0-.31,1.35,2.12,2.12,0,0,0,.11.33s.07.12.11.13,0,.16,0,.25a3.45,3.45,0,0,0,.13,1,12.08,12.08,0,0,1,.6,1.75,1.79,1.79,0,0,1,0,.86c0,.11-.13.33-.09.4s.27.19.36.32c.35.47,1.1-.13,1.45-.28a1.4,1.4,0,0,1,.62-.18c.09,0,.07.07.2.07a.41.41,0,0,0,.22,0c.27-.09.69-.13.71-.49,0-.09.09-.09.18-.13a1.36,1.36,0,0,0,.28-.18c.11-.06.12-.11.25-.13a1.67,1.67,0,0,0,.39,0,10.47,10.47,0,0,1,1.51-.13,1.06,1.06,0,0,1,.32,0c.14,0,.21.1.32.17a5.45,5.45,0,0,0,.56.42c.12.09.32.2.37.36a1.55,1.55,0,0,0,.18.39,1.43,1.43,0,0,0,.52.73,1.07,1.07,0,0,0,1,.09,1,1,0,0,0,.87,1,5.77,5.77,0,0,0,.79.21c.2,0,.31.09.42-.09a.28.28,0,0,1,.25-.21c0,.16.13.25.24.3s.31.2.46,0a1.55,1.55,0,0,1,.84-.46,1.86,1.86,0,0,0,.27,0c.09,0,.06-.13.13-.18s.09-.12.09-.19v-.69c0-.11.11-.24.15-.36s.12-.37.18-.57a2.44,2.44,0,0,1,.2-.55A1.31,1.31,0,0,1,127,70c.07-.07.07-.19.09-.28.06-.39.13-.8.18-1.2,0-.22,0-.46.07-.68a.88.88,0,0,0-.12-.33c0-.11-.07-.25-.09-.36C126.93,66.42,127.2,67.35,127.13,67.13Zm-1.7,7.27a2.36,2.36,0,0,1-.7,0c-.16,0-.49-.11-.47.18a2.3,2.3,0,0,0,.35,1.06c.09.09.31.31.47.29a1.11,1.11,0,0,0,.42-.44,1,1,0,0,0,.2-.58c0-.13,0-.57-.27-.56S125.52,74.4,125.43,74.4ZM116,51.08c0-.11-.09-.82-.36-.61-.08.07-.13.25-.2.34a1.13,1.13,0,0,1-.44.27c0-.22-.31-.09-.42,0a1.15,1.15,0,0,0-.29.36.45.45,0,0,0-.06.21.16.16,0,0,0,.25.11c.16-.09.26-.32.45-.36.07.32.23.93.69.9s0-.43.2-.51a.11.11,0,0,0,.09-.09.16.16,0,0,0,.15-.1c0-.14-.06-.37-.06-.52S116,51.23,116,51.08Zm-2.52-2.82c.06.13.2.27.2.42s0,.07,0,.16,0,.08,0,.12a.17.17,0,0,0,.27,0s0-.09,0-.15a.21.21,0,0,1,.09-.18c.24-.07,0-.56,0-.74s.07-.12.11-.17.15-.16.15-.32a1.88,1.88,0,0,0,0-.31,1.22,1.22,0,0,0-.09-.42c0-.11-.24-.13-.35-.15s-.27,0-.29.18a2.62,2.62,0,0,0-.09.8c0,.12,0,0-.12.11s0,.11,0,.17a1.87,1.87,0,0,0,.21.45C113.51,48.39,113.36,48.1,113.43,48.26Zm3.13,6.52c0,.13.25.13.27,0s.2-.51.09-.69-.4-.06-.47,0,.07.49.11.65S116.52,54.71,116.56,54.78Zm-3.2,3.77c-.28-.06-.53.09-.82.12a.24.24,0,0,0-.2.06.14.14,0,0,0,0,.23,1.3,1.3,0,0,0,.85,0c.08,0,.28-.06.28-.2a.21.21,0,0,0-.11-.18C113.29,58.53,113.41,58.58,113.36,58.55Zm1.92-9.4c-.33,0-.13.31-.1.46s0,.25.1.29a.34.34,0,0,0,.29-.09c.09-.16-.06-.66-.29-.66Zm-.22,1.11a.61.61,0,0,1-.13-.15c0-.11-.08-.11-.18-.12s-.16-.1-.18-.19-.12-.11-.21-.17-.25.08-.25.21,0,.21.2.28a.17.17,0,0,1,.09.27c-.16.13,0,.4.19.31s.1-.09.16-.11a.21.21,0,0,1,.2,0c.27,0,.27-.2.11-.31S115.11,50.28,115.06,50.26Zm4.67-12.65a.85.85,0,0,1-.37,0c-.14,0-.18.17-.26.26a1.59,1.59,0,0,1-.18.4c0,.09,0,.12-.1.12a1.51,1.51,0,0,0-.31,0,1.31,1.31,0,0,1-.42.08c-.08,0-.24-.08-.31,0a3,3,0,0,0-.33.28,2,2,0,0,0-.58,1c-.06.24-.1,1.2.4,1,.11,0,.14-.25.16-.36a3.64,3.64,0,0,1,.11-.39c.07-.12,0-.19-.06-.33s-.14-.31,0-.24.07.37.22.49.21,0,.3-.08a.94.94,0,0,1,.11-.17c.06-.07.06,0,.15,0s.13-.13.27-.15a.37.37,0,0,1,.31.09c.19.08.33-.25.42-.34a.8.8,0,0,1,.61-.22c.09,0,.25.07.34,0s.06-.22.11-.3.22,0,.35-.12.1-.24.1-.34.06-.25.1-.37.15-.23.11-.36-.11-.23-.05-.32a1,1,0,0,0,.19-.4,1.4,1.4,0,0,0,0-.76,1.45,1.45,0,0,0-.19-.34c-.06-.09-.26-.16-.3,0s-.18,0-.23.11a2.23,2.23,0,0,0-.13.46c0,.49-.06,1.11-.57,1.4C119.59,37.64,120.17,37.35,119.73,37.61Zm3.43,10.22c-.21,0-.38.52-.47.65s-.11.5.13.5.35-.3.42-.46.16-.62-.08-.69C123.08,47.83,123.22,47.86,123.16,47.83ZM85,10.16c.08,0,.08.13.17.13a.47.47,0,0,0,.29-.19A.63.63,0,0,1,85.7,10c.1,0,.2,0,.27-.07s0-.1.11-.1a.44.44,0,0,0,.3,0c.29-.17-.26-.3-.36-.33a.63.63,0,0,0-.34.16c-.15.15-.31-.11-.49,0s0,.08-.06.13-.13,0-.15.06-.14.36,0,.38S84.93,10.16,85,10.16ZM71.66,11.29c-.27,0-.19-.38-.08-.49a.93.93,0,0,1,.59-.19,1.66,1.66,0,0,1,.73.06l.12.08c.08.05.11,0,.17,0a.56.56,0,0,0,.26-.17.3.3,0,0,1,.31-.11,1.87,1.87,0,0,1,.32.08c.08,0,0-.18.11-.24a.32.32,0,0,1,.27,0c.05-.09.19-.13.24-.22a.22.22,0,0,1,.22-.07,1.58,1.58,0,0,1,.65.27A1,1,0,0,1,75.9,10c.1,0,.26.09.35.11a8.44,8.44,0,0,0,.87,0c.22,0,.49.13.4.38s-.29.25-.4.39-.06.13-.17.17a.28.28,0,0,1-.14,0,1,1,0,0,0-.32.1c-.15.07-.18.08-.33,0a1.27,1.27,0,0,0-.42-.09A2.3,2.3,0,0,1,75,11a.46.46,0,0,1-.2-.23c-.11,0-.14.08-.08.16s0,.24.11.29a3.76,3.76,0,0,0,.37.16,1,1,0,0,1,.33.17c.1.08.05.21.1.31a.9.9,0,0,0,.55.34c.19.07.65.17.41.42a.93.93,0,0,1-.77.24,1.28,1.28,0,0,1-.43-.1c-.15-.05,0-.18,0-.29a.54.54,0,0,0-.4-.6c-.19,0-.17.11-.22.22s-.17.19-.22.28,0,.32-.16.36a.4.4,0,0,0-.22.17c-.08.15,0,.53-.25.58s-.29-.13-.38-.19l-.39-.18c-.12-.05-.31-.11-.36-.21s0-.19.1-.28c-.24,0-.39-.31-.14-.45a.86.86,0,0,1-.41-.13c-.08-.06-.25-.14-.28-.24a.73.73,0,0,1-.07-.43c0-.14-.13-.06-.24-.06S71.68,11.29,71.66,11.29Zm1.13.67a.2.2,0,0,1,0,.11c.13,0,.2.18.36.09a.34.34,0,0,0,.12-.4c0-.09,0-.17-.12-.18a.36.36,0,0,0-.23,0c-.12.06-.13.22-.13.35S72.79,11.93,72.79,12ZM90.66,9.41c.06,0,.11.05.15.05s.17-.08.28-.11.23,0,.3-.1,0-.2,0-.26-.42,0-.53,0-.36.3-.15.4Zm-1.27.44c.14.11.41.06.58.06s.13,0,.18-.15V9.6a.13.13,0,0,0,.08-.13c0-.13-.15-.17-.26-.2s-.22,0-.31.15-.53.27-.27.43ZM72.75,38.31c0,.09,0,.2.12.2a.31.31,0,0,0,.28-.32,1,1,0,0,0,0-.25.13.13,0,0,0-.05-.18c-.09,0-.31,0-.31.11-.16-.09-.5-.18-.58,0s.4.37.54.41Zm15-28.72.39.09c.18,0,.19,0,.35-.06s.2-.1.14-.21-.3-.11-.41-.11a.14.14,0,0,0,0,.12V9.3a1.78,1.78,0,0,0-.26,0c-.08,0-.22,0-.24.11s0,.17.07.22S87.68,9.59,87.7,9.59Zm-17,27.46c0,.15.19.15.29.09a2,2,0,0,0,.18-.13c.07-.07,0-.19,0-.26s0-.44-.1-.5c.13-.09,0-.4,0-.5s-.26,0-.31,0,.08.28.14.39,0,0,0,.13-.13.09-.16.14a.7.7,0,0,0,0,.25.69.69,0,0,1,0,.35S70.77,36.9,70.74,37.05Zm7.35,2c.2,0,.2-.31,0-.36s-.25.36,0,.36Zm2,.48c.15,0,.26-.14.34-.24s0-.31-.19-.26-.42.11-.46.25.21.25.31.25ZM65.46,27.94a1.17,1.17,0,0,1,.28.73c0,.27.16.22.38.22s.09.27.25.37.09,0,.09,0v.15a1.94,1.94,0,0,0,0,.2c0,.08-.1,0-.18.1a1.81,1.81,0,0,0-.16.35c-.08.12-.17.22-.23.32s-.1.22,0,.26A.22.22,0,0,1,66,31c-.1.1-.52.43-.23.53a.86.86,0,0,0,.67-.23,1.45,1.45,0,0,0,.92-.09,3.43,3.43,0,0,1,.46-.11c.06,0,.16,0,.2-.05s0-.21,0-.3,0-.15.13-.25a.32.32,0,0,0-.13-.55c-.1,0-.27,0-.36,0s-.11-.17-.13-.26a2,2,0,0,0-.09-.37c0-.12-.2-.16-.27-.27s-.15-.45-.27-.66a.51.51,0,0,0-.22-.26.16.16,0,0,0,0-.13c0-.06,0-.13,0-.19a1.67,1.67,0,0,0,.18-.48c.07-.2-.2-.2-.32-.2s-.22,0-.24-.1a.2.2,0,0,1,.05-.15c.11-.19-.05-.26-.2-.25s-.43,0-.48.11,0,.11-.14.15a.19.19,0,0,0-.14.21,1.94,1.94,0,0,1,0,.54c0,.14-.09.24,0,.36Zm21.32-10.5a.93.93,0,0,1,.65.21c.11.12.39.55.6.48s.5.11.58-.08-.08-.18-.14-.24a1.17,1.17,0,0,1-.27-.35A1.45,1.45,0,0,1,88.51,16c.13-.16.4-.29.33-.5s.11,0,.2-.07.18-.23.29-.31.47-.29.64-.48a1.28,1.28,0,0,1,.4-.15l.35-.22a8.5,8.5,0,0,1,1.68-.56,1,1,0,0,0,.51-.39c.09-.11,0-.18-.11-.25s-.13-.11-.31-.09a14.9,14.9,0,0,0-1.51.61,1.4,1.4,0,0,1-.5,0,.62.62,0,0,0-.51.08,1.32,1.32,0,0,1-.42.23c-.16,0-.31,0-.42.14a1.93,1.93,0,0,1-.77.46c-.23.07-.25.1-.25.31a1.42,1.42,0,0,1-.08.4,1.48,1.48,0,0,1-.25.25c-.13.06-.35.1-.29.26s.14.12.12.27a.46.46,0,0,0-.39.21c-.17.18-.14.48-.3.67s-.28.13-.33.25,0,.33.19.31ZM96.71,16c-.35,0-.31.58,0,.58a.34.34,0,0,0,.31-.27.32.32,0,0,0-.34-.31Zm26-1.58c.09,0,.28,0,.35-.08A.19.19,0,0,0,123,14a4.91,4.91,0,0,0-1-.24c-.11,0-.29,0-.31.13s.14.21.2.28a1.48,1.48,0,0,0,.82.21Zm-4.62-.23c.2.1.64.51.85.3s.08-.18.28-.08.28-.07.44-.1a2.71,2.71,0,0,0,1.1-.18.44.44,0,0,0,.2-.39c0-.18-.2-.23-.37-.25a1.23,1.23,0,0,0-.51,0c-.14-.08-.24-.24-.42-.24s-.18.06-.2.19-.11.1-.22,0-.8-.43-1.06-.11c-.11.13-.27.69-.09.81S118.05,14.1,118.07,14.14Zm-16.92-3.81c.12.28.69,0,.45-.21a1,1,0,0,0-.4-.11c-.21,0-.11.24,0,.32Zm18.27,5.11c.06.16.52.13.68.16a1,1,0,0,0,.38,0c.13-.07.07-.23,0-.32a.92.92,0,0,0-.71-.27c-.11,0-.29.05-.33.16s-.08.22,0,.26S119.39,15.4,119.42,15.44Zm-15.24-3.58c.12.1.25,0,.34,0a.77.77,0,0,1,.46-.11,2.84,2.84,0,0,0,1-.14c.21-.08.57-.21.26-.42s-.47-.45-.8-.36c.07-.25-.2-.2-.35-.13a1,1,0,0,0-.48.33c-.14.12-.56.71-.41.88ZM85.7,19c-.35,0-.51.51-.06.51a.58.58,0,0,0,.42-.2c.18-.2-.2-.31-.36-.31Zm3.81-.69a.14.14,0,0,0-.18.21.41.41,0,0,0,.31.21c.11.05.29,0,.22-.16s-.25-.22-.35-.26Zm11.92-8.44a.73.73,0,0,1,.26.14.16.16,0,0,0,.24.12s.24-.14.24,0-.1.13-.17.22,0,.17.08.23.09.2.14.26a.43.43,0,0,0,.33.12.4.4,0,0,0,.16-.1,1.31,1.31,0,0,1,.12.11,2.38,2.38,0,0,0,.8.23,1,1,0,0,0,.45-.08c.1,0,0-.19,0-.29s.24-.58.09-.72a.44.44,0,0,0-.62,0c0-.18-.2-.18-.35-.23s-.09-.05-.09-.16V9.5c.09-.2,0-.23-.16-.35s-.33-.3-.46-.22a5.81,5.81,0,0,0-.6.23c-.13,0-.44.09-.44.25s0,.15,0,.19-.23.25,0,.29S101.35,9.89,101.43,9.89ZM63.75,30.59c0,.12.15.2.24.22a.67.67,0,0,0,.49-.09A2.71,2.71,0,0,1,65,30.5c.19-.07.24-.07.29-.27s.07-.69.15-1a.67.67,0,0,1,0-.19c0-.1,0-.18-.09-.24s-.2-.16-.4-.16-.66.1-.71.3.09.24,0,.24a.77.77,0,0,0-.22,0c-.11,0-.22.15-.22.25a1.11,1.11,0,0,0,.17.43.48.48,0,0,1,.12.17c0,.06-.12.14-.15.2a.63.63,0,0,0-.21.38S63.75,30.43,63.75,30.59Zm33-14.88c.36,0,.29-.49.07-.6-.38-.16-.47.55-.07.6ZM22.37,14.63c.06.13.24.06.36.06a.87.87,0,0,1,.42.05c.2.06.25,0,.41-.13a1,1,0,0,0,.34-.32c0-.12.2-.06.24.05s.27,0,.33-.08.32-.14.34-.25-.06-.29,0-.37.14-.15.06-.27a.22.22,0,0,0-.34-.08c-.11.08-.16.22-.31.18a.86.86,0,0,0-.55.06,3.2,3.2,0,0,0-.79.59.38.38,0,0,1-.25.13.4.4,0,0,0-.23.06.22.22,0,0,0-.07.32C22.39,14.7,22.36,14.62,22.37,14.63Zm16.74,6.63c.19,0,.55-.05.6-.27s-.09-.22-.09-.33,0-.18-.18-.2a.48.48,0,0,0-.49.31c-.07.13-.07.44.16.49C39.15,21.26,39,21.24,39.11,21.26Zm-3.4,2.68c0,.38.58-.15.67-.22a.61.61,0,0,1,.42-.16c.13,0,.08,0,.15.1a.31.31,0,0,0,.18.09c.14,0,.25.12.4,0s.15-.15.09-.31-.29-.1-.42-.1c.07-.31-.23-.34-.45-.5a1.26,1.26,0,0,0-.77-.33c0-.24-.18-.36-.33-.14a1.27,1.27,0,0,0-.17.63c0,.11,0,.34-.08.39s-.22.13-.16.25.21.05.29.05.18.07.18.21ZM33,15.09c0-.27-.38-.34-.59-.25s-.51.49-.27.64a1.27,1.27,0,0,0,.74.25c.36-.05.12-.42.12-.64Zm-2.63,2.13c-.22.07-.22-.09-.38-.15s-.33.13-.3.26.22.22.32.33.17.07.25.08a.53.53,0,0,1,.25.12c.27.18.31.65.71.5a.24.24,0,0,0,.17-.11.28.28,0,0,0,.05-.09.48.48,0,0,0,.17,0,.57.57,0,0,0,.34-.41c0-.11.07-.42-.11-.48a.55.55,0,0,1-.36-.32.53.53,0,0,1,0-.25c.05-.11.13-.17.18-.28s-.27-.24-.4-.23-.44.15-.65.18a1,1,0,0,0-.28.07c-.07,0-.14.14-.18.17-.14.21.18.24.27.32a.18.18,0,0,1-.05.29S30.41,17.22,30.38,17.22ZM59,19.1c.22-.18-.13-.29-.24-.3a2.82,2.82,0,0,0-.61-.14.32.32,0,0,0,0-.37.53.53,0,0,1,0-.18.46.46,0,0,1,.21-.05c.3,0,.27.4.48.53s.24-.11.28-.19a1.71,1.71,0,0,0,.24-.49.36.36,0,0,0-.12-.4.45.45,0,0,0,.17-.33.58.58,0,0,0,0-.41c0-.16-.07-.28.12-.38s.26-.05.39-.1.16-.21.14-.38a.27.27,0,0,1,.13-.27c.09,0,.18,0,.26,0,.33-.27-.19-.41-.41-.37,0-.11-.07-.13-.1-.22s.32-.09.37-.07c.35,0,.12-.37.09-.54L60.23,14c0-.15-.23-.1-.37-.09s-.27,0-.3-.1.06-.22.18-.32.39,0,.63,0,.69,0,.6-.31c0-.12-.17-.15-.27-.2l-.21-.09c.06-.07,0-.13,0-.2,0-.23-.65-.27-.82-.24a1.58,1.58,0,0,1,.37-.67,2,2,0,0,1,.25-.25c.06-.06.2-.13.22-.21s-.06-.19,0-.27.18-.08.29-.11a.42.42,0,0,0,.35-.45c.27,0,.35-.16.44-.35a.68.68,0,0,1,.14-.23c.1-.06.24,0,.32-.06a.55.55,0,0,0,.21-.22c.06-.09.16-.09.27-.11a.69.69,0,0,0,.46-.4c.17-.34-.28-.34-.53-.36s-.69,0-1,0c-.11,0-.29,0-.36,0a3.92,3.92,0,0,0-.25.32c-.06,0-.28,0-.34,0A.91.91,0,0,1,60,9.1c-.29-.14-.3.18-.57.16-.09,0,0-.27,0-.34s0-.21-.22-.25-.13-.13-.19-.21.24-.17.25-.19c.25-.25-.22-.33-.41-.4l-.33-.11c-.12,0-.37,0-.41-.07a.89.89,0,0,0-.5-.41,2.48,2.48,0,0,0-.72-.07h-.4c-.08,0-.08-.1-.17-.13a3.29,3.29,0,0,0-.45,0h-.62a6.35,6.35,0,0,0-1.16,0,1.3,1.3,0,0,0-.48.13,1.3,1.3,0,0,0-.46.05c-.13,0-.28.07-.25.21s.14.16,0,.26c-.07-.16-.38-.43-.58-.32s-.11.16-.26.16a1.12,1.12,0,0,1-.39-.11c-.11,0-.19-.13-.28,0a1.48,1.48,0,0,1-.36.14c-.23,0-.66,0-.83.19s0,.18,0,.27-.18,0-.24.1,0,.15,0,.24,0,.11-.11.11h-.21a.67.67,0,0,0-.14-.23,2,2,0,0,0-.42,0,.54.54,0,0,0-.45,0c-.19.14.13.42.05.6s-.33-.13-.33-.23-.51-.2-.62-.08-.06.05-.14,0a1.38,1.38,0,0,1-.2,0,1.74,1.74,0,0,0-.51,0A4.86,4.86,0,0,0,45.17,9c-.11,0-.27.06-.27.17s.05.21,0,.31,0,.16-.15.16a1.16,1.16,0,0,0-.49,0,1.44,1.44,0,0,0-.6.31,3.78,3.78,0,0,1-.33.22c-.11.07-.07.2-.16.29s-.19.11-.22.22.15.12.25.2.19,0,.3,0,.14.23.09.34a.65.65,0,0,1-.49.37c-.26.09-.58,0-.79.15a2.44,2.44,0,0,1-.67.32,2.65,2.65,0,0,1-.42.06.42.42,0,0,0-.33.26c-.34.41.93.66,1.15.72s.17,0,.31-.09a.6.6,0,0,1,.36-.12c.21,0,.57,0,.57.3s-.28.38-.51.38a1.2,1.2,0,0,1-.42-.07c-.14-.07-.16-.15-.33-.12s-.58,0-.62.19.57.2.68.35c-.13.35.18.45.47.49.11,0,.35.11.45,0s.06-.09.1-.12l.21,0c0,.26.38.15.51,0s0-.08.15,0,.2-.07.34-.09a2.34,2.34,0,0,1,.68.17,3.21,3.21,0,0,1,.67.26,2.29,2.29,0,0,1,.87.82,2.58,2.58,0,0,1,.24.53c0,.11.05.2.07.3s.09.17.15.28.07,0,.07.08,0,.1,0,.14.17.1.2.2-.07.25-.09.34a1.28,1.28,0,0,0-.13.42c-.05.13-.07.21.06.3s.22.16.33.07.14-.19.24-.28.32,0,.32.1.12.18.27.16h.18c.08,0,0,.1.08.17a1.79,1.79,0,0,1,.09.35.32.32,0,0,1,0,.14c-.07.07-.17,0-.26-.05a3.06,3.06,0,0,1-.43-.13c-.09,0-.25-.15-.35-.09s-.23.44-.27.65-.09.27,0,.31.11,0,.16,0,0,.08.07.1a.77.77,0,0,0,.75-.16c.07-.14-.07-.22.14-.26a.5.5,0,0,1,.32,0c.06,0-.05.24-.08.29a4.37,4.37,0,0,1-.17.62.45.45,0,0,1-.21.15c-.08.05-.27,0-.35.1s-.14.23-.21.33a1.24,1.24,0,0,0-.15.33.62.62,0,0,0,0,.33.44.44,0,0,0,.14.18.33.33,0,0,0-.06.26c0,.26.23.48.36.69s0,.23,0,.34a.57.57,0,0,0,.16.33s0,.07.11.11,0,.09.09.17.09.26.12.39a5.13,5.13,0,0,0,.41.72,3.75,3.75,0,0,0,.44.53c.14.15.29.37.54.33a.7.7,0,0,1,.65.19c.08.09,0,.27.16.32a.74.74,0,0,0,.38-.09,1.44,1.44,0,0,0,.74-1c0-.14,0-.28,0-.41s0-.15.09-.25a2.92,2.92,0,0,0,.4-.59,1,1,0,0,0,.06-.67c0-.13-.06-.18.09-.26s.21-.07.26-.15,0-.17.05-.18a1.81,1.81,0,0,0,.31,0c.11-.07.16-.07.2-.19s0-.09.09-.11.06,0,.14.06.54.05.62-.09a.27.27,0,0,1,.22-.16c.11-.05.24,0,.3-.1s.35-.49.52-.71.37-.52.58-.49c.55.07,1.06-.29,1.64-.27.14,0,.26-.15.35-.22l.4-.28L59,19.1S58.88,19.15,59,19.1ZM32.87,11.71c-.19,0-.35-.3-.43-.42a1,1,0,0,1,0-.56.53.53,0,0,1,.39-.4s0-.1,0-.14,0-.12.14-.16,0-.18,0-.28a.26.26,0,0,1,.22-.08,1.46,1.46,0,0,1,.6.09,1.79,1.79,0,0,1,.67.72,0,0,0,0,1,0,0,.48.48,0,0,1,.22,0,.75.75,0,0,1,.31.08.87.87,0,0,0,.32.09c.08,0,.16,0,.21.1s.14.4.25.16c0-.08,0-.21.09-.29s.11,0,.11,0,0-.08,0-.1,0-.07-.13-.06h-.27a1.41,1.41,0,0,1-.56-.16.45.45,0,0,1-.22-.49c-.06-.13-.41-.09-.28-.31-.13,0-.2.11-.32.14s-.22-.14-.16-.22.46-.25.63-.3.32-.06.47-.1.26-.12.38,0a.13.13,0,0,0,.09.09.55.55,0,0,1,.11-.17,1,1,0,0,1,.25-.19c.08-.05.21-.17.32-.1a1.34,1.34,0,0,0,.4.13c.11,0,.21.16.29.12a.36.36,0,0,0,.13-.18c0-.09,0-.22.16-.27s.17,0,.27,0,.08-.21.32-.13c.08,0,.21.08.19-.05s.19-.15.34-.14.61.11.63,0,.58-.13.74-.13.49,0,.62.16c.09,0,.13-.05.17-.12s.19-.11.32-.11c.31,0,.6,0,.89,0l.86.09c.16,0,.43,0,.43.21a1.34,1.34,0,0,1,.58-.12c.13,0,.52-.07.59.06s.06.14.13.18a.89.89,0,0,0,.24.09c.17,0,.41,0,.54.11s-.64.56-.8.62-.46.09-.69.14a2.46,2.46,0,0,0-.62.06c-.07.06-.11.1-.11.19a.5.5,0,0,0,.3,0c.1,0,.23,0,.28.07a.16.16,0,0,1-.09.17,1.39,1.39,0,0,0-.56.27c-.09.07-.11.13-.25.16s-.14.06-.21.1-.27.33-.4.33-.09,0-.16.05a.74.74,0,0,1-.18.17l-.24.18c-.07.08-.11.21-.2.23s-.43.08-.48-.05c-.2.31-.68.32-1,.32a.3.3,0,0,1,0,.13s-.06,0-.06.08a.18.18,0,0,0,.08.18c.11.07.24.05.33.11s0,.23,0,.32-.24.44-.44.46l-.4,0c-.09,0-.33,0-.33.09s.2.13.1.26a.48.48,0,0,1-.19.23c-.11.05-.2,0-.26.12a.28.28,0,0,0-.05.23c.11,0,.18-.08.29-.08s.16.14.13.23-.27.26-.42.32-.61.21-.7,0-.39-.06-.57,0-.09,0-.16,0h-.22c-.11,0-.2-.11-.28,0s-.09.15-.2.17a1.61,1.61,0,0,1-.44,0,1.83,1.83,0,0,1-.78-.09,1.47,1.47,0,0,1-.14-.06l-.16.12a2.93,2.93,0,0,0-.3.32c.06.09.17.12.24.22s.06,0,.15,0a.69.69,0,0,1,.25,0l.42.06a.38.38,0,0,0,.33,0,3.37,3.37,0,0,1,1.8-.2c.25.07.58.13.52.42,0,.09-.07.23-.23.16s0,.09,0,.15c.21.24-.46.31-.6.33a.71.71,0,0,1-.35,0s-.18-.18-.2-.15,0,.1-.09.13-.11,0-.18,0a3.54,3.54,0,0,0-.46,0,6.22,6.22,0,0,1-.85.07,1,1,0,0,1-.42-.11c-.08-.05-.25,0-.38,0a1.38,1.38,0,0,1-.43-.09c-.1,0-.3,0-.36-.07s-.1-.3-.12-.39a2.44,2.44,0,0,0-.06-.39c0-.16-.11-.54-.33-.47a1.16,1.16,0,0,1-.79-.1c-.13-.09-.42-.37-.3-.55s.69-.1.86,0a.49.49,0,0,1,.38.35.91.91,0,0,1,1.07.15c.17-.15.32-.35.52-.5a1.28,1.28,0,0,1,.36-.16c.13,0,.08-.14,0-.22s-.17-.14-.13-.26.13-.11.23-.14l.16-.08a.36.36,0,0,0-.08-.19.35.35,0,0,1-.06-.27.52.52,0,0,0-.32.19c-.11.15-.18.08-.33.08s-.62.25-.89.11a1.4,1.4,0,0,1-.33-.31.79.79,0,0,1-.2-.31c-.17-.38.26-.21.44-.4a1.5,1.5,0,0,0-.84,0S33.23,11.63,32.87,11.71Zm3.37-1.13a.21.21,0,0,1,0,.14,1.09,1.09,0,0,1,.73.15,5.08,5.08,0,0,0,.57.47.28.28,0,0,0-.18-.37c-.08-.07-.33-.18-.14-.31s.21,0,.3-.05a1.69,1.69,0,0,0,.34-.1c.24-.08.46-.18.69-.27-.07-.1,0-.3-.21-.33-.1.42-.61.46-1,.54-.11,0-.26.11-.36,0s-.15-.2-.23-.09a.39.39,0,0,1-.53.09.12.12,0,0,1,0,.09Zm-12,4.61c0,.07.08.24.15.28a1.56,1.56,0,0,0,.43,0h.37c.06,0,.13,0,.16-.08s.06-.14.13-.14.05.12,0,.17a.42.42,0,0,0-.1.32c0,.29.58.16.74.14s.33,0,.42-.09a.51.51,0,0,1,.26-.18,3.19,3.19,0,0,1,.87-.11c.19,0,.7,0,.8-.15a.68.68,0,0,0,.05-.37c0-.12.11-.34,0-.47s-.42.19-.62.06-.17-.44-.31-.63-.37,0-.54.15.07.3.14.55a.21.21,0,0,1-.14.27.5.5,0,0,1-.3.08c-.09,0-.14,0-.18-.07s-.07-.11-.11-.15a1.6,1.6,0,0,0-.3-.13c-.12-.07-.13-.16-.23-.24a.24.24,0,0,0-.2,0c-.15,0-.18-.07-.29-.13-.6-.3-1.07.53-1.24.94C24.23,15.24,24.39,14.84,24.24,15.19Zm1.61-2c.06.23.23.26.45.26a1.16,1.16,0,0,0,.68-.12c.07-.05.05-.16.07-.23a.67.67,0,0,1,.11-.27c.1-.17.27-.33.12-.51a.54.54,0,0,0-.48-.13c-.1,0-.54.19-.37.38.45.47-.69.25-.58.62ZM30,14.23c-.09.09,0,.21,0,.32s0,.12-.13.16c.05-.13-.16-.37-.22-.47s-.34-.35-.49-.19.05.44.13.55a.61.61,0,0,0,.47.2c-.14.36.58.09.73.12-.06.15.05.32.11.44s.29.08.47,0,.22-.12.29-.31a2.64,2.64,0,0,0,.26-.57.56.56,0,0,0-.08-.5c-.09-.12-.43-.07-.54-.07-.35,0-.8,0-1,.28C29.94,14.26,30.16,14,30,14.23ZM40.37,47c-.06-.06-.24,0-.31,0s-.05.27,0,.36a4,4,0,0,0,.22.34.12.12,0,0,0,.17,0c.11,0,.1-.09.22,0s.92,0,.63-.28-.68-.24-1-.44ZM32.22,13h.08c0,.09-.1.18,0,.27s.17.14.25.12.52,0,.66-.08-.24-.26-.36-.28L32.68,13s0-.06,0-.08a.91.91,0,0,0,0-.33c0-.2-.28-.29-.45-.39a1.05,1.05,0,0,0-.71-.17c-.24.08-.07.51,0,.64a.71.71,0,0,0,.64.38Zm6,33.91c.09.13.55.08.67.06.36,0,.18-.31,0-.44a7.09,7.09,0,0,0-.72-.38,1,1,0,0,1-.29-.26c-.07-.07-.2,0-.29-.07a.34.34,0,0,0-.22,0,.73.73,0,0,0-.13-.1,1.16,1.16,0,0,0-.34-.14c-.2,0-.65-.08-.41.22.06.08.06.22.19.24a2,2,0,0,1,.33.05,1,1,0,0,0,.65.18.42.42,0,0,0,.22.33.76.76,0,0,0,.18.09l.14.07c0,.06,0,.13,0,.18S38.16,46.88,38.19,46.91ZM28.83,12c.13.05.28,0,.4.07s.15.16.08.24-.08,0-.13.09a.17.17,0,0,0,.05.18c.08.09.36,0,.48,0h.37a.18.18,0,0,0,0,.11.17.17,0,0,0,.15.07c.09,0,.09,0,.18,0a.76.76,0,0,0,.44.21c.11,0,.24,0,.24-.16s-.11-.29-.13-.41a1.4,1.4,0,0,0-.15-.3.4.4,0,0,0-.26-.17.8.8,0,0,0-.27,0,.22.22,0,0,0-.1-.17c-.1-.09-.26-.07-.4-.09s-.33-.06-.49-.08a1,1,0,0,0-.48,0,.18.18,0,0,0,0,.33C28.89,12,28.78,12,28.83,12Z" fill="#dce4eb" fill-rule="evenodd"/>
</svg>
