<svg xmlns="http://www.w3.org/2000/svg" xmlns:xlink="http://www.w3.org/1999/xlink" viewBox="0 0 125 125">
  <defs>
    <clipPath id="a">
      <circle cx="61.74" cy="63.47" r="49.07" fill="none"/>
    </clipPath>
  </defs>
  <title>_</title>
  <g>
    <g clip-path="url(#a)">
      <g>
        <g>
          <path d="M98.2,34H89.74v0H34.15V26.77H91Z" fill="#d7dee8"/>
          <path d="M34.47,26.69a7.24,7.24,0,0,1,7.23,7.24H90.07V94.48H27.23V33.93A7.24,7.24,0,0,1,34.47,26.69Z" fill="#ebeff4"/>
        </g>
        <rect x="33.33" y="55.57" width="18.53" height="0.97" fill="#b5b5b5"/>
        <rect x="33.33" y="57.76" width="18.53" height="0.97" fill="#b5b5b5"/>
        <rect x="40.4" y="59.95" width="11.46" height="0.97" fill="#b5b5b5"/>
        <g>
          <rect x="47.46" y="42.18" width="3.48" height="10.18" fill="#71a46f"/>
          <rect x="42.95" y="38.73" width="3.48" height="13.64" fill="#c0413a"/>
          <rect x="38.45" y="44.76" width="3.48" height="7.6" fill="#003b71"/>
          <rect x="33.94" y="37.79" width="3.48" height="14.58" fill="#008996"/>
        </g>
        <rect x="62.69" y="55.57" width="18.53" height="0.97" fill="#b5b5b5"/>
        <rect x="62.69" y="57.76" width="18.53" height="0.97" fill="#b5b5b5"/>
        <rect x="69.75" y="59.95" width="11.46" height="0.97" fill="#999"/>
        <g>
          <polygon points="77.81 52.37 73.66 37.13 69.51 52.37 77.81 52.37" fill="#003b71"/>
          <polygon points="74.27 52.37 69.14 38.73 64 52.37 74.27 52.37" fill="#c0413a"/>
          <polygon points="81.63 52.37 76.58 41.84 71.53 52.37 81.63 52.37" fill="#71a46f"/>
          <polygon points="68.22 52.37 64.42 44.23 60.62 52.37 68.22 52.37" fill="#008996"/>
        </g>
        <rect x="33.7" y="83.48" width="18.53" height="0.97" fill="#b5b5b5"/>
        <rect x="33.7" y="85.68" width="18.53" height="0.97" fill="#b5b5b5"/>
        <rect x="40.76" y="87.87" width="11.46" height="0.97" fill="#b5b5b5"/>
        <g>
          <path d="M50.44,72.84,48.33,72a4.53,4.53,0,0,0-3-3.06l1.76-1.43-.8-2.43a8.54,8.54,0,0,1,5.84,5.81Z" fill="#003b71"/>
          <path d="M41.12,79.11l1.74-1.41a4.5,4.5,0,0,0,2.19,0,4.55,4.55,0,0,0,3.36-5.38l2.1.8,1.72-1.93,0,.08A8.52,8.52,0,0,1,46,81.57a8.32,8.32,0,0,1-4.06,0Z" fill="#c0413a"/>
          <path d="M46,65.05l.8,2.42L45.06,68.9a4.53,4.53,0,0,0-5.39,3l-1.44-1.76L35.8,71A8.51,8.51,0,0,1,42,65,8.32,8.32,0,0,1,46,65.05Z" fill="#008996"/>
          <path d="M38.15,70.44l1.43,1.76a4.46,4.46,0,0,0,0,2.18,4.51,4.51,0,0,0,3,3.23L40.83,79l.82,2.47a8.52,8.52,0,0,1-5.93-10.25Z" fill="#42863f"/>
        </g>
        <g>
          <path d="M96.17,74a19,19,0,1,1-19-19.35A19.19,19.19,0,0,1,96.17,74Z" fill="#fff"/>
          <g>
            <polygon points="65.78 65.39 65.78 81.69 66.18 81.69 66.18 65.4 65.78 65.39" fill="#999"/>
            <polygon points="72.28 65.33 72.28 81.62 72.69 81.62 72.69 65.33 72.28 65.33" fill="#999"/>
            <polygon points="78.53 65.39 78.53 81.69 78.93 81.69 78.93 65.4 78.53 65.39" fill="#999"/>
            <polygon points="84.96 65.39 84.96 81.69 85.37 81.69 85.37 65.4 84.96 65.39" fill="#999"/>
            <polygon points="91.33 65.39 91.33 81.69 91.73 81.69 91.73 65.4 91.33 65.39" fill="#999"/>
          </g>
          <polygon points="66.31 80.56 65.87 80.26 72.2 70.36 72.64 70.67 66.31 80.56" fill="#003b71"/>
          <rect x="75.29" y="69.21" width="0.54" height="8.88" transform="translate(-29.95 75.02) rotate(-45.01)" fill="#003b71"/>
          <rect x="78.01" y="74.3" width="7.8" height="0.54" transform="translate(-27.86 59.73) rotate(-34.61)" fill="#003b71"/>
          <rect x="88.06" y="70.32" width="0.54" height="7.1" transform="translate(-16.15 122.26) rotate(-64.76)" fill="#003b71"/>
          <g>
            <path d="M67.26,80.6A1.29,1.29,0,1,1,66,79.32,1.29,1.29,0,0,1,67.26,80.6Z" fill="#42863f"/>
            <path d="M66,82.09a1.49,1.49,0,1,1,1.49-1.49A1.49,1.49,0,0,1,66,82.09Zm0-2.58a1.09,1.09,0,1,0,1.08,1.09A1.09,1.09,0,0,0,66,79.51Z" fill="#003b71"/>
          </g>
          <g>
            <path d="M73.71,70.52a1.29,1.29,0,1,1-1.28-1.29A1.28,1.28,0,0,1,73.71,70.52Z" fill="#c0413a"/>
            <path d="M72.42,72a1.49,1.49,0,1,1,1.49-1.48A1.49,1.49,0,0,1,72.42,72Zm0-2.57a1.09,1.09,0,1,0,1.08,1.09A1.08,1.08,0,0,0,72.43,69.43Z" fill="#003b71"/>
          </g>
          <g>
            <path d="M80,76.8a1.29,1.29,0,1,1-1.28-1.29A1.28,1.28,0,0,1,80,76.8Z" fill="#42863f"/>
            <path d="M78.7,78.28a1.49,1.49,0,1,1,1.49-1.48A1.49,1.49,0,0,1,78.7,78.28Zm0-2.57a1.09,1.09,0,1,0,1.08,1.09A1.08,1.08,0,0,0,78.71,75.71Z" fill="#003b71"/>
          </g>
          <g>
            <path d="M86.39,72.36a1.29,1.29,0,1,1-1.28-1.29A1.28,1.28,0,0,1,86.39,72.36Z" fill="#42863f"/>
            <path d="M85.11,73.84a1.49,1.49,0,1,1,1.49-1.48A1.49,1.49,0,0,1,85.11,73.84Zm0-2.57a1.09,1.09,0,0,0,0,2.17,1.09,1.09,0,1,0,0-2.17Z" fill="#003b71"/>
          </g>
          <g>
            <path d="M92.82,75.38a1.29,1.29,0,1,1-1.28-1.29A1.29,1.29,0,0,1,92.82,75.38Z" fill="#42863f"/>
            <path d="M91.53,76.87A1.49,1.49,0,1,1,93,75.39,1.5,1.5,0,0,1,91.53,76.87Zm0-2.58a1.09,1.09,0,1,0,1.08,1.09A1.1,1.1,0,0,0,91.54,74.29Z" fill="#003b71"/>
          </g>
          <g>
            <rect x="75.67" y="92.81" width="3.96" height="16.24" fill="#3b6793"/>
            <path d="M72.4,102.28v32.4a5.25,5.25,0,0,0,10.49,0v-32.4Z" fill="#003b71"/>
            <rect x="71.49" y="99.57" width="12.33" height="4.19" fill="#3b6793"/>
          </g>
          <path d="M77.53,94.88A21.37,21.37,0,1,1,98.78,73.51,21.33,21.33,0,0,1,77.53,94.88Zm0-39.76A18.39,18.39,0,1,0,95.79,73.51,18.35,18.35,0,0,0,77.53,55.12Z" fill="#003b71"/>
        </g>
      </g>
    </g>
    <path d="M113.52,52.28a52.6,52.6,0,0,1,.87,6.51l6.17,1,0,5.24-6.1.93a52.7,52.7,0,0,1-.69,6.73l5.53,2.41-1.37,5.1L112,79.55a53.55,53.55,0,0,1-2.56,6.39L114,89.5l-2.6,4.62L106,92a60.82,60.82,0,0,1-4.26,5.46l3.45,4.68-3.71,3.81-4.64-3.49a51.91,51.91,0,0,1-5.43,4.32l2,5.27-4.52,2.65-3.47-4.33A49.83,49.83,0,0,1,79,113.09l.58,5.45-5.08,1.39-2.2-5.07a56.47,56.47,0,0,1-7,.86l-.81,5.5H59.13l-.82-5.5a56.2,56.2,0,0,1-7-.81l-2.25,5L44,118.54l.62-5.35a49,49,0,0,1-6.6-2.78l-3.35,4.26L30.09,112l2-5.17a62.6,62.6,0,0,1-5.5-4.31l-4.54,3.31-3.73-3.74,3.37-4.57a59.42,59.42,0,0,1-4.28-5.47l-5.27,2L9.51,89.5,14,86a43.92,43.92,0,0,1-2.65-6.43l-5.67.59L4.23,75.08l5.43-2.32a61.05,61.05,0,0,1-.79-6.82L2.93,65l0-5.29,6-.9a55.16,55.16,0,0,1,.86-6.65L4.3,49.7l1.34-5.07,6.07.67a50.72,50.72,0,0,1,2.63-6.18L9.51,35.25l2.68-4.55L18.08,33a50.31,50.31,0,0,1,4.06-5.12l-3.82-5.21,3.73-3.74,5.26,3.88a59.1,59.1,0,0,1,5.12-4l-2.35-6,4.53-2.65,4.09,5.09a43,43,0,0,1,6.07-2.49L44,6.3l5.12-1.38L51.73,11a53.6,53.6,0,0,1,6.39-.74l1.05-6.65h5.27l1,6.69A52.62,52.62,0,0,1,71.8,11l2.68-6.12L79.56,6.3l-.72,6.56a46,46,0,0,1,6,2.44l4.09-5.1,4.57,2.61-2.39,6.12c1.72,1.25,3.41,2.57,5.07,4L101.49,19l3.71,3.71L101.32,28a59.26,59.26,0,0,1,4,5.08l6.06-2.37L114,35.3l-4.93,4a48.53,48.53,0,0,1,2.61,6.15l6.22-.72,1.37,5Z" fill="none" stroke="#d0e1cf" stroke-miterlimit="10" fill-rule="evenodd"/>
  </g>
</svg>
