<svg xmlns="http://www.w3.org/2000/svg" viewBox="0 0 150 150">
  <title>_</title>
  <g>
    <path d="M135.69,62.64a63.47,63.47,0,0,1,1,7.7L144,71.53l0,6.2-7.22,1.1a64.42,64.42,0,0,1-.82,8l6.54,2.86-1.62,6-6.93-.77a63.4,63.4,0,0,1-3,7.56l5.35,4.22-3.09,5.46-6.36-2.52a75.33,75.33,0,0,1-5,6.46l4.07,5.55-4.38,4.5L116,122a61.13,61.13,0,0,1-6.42,5.13l2.38,6.23-5.35,3.14-4.11-5.13a57.94,57.94,0,0,1-7.64,3.23l.68,6.46-6,1.64-2.61-6a67.76,67.76,0,0,1-8.32,1l-1,6.51H71.32l-1-6.51a67,67,0,0,1-8.27-1l-2.66,5.89-6-1.58.74-6.35a58.76,58.76,0,0,1-7.82-3.28l-4,5L37,133.36l2.37-6.12a76.45,76.45,0,0,1-6.51-5.09l-5.37,3.9L23,121.64l4-5.41A75.11,75.11,0,0,1,22,109.75l-6.22,2.37-3.12-5.43,5.27-4.13a52.23,52.23,0,0,1-3.15-7.62L8,95.65l-1.67-6,6.42-2.75a76.12,76.12,0,0,1-.93-8.06l-7-1.08,0-6.26L12,70.4a67.41,67.41,0,0,1,1-7.87L6.44,59.59l1.59-6,7.19.8a57.68,57.68,0,0,1,3.11-7.31l-5.72-4.58,3.17-5.38,7,2.72a57.27,57.27,0,0,1,4.81-6.06L23,27.6l4.41-4.42,6.23,4.59a69.87,69.87,0,0,1,6.06-4.7L37,15.94l5.35-3.15,4.84,6a50.72,50.72,0,0,1,7.19-2.94l-.91-7.65,6.06-1.64,3.09,7.17a64.58,64.58,0,0,1,7.55-.88L71.38,5h6.23l1.19,7.92a64,64,0,0,1,7.53.91L89.5,6.59l6,1.65L94.65,16a54.64,54.64,0,0,1,7.07,2.89l4.85-6,5.4,3.09-2.83,7.24q3.06,2.2,6,4.7l6.31-4.67,4.39,4.39-4.58,6.34a70.18,70.18,0,0,1,4.75,6l7.16-2.8,3.09,5.4-5.83,4.7a57.82,57.82,0,0,1,3.08,7.28l7.36-.85,1.62,6Z" fill="none" stroke="#d9e7d9" stroke-miterlimit="10" stroke-width="1.01" fill-rule="evenodd"/>
    <path d="M43.27,30.09H105a2.58,2.58,0,0,1,2.58,2.58v82.57A2.57,2.57,0,0,1,105,117.8H43.28a2.57,2.57,0,0,1-2.57-2.57V32.66A2.57,2.57,0,0,1,43.27,30.09Z" fill="#3b6793"/>
    <rect x="43.6" y="33.09" width="61.09" height="81.71" fill="#e9edf2"/>
    <polygon points="104.69 114.81 43.78 114.81 78.1 33.09 104.69 33.09 104.69 114.81" fill="#fff"/>
    <g>
      <rect x="73.7" y="39.65" width="4.2" height="23.02" fill="#003b71"/>
      <rect x="79.41" y="42.1" width="4.2" height="20.58" fill="#7d96b5"/>
      <rect x="85.12" y="48.52" width="4.2" height="14.15" fill="#003b71"/>
      <rect x="90.83" y="44.44" width="4.2" height="18.23" fill="#7d96b5"/>
      <rect x="96.54" y="52.64" width="4.2" height="10.03" fill="#003b71"/>
    </g>
    <g>
      <g>
        <rect x="47.08" y="39.65" width="21.32" height="2.55" fill="#b5b5b5"/>
        <rect x="47.08" y="44" width="21.32" height="2.55" fill="#b5b5b5"/>
        <rect x="47.08" y="48.35" width="21.32" height="2.55" fill="#b5b5b5"/>
        <rect x="47.08" y="52.7" width="21.32" height="2.54" fill="#b5b5b5"/>
        <rect x="47.08" y="57.05" width="21.32" height="2.54" fill="#b5b5b5"/>
      </g>
      <rect x="47.08" y="66.04" width="53.66" height="2.55" fill="#b5b5b5"/>
      <rect x="47.08" y="70.51" width="30.79" height="2.55" fill="#b5b5b5"/>
    </g>
    <g>
      <path d="M83.39,75.54c4.38.08,8.26,2.54,8.68,7.38.25,3-.15,8.81-2,11.72H76.2c-1.74-2.7-2.19-8.77-1.94-11.72.41-4.84,4.3-7.3,8.68-7.38Z" fill="#3f2500" fill-rule="evenodd"/>
      <path d="M80,93c-.53,1.28-.32,1.54-1.57,2.06-3.06,1.26-8.52,2.94-9,5.71l-1.3,7.76h30l-1.3-7.76c-.47-2.77-5.93-4.45-9-5.71-1.25-.52-1-.78-1.57-2.06Z" fill="#59023b" fill-rule="evenodd"/>
      <path d="M80,93c-.46,1.11-.36,1.45-1.12,1.85l4.24,4,4.24-4c-.64-.38-.68-.8-1.11-1.85Z" fill="#b47f00" fill-rule="evenodd"/>
      <path d="M77.53,85.46,77.32,85c-.26-.53-.65-.5-.66.17a14,14,0,0,0,.55,4.34.46.46,0,0,0,.17.24c.25.17.4.23.47.54a6.31,6.31,0,0,0,3.46,4.32c1.48.87,2,.86,3.48,0a7.31,7.31,0,0,0,4-6.38c.39-3-4.37-2.28-8.77-5.34-.56-.39-1-.53-1.36.48a17.15,17.15,0,0,0-.56,1.9C78,85.66,77.75,85.83,77.53,85.46Z" fill="#cb9d4b" fill-rule="evenodd"/>
      <polygon points="83.16 102.75 79.97 99.23 81.39 98.4 76.16 99.07 78.92 94.82 83.16 98.77 87.4 94.82 90.17 99.07 84.94 98.4 86.36 99.23 83.16 102.75" fill="#e6e7e8" fill-rule="evenodd"/>
    </g>
    <path d="M51,92.72s-.48-3.79-2.9-5.25c.81-.07,1.37-1.56,1.33-2.38a6.79,6.79,0,0,1,2.36,3.71c.44-1.52,2.42-4.25,3.94-5.87a26.78,26.78,0,0,1,5.72-4.68,1.49,1.49,0,0,0,1,1.55,27.5,27.5,0,0,0-5.82,5.27,23,23,0,0,0-3.5,6.53A3.44,3.44,0,0,0,51,92.72Z" fill="#42863f"/>
    <path d="M51,106.68s-.48-3.79-2.9-5.25c.81-.06,1.37-1.56,1.33-2.38a6.79,6.79,0,0,1,2.36,3.71c.44-1.52,2.42-4.25,3.94-5.87a26.78,26.78,0,0,1,5.72-4.68c-.12.62.26,1.17,1,1.56A27.17,27.17,0,0,0,56.57,99a23,23,0,0,0-3.5,6.53A3.49,3.49,0,0,0,51,106.68Z" fill="#42863f"/>
  </g>
</svg>
