<svg id="Layer_1" data-name="Layer 1" xmlns="http://www.w3.org/2000/svg" viewBox="0 0 118 118">
  <title>Employees_icon_W@W_timeline</title>
  <g>
    <g>
      <path d="M64.8,44.66l-4.1-6.51v13a32.53,32.53,0,0,1,17.22-5.71c.45-.74.89-1.5,1.29-2.27V36.75l-7.5-2.37Z" style="fill: #afc5d2"/>
      <path d="M61,31.24c1.33.92,2.36,1.72,3.73,1.7h.16c1.38,0,2.41-.78,3.73-1.7,5,.18,7.65-3.67,5.66-9.31.49-6.65-4.51-14.18-11.15-11.23-4.34-2.12-8.29,4.57-7.8,11.23C53.34,27.58,56,31.42,61,31.24Z" style="fill: #afc5d2"/>
      <path d="M27.54,27.11a8.29,8.29,0,0,0,.28-2.18,4.51,4.51,0,0,0,1.39-3,2.93,2.93,0,0,0-.48-2.6c.15-4-.17-6.47-2.32-8.26a10.25,10.25,0,0,0-9.65-1.23c-5.59-.73-5.68,6.59-5.57,9.49a2.93,2.93,0,0,0-.49,2.6,4.51,4.51,0,0,0,1.39,3,8.34,8.34,0,0,0,.28,2.18,5,5,0,0,0,2.17,2.63c.78.53,1.48,1.22,2.29,1.69a5.57,5.57,0,0,0,3.12.67,5.57,5.57,0,0,0,3.12-.67c.81-.47,1.51-1.16,2.29-1.69A5,5,0,0,0,27.54,27.11Z" style="fill: #afc5d2"/>
      <path d="M21.15,33.24H18.76l-1.19,2.29,1.19,2.28-1.19,4.57-4.52-9.14L3.16,36.75v6.44a41.82,41.82,0,0,0,19.18,18.3V42.38l-1.19-4.57,1.19-2.28Z" style="fill: #afc5d2"/>
    </g>
    <g>
      <path d="M32.27,19.66a4.52,4.52,0,0,0,1.39,3,8.3,8.3,0,0,0,.28,2.18,5,5,0,0,0,2.17,2.63c.78.53,1.48,1.22,2.29,1.69a5.57,5.57,0,0,0,3.12.67,5.58,5.58,0,0,0,3.12-.67c.81-.47,1.51-1.16,2.29-1.69a5,5,0,0,0,2.17-2.63,8.29,8.29,0,0,0,.28-2.18,4.52,4.52,0,0,0,1.39-3,2.93,2.93,0,0,0-.49-2.6c.15-4-.17-6.47-2.32-8.26a10.25,10.25,0,0,0-9.65-1.23c-5.59-.73-5.68,6.59-5.57,9.49A2.93,2.93,0,0,0,32.27,19.66Z" style="fill: #afc5d2"/>
      <path d="M58.32,53V34.46L48.43,31l-4.52,9.14-1.19-4.57,1.19-2.29L42.72,31H40.33l-1.19,2.28,1.19,2.29-1.19,4.57L34.62,31l-9.89,3.51V62.54A44,44,0,0,0,41.18,65.7,44.43,44.43,0,0,0,49.27,65,32.81,32.81,0,0,1,58.32,53Z" style="fill: #afc5d2"/>
    </g>
  </g>
  <circle cx="79.21" cy="78.13" r="32.71" style="fill: none;stroke: #afc5d2;stroke-miterlimit: 10;stroke-width: 2.6px"/>
  <circle cx="79.21" cy="78.13" r="32.71" style="fill: none;stroke: #afc5d2;stroke-miterlimit: 10;stroke-width: 2.6px"/>
</svg>
