<svg xmlns="http://www.w3.org/2000/svg" xmlns:xlink="http://www.w3.org/1999/xlink" viewBox="0 0 175 175">
  <defs>
    <clipPath id="clip-path">
      <rect x="-756" y="-849.4" width="1217.17" height="663" style="fill: none"/>
    </clipPath>
    <radialGradient id="radial-gradient" cx="-2667.08" cy="-2647.95" r="223.84" gradientTransform="translate(18332.71 16609.6) scale(6.88 6.47)" gradientUnits="userSpaceOnUse">
      <stop offset="0.13" stop-color="#fff"/>
      <stop offset="0.37" stop-color="#fbfbfb"/>
      <stop offset="0.62" stop-color="#efefef"/>
      <stop offset="0.86" stop-color="#dbdbdb"/>
      <stop offset="1" stop-color="#ccc"/>
    </radialGradient>
    <radialGradient id="radial-gradient-2" cx="-8227.08" cy="999.46" r="187.98" gradientTransform="matrix(0.62, -1.13, 1.17, 0.63, 3767.74, -10182.48)" gradientUnits="userSpaceOnUse">
      <stop offset="0" stop-color="#00adee"/>
      <stop offset="0.05" stop-color="#009fdb"/>
      <stop offset="0.25" stop-color="#006f99"/>
      <stop offset="0.44" stop-color="#004863"/>
      <stop offset="0.62" stop-color="#002938"/>
      <stop offset="0.77" stop-color="#001219"/>
      <stop offset="0.91" stop-color="#000507"/>
      <stop offset="1"/>
    </radialGradient>
  </defs>
  <title>Gear</title>
  <g style="isolation: isolate">
    <g id="Mod_2_Rollovere" data-name="Mod 2 Rollovere">
      <g id="background_copy" data-name="background copy">
        <g style="opacity: 0.1">
          <g style="clip-path: url(#clip-path)">
            <g>
              <rect x="-856.8" y="-1186.36" width="1607.86" height="1302.12" style="fill: url(#radial-gradient)"/>
              <g style="mix-blend-mode: color-burn">
                <path d="M-31-428.66C90-362.8,136.2-213.95,72.11-96.16s-214.23,159.91-335.28,94S-430.44-216.92-366.31-334.73-152.11-494.62-31-428.66Z" style="mix-blend-mode: screen;fill: url(#radial-gradient-2)"/>
              </g>
            </g>
          </g>
        </g>
      </g>
      <g id="Icons_copy" data-name="Icons copy">
        <g>
          <!-- <path d="M154.65,79.94l-.07-1.35a10.62,10.62,0,0,1,7.63-10c-.52-2-1.13-4.08-1.83-6.13A10.6,10.6,0,0,1,151,43.74c-1.22-1.75-2.49-3.45-3.81-5.07A10.59,10.59,0,0,1,132,24.32c-1.64-1.17-3.39-2.31-5.31-3.47a10.64,10.64,0,0,1-19.53-6,10.39,10.39,0,0,1,.32-2.3c-2.21-.59-4.26-1.07-6.2-1.44A10.58,10.58,0,0,1,80.48,9.86c-2,.15-4.05.38-6.3.71a10.12,10.12,0,0,1,.09,1.32,10.64,10.64,0,0,1-20.15,4.69c-2.08.95-3.95,1.88-5.66,2.83A10.6,10.6,0,0,1,31.69,31.89c-1.55,1.51-3,3.06-4.38,4.62A10.6,10.6,0,0,1,15.8,54c-.9,1.89-1.74,3.85-2.52,5.86A10.61,10.61,0,0,1,8.47,80.18l-.25,3.15-.12,3.14a10.73,10.73,0,0,1,10,9.4l.07,1.36a10.67,10.67,0,0,1-7.64,10.05c.54,2.1,1.15,4.15,1.83,6.1A10.61,10.61,0,0,1,21.74,132c1.18,1.71,2.45,3.42,3.78,5.09a10.59,10.59,0,0,1,15.2,14.33c1.67,1.2,3.44,2.37,5.3,3.48a10.64,10.64,0,0,1,19.53,6,10.19,10.19,0,0,1-.33,2.31c2,.55,4,1,6.21,1.45a10.58,10.58,0,0,1,20.82,1.22c2.2-.16,4.28-.4,6.31-.71a9.89,9.89,0,0,1-.09-1.28,10.65,10.65,0,0,1,20.16-4.72c1.94-.88,3.84-1.83,5.67-2.84A10.58,10.58,0,0,1,141,143.9c1.51-1.47,3-3,4.4-4.64a10.59,10.59,0,0,1,11.48-17.45c.93-1.92,1.78-3.88,2.52-5.83a10.62,10.62,0,0,1,4.81-20.37l.11-1.19c.13-1.47.17-1.86.18-2v0s.07-2.19.1-3.16A10.74,10.74,0,0,1,154.65,79.94Z" style="fill: #7dad56"/> -->
          <circle cx="86.96" cy="89.17" r="58.27" style="fill: #8ab567"/>
          <g>
            <path d="M106.44,119.06l0-3-16.52,2-.16,15.88,16.52-2.09,0-2.95c2.52-.71,6.46-2.17,7.16-4.47l.1-10.14c-1.27,2.56-4.83,4-7.17,4.76m-5.74,9.15-5.15.59a1.06,1.06,0,0,1-1.05-1.07V123A1.06,1.06,0,0,1,95.59,122l5.13-.57c.59,0,1.05.19,1,.78v5a1.07,1.07,0,0,1-1.07,1.05" style="fill: #fff"/>
            <path d="M86.81,69.75a14.18,14.18,0,1,0-14-14.33,14.19,14.19,0,0,0,14,14.33" style="fill: #fff"/>
            <path d="M106,83.13q-.91-1.05-1.89-2L72.58,105.8a2.81,2.81,0,0,1-3.46-4.42L99.47,77.6A24.9,24.9,0,0,0,86.76,74,25.38,25.38,0,0,0,67.4,82.73a30.49,30.49,0,0,0-7.57,20.06c0,.56,0,1.14,0,1.74.08,1.83,9.5,8.25,26.5,8.42,17.95.18,26.56-6,26.68-7.87,0-.6.06-1.18.07-1.74A30.51,30.51,0,0,0,106,83.13" style="fill: #fff"/>
            <path d="M83.11,120.34l-5.93-.54-1.56-2.7-6.75-1.69a2.58,2.58,0,0,0-2.6,2.55v.71c-2.35-.78-6-2.36-7.16-4.94L59,123.87c.66,2.34,4.66,3.89,7.16,4.64l0,1.63a2.52,2.52,0,0,0,2.66,2.4l5.77,1,2.48-2.06L83,132a2.58,2.58,0,0,0,2.6-2.54l.07-6.51a2.58,2.58,0,0,0-2.55-2.6m.23,8.55a.7.7,0,0,1-.76.7l-3.39-.25a.82.82,0,0,1-.75-.81l.06-5.38a.71.71,0,0,1,.77-.71l3.39.22a.81.81,0,0,1,.75.81Z" style="fill: #fff"/>
          </g>
        </g>
      </g>
    </g>
  </g>
</svg>
