<svg xmlns="http://www.w3.org/2000/svg" xmlns:xlink="http://www.w3.org/1999/xlink" viewBox="0 0 175 175">
  <defs>
    <clipPath id="clip-path">
      <rect x="-546.28" y="-849.4" width="1217.17" height="663" style="fill: none"/>
    </clipPath>
    <radialGradient id="radial-gradient" cx="-2457.36" cy="-2647.95" r="223.84" gradientTransform="translate(17099.28 16609.6) scale(6.88 6.47)" gradientUnits="userSpaceOnUse">
      <stop offset="0.13" stop-color="#fff"/>
      <stop offset="0.37" stop-color="#fbfbfb"/>
      <stop offset="0.62" stop-color="#efefef"/>
      <stop offset="0.86" stop-color="#dbdbdb"/>
      <stop offset="1" stop-color="#ccc"/>
    </radialGradient>
    <radialGradient id="radial-gradient-2" cx="-8017.36" cy="999.46" r="187.98" gradientTransform="matrix(0.62, -1.13, 1.17, 0.63, 3847.96, -9944.58)" gradientUnits="userSpaceOnUse">
      <stop offset="0" stop-color="#00adee"/>
      <stop offset="0.05" stop-color="#009fdb"/>
      <stop offset="0.25" stop-color="#006f99"/>
      <stop offset="0.44" stop-color="#004863"/>
      <stop offset="0.62" stop-color="#002938"/>
      <stop offset="0.77" stop-color="#001219"/>
      <stop offset="0.91" stop-color="#000507"/>
      <stop offset="1"/>
    </radialGradient>
  </defs>
  <title>Gear</title>
  <g style="isolation: isolate">
    <g id="Mod_2_Rollovere" data-name="Mod 2 Rollovere">
      <g id="background_copy" data-name="background copy">
        <g style="opacity: 0.1">
          <g style="clip-path: url(#clip-path)">
            <g>
              <rect x="-647.08" y="-1186.36" width="1607.86" height="1302.12" style="fill: url(#radial-gradient)"/>
              <g style="mix-blend-mode: color-burn">
                <path d="M178.7-428.66c121,65.86,167.22,214.71,103.13,332.5S67.59,63.75-53.45-2.18-220.72-216.92-156.59-334.73,57.61-494.62,178.7-428.66Z" style="mix-blend-mode: screen;fill: url(#radial-gradient-2)"/>
              </g>
            </g>
          </g>
        </g>
      </g>
      <g id="Icons_copy" data-name="Icons copy">
        <g>
          <!-- <path d="M152.72,79.17l-.09-1.35a10.62,10.62,0,0,1,7.53-10.12c-.54-2-1.17-4.07-1.89-6.11A10.6,10.6,0,0,1,148.7,43c-1.23-1.74-2.53-3.43-3.86-5a10.59,10.59,0,0,1-15.32-14.19c-1.66-1.15-3.42-2.28-5.34-3.42a10.64,10.64,0,0,1-19.6-5.82,10.39,10.39,0,0,1,.3-2.3c-2.22-.57-4.27-1-6.22-1.38a10.58,10.58,0,0,1-20.83-1c-2,.17-4,.42-6.3.77A10.12,10.12,0,0,1,71.64,12a10.64,10.64,0,0,1-20.11,4.9c-2.07,1-3.93,1.92-5.63,2.89A10.6,10.6,0,0,1,29.27,32.39c-1.53,1.53-3,3.09-4.33,4.67A10.6,10.6,0,0,1,13.61,54.62c-.88,1.9-1.7,3.87-2.46,5.88A10.61,10.61,0,0,1,6.54,80.91l-.22,3.15L6.24,87.2A10.73,10.73,0,0,1,16.31,96.5l.09,1.36A10.67,10.67,0,0,1,8.86,108c.56,2.09,1.2,4.13,1.89,6.08a10.61,10.61,0,0,1,9.6,18.58c1.2,1.7,2.48,3.39,3.84,5a10.59,10.59,0,0,1,15.34,14.17c1.68,1.18,3.47,2.33,5.33,3.43a10.64,10.64,0,0,1,19.59,5.79,10.19,10.19,0,0,1-.31,2.31c2,.53,4,1,6.22,1.38a10.58,10.58,0,0,1,20.83,1c2.2-.18,4.27-.44,6.3-.78a9.89,9.89,0,0,1-.1-1.28,10.65,10.65,0,0,1,20.11-4.93c1.93-.9,3.82-1.87,5.64-2.89a10.58,10.58,0,0,1,16.62-12.63c1.5-1.49,3-3.06,4.36-4.69A10.59,10.59,0,0,1,155.41,121c.91-1.93,1.74-3.9,2.46-5.86a10.62,10.62,0,0,1,4.6-20.42l.09-1.19c.12-1.47.15-1.87.16-2v0s.05-2.19.07-3.16A10.74,10.74,0,0,1,152.72,79.17Z" style="fill: #7dad56"/> -->
          <circle cx="85.27" cy="88.57" r="58.27" style="fill: #83b15e"/>
          <path d="M124.7,121.33v.11a2.21,2.21,0,0,1-2.26,2.16H48.55a2.22,2.22,0,0,1-2.26-2.16v-.11a2.22,2.22,0,0,1,2.26-2.16h73.9a2.21,2.21,0,0,1,2.26,2.16M49,113.3v.11a2.22,2.22,0,0,0,2.26,2.16h68.38a2.21,2.21,0,0,0,2.26-2.16v-.11a2.22,2.22,0,0,0-2.26-2.16H51.31A2.22,2.22,0,0,0,49,113.3M48.07,67c-.16-1-.29-1.94,1.52-3.11S84.84,42.4,84.84,42.4a2.42,2.42,0,0,1,1.33,0L121.4,63.94A2.78,2.78,0,0,1,122.92,67a2.16,2.16,0,0,1-2.2,1.71H50.26A2.17,2.17,0,0,1,48.07,67m8.84,35.23a2.18,2.18,0,0,0-2.17,2.16v.11c0,1.19,1.42,2.16,2.62,2.16H67.89a2.17,2.17,0,0,0,2.18-2.16v-.11a2.17,2.17,0,0,0-2.18-2.16h-.74V77.54h.74a2.17,2.17,0,0,0,2.18-2.16v-.11a2.15,2.15,0,0,0-1.73-2.16h-11c-1.64,0-2.62,1-2.62,2.16v.11a2.18,2.18,0,0,0,2.17,2.16h.47v24.74Zm23.1,0a2.18,2.18,0,0,0-2.18,2.16v.11c0,1.19,1.42,2.16,2.62,2.16H91a2.17,2.17,0,0,0,2.17-2.16v-.11A2.17,2.17,0,0,0,91,102.28h-.74V77.54H91a2.17,2.17,0,0,0,2.17-2.16v-.11a2.14,2.14,0,0,0-1.73-2.16h-11c-1.64,0-2.62,1-2.62,2.16v.11A2.18,2.18,0,0,0,80,77.54h.48v24.74Zm23.1,0a2.18,2.18,0,0,0-2.18,2.16v.11c0,1.19,1.42,2.16,2.62,2.16h10.53a2.17,2.17,0,0,0,2.17-2.16v-.11a2.17,2.17,0,0,0-2.17-2.16h-.74V77.54h.74a2.17,2.17,0,0,0,2.17-2.16v-.11a2.14,2.14,0,0,0-1.73-2.16h-11c-1.64,0-2.62,1-2.62,2.16v.11a2.18,2.18,0,0,0,2.18,2.16h.48v24.74Z" style="fill: #fff"/>
        </g>
      </g>
    </g>
  </g>
</svg>
