<svg xmlns="http://www.w3.org/2000/svg" xmlns:xlink="http://www.w3.org/1999/xlink" viewBox="0 0 175 175">
  <defs>
    <clipPath id="clip-path">
      <rect x="-334.34" y="-849.4" width="1217.17" height="663" style="fill: none"/>
    </clipPath>
    <radialGradient id="radial-gradient" cx="-2245.42" cy="-2647.95" r="223.84" gradientTransform="translate(15852.8 16609.6) scale(6.88 6.47)" gradientUnits="userSpaceOnUse">
      <stop offset="0.13" stop-color="#fff"/>
      <stop offset="0.37" stop-color="#fbfbfb"/>
      <stop offset="0.62" stop-color="#efefef"/>
      <stop offset="0.86" stop-color="#dbdbdb"/>
      <stop offset="1" stop-color="#ccc"/>
    </radialGradient>
    <radialGradient id="radial-gradient-2" cx="-7805.42" cy="999.46" r="187.98" gradientTransform="matrix(0.62, -1.13, 1.17, 0.63, 3929.02, -9704.15)" gradientUnits="userSpaceOnUse">
      <stop offset="0" stop-color="#00adee"/>
      <stop offset="0.05" stop-color="#009fdb"/>
      <stop offset="0.25" stop-color="#006f99"/>
      <stop offset="0.44" stop-color="#004863"/>
      <stop offset="0.62" stop-color="#002938"/>
      <stop offset="0.77" stop-color="#001219"/>
      <stop offset="0.91" stop-color="#000507"/>
      <stop offset="1"/>
    </radialGradient>
  </defs>
  <title>Gear</title>
  <g style="isolation: isolate">
    <g id="Mod_2_Rollovere" data-name="Mod 2 Rollovere">
      <g id="background_copy" data-name="background copy">
        <g style="opacity: 0.1">
          <g style="clip-path: url(#clip-path)">
            <g>
              <rect x="-435.14" y="-1186.36" width="1607.86" height="1302.12" style="fill: url(#radial-gradient)"/>
              <g style="mix-blend-mode: color-burn">
                <path d="M390.64-428.66c121,65.86,167.22,214.71,103.13,332.5S279.53,63.75,158.49-2.18-8.78-216.92,55.35-334.73,269.55-494.62,390.64-428.66Z" style="mix-blend-mode: screen;fill: url(#radial-gradient-2)"/>
              </g>
            </g>
          </g>
        </g>
      </g>
      <g id="Icons_copy" data-name="Icons copy">
        <g>
          <!-- <path d="M155.61,79.17l-.09-1.35a10.62,10.62,0,0,1,7.53-10.12c-.54-2-1.17-4.07-1.89-6.11A10.6,10.6,0,0,1,151.59,43c-1.23-1.74-2.53-3.43-3.86-5a10.59,10.59,0,0,1-15.32-14.19c-1.66-1.15-3.42-2.28-5.34-3.42a10.64,10.64,0,0,1-19.6-5.82,10.39,10.39,0,0,1,.3-2.3c-2.22-.57-4.27-1-6.22-1.38a10.58,10.58,0,0,1-20.83-1c-2,.17-4,.42-6.3.77A10.12,10.12,0,0,1,74.54,12a10.64,10.64,0,0,1-20.11,4.9c-2.07,1-3.93,1.92-5.63,2.89A10.6,10.6,0,0,1,32.17,32.39c-1.53,1.53-3,3.09-4.33,4.67A10.6,10.6,0,0,1,16.5,54.62c-.88,1.9-1.7,3.87-2.46,5.88A10.61,10.61,0,0,1,9.44,80.91l-.22,3.15L9.13,87.2A10.73,10.73,0,0,1,19.21,96.5l.09,1.36A10.67,10.67,0,0,1,11.75,108c.56,2.09,1.2,4.13,1.89,6.08a10.61,10.61,0,0,1,9.6,18.58c1.2,1.7,2.48,3.39,3.84,5a10.59,10.59,0,0,1,15.34,14.17c1.68,1.18,3.47,2.33,5.33,3.43a10.64,10.64,0,0,1,19.59,5.79,10.19,10.19,0,0,1-.31,2.31c2,.53,4,1,6.22,1.38a10.58,10.58,0,0,1,20.83,1c2.2-.18,4.27-.44,6.3-.78a9.89,9.89,0,0,1-.1-1.28,10.65,10.65,0,0,1,20.11-4.93c1.93-.9,3.82-1.87,5.64-2.89a10.58,10.58,0,0,1,16.62-12.63c1.5-1.49,3-3.06,4.36-4.69A10.59,10.59,0,0,1,158.3,121c.91-1.93,1.74-3.9,2.46-5.86a10.62,10.62,0,0,1,4.6-20.42l.09-1.19c.12-1.47.15-1.87.16-2v0s.05-2.19.07-3.16A10.74,10.74,0,0,1,155.61,79.17Z" style="fill: #7dad56"/> -->
          <circle cx="88.66" cy="88.07" r="58.27" style="fill: #83b15e"/>
          <g>
            <path d="M47,91H63.8l8.48-16.29A3,3,0,0,1,75,73.18,2.93,2.93,0,0,1,77.57,75l10.89,27,6-9.6A2.91,2.91,0,0,1,96.88,91h31.53A32.93,32.93,0,0,0,131,83.25a20.52,20.52,0,0,0,.44-4A21.51,21.51,0,0,0,110,57.68c-7.79-.1-16.24,4.7-20.12,9.24-2.38,2.78-1.18,2.79-3.48-.05-3.75-4.64-12.07-9.67-19.87-9.78a21.51,21.51,0,0,0-22,21,39.83,39.83,0,0,0,.33,4A29,29,0,0,0,47,91" style="fill: #fff"/>
            <path d="M98.5,96.87,90.38,110a2.92,2.92,0,0,1-2.48,1.38l-.25,0a2.89,2.89,0,0,1-2.45-1.81L74.53,83,68.15,95.3a2.92,2.92,0,0,1-2.58,1.57H50.23c7.57,11.19,21.59,19.39,33.64,28.86,2.88,2.26,3.89,2.28,6.81.07,12.33-9.31,26.37-17.51,34.37-28.93Z" style="fill: #fff"/>
          </g>
        </g>
      </g>
    </g>
  </g>
</svg>
