<svg xmlns="http://www.w3.org/2000/svg" viewBox="0 0 100 110">
  <title>_</title>
  <g>
    <path d="M50.66,37.39c0-.23.07-.47.1-.68.11-.74.07-1.36.11-1.79s0-.68,0-.68,0-.25,0-.68,0-1.06-.16-1.79c0-.22-.07-.45-.11-.68.63-.19,1.29-.4,1.95-.63,2.57-.85,5.09-1.9,5.09-1.9s-.16-.63-.41-1.57a29.78,29.78,0,0,0-1.17-3.36,32.26,32.26,0,0,0-2.47-4.54s-2.48,1.07-4.88,2.35c-.63.32-1.24.66-1.81,1-.14-.18-.28-.38-.42-.54a12.35,12.35,0,0,0-1.18-1.35l-.46-.5-.51-.45a13.24,13.24,0,0,0-1.38-1.16c-.16-.13-.36-.27-.55-.4.3-.58.63-1.2.94-1.83,1.22-2.43,2.24-4.93,2.24-4.93A31.82,31.82,0,0,0,41,8.88a27.93,27.93,0,0,0-3.39-1.1L36,7.4S35,10,34.22,12.53c-.21.67-.41,1.34-.59,2L33,14.4a17.5,17.5,0,0,0-1.79-.12l-.68,0-.68,0a16.38,16.38,0,0,0-1.79.15l-.67.11c-.2-.62-.41-1.28-.63-2-.85-2.56-1.91-5.08-1.91-5.08l-1.56.41a26.9,26.9,0,0,0-3.37,1.17,31.13,31.13,0,0,0-4.54,2.47s1.08,2.48,2.35,4.88c.33.62.66,1.23,1,1.8-.18.14-.38.28-.55.42a16.51,16.51,0,0,0-1.35,1.18l-.5.47-.45.51a14.43,14.43,0,0,0-1.15,1.37c-.14.17-.27.37-.41.56-.57-.31-1.19-.63-1.82-.94C10,20.61,7.5,19.59,7.5,19.59a32,32,0,0,0-2.38,4.59A28.29,28.29,0,0,0,4,27.57l-.38,1.57s2.54,1,5.12,1.8l2,.58c0,.23-.07.47-.1.68-.11.74-.07,1.36-.11,1.79s0,.68,0,.68,0,.25.05.69a16.43,16.43,0,0,0,.15,1.78c0,.21.07.45.11.68-.62.19-1.29.4-2,.63-2.57.85-5.09,1.9-5.09,1.9s.16.63.41,1.57a29.78,29.78,0,0,0,1.17,3.36,31.74,31.74,0,0,0,2.48,4.54s2.47-1.07,4.88-2.35c.62-.32,1.23-.66,1.8-1,.14.18.28.38.42.54a13.39,13.39,0,0,0,1.18,1.35l.46.5.51.45a16.31,16.31,0,0,0,1.38,1.16l.56.4c-.31.58-.63,1.2-.94,1.83-1.23,2.43-2.25,4.93-2.25,4.93A31.82,31.82,0,0,0,20.43,60a28.5,28.5,0,0,0,3.39,1.1l1.57.37s1-2.54,1.79-5.12c.21-.67.41-1.34.59-2,.23,0,.46.08.68.1a14.78,14.78,0,0,0,1.79.11l.68,0,.68,0c.43,0,1.06,0,1.79-.15l.68-.11c.19.62.4,1.28.62,1.95.85,2.56,1.91,5.08,1.91,5.08L38.16,61a28,28,0,0,0,3.37-1.17,31.13,31.13,0,0,0,4.54-2.47S45,54.85,43.72,52.45c-.32-.62-.66-1.24-1-1.81.19-.13.38-.27.55-.41A14.63,14.63,0,0,0,44.64,49l.5-.46.45-.51a14.43,14.43,0,0,0,1.15-1.37c.14-.17.28-.37.41-.56.57.31,1.19.63,1.83.94,2.42,1.22,4.92,2.24,4.92,2.24a30.91,30.91,0,0,0,2.38-4.59,27.1,27.1,0,0,0,1.09-3.39l.38-1.58s-2.54-1-5.12-1.79C52,37.76,51.29,37.57,50.66,37.39Zm-10,7.47a9.77,9.77,0,0,1-1,.84,15,15,0,0,1-3.31,2,15.64,15.64,0,0,1-3.74,1,12.5,12.5,0,0,1-1.27.1l-.49,0-.49,0a11.14,11.14,0,0,1-1.28-.07,15.4,15.4,0,0,1-3.76-.94A15.41,15.41,0,0,1,22,45.9a8.83,8.83,0,0,1-1-.83l-.37-.32-.33-.36a10.74,10.74,0,0,1-.85-1,15.49,15.49,0,0,1-2-3.32,15.51,15.51,0,0,1-1-3.73c-.1-.52-.07-1-.11-1.28s0-.49,0-.49,0-.18,0-.49,0-.76.08-1.28a15.62,15.62,0,0,1,.93-3.75,15.18,15.18,0,0,1,1.93-3.36,8.08,8.08,0,0,1,.83-1l.32-.37.36-.33a9.48,9.48,0,0,1,1-.85,15.82,15.82,0,0,1,3.31-2,15.58,15.58,0,0,1,3.74-1c.52-.1,1-.06,1.28-.11l.49,0,.48,0c.31,0,.76,0,1.28.08a15.81,15.81,0,0,1,3.76.93A15.83,15.83,0,0,1,39.43,23a10.23,10.23,0,0,1,1,.83l.37.32.32.36a8.29,8.29,0,0,1,.85,1,15.25,15.25,0,0,1,2,3.32,16.05,16.05,0,0,1,1,3.73c.09.52.06,1,.1,1.28s0,.49,0,.49,0,.18,0,.49A11.68,11.68,0,0,1,45,36.07a15.27,15.27,0,0,1-.93,3.75,15,15,0,0,1-1.93,3.36,9,9,0,0,1-.83,1l-.31.37Z" fill="#dce4eb"/>
    <g>
      <path d="M69.89,77.47a1.59,1.59,0,0,1,.87-.45,31,31,0,0,1,3.52-.2A35.81,35.81,0,0,0,74,82.48l1.53-3.15.58-.16.36.48-.72,3.42A36.1,36.1,0,0,0,79,78.41l2.66,2.27a5.51,5.51,0,0,1,.41.94c.26,2-.57,5.4-1,7.25L66.24,83.82c.79-1.74,2.21-4.93,3.65-6.35ZM67.08,90a1.09,1.09,0,1,1,.71-2.06l9.5,3.25a1.09,1.09,0,1,1-.71,2.07L67.08,90ZM79.36,69.53a3,3,0,0,0-3.81,1.78c-.5,1.48-.53,5,1.27,5.65s4-2.21,4.46-3.68a3,3,0,0,0-1.92-3.75Z" fill="#dce4eb" fill-rule="evenodd"/>
      <path d="M82.81,102.29,94.23,68.93a4.2,4.2,0,0,0-2.6-5.32L73.34,57.34A4.21,4.21,0,0,0,68,60L56.59,93.31a4.19,4.19,0,0,0,2.61,5.32l18.29,6.27a4.21,4.21,0,0,0,5.32-2.61Zm-1.24-4.83,9.56-27.91a2.08,2.08,0,0,0-1.27-2.61L72.69,61.07a2.06,2.06,0,0,0-2.6,1.27L60.53,90.26a2.06,2.06,0,0,0,1.27,2.6L79,98.74a2.06,2.06,0,0,0,2.6-1.28ZM67,98.91a1.08,1.08,0,0,1-.68-1.38,1.09,1.09,0,0,1,1.39-.68l4.15,1.42a1.09,1.09,0,0,1-.71,2.07L67,98.91ZM79.56,62.23a.34.34,0,1,1,.23-.65L83.94,63a.34.34,0,0,1,.21.44.35.35,0,0,1-.44.22l-4.15-1.43Z" fill="#dce4eb" fill-rule="evenodd"/>
    </g>
  </g>
</svg>
