<svg xmlns="http://www.w3.org/2000/svg" viewBox="0 0 130 129">
  <title>_</title>
  <g style="isolation: isolate">
    <g>
      <g>
        <path d="M32.4,27.28l5.25-9.11H48.17l5.25,9.11-5.25,9.1H37.65Zm19.68,0-4.59-7.94H38.32l-4.58,7.94,4.58,7.94h9.17Z" fill="#dce4eb"/>
        <polygon points="37.49 53.14 38.49 52.56 33.74 44.32 38.32 36.38 47.83 36.38 47.83 35.22 37.65 35.22 32.4 44.32 37.49 53.14" fill="#dce4eb"/>
        <path d="M17.64,35.8l5.25-9.1H33.41l5.25,9.1-5.25,9.1H22.89Zm19.68,0-4.58-7.94H23.57L19,35.8l4.59,7.94h9.17Z" fill="#dce4eb"/>
        <polygon points="52.25 44.72 53.25 44.14 48.5 35.91 53.09 27.96 62.59 27.96 62.59 26.8 52.41 26.8 47.16 35.91 52.25 44.72" fill="#dce4eb"/>
        <polygon points="22.89 27.86 33.41 27.86 38.66 18.75 33.57 9.94 32.57 10.52 37.32 18.75 32.73 26.7 23.57 26.7 18.81 18.46 17.81 19.05 22.89 27.86" fill="#dce4eb"/>
        <path d="M39.05,34.51h7.72a.46.46,0,1,0,0-.92H39.05a.46.46,0,1,0,0,.92Z" fill="#dce4eb"/>
        <path d="M50.63,27.82a.46.46,0,0,0,.23-.06.47.47,0,0,0,.17-.63l-3.86-6.69a.46.46,0,0,0-.63-.16.45.45,0,0,0-.16.62l3.86,6.69A.47.47,0,0,0,50.63,27.82Z" fill="#dce4eb"/>
        <path d="M39.05,34.51h7.72a.46.46,0,1,0,0-.92H39.05a.46.46,0,1,0,0,.92Z" fill="#dce4eb"/>
        <path d="M20.13,36.22a.48.48,0,0,0,.4-.23l3.86-6.69a.46.46,0,0,0-.79-.46l-3.86,6.69a.45.45,0,0,0,.16.62A.41.41,0,0,0,20.13,36.22Z" fill="#dce4eb"/>
        <path d="M35.58,36.22a.39.39,0,0,0,.23-.07.46.46,0,0,0,.17-.62l-3.87-6.69a.44.44,0,0,0-.62-.16.46.46,0,0,0-.17.62L35.19,36A.45.45,0,0,0,35.58,36.22Z" fill="#dce4eb"/>
        <path d="M39.05,51.51a.46.46,0,0,0,.23-.06.45.45,0,0,0,.16-.62l-3.86-6.69A.45.45,0,0,0,35,44a.46.46,0,0,0-.17.62l3.86,6.69A.46.46,0,0,0,39.05,51.51Z" fill="#dce4eb"/>
        <path d="M20.13,36.22a.48.48,0,0,0,.4-.23l3.86-6.69a.45.45,0,0,0-.16-.62.46.46,0,0,0-.63.16l-3.86,6.69a.45.45,0,0,0,.17.62A.38.38,0,0,0,20.13,36.22Z" fill="#dce4eb"/>
        <circle cx="37.67" cy="18.76" r="2.44" fill="#dce4eb"/>
        <path d="M64.59,27.28a2.44,2.44,0,1,1-2.44-2.44A2.44,2.44,0,0,1,64.59,27.28Z" fill="#dce4eb"/>
        <path d="M25.61,44.18a2.44,2.44,0,1,1-2.44-2.44A2.44,2.44,0,0,1,25.61,44.18Z" fill="#dce4eb"/>
        <circle cx="18.29" cy="18.76" r="2.44" fill="#dce4eb"/>
        <path d="M54.88,44.18a2.44,2.44,0,1,1-2.44-2.44A2.44,2.44,0,0,1,54.88,44.18Z" fill="#dce4eb"/>
        <path d="M49.26,35.76a1.43,1.43,0,1,1-1.43-1.43A1.43,1.43,0,0,1,49.26,35.76Z" fill="#dce4eb"/>
        <path d="M49.26,18.76a1.43,1.43,0,1,1-1.43-1.42A1.43,1.43,0,0,1,49.26,18.76Z" fill="#dce4eb"/>
        <path d="M24.6,27.28a1.43,1.43,0,1,1-1.43-1.43A1.43,1.43,0,0,1,24.6,27.28Z" fill="#dce4eb"/>
        <path d="M19.72,35.84a1.43,1.43,0,1,1-1.43-1.43A1.43,1.43,0,0,1,19.72,35.84Z" fill="#dce4eb"/>
        <circle cx="33.15" cy="10.25" r="1.43" fill="#dce4eb"/>
        <path d="M39.51,35.84a1.43,1.43,0,1,1-1.43-1.43A1.43,1.43,0,0,1,39.51,35.84Z" fill="#dce4eb"/>
        <path d="M34.58,27.36a1.43,1.43,0,1,1-1.43-1.43A1.43,1.43,0,0,1,34.58,27.36Z" fill="#dce4eb"/>
        <path d="M39.51,52.94a1.43,1.43,0,1,1-1.43-1.43A1.43,1.43,0,0,1,39.51,52.94Z" fill="#dce4eb"/>
        <path d="M54.3,27.44A1.43,1.43,0,1,1,52.87,26,1.43,1.43,0,0,1,54.3,27.44Z" fill="#dce4eb"/>
        <path d="M34.58,44.18a1.43,1.43,0,1,1-1.43-1.43A1.43,1.43,0,0,1,34.58,44.18Z" fill="#dce4eb"/>
        <path d="M35.23,18.76a2.45,2.45,0,0,1,2.44-2.44V21.2A2.44,2.44,0,0,1,35.23,18.76Z" fill="#dce4eb" style="mix-blend-mode: multiply"/>
        <path d="M20.73,44.18a2.44,2.44,0,0,1,2.44-2.44v4.88A2.44,2.44,0,0,1,20.73,44.18Z" fill="#dce4eb" style="mix-blend-mode: multiply"/>
        <path d="M15.85,18.76a2.44,2.44,0,0,1,2.44-2.44V21.2A2.44,2.44,0,0,1,15.85,18.76Z" fill="#dce4eb" style="mix-blend-mode: multiply"/>
        <path d="M50,44.18a2.44,2.44,0,0,1,2.44-2.44v4.88A2.44,2.44,0,0,1,50,44.18Z" fill="#dce4eb" style="mix-blend-mode: multiply"/>
        <path d="M59.71,27.28a2.44,2.44,0,0,1,2.44-2.44v4.88A2.44,2.44,0,0,1,59.71,27.28Z" fill="#dce4eb" style="mix-blend-mode: multiply"/>
        <path d="M36.65,35.84a1.43,1.43,0,0,1,1.43-1.43v2.86A1.43,1.43,0,0,1,36.65,35.84Z" fill="#dce4eb" style="mix-blend-mode: multiply"/>
        <path d="M46.4,35.76a1.43,1.43,0,0,1,1.43-1.43v2.86A1.43,1.43,0,0,1,46.4,35.76Z" fill="#dce4eb" style="mix-blend-mode: multiply"/>
        <path d="M51.44,27.44A1.43,1.43,0,0,1,52.87,26v2.86A1.43,1.43,0,0,1,51.44,27.44Z" fill="#dce4eb" style="mix-blend-mode: multiply"/>
        <path d="M46.4,18.76a1.43,1.43,0,0,1,1.43-1.42v2.85A1.43,1.43,0,0,1,46.4,18.76Z" fill="#dce4eb" style="mix-blend-mode: multiply"/>
        <path d="M31.72,44.18a1.43,1.43,0,0,1,1.43-1.43v2.86A1.43,1.43,0,0,1,31.72,44.18Z" fill="#dce4eb" style="mix-blend-mode: multiply"/>
        <path d="M31.72,10.25a1.43,1.43,0,0,1,1.43-1.43v2.86A1.43,1.43,0,0,1,31.72,10.25Z" fill="#dce4eb" style="mix-blend-mode: multiply"/>
        <path d="M31.72,27.36a1.43,1.43,0,0,1,1.43-1.43v2.86A1.43,1.43,0,0,1,31.72,27.36Z" fill="#dce4eb" style="mix-blend-mode: multiply"/>
        <path d="M21.74,27.28a1.43,1.43,0,0,1,1.43-1.43v2.86A1.43,1.43,0,0,1,21.74,27.28Z" fill="#dce4eb" style="mix-blend-mode: multiply"/>
        <path d="M36.65,52.94a1.43,1.43,0,0,1,1.43-1.43v2.86A1.43,1.43,0,0,1,36.65,52.94Z" fill="#dce4eb" style="mix-blend-mode: multiply"/>
        <path d="M16.86,35.84a1.43,1.43,0,0,1,1.43-1.43v2.86A1.43,1.43,0,0,1,16.86,35.84Z" fill="#dce4eb" style="mix-blend-mode: multiply"/>
      </g>
      <g>
        <rect x="91.39" y="38.63" width="2.39" height="11.46" transform="translate(22.25 119.14) rotate(-72.36)" fill="#dce4eb"/>
        <rect x="102.31" y="42.1" width="2.39" height="11.46" transform="translate(26.55 131.96) rotate(-72.35)" fill="#dce4eb"/>
        <g>
          <rect x="96.79" y="54.77" width="2.39" height="7.39" transform="translate(12.57 134.12) rotate(-72.36)" fill="#dce4eb"/>
          <rect x="89.75" y="52.53" width="2.39" height="7.39" transform="translate(9.8 125.84) rotate(-72.36)" fill="#dce4eb"/>
          <rect x="99.98" y="48.12" width="2.39" height="10.33" transform="translate(19.73 133.55) rotate(-72.36)" fill="#dce4eb"/>
          <rect x="90.14" y="44.99" width="2.39" height="10.33" transform="translate(15.85 121.98) rotate(-72.35)" fill="#dce4eb"/>
          <rect x="68.49" y="110.6" width="2.39" height="11.46" transform="translate(-62.29 147.48) rotate(-72.35)" fill="#dce4eb"/>
          <rect x="79.41" y="114.08" width="2.39" height="11.46" transform="translate(-57.99 160.3) rotate(-72.36)" fill="#dce4eb"/>
          <rect x="81.05" y="104.24" width="2.39" height="7.39" transform="translate(-45.54 153.6) rotate(-72.36)" fill="#dce4eb"/>
          <rect x="74.01" y="102" width="2.39" height="7.39" transform="translate(-48.32 145.32) rotate(-72.35)" fill="#dce4eb"/>
          <rect x="70.82" y="105.71" width="2.39" height="10.33" transform="translate(-55.48 145.89) rotate(-72.35)" fill="#dce4eb"/>
          <rect x="80.66" y="108.84" width="2.39" height="10.33" transform="translate(-51.6 157.46) rotate(-72.36)" fill="#dce4eb"/>
          <rect x="81.76" y="68.9" width="2.39" height="11.46" transform="translate(-13.3 131.05) rotate(-72.35)" fill="#dce4eb"/>
          <rect x="92.68" y="72.37" width="2.39" height="11.46" transform="translate(-9.01 143.88) rotate(-72.35)" fill="#dce4eb"/>
          <rect x="88.91" y="84.21" width="2.39" height="11.46" transform="translate(-22.92 148.54) rotate(-72.35)" fill="#dce4eb"/>
          <rect x="77.99" y="80.74" width="2.39" height="11.46" transform="translate(-27.22 135.72) rotate(-72.35)" fill="#dce4eb"/>
          <rect x="80.41" y="75.55" width="2.39" height="10.33" transform="translate(-20.05 134.02) rotate(-72.35)" fill="#dce4eb"/>
          <rect x="90.26" y="78.68" width="2.39" height="10.33" transform="translate(-16.17 145.58) rotate(-72.36)" fill="#dce4eb"/>
          <polygon points="89.44 97.51 92.96 96.12 83.12 92.99 82.4 95.27 89.44 97.51" fill="#dce4eb"/>
          <polygon points="74.99 92.91 82.4 95.27 83.12 92.99 73.28 89.86 74.99 92.91" fill="#dce4eb"/>
          <polygon points="80.09 68.44 89.94 71.57 90.66 69.3 83.25 66.94 80.09 68.44" fill="#dce4eb"/>
          <polygon points="99.78 74.7 97.19 71.38 90.66 69.3 89.94 71.57 99.78 74.7" fill="#dce4eb"/>
          <path d="M82.07,102.75a1.66,1.66,0,0,1,.13-1l-2-.65-.29.91Z" fill="#dce4eb"/>
          <path d="M78.13,101.23c-.09.07-.19.12-.28.18l2,.64.29-.91-1.61-.51A1.15,1.15,0,0,1,78.13,101.23Z" fill="#dce4eb"/>
          <path d="M93.55,65c7.22-3,14.68-6,17.83-15.94L108,48c-2.6,8.19-8.48,11.08-14.88,13.75L91.91,65.7Z" fill="#dce4eb"/>
          <path d="M77.27,79.34c2.57-8.08,8.33-11,14.64-13.64l1.25-3.93-1.39.57c-7.22,3-17,5.31-20.15,15.2s3.49,17.45,7.67,24l.8,1.26,1.25-3.92C77.71,93.13,74.71,87.42,77.27,79.34Z" fill="#dce4eb"/>
          <path d="M82.48,100.37l-.92-1.52-1.32,3.91c3.5,5.81,6.46,11.49,4,19.35L89.69,124C92.61,114.38,86.46,106.92,82.48,100.37Z" fill="#dce4eb"/>
          <path d="M79.88,99.67c-7.09,2.91-16.63,5.22-20,14.66l5.65,1.8c2.65-7.68,8.3-10.54,14.47-13.12l1.25-3.92Z" fill="#dce4eb"/>
          <path d="M94.14,63.1l-.93-1.49L92,65.54c3.68,5.87,6.8,11.62,4.2,19.81S87.68,96.42,81.29,99.09L80,103l1.62-.67c7.22-3,16.81-5.37,20-15.26S98.32,69.69,94.14,63.1Z" fill="#dce4eb"/>
          <path d="M89.13,42,85.8,41c-3.14,9.88,1.17,16.71,5.35,23.3L92,65.54l1.25-3.93C89.58,55.81,86.56,50.09,89.13,42Z" fill="#dce4eb"/>
        </g>
      </g>
    </g>
  </g>
</svg>
