<svg xmlns="http://www.w3.org/2000/svg" viewBox="0 0 130 110">
  <title>_</title>
  <g>
    <path d="M5.43,87.84v1c0,4.82,1.55,6.71,8.17,7.4,0,0,1.77,0,3.09-.12,0-.31,0-.62,0-.93A11.15,11.15,0,0,1,19.27,88a8.78,8.78,0,0,1,7.43-4A11.22,11.22,0,0,1,38.59,98.54c1.57,0,3.61-.05,4.77,0l44.93,0a11,11,0,0,1-.52-3.36A11.18,11.18,0,0,1,90.41,88a9.85,9.85,0,0,1,7.42-3.93,11.22,11.22,0,0,1,12.38,11.16,11.42,11.42,0,0,1-.22,2.21c1.17,0,3.34-.15,4-1.54a49.91,49.91,0,0,0,1.86-6.34c0-1-1.74-1.72-2.44-2.75s.35-3.79-1.39-4.48c-5.58-2.41-10.91-3.93-15.8-3.93a32.61,32.61,0,0,1-10.28-1.23c-8-2.41-17.07-9.3-24.74-10H43.75c-4.87.35-11.49,1.38-16,3.79-7,3.44-14.41,5.64-20,5.29v3.79c0,1-1.13,2.09-1.13,3.12C6.62,85.58,5.43,85.43,5.43,87.84Zm43.75-17.3c0-1.43,5.25-1.07,6-1.07,9.09,0,9.75.22,20.94,6.69l-2.16,0c-.66,0-1.13.21-1.13,1.29,0,.72.88,1.69,1.23,2H52A78.56,78.56,0,0,1,49.18,70.54ZM27.87,77.1c0-3.41,10.6-6.25,15.8-7.29a2.43,2.43,0,0,1,2.79,1.78,22,22,0,0,1,.48,3.89v4H29.28A2.73,2.73,0,0,1,27.87,77.1Zm63.27,17A7.85,7.85,0,1,0,99,86.25,7.85,7.85,0,0,0,91.14,94.11ZM20,94.11a7.85,7.85,0,1,0,7.85-7.86A7.85,7.85,0,0,0,20,94.11Z" fill="#dce4eb" fill-rule="evenodd"/>
    <path d="M113,38.09l-4.41,4.66a7.9,7.9,0,0,1-11.14.32l-1.8-1.7a7.91,7.91,0,0,1-.32-11.14l4.41-4.66a4,4,0,0,1,5.57-.16l7.53,7.11a4,4,0,0,1,.16,5.57ZM98.85,46.55l-2.4,2.54a.6.6,0,0,1-.33.18l-1.77.31a3.35,3.35,0,0,0-2.58,2.73l-.21,1.79a.63.63,0,0,1-.16.34l-.42.44a.54.54,0,0,1-.33.18l-1.77.31A3.36,3.36,0,0,0,86.3,58.1l-.11.91a.58.58,0,0,1-.25.42.55.55,0,0,1-.48.08,5.19,5.19,0,0,0-3,.65.6.6,0,0,1-.73-.19.58.58,0,0,1,.05-.75l14.1-14.93a.59.59,0,0,1,.82,0,9,9,0,0,0,1.92,1.32.5.5,0,0,1,.14.1l0,0a.59.59,0,0,1,0,.83ZM79.46,57.3l.43-1a2.71,2.71,0,0,0,.16-2,.62.62,0,0,1,0-.53.57.57,0,0,1,.43-.32l.71-.13a3.34,3.34,0,0,0,2.58-2.73L84,49a.56.56,0,0,1,.15-.34l.67-.7a.51.51,0,0,1,.32-.17l1.56-.28a3.35,3.35,0,0,0,2.58-2.73l.19-1.57a.57.57,0,0,1,.16-.34l2.51-2.66a.6.6,0,0,1,.84,0l0,.05a.64.64,0,0,1,.1.13,9.46,9.46,0,0,0,1.43,1.84.59.59,0,0,1,0,.83L80.43,57.94a.59.59,0,0,1-1-.64ZM109.92,37h0a1.6,1.6,0,0,1-2.25.06L101,30.83a1.59,1.59,0,0,1-.06-2.24h0a1.59,1.59,0,0,1,2.25-.07l6.63,6.26a1.6,1.6,0,0,1,.06,2.25Z" fill="#dce4eb" fill-rule="evenodd"/>
    <path d="M39.48,14.68a22.65,22.65,0,0,1,7.24,1.6l-1.51,3.24a1.28,1.28,0,0,0,.61,1.69h0a1.29,1.29,0,0,0,1.69-.62L49,17.35a23,23,0,0,1,5.88,4.52l-2.74,2.29A1.28,1.28,0,0,0,52,26h0a1.26,1.26,0,0,0,1.78.16l2.74-2.3A22.92,22.92,0,0,1,60,30.39l-3.46.92a1.27,1.27,0,0,0-.89,1.55h0a1.27,1.27,0,0,0,1.55.9l3.45-.92a22.61,22.61,0,0,1,.49,4.69,23.77,23.77,0,0,1-.22,3.17H43.3a5.93,5.93,0,0,0,.91-3.17,5.59,5.59,0,0,0-.16-1.37l3.81-9.71a1,1,0,0,0-1.51-1.16L38,31.53a6,6,0,0,0-5.77,6,5.93,5.93,0,0,0,.91,3.17H15.55a22.21,22.21,0,0,1-.22-3.17,22.61,22.61,0,0,1,.48-4.69l3.45.92a1.27,1.27,0,0,0,1.56-.9h0a1.28,1.28,0,0,0-.9-1.55l-3.45-.93a22.72,22.72,0,0,1,3.42-6.57l2.74,2.3A1.27,1.27,0,0,0,24.42,26h0a1.28,1.28,0,0,0-.16-1.79l-2.74-2.29a23,23,0,0,1,5.88-4.52l1.51,3.24a1.29,1.29,0,0,0,1.69.62h0a1.28,1.28,0,0,0,.61-1.69L29.7,16.28a22.71,22.71,0,0,1,7.24-1.6v3.57a1.27,1.27,0,0,0,1.27,1.27h0a1.27,1.27,0,0,0,1.27-1.27V14.68ZM36.66,39.57a2.57,2.57,0,1,1,3.59-.49,2.57,2.57,0,0,1-3.59.49Zm1.55-29a27,27,0,0,1,27,27A25.58,25.58,0,0,1,65,40.7h2.29a27.68,27.68,0,0,0,.18-3.17A29.26,29.26,0,1,0,9,37.53a30.16,30.16,0,0,0,.17,3.17h2.29a27.67,27.67,0,0,1-.19-3.17,27,27,0,0,1,27-27Z" fill="#dce4eb" fill-rule="evenodd"/>
  </g>
</svg>
