<svg xmlns="http://www.w3.org/2000/svg" viewBox="0 0 100 100">
  <title>_</title>
  <g>
    <path d="M70.68,14.85l-3.61-1.1a6.19,6.19,0,0,0-11.54-3.52L51.08,8.88A2.46,2.46,0,0,0,48,10.51l-1.72,5.65a2.47,2.47,0,0,0,1.64,3.07l19.6,6a2.47,2.47,0,0,0,3.07-1.64l1.72-5.64A2.46,2.46,0,0,0,70.68,14.85Zm-10.32.47a2.25,2.25,0,1,1,2.81-1.5A2.24,2.24,0,0,1,60.36,15.32Z" fill="#dce4eb"/>
    <g>
      <path d="M37.27,31.83l-10,62.23,28.79,4.62,2.91.46,4.77-3.45,10-7.22L78.52,85,79,82.1,85.8,39.61Zm24,60.49,1.38-8.61,8.6,1.38ZM59.25,78.94,56.74,94.57l-24.67-4,8.66-54L81,43.07,74.87,81.45Z" fill="#dce4eb"/>
      <rect x="58.39" y="30.31" width="2.78" height="32.76" transform="translate(4.21 98.32) rotate(-80.89)" fill="#dce4eb"/>
      <rect x="57.03" y="38.81" width="2.78" height="32.76" transform="translate(-5.33 104.13) rotate(-80.89)" fill="#dce4eb"/>
      <rect x="55.66" y="47.31" width="2.78" height="32.76" transform="translate(-14.87 109.94) rotate(-80.89)" fill="#dce4eb"/>
      <rect x="54.3" y="55.81" width="2.78" height="32.76" transform="translate(-24.41 115.74) rotate(-80.89)" fill="#dce4eb"/>
      <g>
        <path d="M88,29.44a7.29,7.29,0,0,0-4.85-9.09l-6.63-2a5.75,5.75,0,0,1-.18.8l-1.58,5.19,6.57,2a1.05,1.05,0,0,1,.69,1.3l-2.56,8.44,6.22,1Z" fill="#dce4eb"/>
        <path d="M16.66,75.57a1.06,1.06,0,0,1-.69-1.3l18.6-61.09a1.07,1.07,0,0,1,1.3-.69l6.58,2L44,9.3a7.15,7.15,0,0,1,.29-.77l-6.63-2a7.29,7.29,0,0,0-9.09,4.85L10,72.45a7.3,7.3,0,0,0,4.85,9.1L26.21,85l1-6.22Z" fill="#dce4eb"/>
      </g>
      <rect x="45.53" y="70.62" width="2.78" height="17.77" transform="translate(-39.01 113.24) rotate(-80.89)" fill="#dce4eb"/>
    </g>
  </g>
</svg>
