<svg xmlns="http://www.w3.org/2000/svg" viewBox="0 0 60 50">
  <title>_</title>
  <g>
    <path d="M46.9,25.08C46.9,14.33,39,5.61,29.19,5.61S11.47,14.33,11.47,25.08c0,0,5.86,6.12,17.72,6.12S46.9,25.08,46.9,25.08Z" fill="#fff"/>
    <g>
      <path d="M48.51,24.31c0-.43,0-.86,0-1.3A19.37,19.37,0,0,0,9.82,23c0,.44,0,.87,0,1.3a30.66,30.66,0,0,0,6.07,3.78A14.06,14.06,0,0,1,15,23a14.2,14.2,0,1,1,28.39,0,14.06,14.06,0,0,1-.94,5.08A30.38,30.38,0,0,0,48.51,24.31Z" fill="#14487c"/>
      <path d="M52.13,29.7a41.92,41.92,0,0,0-1-4.56,32.33,32.33,0,0,1-3.21,2.8,30.81,30.81,0,0,1-8,4.39,30.89,30.89,0,0,1-10.69,1.9,31,31,0,0,1-10.7-1.9,30.59,30.59,0,0,1-8-4.39,31.34,31.34,0,0,1-3.22-2.8,39.67,39.67,0,0,0-1,4.56c-.61.19-1.23.36-1.86.52-.93.23-1.87.44-2.83.61a38.94,38.94,0,0,0,14.13,9l3.41,5a1.78,1.78,0,0,0,1.47.78H38.74a1.77,1.77,0,0,0,1.47-.78L44,39.38a39,39,0,0,0,12.85-8.55c-1-.17-1.9-.38-2.83-.61C53.36,30.06,52.73,29.89,52.13,29.7Z" fill="#14487c"/>
      <path d="M37.72,19a.32.32,0,0,0-.17-.53l-5.1-1.05a.59.59,0,0,1-.42-.3l-2.57-4.53a.31.31,0,0,0-.55,0L26.34,17.1a.59.59,0,0,1-.42.3l-5.1,1.05a.32.32,0,0,0-.17.53l3.51,3.84a.62.62,0,0,1,.16.49l-.58,5.17a.32.32,0,0,0,.45.33l4.74-2.15a.57.57,0,0,1,.51,0l4.74,2.15a.32.32,0,0,0,.45-.33l-.58-5.17a.62.62,0,0,1,.16-.49Z" fill="#89a3bd"/>
    </g>
  </g>
</svg>
