<svg xmlns="http://www.w3.org/2000/svg" viewBox="0 0 60 50">
  <title>_</title>
  <g>
    <circle cx="29.94" cy="25.16" r="21.78" fill="#fff"/>
    <g>
      <g>
        <path d="M29.43,28.63a3.65,3.65,0,0,1-2.32-.75s-4.67-4.52-4.67-4.52H19.13A11.09,11.09,0,1,0,28,14.57v3.31s4.48,4.63,4.49,4.69a3.87,3.87,0,0,1,.74,2.32A3.75,3.75,0,0,1,29.43,28.63Z" fill="#14487c"/>
        <path d="M30,3.38a22,22,0,0,0-8.71,1.78L25.1,8.84A17.09,17.09,0,0,1,30,8.13,17.25,17.25,0,1,1,12.69,25.34a16.7,16.7,0,0,1,.73-4.88L9.76,16.62A22,22,0,1,0,30,3.38Z" fill="#89a3bd"/>
      </g>
      <path d="M23.45,21.37l5,5a1.78,1.78,0,0,0,1,.29,1.75,1.75,0,0,0,1.76-1.74,1.78,1.78,0,0,0-.29-1L26,18.87l0-6L14,1.34l0,8-8,0,11.47,12Z" fill="#14487c"/>
    </g>
  </g>
</svg>
