<svg xmlns="http://www.w3.org/2000/svg" xmlns:xlink="http://www.w3.org/1999/xlink" viewBox="0 0 150 150">
  <defs>
    <clipPath id="a">
      <circle cx="73.66" cy="116.01" r="12.94" fill="#cad3e1"/>
    </clipPath>
    <clipPath id="b">
      <circle cx="73.66" cy="34.39" r="12.94" fill="none"/>
    </clipPath>
    <clipPath id="c">
      <circle cx="112.68" cy="73.22" r="12.94" fill="none"/>
    </clipPath>
    <clipPath id="d">
      <circle cx="35.64" cy="73.22" r="12.94" fill="#cad3e1"/>
    </clipPath>
  </defs>
  <title>_</title>
  <g>
    <path d="M134.55,62.74a60.51,60.51,0,0,1,1,7.65l7.26,1.18,0,6.17-7.18,1.09a61.57,61.57,0,0,1-.82,7.91l6.5,2.84-1.6,6-6.89-.76a63.3,63.3,0,0,1-3,7.51l5.32,4.2L132.05,112l-6.34-2.51a71.07,71.07,0,0,1-5,6.42l4.06,5.52-4.37,4.47-5.46-4.11a61.43,61.43,0,0,1-6.38,5.1l2.36,6.19-5.32,3.12-4.08-5.09a58.68,58.68,0,0,1-7.6,3.21l.68,6.41-6,1.64-2.59-6a66.94,66.94,0,0,1-8.27,1l-1,6.48H70.55l-1-6.48a66,66,0,0,1-8.22-1l-2.65,5.85-6-1.58.73-6.3a57.53,57.53,0,0,1-7.77-3.27l-3.94,5L36.39,133,38.75,127a74.14,74.14,0,0,1-6.47-5.07l-5.35,3.89-4.39-4.39,4-5.38a74.21,74.21,0,0,1-5-6.44l-6.19,2.36-3.1-5.4,5.24-4.11a52.66,52.66,0,0,1-3.13-7.57l-6.67.7L6,89.56l6.39-2.73a75.37,75.37,0,0,1-.93-8l-7-1.07,0-6.22,7.09-1.07a66.73,66.73,0,0,1,1-7.83L6.05,59.7l1.57-6,7.15.79a59.31,59.31,0,0,1,3.1-7.26L12.18,42.7l3.16-5.35,6.92,2.7A58.91,58.91,0,0,1,27,34l-4.5-6.14,4.39-4.39,6.19,4.56a73.08,73.08,0,0,1,6-4.67L36.39,16.3l5.32-3.12,4.81,6a51.89,51.89,0,0,1,7.15-2.93l-.9-7.6,6-1.63,3.07,7.12a65.83,65.83,0,0,1,7.51-.87l1.24-7.82H76.8L78,13.32a61.06,61.06,0,0,1,7.49.9L88.62,7l6,1.64-.85,7.71a52.76,52.76,0,0,1,7,2.87l4.81-6L111,16.3l-2.82,7.2q3,2.2,6,4.68l6.27-4.65,4.37,4.36L120.2,34.2a69.53,69.53,0,0,1,4.73,6l7.12-2.79,3.06,5.37-5.79,4.68a58.53,58.53,0,0,1,3.06,7.23l7.32-.84,1.6,5.93Z" fill="none" stroke="#e6d9e2" stroke-miterlimit="10" fill-rule="evenodd"/>
    <circle cx="73.63" cy="74.64" r="41.98" fill="#fff5de"/>
    <g>
      <circle cx="73.66" cy="116.01" r="12.94" fill="#bdc9d9"/>
      <g>
        <circle cx="73.66" cy="116.01" r="12.94" fill="#cad3e1"/>
        <g clip-path="url(#a)">
          <g>
            <path d="M70.68,119.72s-.83.31-.8.31.92,3.14,1,3.14l3.12.52,3.17-.9.64-3a3.73,3.73,0,0,1-.73-.18c-.39-.24-.42-.56-.75-1.35H71.55c-.34.84-.27,1.1-.85,1.4" fill="#ca995c" fill-rule="evenodd"/>
            <path d="M70.37,119.8s.39,3.42,3.65,3.42,3.65-3.42,3.65-3.42l5.43,2a2.33,2.33,0,0,1,1.49,1.86l1.33,6.46H62.2l1.25-6.46a2.33,2.33,0,0,1,1.49-1.86Z" fill="#404041" fill-rule="evenodd"/>
            <path d="M73.83,106.51A5.67,5.67,0,0,0,70,107.83a4.18,4.18,0,0,0-1,3.47c0,.38,0,.79.12,1.29l-.46.33a7.65,7.65,0,0,0,.5,2.66l.45.23.09.33a6.32,6.32,0,0,0,3.12,3.6,6.1,6.1,0,0,0,2,0,6.27,6.27,0,0,0,3.11-3.6l.1-.33.44-.23a7.21,7.21,0,0,0,.5-2.66l-.45-.33c.07-.5.1-.91.12-1.29,0-1.25,0-2.5-1-3.47A5.67,5.67,0,0,0,73.83,106.51Z" fill="#f4c68a" fill-rule="evenodd"/>
            <path d="M68.93,112.73a11.72,11.72,0,0,1-.26-2.14c0-1.45-.13-2.51.61-3.32.51-.55.82-1.38,1-1.55,0,0,.13.21.26.34.3.29.5.16.5-.14a1.72,1.72,0,0,0-.1-.52.68.68,0,0,1,0-.36c0-.06.08,0,.14,0a2.9,2.9,0,0,0,1.35.84.81.81,0,0,1,.23-.88c.75,1.34,1.22,1.33,1.37,1.11s.15-.24.22-.37,0,0,.12,0c.72,1,1.6.84,2.44,1.18a4,4,0,0,1,1.9,2.38,12.35,12.35,0,0,1,0,3.43l-.69.5-.34,1.51c-.46-.5-.08-2.83-.16-3.21,0-.22-.68-1-2.14-.89a10.64,10.64,0,0,1-2.41.19c-1.18-.1-2.33-.44-2.85.35s.38,3-.3,3.45l-.26-1.4Z" fill="#7c4b11" fill-rule="evenodd"/>
            <path d="M73.83,106.22a.27.27,0,0,0,.28-.11c.08-.12.15-.24.22-.37s0,0,.12,0c.72,1,1.6.84,2.44,1.18a4,4,0,0,1,1.9,2.38,12.35,12.35,0,0,1,0,3.43l-.69.5-.34,1.51c-.46-.5-.08-2.83-.16-3.21,0-.22-.68-1-2.14-.89-.71,0-1,.18-1.6.21Z" fill="#5b3000" fill-rule="evenodd"/>
          </g>
        </g>
      </g>
    </g>
    <g>
      <circle cx="73.66" cy="34.39" r="12.94" fill="#bdc9d9"/>
      <g clip-path="url(#b)">
        <g>
          <path d="M70,37.52l1-1.74,5.33,0,1,1.74,5.44,2a2.33,2.33,0,0,1,1.49,1.86L85.09,48l-22.83.08.83-6.64a2.33,2.33,0,0,1,1.48-1.87Z" fill="#42863f" fill-rule="evenodd"/>
          <path d="M72.51,48.06c.06-.68.28-7.69.36-8.07,0-.09,0-.18,0-.25a2.64,2.64,0,0,1-.47-.6c0-.33,0-1.16.34-1.14a4.9,4.9,0,0,0,1.83,0c.29,0,.37.82.34,1.14,0,.13-.38.51-.46.6s0,.17,0,.25c.09.39.34,7.41.41,8.07Z" fill="#37144a" fill-rule="evenodd"/>
          <path d="M73.6,24.83a5.48,5.48,0,0,0-3.69,1.28A4.05,4.05,0,0,0,69,29.43c0,.37.06.76.12,1.24l-.43.31a7.25,7.25,0,0,0,.48,2.55l.43.22.09.31a6,6,0,0,0,3,3.44,5.89,5.89,0,0,0,1.92,0,6,6,0,0,0,3-3.45l.09-.32.42-.22A7,7,0,0,0,78.55,31l-.43-.31c.06-.48.09-.87.11-1.24a4,4,0,0,0-.93-3.31A5.44,5.44,0,0,0,73.6,24.83Z" fill="#7e622d" fill-rule="evenodd"/>
          <path d="M78.26,30.74a9.64,9.64,0,0,0,0-2.57,3.73,3.73,0,0,0-2.07-3,6.18,6.18,0,0,0-3.39-.27,8.44,8.44,0,0,0-1,0,3.68,3.68,0,0,0-2.31,1.48,3.89,3.89,0,0,0-.58,2,10.55,10.55,0,0,0,.1,2.4l.62.4.21,1.23.29.24c-.08-1.22,0-3.87,1.09-3.11a3.28,3.28,0,0,0,1.46.47,6.08,6.08,0,0,0,2-.14c1.11-.33,1.87-1.1,2.2.13a14.56,14.56,0,0,1,.25,2.43l.29-.19L77.71,31Z" fill="#222" fill-rule="evenodd"/>
        </g>
      </g>
    </g>
    <g>
      <circle cx="112.68" cy="73.22" r="12.94" fill="#bdc9d9"/>
      <g clip-path="url(#c)">
        <g>
          <path d="M119.38,76.12a1.39,1.39,0,0,1-1,.64,2,2,0,0,0,1.66.18c-.87,2.62-3.37,1.22-4.57-.2A3.09,3.09,0,0,1,115,76c-.07-.18-.13-.41-.27-.74h-4c-.22.53-.24.79-.44,1-.92,1.54-4,3.7-4.95.74.62.15,1.5.18,1.83-.39-.49.07-.94-.2-1.19-1.06.48.14,1.19.15,1.22-.64a8.3,8.3,0,0,0-.09-1.11,25.47,25.47,0,0,1-.12-4.27c.21-2.8,1.79-4.78,3.87-4.93,3-1.47,7.31.31,7.66,4.93a31.74,31.74,0,0,1-.19,4.22C118.2,74.39,118.2,76.46,119.38,76.12Z" fill="#2d2a26" fill-rule="evenodd"/>
          <path d="M110.65,75.21c-.22.53-.24.79-.44,1-.76,1.26-2.93,2.93-4.23,1.88-1.12.59-2,1.29-2.16,2.15L103,86.84h19.39l-.84-6.61c-.15-.88-1.08-1.59-2.22-2.18-1.12,1-2.92-.17-3.89-1.31A3.09,3.09,0,0,1,115,76c-.07-.18-.13-.41-.27-.74Z" fill="#b73d25" fill-rule="evenodd"/>
          <path d="M110.65,75.21a4.71,4.71,0,0,1-.63,1.27,6.42,6.42,0,0,0,1,.68c1.26,1.38,2,1.41,3.25,0a8.29,8.29,0,0,0,1-.7,3.26,3.26,0,0,1-.26-.53c-.07-.17-.13-.4-.27-.73Z" fill="#f1bc7c" fill-rule="evenodd"/>
          <path d="M109,70.34l-.14-.27c-.17-.35-.42-.33-.42.11a8.86,8.86,0,0,0,.35,2.8.31.31,0,0,0,.11.16c.16.11.26.15.3.35a4.12,4.12,0,0,0,2.25,2.8,1.72,1.72,0,0,0,2.25,0,4.72,4.72,0,0,0,2.58-4.12c.14-1.06-.85-1.43-1.66-1.68.13.3.22.48.22.48a5.2,5.2,0,0,1-2.23-1.11,1.07,1.07,0,0,0-.25-.16c.28.43.49.69.49.69a6.11,6.11,0,0,1-2.63-1c-.55-.41-.78.53-.86.87S109.17,70.58,109,70.34Z" fill="#f1d09f" fill-rule="evenodd"/>
          <path d="M112.67,80.71l-2.06-2.28.91-.53-3.38.43.25-.38a5.47,5.47,0,0,0,1.82-1.75l.13-.24,2.33,2.18L115,76a3.17,3.17,0,0,0,.43.76,5.88,5.88,0,0,0,1.6,1.31l.19.28-3.38-.43.91.53Z" fill="#e6e7e8" fill-rule="evenodd"/>
        </g>
      </g>
    </g>
    <g>
      <circle cx="35.64" cy="73.22" r="12.94" fill="#bdc9d9"/>
      <g>
        <circle cx="35.64" cy="73.22" r="12.94" fill="#cad3e1"/>
        <g clip-path="url(#d)">
          <g>
            <path d="M35.79,64.25a3.78,3.78,0,0,1,3.2.63c2.09,1.39,2.62,4.19,2.06,7.32-.19,1-.34,4.55.17,5.51s-.79,1-1.23,1l-9,.07c-.38,0-1.27.06-1.43-.4s.17-.76.32-1.35a30.49,30.49,0,0,0-.16-5.48c-.25-2.68.11-5,1.68-6.36A4.63,4.63,0,0,1,35.79,64.25Z" fill="#ad8400" fill-rule="evenodd"/>
            <path d="M33.48,75.26c-.33.82-.2,1-1,1.32-1.95.83-5.45,1.93-5.74,3.71l-.8,6.21,19.23-.13-.87-6.21c-.31-1.77-3.83-2.82-5.8-3.62-.8-.32-.66-.49-1-1.31Z" fill="#0f809c" fill-rule="evenodd"/>
            <path d="M33.48,75.26c-.29.71-.22.93-.71,1.19a2.73,2.73,0,0,0,5.44,0c-.41-.24-.44-.51-.72-1.18Z" fill="#f1bc7c" fill-rule="evenodd"/>
            <path d="M31.84,70.45l-.14-.27c-.17-.35-.42-.32-.42.11a9,9,0,0,0,.37,2.78.33.33,0,0,0,.11.15c.16.11.26.15.3.35a4.08,4.08,0,0,0,2.25,2.76,1.71,1.71,0,0,0,2.23,0,4.7,4.7,0,0,0,2.53-4.11c.23-1.91-2.81-1.44-5.65-3.39-.37-.25-.65-.34-.87.32a11.15,11.15,0,0,0-.35,1.22C32.14,70.58,32,70.69,31.84,70.45Z" fill="#f1d09f" fill-rule="evenodd"/>
          </g>
        </g>
      </g>
    </g>
    <g>
      <path d="M74,51.76c5.67.11,10.7,3.29,11.23,9.55.34,3.92-.19,11.41-2.53,15.17h-18c-2.25-3.5-2.84-11.35-2.51-15.17.53-6.26,5.57-9.45,11.24-9.55Z" fill="#3f2500" fill-rule="evenodd"/>
      <path d="M69.65,74.33c-.68,1.66-.4,2-2,2.66-4,1.63-11,3.81-11.63,7.39L54.3,94.43H93.1L91.41,84.38c-.6-3.58-7.67-5.76-11.63-7.39-1.63-.67-1.35-1-2-2.66Z" fill="#00467f" fill-rule="evenodd"/>
      <path d="M69.65,74.33c-.59,1.43-.46,1.87-1.45,2.39l5.5,5.11,5.49-5.11c-.83-.49-.88-1-1.44-2.39Z" fill="#b47f00" fill-rule="evenodd"/>
      <path d="M66.41,64.6c-.08-.15-.18-.35-.27-.55-.34-.7-.85-.65-.86.21A18.36,18.36,0,0,0,66,69.88a.59.59,0,0,0,.23.31c.31.23.51.3.59.7.55,2.68,2.2,4.26,4.5,5.6,1.91,1.12,2.59,1.11,4.49,0A9.47,9.47,0,0,0,81,68.23c.51-3.84-5.65-3-11.35-6.91-.73-.51-1.3-.7-1.77.61-.26.75-.51,1.59-.72,2.47C67,64.86,66.69,65.08,66.41,64.6Z" fill="#cb9d4b" fill-rule="evenodd"/>
      <polygon points="73.7 86.98 69.57 82.42 71.4 81.35 64.63 82.22 68.21 76.72 73.7 81.83 79.19 76.72 82.77 82.22 76 81.35 77.83 82.42 73.7 86.98" fill="#e6e7e8" fill-rule="evenodd"/>
    </g>
  </g>
</svg>
