<svg xmlns="http://www.w3.org/2000/svg" viewBox="0 0 125 125">
  <title>_</title>
  <g>
    <path d="M114.69,53.08a54.14,54.14,0,0,1,.86,6.5l6.17,1,0,5.24-6.1.93a54.2,54.2,0,0,1-.7,6.72l5.53,2.42L119.07,81l-5.87-.64a54.87,54.87,0,0,1-2.55,6.39l4.52,3.56-2.61,4.62-5.38-2.13a63,63,0,0,1-4.26,5.45l3.44,4.69-3.7,3.8L98,103.24a50.74,50.74,0,0,1-5.43,4.33l2,5.26-4.52,2.66-3.47-4.33a50.65,50.65,0,0,1-6.46,2.73l.58,5.45-5.07,1.39-2.2-5.07a56.87,56.87,0,0,1-7,.86L65.6,122H60.29l-.81-5.5a56.36,56.36,0,0,1-7-.81l-2.25,5-5.07-1.34.62-5.36a50.07,50.07,0,0,1-6.6-2.77l-3.35,4.26-4.59-2.64,2-5.16a63,63,0,0,1-5.5-4.31l-4.55,3.3-3.73-3.73,3.37-4.57a63.22,63.22,0,0,1-4.28-5.48l-5.26,2L10.68,90.3l4.45-3.49a44.08,44.08,0,0,1-2.66-6.44L6.8,81,5.39,75.88l5.43-2.32A63.8,63.8,0,0,1,10,66.74L4.1,65.83l0-5.29,6-.91A57.81,57.81,0,0,1,11,53L5.46,50.49,6.8,45.42l6.08.67a49.7,49.7,0,0,1,2.63-6.17l-4.83-3.87,2.67-4.55,5.89,2.3a49.35,49.35,0,0,1,4.07-5.12l-3.83-5.22,3.73-3.73,5.26,3.88a59.1,59.1,0,0,1,5.12-4l-2.34-6L35.77,11l4.09,5.1a43.14,43.14,0,0,1,6.08-2.49L45.17,7.1l5.12-1.39,2.61,6.05A58.18,58.18,0,0,1,59.28,11l1.06-6.65H65.6l1,6.7a51.08,51.08,0,0,1,6.37.77l2.68-6.13L80.72,7.1,80,13.65a46.87,46.87,0,0,1,6,2.44L90.07,11l4.57,2.61-2.39,6.12c1.72,1.24,3.41,2.57,5.07,4l5.33-3.95,3.71,3.71-3.87,5.36a59.55,59.55,0,0,1,4,5.07l6-2.37,2.61,4.57-4.93,4a49.8,49.8,0,0,1,2.61,6.15l6.22-.71,1.36,5Z" fill="none" stroke="#c3dfe6" stroke-miterlimit="10" fill-rule="evenodd"/>
    <g>
      <g>
        <path d="M87.14,62.32,86.66,62l-.56.19C74.32,66.41,65.88,75.7,64.61,85.84v5.08c0,.46-.11.91-.17,1.34l-.23,1.44,1.45-.15.33,0,.1,0a29.94,29.94,0,0,0,26.28-26l.07-.53-.37-.38A33.68,33.68,0,0,0,87.14,62.32ZM65.94,92.39l-.41,0c.07-.48.14-1,.18-1.46V86c1.2-9.55,9-18.53,20.76-22.75a33.48,33.48,0,0,1,4.76,4.12A29,29,0,0,1,65.94,92.39Z" fill="#525252" stroke="#525252" stroke-miterlimit="10" stroke-width="0.23"/>
        <path d="M87.5,58.59l.45-.12c1-.25,1.93-.49,2.9-.68L92,57.55l-.28-1.14a30,30,0,0,0-58.28,0l-.28,1.14,1.15.24c1,.2,1.94.43,2.89.68l.45.12.41-.23A48.53,48.53,0,0,1,62.26,52H63A48.55,48.55,0,0,1,87.1,58.36ZM62.71,50.91h-.28a49.93,49.93,0,0,0-25,6.48c-1-.27-1.95-.5-3-.71a28.9,28.9,0,0,1,56.1,0c-1,.21-2,.44-3,.71A49.9,49.9,0,0,0,62.71,50.91Z" fill="#525252" stroke="#525252" stroke-miterlimit="10" stroke-width="0.23"/>
        <path d="M94.59,56.16A33,33,0,0,0,83.2,38.05a32.47,32.47,0,0,0-20.49-7.29h-.27A32.45,32.45,0,0,0,42,38.05,33,33,0,0,0,30.56,56.16a32.22,32.22,0,0,0-.76,4.9c-.07.87-.1,1.74-.1,2.6v.69a33.23,33.23,0,0,0,1.21,8.19,32.87,32.87,0,0,0,27,23.69c1,.15,2.09.25,3.13.3.46,0,.94,0,1.42,0h.27c.48,0,1,0,1.42,0,1,0,2.09-.15,3.13-.3A32.84,32.84,0,0,0,95.44,64.35c0-.23,0-.46,0-.69,0-.86,0-1.73-.1-2.6A33.52,33.52,0,0,0,94.59,56.16ZM59.5,93.55l-.32,0-.11,0a30,30,0,0,1-26.28-26L32.72,67l.37-.38A33.24,33.24,0,0,1,38,62.32l.48-.34.55.19c11.79,4.24,20.23,13.53,21.5,23.67v5.07q.08.7.18,1.35L61,93.7ZM63,52h-.75a48.53,48.53,0,0,0-24.21,6.33l-.41.23-.45-.12c-.95-.25-1.92-.48-2.89-.68l-1.15-.24.28-1.14a30,30,0,0,1,58.28,0L92,57.55l-1.14.24c-1,.19-1.95.43-2.9.68l-.45.12-.4-.23A48.55,48.55,0,0,0,63,52ZM92.35,67.49a29.94,29.94,0,0,1-26.28,26l-.1,0-.33,0-1.45.15.23-1.44c.06-.43.12-.88.17-1.34V85.84C65.88,75.7,74.32,66.41,86.1,62.17l.56-.19.48.34a33.68,33.68,0,0,1,4.91,4.26l.37.38Z" fill="#525252"/>
        <path d="M97.63,60.38A35.68,35.68,0,0,0,62.25,27.54H62A35.59,35.59,0,0,0,37.05,37.85c-.65.64-1.27,1.31-1.86,2a35.45,35.45,0,0,0-8.6,20.53c-.08.93-.11,1.87-.11,2.82,0,.25,0,.49,0,.74A35.6,35.6,0,0,0,57,98.49q1.66.24,3.39.33c.51,0,1,0,1.54,0h.29c.52,0,1,0,1.54,0q1.73-.09,3.39-.33A35.65,35.65,0,0,0,97.73,63.94c0-.25,0-.49,0-.74C97.74,62.25,97.7,61.31,97.63,60.38Zm-2.19,4A32.84,32.84,0,0,1,67.26,96.23c-1,.15-2.1.25-3.13.3-.46,0-.94,0-1.42,0h-.27c-.48,0-1,0-1.42,0-1,0-2.09-.15-3.13-.3a32.87,32.87,0,0,1-27-23.69,33.23,33.23,0,0,1-1.21-8.19v-.69c0-.86,0-1.73.1-2.6a32.22,32.22,0,0,1,.76-4.9A33,33,0,0,1,42,38.05a32.45,32.45,0,0,1,20.49-7.29h.27A32.47,32.47,0,0,1,83.2,38.05,33,33,0,0,1,94.59,56.16a33.52,33.52,0,0,1,.76,4.9c.06.87.1,1.74.1,2.6C95.45,63.89,95.44,64.12,95.44,64.35Z" fill="#525252" stroke="#525252" stroke-miterlimit="10" stroke-width="0.23"/>
        <path d="M60.55,90.91V85.84C59.27,75.7,50.83,66.41,39,62.17L38.49,62l-.48.34a33.24,33.24,0,0,0-4.92,4.26l-.37.38.07.53a30,30,0,0,0,26.28,26l.11,0,.32,0L61,93.7l-.22-1.44Q60.63,91.62,60.55,90.91ZM59.33,92.4v0l-.41,0a28.94,28.94,0,0,1-25.29-25,32.84,32.84,0,0,1,4.75-4.12l.18.07.1-.07C50.39,67.45,58.22,76.43,59.42,86v5c0,.49.11,1,.19,1.46Z" fill="#525252" stroke="#525252" stroke-miterlimit="10" stroke-width="0.23"/>
        <g>
          <path d="M68.62,63.66a6,6,0,0,0-2-4.46A5.14,5.14,0,0,0,66,68.62,6,6,0,0,0,68.62,63.66Z" fill="#6d6e71" stroke="#231f20" stroke-miterlimit="10" stroke-width="0.23"/>
          <path d="M62,64.05a5.12,5.12,0,0,0-3.48-4.86,6,6,0,0,0,.64,9.45A5.13,5.13,0,0,0,62,64.05Z" fill="#6d6e71" stroke="#231f20" stroke-miterlimit="10" stroke-width="0.23"/>
          <path d="M62.61,61.32a6.36,6.36,0,0,1,2.88-3,6.07,6.07,0,0,0-5.81,0A6.46,6.46,0,0,1,62.61,61.32Z" fill="#6d6e71" stroke="#231f20" stroke-miterlimit="10" stroke-width="0.23"/>
          <path d="M62.61,66.77a6.39,6.39,0,0,1-2.18,2.54,5.9,5.9,0,0,0,2.14.4,6.13,6.13,0,0,0,2.19-.41A6.43,6.43,0,0,1,62.61,66.77Z" fill="#6d6e71" stroke="#231f20" stroke-miterlimit="10" stroke-width="0.23"/>
        </g>
        <path d="M68.36,58.91a7.54,7.54,0,0,0-1.14-1.12,7.47,7.47,0,0,0-9.28,0,7.29,7.29,0,0,0-1.16,1.13,7.49,7.49,0,0,0,.69,10.24,7.79,7.79,0,0,0,1.31,1,7.49,7.49,0,0,0,3.79,1,7.4,7.4,0,0,0,3.82-1.05,7.21,7.21,0,0,0,1.29-1,7.49,7.49,0,0,0,.68-10.23Zm-5.79-1.3a6.09,6.09,0,0,1,2.92.75,6.36,6.36,0,0,0-2.88,3,6.46,6.46,0,0,0-2.93-3A6.13,6.13,0,0,1,62.57,57.61Zm-6,6a6,6,0,0,1,2-4.47,5.13,5.13,0,0,1,.64,9.45A6,6,0,0,1,56.52,63.66Zm6,6a5.9,5.9,0,0,1-2.14-.4,6.39,6.39,0,0,0,2.18-2.54,6.43,6.43,0,0,0,2.15,2.53A6.13,6.13,0,0,1,62.57,69.71ZM66,68.62a5.14,5.14,0,0,1,.63-9.42A6,6,0,0,1,66,68.62Z" fill="#3e3e3e" stroke="#3e3e3e" stroke-miterlimit="10" stroke-width="0.47"/>
      </g>
      <path d="M40.93,56.54,31.86,91.88A41,41,0,0,1,23.19,75l7.39-21Z" fill="#42863f" stroke="#42863f" stroke-miterlimit="10" stroke-width="0.23"/>
      <path d="M26,41.72a2,2,0,0,1,.91-.43l-.12-.19c-.56-.83-.16-2.23.89-3.13a2.86,2.86,0,0,1,1.56-.7,3.11,3.11,0,0,1,1.15-2.1,2.09,2.09,0,0,1,2.46-.49,3.5,3.5,0,0,1,.62-.66c1-.85,2.34-.88,2.92-.08l7.38,10.37.16,0,1.48-2.13a13.5,13.5,0,0,1,2-1.53A23.67,23.67,0,0,1,50,39.41l.79-.25a3.25,3.25,0,0,1,2.88.43c1.32,1,0,1.76-.77,2.1l-2.77,1.15A15.81,15.81,0,0,0,47,46.6c-.8,2.07-.93,3.39-3.3,5.51a17.93,17.93,0,0,1-1.44,1.14l-1.88,3.83-9.69-3L31,51.76,25.45,44A1.78,1.78,0,0,1,26,41.72Z" fill="#ce9e6f"/>
      <path d="M102.63,76.93a41.09,41.09,0,0,1-9.08,16L84.21,56.54l10.35-2.48Z" fill="#42863f" stroke="#42863f" stroke-miterlimit="10" stroke-width="0.23"/>
      <path d="M99.13,41.72a2,2,0,0,0-.91-.43l.12-.19c.56-.83.16-2.23-.89-3.13a2.86,2.86,0,0,0-1.56-.7,3.14,3.14,0,0,0-1.14-2.1,2.11,2.11,0,0,0-2.47-.49,3.44,3.44,0,0,0-.61-.66c-1-.85-2.35-.88-2.92-.08L81.36,44.31l-.16,0-1.48-2.13a13,13,0,0,0-2-1.53,22.83,22.83,0,0,0-2.59-1.22l-.78-.25a3.27,3.27,0,0,0-2.89.43c-1.31,1,0,1.76.77,2.1L75,42.84a16.41,16.41,0,0,1,3.2,3.76c.8,2.07.92,3.39,3.29,5.51a17.93,17.93,0,0,0,1.44,1.14l1.88,3.83,9.69-3-.33-2.33L99.69,44A1.78,1.78,0,0,0,99.13,41.72Z" fill="#ce9e6f"/>
      <g>
        <polygon points="40.5 59.46 39.17 64.33 27.79 61 29.36 56.19 40.5 59.46" fill="#fff"/>
        <g>
          <polygon points="32.71 58.57 32.68 58.58 32.66 58.72 32.98 58.81 33.02 58.81 33.04 58.67 32.71 58.57" fill="#838085"/>
          <polygon points="32.68 58.65 33 58.74 33.02 58.74 32.7 58.64 32.68 58.65" fill="#838085"/>
          <polygon points="31.88 61.37 31.82 61.5 31.84 61.52 32.18 61.62 32.23 61.49 32.21 61.47 31.88 61.37" fill="#838085"/>
          <polygon points="31.86 61.44 31.87 61.46 32.2 61.55 32.18 61.53 31.86 61.44" fill="#838085"/>
          <path d="M35.43,56.86a3.55,3.55,0,1,0,2.41,4.41A3.55,3.55,0,0,0,35.43,56.86Z" fill="#fff"/>
          <path d="M34.54,59.92a.37.37,0,0,0-.46.24.38.38,0,0,0,.25.46.37.37,0,0,0,.45-.25A.36.36,0,0,0,34.54,59.92Z" fill="#59023b" stroke="#231f20" stroke-miterlimit="10" stroke-width="0.23"/>
          <path d="M35.3,57.3a3.09,3.09,0,1,0,2.1,3.84A3.1,3.1,0,0,0,35.3,57.3ZM37.07,61a2.75,2.75,0,1,1-1.86-3.41" fill="#59023b"/>
          <path d="M35.68,56.3a.13.13,0,0,0-.16.09l-.09.3a.14.14,0,0,0,.09.17.14.14,0,0,0,.17-.1l.09-.3A.13.13,0,0,0,35.68,56.3Z" fill="#fff"/>
          <path d="M35.82,56.74l-.48-.14a.15.15,0,0,0-.08.29l.48.14a.15.15,0,0,0,.08-.29Z" fill="#fff"/>
          <rect x="31.5" y="59.26" width="0.1" height="0.23" transform="translate(-34.3 72.96) rotate(-73.67)" fill="#fff"/>
          <rect x="37.31" y="60.97" width="0.1" height="0.23" transform="translate(-31.77 79.73) rotate(-73.65)" fill="#fff"/>
          <path d="M34.43,60.27l-1.69-2.59Z" fill="#59023b" stroke="#231f20" stroke-miterlimit="10" stroke-width="0.23"/>
          <path d="M34.43,60.27l-1.92,1.11Z" fill="#59023b" stroke="#231f20" stroke-miterlimit="10" stroke-width="0.23"/>
        </g>
      </g>
    </g>
  </g>
</svg>
