<svg xmlns="http://www.w3.org/2000/svg" xmlns:xlink="http://www.w3.org/1999/xlink" viewBox="0 0 150 150">
  <defs>
    <clipPath id="a">
      <circle cx="76.04" cy="114.63" r="14.38" fill="#cad3e1"/>
    </clipPath>
    <clipPath id="b">
      <circle cx="76.04" cy="34.27" r="14.38" fill="none"/>
    </clipPath>
    <clipPath id="c">
      <circle cx="113.05" cy="73.1" r="14.38" fill="none"/>
    </clipPath>
    <clipPath id="d">
      <circle cx="39.04" cy="73.1" r="14.38" fill="#cad3e1"/>
    </clipPath>
  </defs>
  <title>_</title>
  <g>
    <path d="M136.94,62.62a62.65,62.65,0,0,1,1,7.65l7.26,1.18,0,6.17L138,78.71a65.36,65.36,0,0,1-.82,7.91l6.5,2.85-1.6,6-6.9-.76a62.57,62.57,0,0,1-3,7.51l5.32,4.2-3.07,5.43-6.33-2.51a72.91,72.91,0,0,1-5,6.42l4,5.52-4.36,4.47-5.46-4.11a60.49,60.49,0,0,1-6.39,5.1l2.37,6.19L108,136,103.9,131a58.68,58.68,0,0,1-7.6,3.21l.67,6.41-6,1.64-2.59-6a66.87,66.87,0,0,1-8.28,1l-1,6.48H72.94l-1-6.48a66,66,0,0,1-8.21-.95l-2.65,5.85-6-1.58.74-6.3A57.53,57.53,0,0,1,48.12,131l-3.94,5-5.41-3.09,2.37-6.08a72.67,72.67,0,0,1-6.47-5.07l-5.35,3.89-4.39-4.39,4-5.38a74.21,74.21,0,0,1-5-6.44l-6.19,2.36-3.1-5.4,5.24-4.11a52.66,52.66,0,0,1-3.13-7.57l-6.67.7-1.66-6,6.39-2.73a75.37,75.37,0,0,1-.93-8l-7-1.07,0-6.22L14,70.33a68.92,68.92,0,0,1,1-7.83L8.44,59.58l1.57-6,7.15.79a57.8,57.8,0,0,1,3.1-7.26l-5.69-4.56,3.15-5.35,6.93,2.7a58.91,58.91,0,0,1,4.78-6l-4.5-6.13,4.39-4.39,6.19,4.55a73.08,73.08,0,0,1,6-4.67l-2.76-7.09,5.32-3.12,4.82,6a51.26,51.26,0,0,1,7.14-2.93l-.9-7.59,6-1.64L64.24,14a66.27,66.27,0,0,1,7.52-.87L73,5.32h6.19l1.18,7.88a61.06,61.06,0,0,1,7.49.9L91,6.89l6,1.64-.84,7.71a52.76,52.76,0,0,1,7,2.87l4.81-6,5.37,3.07-2.81,7.21c2,1.46,4,3,6,4.67l6.27-4.65,4.36,4.37-4.55,6.3a69.4,69.4,0,0,1,4.72,6l7.12-2.79,3.07,5.38-5.8,4.67a57.07,57.07,0,0,1,3.07,7.23l7.32-.84,1.6,5.93Z" fill="none" stroke="#e6d9e2" stroke-miterlimit="10" fill-rule="evenodd"/>
    <circle cx="76.02" cy="74.52" r="41.98" fill="#fff5de"/>
    <g>
      <path d="M92.11,69.81s0,.09,0,.13A.09.09,0,0,0,92.11,69.81Z" fill="#e6e9ee"/>
      <path d="M90.13,68.26a13.79,13.79,0,0,1-4.28,10.38,11,11,0,0,0-3.58,8.17H70.35a10.94,10.94,0,0,0-.87-4.43A10.17,10.17,0,0,0,67,78.84a13.82,13.82,0,0,1,9.86-24A14,14,0,0,1,90.13,68.26Z" fill="#f1b93d"/>
      <path d="M80.77,67.26h-.84a2,2,0,0,0-2,1.67v0l-.13,1.68h-3L74.67,69v0a2,2,0,0,0-2-1.67h-.84a2,2,0,0,0,0,4h2.37L75,88.07a.31.31,0,0,0,.31.29h0a.3.3,0,0,0,.28-.33l-.72-16.76h2.92L77,88a.31.31,0,0,0,.29.33h0a.31.31,0,0,0,.32-.29l.73-16.8h2.37a2,2,0,0,0,0-4Zm-8.92,3.38a1.38,1.38,0,0,1,0-2.76h.84A1.36,1.36,0,0,1,74,69l.13,1.62Zm8.92,0H78.45L78.57,69a1.38,1.38,0,0,1,1.36-1.14h.84a1.38,1.38,0,0,1,0,2.76Z" fill="#fff"/>
      <g>
        <path d="M82.26,86.81v5.51a.39.39,0,0,1-.4.39H79.54a1.4,1.4,0,0,1-1.39,1.39H74.47a1.39,1.39,0,0,1-1.39-1.39H70.75a.38.38,0,0,1-.39-.39V86.81Z" fill="#2c3b4e"/>
        <path d="M83.07,89.36a.63.63,0,0,1-.18.44.6.6,0,0,1-.43.18H70.16a.61.61,0,0,1-.61-.62.62.62,0,0,1,.18-.43.6.6,0,0,1,.43-.18h12.3A.62.62,0,0,1,83.07,89.36Z" fill="#324b5e"/>
        <path d="M83.07,91.3a.63.63,0,0,1-.18.44.6.6,0,0,1-.43.18H70.16a.61.61,0,0,1-.61-.62.62.62,0,0,1,.18-.43.6.6,0,0,1,.43-.18h12.3A.62.62,0,0,1,83.07,91.3Z" fill="#324b5e"/>
        <path d="M83.07,87.43a.62.62,0,0,1-.18.43.6.6,0,0,1-.43.18H70.16a.61.61,0,0,1-.61-.61.63.63,0,0,1,.18-.44.6.6,0,0,1,.43-.18h12.3A.62.62,0,0,1,83.07,87.43Z" fill="#324b5e"/>
      </g>
    </g>
    <g>
      <g>
        <g>
          <path d="M76.16,52.93a.54.54,0,0,1-.54-.53V49.32a.54.54,0,0,1,1.07,0V52.4A.53.53,0,0,1,76.16,52.93Z" fill="#ffcf5c"/>
          <g>
            <path d="M92.24,69a.54.54,0,0,1,.54-.54h3.07a.54.54,0,1,1,0,1.07H92.78A.54.54,0,0,1,92.24,69Z" fill="#ffcf5c"/>
            <path d="M55.93,69a.54.54,0,0,1,.54-.54h3.07a.54.54,0,0,1,0,1.07H56.47A.54.54,0,0,1,55.93,69Z" fill="#ffcf5c"/>
          </g>
        </g>
        <g>
          <path d="M87.53,57.64a.54.54,0,0,1,0-.76l2.17-2.17a.54.54,0,0,1,.76.76l-2.17,2.17A.54.54,0,0,1,87.53,57.64Z" fill="#ffcf5c"/>
          <path d="M61.85,54.71a.54.54,0,0,1,.76,0l2.17,2.17a.54.54,0,0,1,0,.76.53.53,0,0,1-.75,0l-2.18-2.17A.54.54,0,0,1,61.85,54.71Z" fill="#ffcf5c"/>
        </g>
      </g>
      <g>
        <g>
          <path d="M70,54.16a.54.54,0,0,1-.7-.29L68.13,51a.52.52,0,0,1,.29-.7.53.53,0,0,1,.7.29l1.17,2.84A.53.53,0,0,1,70,54.16Z" fill="#ffcf5c"/>
          <g>
            <path d="M91,62.86a.52.52,0,0,1,.29-.7L94.14,61a.54.54,0,0,1,.42,1l-2.84,1.17A.53.53,0,0,1,91,62.86Z" fill="#ffcf5c"/>
            <path d="M57.47,76.76a.52.52,0,0,1,.29-.7l2.84-1.18a.55.55,0,0,1,.7.29.54.54,0,0,1-.29.7l-2.84,1.18A.54.54,0,0,1,57.47,76.76Z" fill="#ffcf5c"/>
          </g>
        </g>
        <g>
          <path d="M82.31,54.16a.55.55,0,0,1-.29-.7l1.18-2.84a.52.52,0,0,1,.7-.29.54.54,0,0,1,.29.7L83,53.87A.54.54,0,0,1,82.31,54.16Z" fill="#ffcf5c"/>
          <g>
            <path d="M91,75.17a.54.54,0,0,1,.7-.29l2.84,1.18a.54.54,0,0,1,.29.7.55.55,0,0,1-.71.29l-2.83-1.18A.52.52,0,0,1,91,75.17Z" fill="#ffcf5c"/>
            <path d="M57.47,61.28a.54.54,0,0,1,.7-.3L61,62.16a.54.54,0,0,1-.41,1L57.76,62A.53.53,0,0,1,57.47,61.28Z" fill="#ffcf5c"/>
          </g>
        </g>
      </g>
    </g>
    <g>
      <circle cx="76.04" cy="114.63" r="14.38" fill="#bdc9d9"/>
      <g>
        <circle cx="76.04" cy="114.63" r="14.38" fill="#cad3e1"/>
        <g clip-path="url(#a)">
          <g>
            <path d="M72.74,118.75s-.92.35-.89.35,1,3.49,1.07,3.49l3.46.57,3.52-1,.71-3.27a4.37,4.37,0,0,1-.81-.2c-.43-.27-.46-.62-.83-1.5H73.71c-.39.93-.31,1.22-.95,1.55" fill="#ca995c" fill-rule="evenodd"/>
            <path d="M72.39,118.84s.44,3.8,4.06,3.8,4-3.8,4-3.8l6,2.27a2.56,2.56,0,0,1,1.66,2.07l1.48,7.17H63.31l1.4-7.17a2.57,2.57,0,0,1,1.65-2.07Z" fill="#404041" fill-rule="evenodd"/>
            <path d="M76.24,104.07A6.28,6.28,0,0,0,72,105.54c-1.12,1.07-1.12,2.47-1.07,3.85,0,.43.06.89.13,1.44l-.5.36a8.39,8.39,0,0,0,.55,3l.5.26.1.36a7,7,0,0,0,3.46,4,7,7,0,0,0,2.23,0,6.94,6.94,0,0,0,3.46-4l.1-.36.5-.26a8.17,8.17,0,0,0,.55-3l-.5-.36c.07-.55.11-1,.13-1.44,0-1.38,0-2.78-1.07-3.85A6.27,6.27,0,0,0,76.24,104.07Z" fill="#f4c68a" fill-rule="evenodd"/>
            <path d="M70.8,111a11.93,11.93,0,0,1-.29-2.37c0-1.61-.15-2.79.67-3.69.57-.62.91-1.54,1.16-1.72.06,0,.15.23.3.38.33.32.56.18.55-.16a2,2,0,0,0-.11-.58.8.8,0,0,1,0-.39c0-.08.09,0,.16,0,.49.35.62.7,1.5.93a.9.9,0,0,1,.26-1c.82,1.49,1.35,1.48,1.52,1.23a3.38,3.38,0,0,0,.24-.41s0,0,.14,0c.8,1.09,1.77.94,2.71,1.32a4.37,4.37,0,0,1,2.11,2.63,13.65,13.65,0,0,1,0,3.82l-.77.55-.37,1.68c-.51-.56-.08-3.15-.17-3.57-.05-.24-.77-1.06-2.38-1a12.39,12.39,0,0,1-2.68.21c-1.32-.12-2.59-.49-3.17.39-.48.72.42,3.32-.34,3.83l-.28-1.56Z" fill="#7c4b11" fill-rule="evenodd"/>
            <path d="M76.24,103.75a.29.29,0,0,0,.31-.12,3.38,3.38,0,0,0,.24-.41s0,0,.14,0c.8,1.09,1.77.94,2.71,1.32a4.37,4.37,0,0,1,2.11,2.63,13.65,13.65,0,0,1,0,3.82l-.77.55-.37,1.68c-.51-.56-.08-3.15-.17-3.57-.05-.24-.77-1.06-2.38-1-.79,0-1.12.2-1.78.23Z" fill="#5b3000" fill-rule="evenodd"/>
          </g>
        </g>
      </g>
    </g>
    <g>
      <circle cx="76.04" cy="34.27" r="14.38" fill="#bdc9d9"/>
      <g clip-path="url(#b)">
        <g>
          <path d="M72,37.75l1.09-1.93,5.93,0,1.09,1.92,6,2.25A2.56,2.56,0,0,1,87.78,42l1,7.37-25.37.08.92-7.38A2.6,2.6,0,0,1,66,40Z" fill="#42863f" fill-rule="evenodd"/>
          <path d="M74.77,49.45c.07-.75.31-8.53.4-9,0-.09.06-.2,0-.28a2.7,2.7,0,0,1-.52-.66c0-.36,0-1.29.37-1.27a5.19,5.19,0,0,0,2,0c.33,0,.41.91.38,1.27a3.21,3.21,0,0,1-.51.67c-.07.08,0,.18,0,.27.09.43.37,8.24.44,9Z" fill="#37144a" fill-rule="evenodd"/>
          <path d="M76,23.65a6.06,6.06,0,0,0-4.1,1.42c-1.06,1-1.06,2.37-1,3.69A12.9,12.9,0,0,0,71,30.14l-.48.34a8.12,8.12,0,0,0,.54,2.83l.48.25.1.35A6.68,6.68,0,0,0,75,37.73a6.62,6.62,0,0,0,2.13,0,6.67,6.67,0,0,0,3.3-3.84l.1-.35.47-.25a7.88,7.88,0,0,0,.52-2.83L81,30.1a12.53,12.53,0,0,0,.12-1.37c0-1.33,0-2.66-1-3.68A6,6,0,0,0,76,23.65Z" fill="#7e622d" fill-rule="evenodd"/>
          <path d="M81.16,30.21a10.9,10.9,0,0,0,0-2.85A4.16,4.16,0,0,0,78.84,24a6.86,6.86,0,0,0-3.77-.3,9.6,9.6,0,0,0-1,0,4,4,0,0,0-2.57,1.63,4.2,4.2,0,0,0-.64,2.18,11.75,11.75,0,0,0,.11,2.67l.69.45L71.83,32l.33.27c-.1-1.36,0-4.3,1.2-3.46a3.74,3.74,0,0,0,1.64.53,6.87,6.87,0,0,0,2.26-.16c1.23-.37,2.08-1.22,2.45.14A17.34,17.34,0,0,1,80,32l.32-.21.25-1.27Z" fill="#222" fill-rule="evenodd"/>
        </g>
      </g>
    </g>
    <g>
      <circle cx="113.05" cy="73.1" r="14.38" fill="#bdc9d9"/>
      <g clip-path="url(#c)">
        <g>
          <path d="M120.49,76.32a1.53,1.53,0,0,1-1.16.72,2.24,2.24,0,0,0,1.84.19c-1,2.92-3.74,1.36-5.07-.22a3.33,3.33,0,0,1-.5-.88c-.08-.19-.15-.45-.31-.82H110.8c-.25.59-.27.87-.49,1.1-1,1.71-4.42,4.11-5.5.82.69.17,1.66.21,2-.43-.55.07-1-.22-1.32-1.17.53.15,1.32.15,1.35-.72a7.29,7.29,0,0,0-.1-1.23,28.08,28.08,0,0,1-.13-4.75c.23-3.1,2-5.31,4.3-5.47,3.29-1.64,8.13.34,8.51,5.47a33.54,33.54,0,0,1-.22,4.69C119.19,74.4,119.18,76.7,120.49,76.32Z" fill="#2d2a26" fill-rule="evenodd"/>
          <path d="M110.8,75.31c-.25.59-.27.87-.49,1.1-.84,1.4-3.26,3.26-4.71,2.09-1.23.65-2.23,1.43-2.39,2.39l-.94,7.34h21.55l-.94-7.34c-.16-1-1.19-1.77-2.46-2.43-1.25,1.07-3.25-.18-4.32-1.45a3.33,3.33,0,0,1-.5-.88c-.08-.19-.15-.45-.31-.82Z" fill="#b73d25" fill-rule="evenodd"/>
          <path d="M110.8,75.31a5.53,5.53,0,0,1-.7,1.42,7.81,7.81,0,0,0,1.07.75c1.4,1.53,2.21,1.56,3.61,0a9.14,9.14,0,0,0,1.11-.78,3.49,3.49,0,0,1-.29-.58c-.09-.2-.15-.45-.31-.82Z" fill="#f1bc7c" fill-rule="evenodd"/>
          <path d="M109,69.9c0-.08-.1-.19-.16-.3-.19-.39-.46-.36-.47.12a10.28,10.28,0,0,0,.39,3.12.37.37,0,0,0,.13.17c.17.12.29.17.33.39a4.58,4.58,0,0,0,2.5,3.11,1.9,1.9,0,0,0,2.49,0,5.26,5.26,0,0,0,2.87-4.59c.16-1.17-.94-1.59-1.84-1.87.15.34.25.54.25.54A6,6,0,0,1,113,69.36a.71.71,0,0,0-.27-.18c.31.48.54.77.54.77a7,7,0,0,1-2.92-1.12c-.61-.46-.86.58-.95,1S109.15,70.17,109,69.9Z" fill="#f1d09f" fill-rule="evenodd"/>
          <path d="M113,81.42l-2.29-2.53,1-.59-3.76.48.27-.42a6.24,6.24,0,0,0,2-2l.14-.26,2.6,2.41,2.56-2.39a3.65,3.65,0,0,0,.49.84,6.12,6.12,0,0,0,1.77,1.45l.21.32-3.76-.48,1,.59Z" fill="#e6e7e8" fill-rule="evenodd"/>
        </g>
      </g>
    </g>
    <g>
      <circle cx="39.04" cy="73.1" r="14.38" fill="#bdc9d9"/>
      <g>
        <circle cx="39.04" cy="73.1" r="14.38" fill="#cad3e1"/>
        <g clip-path="url(#d)">
          <g>
            <path d="M39.21,63.13a4.19,4.19,0,0,1,3.55.7c2.32,1.55,2.91,4.66,2.29,8.13-.21,1.15-.38,5.06.18,6.13s-.87,1.07-1.36,1.12l-10,.07c-.42,0-1.41.07-1.59-.44s.2-.85.36-1.51a34.4,34.4,0,0,0-.18-6.08c-.27-3,.13-5.57,1.87-7.07A5.16,5.16,0,0,1,39.21,63.13Z" fill="#ad8400" fill-rule="evenodd"/>
            <path d="M36.63,75.37c-.37.91-.21,1.09-1.1,1.47-2.18.91-6.06,2.14-6.38,4.11l-.89,6.91,21.36-.15-1-6.89c-.34-2-4.24-3.15-6.43-4-.9-.36-.74-.54-1.13-1.45Z" fill="#0f809c" fill-rule="evenodd"/>
            <path d="M36.63,75.37c-.31.79-.24,1-.79,1.32a3,3,0,0,0,6,0c-.46-.26-.48-.56-.8-1.3Z" fill="#f1bc7c" fill-rule="evenodd"/>
            <path d="M34.81,70l-.15-.3c-.19-.38-.47-.35-.47.12a10,10,0,0,0,.41,3.09.37.37,0,0,0,.13.17c.17.12.28.17.33.38a4.53,4.53,0,0,0,2.49,3.07,1.9,1.9,0,0,0,2.48,0A5.2,5.2,0,0,0,42.84,72c.27-2.12-3.12-1.61-6.27-3.77-.41-.27-.72-.37-1,.35a11,11,0,0,0-.39,1.36C35.15,70.16,35,70.29,34.81,70Z" fill="#f1d09f" fill-rule="evenodd"/>
          </g>
        </g>
      </g>
    </g>
  </g>
</svg>
