<svg xmlns="http://www.w3.org/2000/svg" viewBox="0 0 150 150">
  <title>_</title>
  <g>
    <g>
      <rect x="28.66" y="78.11" width="11.15" height="1.41" transform="translate(-51.63 82.18) rotate(-68.76)" fill="#bdc9d9"/>
      <rect x="31.52" y="64.49" width="1.41" height="10.91" transform="translate(-41.17 46.64) rotate(-47.65)" fill="#bdc9d9"/>
      <rect x="24.41" y="59.67" width="12.98" height="1.41" transform="translate(-36.86 63.27) rotate(-65.35)" fill="#bdc9d9"/>
      <rect x="36.09" y="70.31" width="11.16" height="1.41" transform="translate(-21.44 18.14) rotate(-19.64)" fill="#bdc9d9"/>
      <rect x="39.87" y="72" width="1.41" height="10.91" transform="translate(-44 55.27) rotate(-47.66)" fill="#bdc9d9"/>
      <path d="M33.57,82.28a2.2,2.2,0,1,1-3.09.39A2.21,2.21,0,0,1,33.57,82.28Z" fill="#bdc9d9" fill-rule="evenodd"/>
      <path d="M29.55,64.53a2.21,2.21,0,1,1-3.09.39A2.2,2.2,0,0,1,29.55,64.53Z" fill="#bdc9d9" fill-rule="evenodd"/>
      <path d="M37.18,71.55a2.2,2.2,0,1,1-3.09.39A2.21,2.21,0,0,1,37.18,71.55Z" fill="#bdc9d9" fill-rule="evenodd"/>
      <path d="M34.16,54.21a2.2,2.2,0,1,1-3.09.39A2.2,2.2,0,0,1,34.16,54.21Z" fill="#bdc9d9" fill-rule="evenodd"/>
      <path d="M47.78,67.29a2.2,2.2,0,1,1-3.09.39A2.21,2.21,0,0,1,47.78,67.29Z" fill="#bdc9d9" fill-rule="evenodd"/>
      <path d="M45.58,79.43a2.2,2.2,0,1,1-3.09.39A2.21,2.21,0,0,1,45.58,79.43Z" fill="#bdc9d9" fill-rule="evenodd"/>
    </g>
    <g>
      <path d="M53.32,35.6a1.22,1.22,0,1,1,.45,1.66A1.22,1.22,0,0,1,53.32,35.6Z" fill="#374556" fill-rule="evenodd"/>
      <path d="M53.51,64.51a1.9,1.9,0,0,1-1.93-1.87V35.14a1.9,1.9,0,0,1,1.93-1.86H93.75a1.93,1.93,0,0,1,2,1.86v27.5a1.92,1.92,0,0,1-2,1.86H53.51Zm16.6-31.72H52.49a1.89,1.89,0,0,0-1.93,1.87V65a1.9,1.9,0,0,0,1.92,1.87H94.8a1.93,1.93,0,0,0,2-1.87V34.66a1.92,1.92,0,0,0-2-1.87Z" fill="#003b71" fill-rule="evenodd"/>
      <path d="M51.58,35.22V63.6a1.92,1.92,0,0,0,1.93,1.92H93.82a1.92,1.92,0,0,0,1.94-1.92V35.22a1.93,1.93,0,0,0-1.94-1.93H53.51A1.92,1.92,0,0,0,51.58,35.22Z" fill="#f6f6f6" fill-rule="evenodd"/>
      <path d="M56.58,35.57a1.13,1.13,0,1,1-1.12-1.12A1.13,1.13,0,0,1,56.58,35.57Z" fill="#ced9d5" fill-rule="evenodd"/>
      <path d="M62.76,35.57a1.13,1.13,0,1,1-2.25,0,1.13,1.13,0,0,1,2.25,0Z" fill="#ced9d5" fill-rule="evenodd"/>
      <path d="M68.94,35.57a1.13,1.13,0,1,1-1.13-1.12A1.14,1.14,0,0,1,68.94,35.57Z" fill="#ced9d5" fill-rule="evenodd"/>
      <path d="M75.12,35.57A1.13,1.13,0,1,1,74,34.45,1.14,1.14,0,0,1,75.12,35.57Z" fill="#ced9d5" fill-rule="evenodd"/>
      <path d="M81.3,35.57a1.13,1.13,0,0,1-2.26,0,1.13,1.13,0,0,1,2.26,0Z" fill="#ced9d5" fill-rule="evenodd"/>
      <circle cx="86.35" cy="35.57" r="1.13" fill="#ced9d5"/>
      <path d="M93.65,35.57a1.13,1.13,0,1,1-1.13-1.12A1.13,1.13,0,0,1,93.65,35.57Z" fill="#ced9d5" fill-rule="evenodd"/>
      <path d="M55.92,35.16a.47.47,0,0,1-.46.46.46.46,0,0,1-.46-.46V30.5a.45.45,0,0,1,.46-.45.46.46,0,0,1,.46.45Z" fill="#a2a2a2" fill-rule="evenodd"/>
      <path d="M62.09,35.18a.45.45,0,0,1-.46.45.46.46,0,0,1-.46-.45V30.52a.47.47,0,0,1,.46-.46.46.46,0,0,1,.46.46Z" fill="#a2a2a2" fill-rule="evenodd"/>
      <path d="M68.27,35.19a.46.46,0,1,1-.92,0V30.54a.46.46,0,0,1,.92,0Z" fill="#a2a2a2" fill-rule="evenodd"/>
      <path d="M74.45,35.22a.46.46,0,0,1-.92,0V30.57a.46.46,0,1,1,.92,0Z" fill="#a2a2a2" fill-rule="evenodd"/>
      <path d="M80.62,35.24a.46.46,0,0,1-.91,0V30.58a.46.46,0,1,1,.91,0Z" fill="#a2a2a2" fill-rule="evenodd"/>
      <path d="M86.8,35.26a.46.46,0,0,1-.91,0V30.61a.46.46,0,1,1,.91,0Z" fill="#a2a2a2" fill-rule="evenodd"/>
      <path d="M93,35.28a.46.46,0,0,1-.92,0V30.62a.46.46,0,0,1,.92,0Z" fill="#a2a2a2" fill-rule="evenodd"/>
      <rect x="61.55" y="40.19" width="4.53" height="4.52" fill="#bdc9d9"/>
      <rect x="68.12" y="40.19" width="4.53" height="4.52" fill="#bdc9d9"/>
      <rect x="74.69" y="40.19" width="4.54" height="4.52" fill="#bdc9d9"/>
      <rect x="81.26" y="40.19" width="4.53" height="4.52" fill="#bdc9d9"/>
      <rect x="87.83" y="40.19" width="4.53" height="4.52" fill="#bdc9d9"/>
      <rect x="54.99" y="40.19" width="4.53" height="4.52" fill="#bdc9d9"/>
      <rect x="61.55" y="46.53" width="4.53" height="4.52" fill="#bdc9d9"/>
      <rect x="68.12" y="46.53" width="4.53" height="4.52" fill="#bdc9d9"/>
      <rect x="74.69" y="46.53" width="4.54" height="4.52" fill="#bdc9d9"/>
      <rect x="81.26" y="46.53" width="4.53" height="4.52" fill="#bdc9d9"/>
      <rect x="87.83" y="46.53" width="4.53" height="4.52" fill="#bdc9d9"/>
      <rect x="54.99" y="46.53" width="4.53" height="4.52" fill="#bdc9d9"/>
      <rect x="61.55" y="52.87" width="4.53" height="4.52" fill="#bdc9d9"/>
      <rect x="68.12" y="52.87" width="4.53" height="4.52" fill="#bdc9d9"/>
      <rect x="74.69" y="52.87" width="4.54" height="4.52" fill="#bdc9d9"/>
      <rect x="81.26" y="52.87" width="4.53" height="4.52" fill="#bdc9d9"/>
      <rect x="87.83" y="52.87" width="4.53" height="4.52" fill="#bdc9d9"/>
      <rect x="54.99" y="52.87" width="4.53" height="4.52" fill="#bdc9d9"/>
      <rect x="61.55" y="59.21" width="4.53" height="4.52" fill="#bdc9d9"/>
      <rect x="68.12" y="59.21" width="4.53" height="4.52" fill="#bdc9d9"/>
      <rect x="74.69" y="59.21" width="4.54" height="4.52" fill="#bdc9d9"/>
      <rect x="81.26" y="59.21" width="4.53" height="4.52" fill="#bdc9d9"/>
      <rect x="87.83" y="59.21" width="4.53" height="4.52" fill="#bdc9d9"/>
      <rect x="54.99" y="59.21" width="4.53" height="4.52" fill="#bdc9d9"/>
    </g>
    <path d="M136.38,63.41a62.81,62.81,0,0,1,1,7.66l7.26,1.18,0,6.16-7.18,1.1a63.62,63.62,0,0,1-.81,7.91l6.5,2.84-1.61,6-6.89-.76a65,65,0,0,1-3,7.51L137,107.2l-3.07,5.44-6.33-2.51a74.42,74.42,0,0,1-5,6.42l4,5.51-4.36,4.48-5.46-4.11a62.49,62.49,0,0,1-6.39,5.09l2.36,6.2-5.32,3.12-4.08-5.09a60.54,60.54,0,0,1-7.59,3.2l.67,6.42-6,1.63-2.59-6a68.67,68.67,0,0,1-8.27,1l-1,6.47H72.39l-1-6.47a64.56,64.56,0,0,1-8.22-1L60.57,143l-6-1.58.73-6.3a58.63,58.63,0,0,1-7.77-3.27l-3.94,5-5.4-3.09,2.36-6.08a74.14,74.14,0,0,1-6.47-5.07l-5.35,3.88-4.39-4.39,4-5.37a72.85,72.85,0,0,1-5-6.45l-6.19,2.37L14,107.2l5.23-4.1a51.62,51.62,0,0,1-3.12-7.58l-6.67.71-1.66-6,6.39-2.73a75.07,75.07,0,0,1-.93-8l-7-1.07,0-6.22,7.09-1.07a66.56,66.56,0,0,1,1-7.82L7.88,60.37l1.58-6,7.15.79a58.5,58.5,0,0,1,3.09-7.27L14,43.38,17.17,38l6.92,2.7a59,59,0,0,1,4.79-6l-4.51-6.14,4.39-4.39L35,28.74a67.5,67.5,0,0,1,6-4.67L38.22,17l5.32-3.13,4.81,6a50.67,50.67,0,0,1,7.15-2.93l-.9-7.6,6-1.63,3.07,7.12a66.09,66.09,0,0,1,7.51-.87l1.24-7.83h6.19L79.82,14a60.89,60.89,0,0,1,7.48.9l3.15-7.2,6,1.63L95.58,17a55.44,55.44,0,0,1,7,2.87l4.81-6L112.8,17,110,24.18c2,1.47,4,3,6,4.67l6.28-4.64,4.36,4.36L122,34.88a71,71,0,0,1,4.73,6l7.12-2.78L137,43.43l-5.8,4.67a58.07,58.07,0,0,1,3.07,7.24l7.31-.85,1.61,5.94Z" fill="none" stroke="#d9e7d9" stroke-miterlimit="10" fill-rule="evenodd"/>
    <g>
      <g>
        <g>
          <path d="M115.48,80.3a3.19,3.19,0,0,1-2.41,1.48c.94.8,2.59.7,3.82.4-2,6.07-7.77,2.83-10.54-.46a6.61,6.61,0,0,1-1-1.83c-.18-.4-.32-.93-.64-1.71H95.31c-.5,1.23-.55,1.83-1,2.3C92.16,84,85.12,89,82.85,82.18c1.44.35,3.47.43,4.24-.9-1.14.16-2.19-.44-2.75-2.43,1.1.31,2.75.33,2.81-1.49A18.16,18.16,0,0,0,87,74.8a57.74,57.74,0,0,1-.28-9.88c.48-6.46,4.14-11.05,9-11.38,6.84-3.41,16.9.71,17.69,11.38a70.81,70.81,0,0,1-.44,9.75C112.77,76.29,112.75,81.07,115.48,80.3Z" fill="#2d2a26" fill-rule="evenodd"/>
          <path d="M95.31,78.18c-.5,1.23-.55,1.83-1,2.3-1.75,2.9-6.77,6.77-9.79,4.35-2.57,1.35-4.64,3-5,5l-2,11.62h44.83l-2-11.62c-.35-2-2.49-3.67-5.14-5-2.58,2.23-6.75-.38-9-3a6.61,6.61,0,0,1-1-1.83c-.18-.4-.32-.93-.64-1.71Z" fill="#008996" fill-rule="evenodd"/>
          <path d="M95.31,78.18a11,11,0,0,1-1.45,3,17.28,17.28,0,0,0,2.23,1.57c2.91,3.18,4.6,3.24,7.51,0a18.39,18.39,0,0,0,2.3-1.62,8,8,0,0,1-.59-1.21c-.18-.41-.32-.93-.64-1.71Z" fill="#f1bc7c" fill-rule="evenodd"/>
          <path d="M91.57,66.94l-.32-.63c-.39-.81-1-.76-1,.24a21.24,21.24,0,0,0,.81,6.5.85.85,0,0,0,.27.35c.36.26.59.35.69.81.63,3.1,2.54,4.92,5.19,6.47,2.21,1.3,3,1.29,5.19,0,3.92-2.29,5.6-5.06,6-9.53.32-2.45-2-3.31-3.82-3.88.3.7.5,1.11.5,1.11a12.15,12.15,0,0,1-5.16-2.57,1.83,1.83,0,0,0-.58-.36c.65,1,1.14,1.6,1.14,1.6a14.39,14.39,0,0,1-6.08-2.34c-1.26-1-1.8,1.22-2,2C92.28,67.24,91.89,67.5,91.57,66.94Z" fill="#f1d09f" fill-rule="evenodd"/>
          <path d="M100,90.9l-4.77-5.26,2.11-1.24-7.81,1,.57-.88a12.62,12.62,0,0,0,4.21-4l.3-.55L100,85l5.35-5a6.72,6.72,0,0,0,1,1.75,12.69,12.69,0,0,0,3.69,3l.43.67-7.82-1,2.12,1.24Z" fill="#e6e7e8" fill-rule="evenodd"/>
        </g>
        <g>
          <path d="M111.8,92.7a3.28,3.28,0,1,1-3.28-3.27A3.27,3.27,0,0,1,111.8,92.7Z" fill="#c0413a" fill-rule="evenodd"/>
          <polygon points="110.34 92.02 109.21 92.02 109.21 90.89 107.83 90.89 107.83 92.02 106.71 92.02 106.71 93.39 107.83 93.39 107.83 94.52 109.21 94.52 109.21 93.39 110.34 93.39 110.34 92.02" fill="#fff" fill-rule="evenodd"/>
        </g>
      </g>
      <g>
        <path d="M59.51,73.4c-4.65-4.25-4-8.68-2.78-8.4s2,2.15,2,2.15S60.18,70.7,59.51,73.4Z" fill="#f4c68a" fill-rule="evenodd"/>
        <g>
          <polygon points="69.79 96.9 75.87 96.9 75.87 77 69.88 77 63.85 77 63.85 96.9 69.79 96.9" fill="#ca995c" fill-rule="evenodd"/>
          <path d="M69.79,91.22l-5.94-6S50.53,90,46.31,92.27c-2,1.06-3.24,2.08-3.88,5.53s-1.55,10.54-2.09,15.57H99.39c-.54-5-1.45-12.12-2.09-15.57s-1.88-4.47-3.88-5.53c-4.22-2.24-17.55-7.1-17.55-7.1Z" fill="#d7dee8" fill-rule="evenodd"/>
          <path d="M80.25,73.4c4.66-4.25,4-8.68,2.79-8.4s-2,2.15-2,2.15S79.59,70.7,80.25,73.4Z" fill="#f4c68a" fill-rule="evenodd"/>
          <path d="M74.58,55.21a30.49,30.49,0,0,1-3.82-1.59H69a30.49,30.49,0,0,1-3.82,1.59C61,56.77,56.87,58.9,56.87,58.9c.6,3.62,2,18.24,4.4,21.52,7.78,6,9.72,5.8,17.19,0C81.93,74,82.4,61.75,82.84,59v-.1h0S78.7,56.77,74.58,55.21Z" fill="#f4c68a" fill-rule="evenodd"/>
          <path d="M58.41,67.3a37.68,37.68,0,0,0,1.41-8.85s1.53,1.29,5.7,2.38,10.92.06,13.55-2.89c0,0-1.38,5.56,2.23,9.32a20.71,20.71,0,0,0,2.56-7.59c.83-5-2-5.68-2-5.68.83-4.24-6.31-7.14-14.22-6.27S58,53.65,58,53.65c-1.21.13-2.84,1.42-3,5.1A12.17,12.17,0,0,0,58.41,67.3Z" fill="#5b3000" fill-rule="evenodd"/>
          <path d="M69.79,106.79l9.68-20.28c-2.12-.8-3.6-1.34-3.6-1.34l-6.08,5.44-5.94-5.44-4.17,1.55Z" fill="#d1d1d1" fill-rule="evenodd"/>
          <polygon points="70.75 90.39 72.5 91.83 70.85 93.91 72.34 101.45 69.79 106.79 67.35 101.95 68.94 93.91 67.3 91.83 69.04 90.39 70.75 90.39" fill="#42863f" fill-rule="evenodd"/>
          <path d="M75.87,85.17l-6.08,5.44,5.79,3.94,3.89-8c-2.12-.8-3.6-1.34-3.6-1.34ZM59.68,86.72l4.17-1.55,5.94,5.44-6.2,4-3.91-7.85Z" fill="#fff" fill-rule="evenodd"/>
          <g>
            <path d="M88.06,104.46a4.79,4.79,0,1,1-4.79-4.79A4.8,4.8,0,0,1,88.06,104.46Z" fill="#c0413a" fill-rule="evenodd"/>
            <polygon points="85.93 103.45 84.28 103.45 84.28 101.8 82.26 101.8 82.26 103.45 80.61 103.45 80.61 105.47 82.26 105.47 82.26 107.12 84.28 107.12 84.28 105.47 85.93 105.47 85.93 103.45" fill="#fff" fill-rule="evenodd"/>
          </g>
        </g>
      </g>
    </g>
  </g>
</svg>
