<svg xmlns="http://www.w3.org/2000/svg" viewBox="0 0 150 150">
  <title>_</title>
  <g>
    <path d="M136.45,63.23a62.65,62.65,0,0,1,1,7.65l7.26,1.18,0,6.17-7.17,1.09a63.41,63.41,0,0,1-.82,7.91l6.5,2.85-1.6,6-6.9-.76a62.57,62.57,0,0,1-3,7.51L137,107l-3.07,5.43-6.33-2.51a72.91,72.91,0,0,1-5,6.42l4.05,5.52-4.36,4.47-5.46-4.11a60.49,60.49,0,0,1-6.39,5.1l2.37,6.19-5.32,3.12-4.08-5.09a58.68,58.68,0,0,1-7.6,3.21l.67,6.41-6,1.64-2.59-6a66.87,66.87,0,0,1-8.28,1l-1,6.48H72.45l-1-6.48a66,66,0,0,1-8.21-1l-2.65,5.85-6-1.58.74-6.3a57.53,57.53,0,0,1-7.77-3.27l-3.94,5-5.41-3.09,2.37-6.08a72.67,72.67,0,0,1-6.47-5.07l-5.35,3.89-4.39-4.39,4-5.38a74.21,74.21,0,0,1-5-6.44l-6.19,2.36-3.1-5.4,5.24-4.11a52.66,52.66,0,0,1-3.13-7.57L9.52,96l-1.66-6,6.39-2.73a75.37,75.37,0,0,1-.93-8l-7-1.07,0-6.22,7.09-1.07a66.73,66.73,0,0,1,1-7.83L8,60.19l1.57-6,7.15.79a57.8,57.8,0,0,1,3.1-7.26l-5.69-4.56,3.15-5.35,6.93,2.7a58.91,58.91,0,0,1,4.78-6l-4.5-6.13L28.83,24,35,28.55a73.08,73.08,0,0,1,6-4.67l-2.76-7.09,5.32-3.12,4.82,6a51.77,51.77,0,0,1,7.14-2.93l-.9-7.59,6-1.64,3.06,7.12a66.27,66.27,0,0,1,7.52-.87l1.24-7.82H78.7l1.18,7.88a61.06,61.06,0,0,1,7.49.9L90.52,7.5l6,1.64-.84,7.71a52.76,52.76,0,0,1,7,2.87l4.81-6,5.37,3.07L110.05,24c2,1.47,4,3,6,4.68L122.29,24l4.36,4.37-4.55,6.3a69.4,69.4,0,0,1,4.72,6l7.12-2.79L137,43.25l-5.8,4.67a57.07,57.07,0,0,1,3.07,7.23l7.32-.84,1.6,5.93Z" fill="none" stroke="#deccd8" stroke-miterlimit="10" fill-rule="evenodd"/>
    <g>
      <g>
        <path d="M92.71,37a5.78,5.78,0,0,1,4.88,1c3.18,2.13,4,6.4,3.14,11.16-.29,1.58-.52,6.95.25,8.41S99.79,59,99.11,59.08l-13.68.09c-.58,0-1.94.1-2.18-.6-.18-.51.26-1.17.49-2.07.36-1.44-.12-6.87-.25-8.35-.37-4.1.17-7.64,2.57-9.7A7.07,7.07,0,0,1,92.71,37Z" fill="#ad8400" fill-rule="evenodd"/>
        <path d="M89.18,53.8c-.51,1.26-.3,1.51-1.52,2-3,1.25-8.32,2.94-8.75,5.64l-1.23,7.61,29.33-.2-1.33-7.59c-.47-2.7-5.83-4.32-8.83-5.53-1.23-.49-1-.75-1.55-2Z" fill="#009cc4" fill-rule="evenodd"/>
        <path d="M89.18,53.8c-.44,1.09-.34,1.42-1.08,1.82a4.16,4.16,0,0,0,8.3-.06c-.63-.37-.67-.78-1.1-1.8Z" fill="#f1bc7c" fill-rule="evenodd"/>
        <path d="M86.68,46.47l-.21-.41c-.26-.53-.64-.49-.65.16a13.93,13.93,0,0,0,.57,4.24.46.46,0,0,0,.17.24c.24.16.39.22.46.52a6.2,6.2,0,0,0,3.42,4.21c1.45.84,2,.83,3.4,0a7.13,7.13,0,0,0,3.86-6.26c.37-2.91-4.28-2.2-8.61-5.17-.56-.38-1-.52-1.33.48a16.07,16.07,0,0,0-.54,1.87C87.14,46.66,86.89,46.83,86.68,46.47Z" fill="#f1d09f" fill-rule="evenodd"/>
      </g>
      <g>
        <path d="M49.41,56.11s-1.26.48-1.22.48,1.41,4.79,1.47,4.79l4.75.79,4.83-1.37,1-4.5A6.17,6.17,0,0,1,59.11,56c-.6-.37-.64-.86-1.14-2.07H50.74c-.52,1.28-.41,1.68-1.29,2.14" fill="#ca995c" fill-rule="evenodd"/>
        <path d="M48.94,56.23s.6,5.22,5.57,5.22,5.56-5.22,5.56-5.22l8.28,3.12a3.52,3.52,0,0,1,2.27,2.84l1.3,6.9H37.09l1.3-6.9a3.52,3.52,0,0,1,2.27-2.84Z" fill="#5e985c" fill-rule="evenodd"/>
        <path d="M54.22,36a8.6,8.6,0,0,0-5.89,2c-1.53,1.47-1.54,3.39-1.47,5.28,0,.59.08,1.22.18,2l-.69.49a11.37,11.37,0,0,0,.76,4.06l.68.36.15.5a9.58,9.58,0,0,0,4.75,5.5,9.75,9.75,0,0,0,3.05,0,9.58,9.58,0,0,0,4.75-5.5l.15-.5.68-.36a11.37,11.37,0,0,0,.76-4.06l-.69-.49c.1-.76.15-1.39.18-2,.07-1.89.06-3.81-1.47-5.28A8.59,8.59,0,0,0,54.22,36Z" fill="#f4c68a" fill-rule="evenodd"/>
        <path d="M46.75,45.45a17,17,0,0,1-.4-3.27c0-2.2-.21-3.82.92-5,.78-.85,1.26-2.12,1.6-2.37.08-.06.2.31.41.52.45.45.76.25.75-.22a3.24,3.24,0,0,0-.14-.8,1.11,1.11,0,0,1,0-.53c0-.1.13-.07.23,0A4.39,4.39,0,0,0,52.21,35a1.2,1.2,0,0,1,.35-1.34c1.13,2.05,1.85,2,2.08,1.7a4.76,4.76,0,0,0,.34-.57c0-.06.06-.06.18,0,1.11,1.49,2.44,1.28,3.72,1.8a6.1,6.1,0,0,1,2.91,3.62c.33.89.1,3.74-.06,5.25l-1,.75-.51,2.3c-.71-.76-.12-4.32-.24-4.89-.07-.33-1-1.46-3.27-1.36-1.48.07-1.76.46-3.68.29s-3.55-.67-4.35.54c-.65,1,.58,4.56-.46,5.26l-.39-2.14Z" fill="#7c4b11" fill-rule="evenodd"/>
        <path d="M54.22,35.52a.4.4,0,0,0,.42-.16,4.76,4.76,0,0,0,.34-.57c0-.06.06-.06.18,0,1.11,1.49,2.44,1.28,3.72,1.8a6.13,6.13,0,0,1,2.91,3.62c.33.89.1,3.74-.06,5.25l-1,.75-.51,2.3c-.71-.76-.12-4.32-.24-4.89-.07-.33-1-1.46-3.27-1.36-1.08.05-1.53.28-2.44.33Z" fill="#5b3000" fill-rule="evenodd"/>
      </g>
      <g>
        <g>
          <path d="M103,82.47l1.76-3.12,9.57,0,1.78,3.1,9.75,3.64a4.16,4.16,0,0,1,2.68,3.33l1.56,9.08-41,.14,1.5-9.09a4.15,4.15,0,0,1,2.66-3.35Z" fill="#cdcdcd" fill-rule="evenodd"/>
          <path d="M107.53,98.54c.11-1.22.5-11,.65-11.65,0-.15.09-.32,0-.44s-.81-.85-.83-1.07c-.06-.59.06-2.09.6-2.06a8.42,8.42,0,0,0,3.28,0c.53,0,.67,1.46.61,2,0,.23-.67.91-.82,1.08s0,.29,0,.44c.15.7.61,10.47.73,11.65Z" fill="#47a648" fill-rule="evenodd"/>
          <path d="M109.49,59.7a9.71,9.71,0,0,0-6.62,2.3c-1.72,1.66-1.71,3.82-1.63,6,0,.66.09,1.37.21,2.22l-.78.56a12.84,12.84,0,0,0,.88,4.57l.76.4.17.56a10.75,10.75,0,0,0,5.37,6.17,10.67,10.67,0,0,0,3.43,0,10.76,10.76,0,0,0,5.33-6.2l.16-.57.76-.41a12.81,12.81,0,0,0,.85-4.57l-.78-.55a22.37,22.37,0,0,0,.19-2.23c.07-2.13.06-4.29-1.67-5.94A9.74,9.74,0,0,0,109.49,59.7Z" fill="#7e622d" fill-rule="evenodd"/>
        </g>
        <path d="M117.85,70.3a17.06,17.06,0,0,0,0-4.62,6.71,6.71,0,0,0-3.71-5.45,11.08,11.08,0,0,0-6.09-.48,15.74,15.74,0,0,0-1.7,0,6.54,6.54,0,0,0-4.15,2.64,6.85,6.85,0,0,0-1,3.52,19.13,19.13,0,0,0,.18,4.31l1.11.72.37,2.21.52.43c-.15-2.2,0-6.94,2-5.59a6.09,6.09,0,0,0,2.64.86,11.28,11.28,0,0,0,3.66-.26c2-.6,3.35-2,4,.23a25.94,25.94,0,0,1,.44,4.37l.51-.35.41-2Z" fill="#222" fill-rule="evenodd"/>
      </g>
      <g>
        <path d="M38.74,60.23c5.13.1,9.66,3,10.15,8.63.3,3.53-.18,10.3-2.29,13.7H30.33c-2-3.16-2.56-10.25-2.27-13.7.49-5.66,5-8.53,10.16-8.63Z" fill="#3f2500" fill-rule="evenodd"/>
        <path d="M34.82,80.61c-.62,1.5-.36,1.8-1.83,2.41-3.58,1.47-10,3.44-10.51,6.67L21,98.77H56l-1.52-9.08C53.93,86.46,47.55,84.49,44,83c-1.47-.61-1.21-.91-1.83-2.41Z" fill="#00467f" fill-rule="evenodd"/>
        <path d="M34.82,80.61c-.53,1.3-.42,1.7-1.31,2.17l5,4.61,5-4.62c-.76-.44-.8-.93-1.3-2.16Z" fill="#b47f00" fill-rule="evenodd"/>
        <path d="M31.9,71.83c-.08-.13-.16-.31-.25-.5-.31-.63-.76-.59-.77.2a16.15,16.15,0,0,0,.64,5.07.58.58,0,0,0,.2.28c.29.2.47.27.54.63.5,2.42,2,3.85,4.06,5.06,1.72,1,2.34,1,4.06,0A8.5,8.5,0,0,0,45,75.11c.46-3.47-5.1-2.67-10.24-6.25-.67-.46-1.18-.62-1.6.56a19.72,19.72,0,0,0-.65,2.23C32.45,72.06,32.15,72.26,31.9,71.83Z" fill="#cb9d4b" fill-rule="evenodd"/>
        <polygon points="38.48 92.04 34.75 87.93 36.4 86.96 30.29 87.75 33.52 82.77 38.48 87.39 43.44 82.77 46.67 87.75 40.56 86.96 42.21 87.93 38.48 92.04" fill="#e6e7e8" fill-rule="evenodd"/>
      </g>
      <g>
        <path d="M89,88.18a3.08,3.08,0,0,1-2.33,1.44c.9.78,2.51.68,3.69.39-1.94,5.88-7.52,2.74-10.2-.44a6.81,6.81,0,0,1-1-1.78c-.17-.39-.3-.9-.62-1.65h-9c-.49,1.18-.54,1.76-1,2.22C66.46,91.8,59.64,96.64,57.45,90c1.39.34,3.36.42,4.1-.87-1.1.15-2.11-.43-2.66-2.36,1.06.3,2.67.32,2.72-1.44a15.85,15.85,0,0,0-.2-2.48,55.85,55.85,0,0,1-.26-9.56c.46-6.26,4-10.7,8.66-11,6.63-3.3,16.36.69,17.13,11a68,68,0,0,1-.43,9.44C86.42,84.3,86.4,88.93,89,88.18Z" fill="#2d2a26" fill-rule="evenodd"/>
        <path d="M69.52,86.14c-.49,1.18-.54,1.76-1,2.22-1.69,2.81-6.56,6.56-9.47,4.21-2.49,1.31-4.5,2.88-4.83,4.81l-1.89,11.25H95.75L93.86,97.38c-.34-2-2.42-3.56-5-4.89-2.51,2.16-6.54-.37-8.69-2.92a6.81,6.81,0,0,1-1-1.78c-.17-.39-.3-.9-.62-1.65Z" fill="#c0413a" fill-rule="evenodd"/>
        <path d="M69.52,86.14A11.05,11.05,0,0,1,68.11,89a18,18,0,0,0,2.16,1.52c2.82,3.08,4.45,3.14,7.27,0A18,18,0,0,0,79.77,89a6.7,6.7,0,0,1-.58-1.17c-.17-.39-.3-.9-.62-1.65Z" fill="#f1bc7c" fill-rule="evenodd"/>
        <path d="M65.89,75.25c-.09-.16-.2-.38-.31-.61-.38-.78-.94-.73-1,.24a20.38,20.38,0,0,0,.79,6.28.71.71,0,0,0,.26.35c.35.25.57.34.66.78.62,3,2.46,4.77,5,6.27,2.14,1.25,2.89,1.24,5,0a10.54,10.54,0,0,0,5.77-9.23c.32-2.37-1.89-3.2-3.7-3.76.29.68.49,1.08.49,1.08a11.81,11.81,0,0,1-5-2.49,1.77,1.77,0,0,0-.56-.35c.64,1,1.11,1.55,1.11,1.55a14,14,0,0,1-5.89-2.26c-1.22-.92-1.74,1.18-1.92,1.94C66.58,75.54,66.2,75.8,65.89,75.25Z" fill="#f1d09f" fill-rule="evenodd"/>
        <path d="M74,98.45l-4.62-5.09,2-1.2-7.56,1,.55-.85a12.27,12.27,0,0,0,4.07-3.92c.1-.16.19-.35.29-.53l5.23,4.86,5.17-4.82a6.79,6.79,0,0,0,1,1.7,12.62,12.62,0,0,0,3.57,2.92l.41.64-7.56-1,2,1.2Z" fill="#e6e7e8" fill-rule="evenodd"/>
      </g>
    </g>
  </g>
</svg>
