<svg xmlns="http://www.w3.org/2000/svg" viewBox="0 0 125 125">
  <title>_</title>
  <g style="isolation: isolate">
    <g>
      <g>
        <g>
          <rect x="31.35" y="39.8" width="42.56" height="54.78" rx="1.38" ry="1.38" fill="#a2a2a2"/>
          <rect x="34.41" y="42.76" width="36.91" height="48.9" fill="#fff"/>
        </g>
        <rect x="38.67" y="65.12" width="18.27" height="0.28" fill="#a2a2a2"/>
        <rect x="38.67" y="68.06" width="18.27" height="0.28" fill="#a2a2a2"/>
        <rect x="38.67" y="70.91" width="18.27" height="0.28" fill="#a2a2a2"/>
        <rect x="38.67" y="73.85" width="18.27" height="0.28" fill="#a2a2a2"/>
        <rect x="38.67" y="76.73" width="18.27" height="0.28" fill="#a2a2a2"/>
        <path d="M61.79,42.09H59.87A2,2,0,0,0,58,40.6h-3a3.42,3.42,0,1,0-6.24-1.93,3.37,3.37,0,0,0,.6,1.93H46.52a2,2,0,0,0-1.92,1.49H42.43a2.11,2.11,0,0,0-2.11,2.1V45a2,2,0,0,0,0,.43H63.84a2,2,0,0,0,0-.43v-.79A2.1,2.1,0,0,0,61.79,42.09Zm-9.68-1.32a2,2,0,1,1,2-2A2,2,0,0,1,52.11,40.77Z" fill="#145585"/>
        <path d="M40.37,45.41H63.84a2,2,0,0,0,0-.43v-.62H40.32V45A2,2,0,0,0,40.37,45.41Z" fill="#003b71"/>
        <path d="M58.58,54a6.48,6.48,0,1,1-6.47-6.47A6.48,6.48,0,0,1,58.58,54Z" fill="#c0413a"/>
        <path d="M56.2,52.82H53.61a.34.34,0,0,1-.34-.34V49.89a.35.35,0,0,0-.35-.34H51.29a.34.34,0,0,0-.34.34v2.59a.35.35,0,0,1-.35.34H48a.35.35,0,0,0-.34.35V54.8a.34.34,0,0,0,.34.34H50.6a.35.35,0,0,1,.35.35v2.59a.34.34,0,0,0,.34.34h1.63a.35.35,0,0,0,.35-.34V55.49a.35.35,0,0,1,.34-.35H56.2a.34.34,0,0,0,.34-.34V53.17A.35.35,0,0,0,56.2,52.82Z" fill="#fff"/>
        <path d="M52.93,94.56H95.55a.39.39,0,0,0,.4-.4v-7H93.2v4.21H55.28V87.14H52.53v7A.4.4,0,0,0,52.93,94.56Z" fill="#464646"/>
        <path d="M81.5,89.05A3.5,3.5,0,0,0,85,92.54h0a3.5,3.5,0,0,0,3.49-3.49V71.34h-7Z" fill="#c0413a"/>
        <path d="M70.31,88.29c0,2.34,1.57,4.25,3.49,4.25h0c1.92,0,3.48-1.91,3.48-4.25V66.7h-7Z" fill="#008996"/>
        <path d="M59.18,87.61c0,2.71,1.57,4.93,3.48,4.93h0c1.92,0,3.49-2.22,3.49-4.93V62.55h-7Z" fill="#42863f"/>
        <path d="M65.63,58.11H58.94v31a3.72,3.72,0,0,0,7.44,0v-31Zm0,30.74a3,3,0,0,1-3,3h0a3,3,0,0,1-3-3V73.63h6Z" fill="#e3e3e3"/>
        <path d="M61,23.77a3,3,0,0,1,4.29-4.29l7.82,7.82-4.29,4.29Z" fill="#a2a2a2"/>
        <path d="M61.07,23.88a3,3,0,1,1,4.28-4.28l7.82,7.82L68.89,31.7Z" fill="#003b71"/>
        <path d="M85.45,42.44A1.09,1.09,0,1,1,83.91,44l-2.69-2.69,1.54-1.54Z" fill="#e3e3e3"/>
        <path d="M78.69,38.76a1.09,1.09,0,0,1,1.54-1.54l2.7,2.69-1.55,1.55Z" fill="#ccc" style="mix-blend-mode: multiply"/>
        <path d="M73.48,28.26l9.45,9.44a1.33,1.33,0,0,1,0,1.88l-.17.17-1.54,1.54-.17.17a1.33,1.33,0,0,1-1.88,0L69.73,32Z" fill="#e3e3e3"/>
        <path d="M82.6,39.44l-1.69,1.69a1.19,1.19,0,0,1-1.69,0l-8.51-8.5,3.39-3.39,8.5,8.51A1.19,1.19,0,0,1,82.6,39.44Z" fill="#c0413a"/>
        <polygon points="68.77 31.59 73.06 27.3 73.94 26.42 74.63 27.11 73.75 27.99 69.46 32.28 68.58 33.16 67.89 32.47 68.77 31.59" fill="#3b6793"/>
        <path d="M82.36,51.33l0-.07q1-2.32,2.22-4.62c.08-.14.15-.28.22-.43l.22.43q1.17,2.3,2.22,4.62l0,.07a2.46,2.46,0,0,1,.2,1.05,2.68,2.68,0,0,1-5.36,0A2.47,2.47,0,0,1,82.36,51.33Z" fill="#c0413a"/>
        <path d="M66,59.11H59.29a1,1,0,0,1-1-1h0a1,1,0,0,1,1-1H66a1,1,0,0,1,1,1h0A1,1,0,0,1,66,59.11Z" fill="#f2f2f2"/>
        <path d="M66,58.82H59.38a.91.91,0,0,1-.91-.91h0a.91.91,0,0,1,.91-.91H66a.91.91,0,0,1,.91.91h0A.91.91,0,0,1,66,58.82Z" fill="#e3e3e3"/>
        <rect x="62.66" y="61.54" width="2.96" height="0.22" fill="#a2a2a2"/>
        <rect x="62.66" y="63.62" width="2.96" height="0.22" fill="#a2a2a2"/>
        <rect x="64.07" y="62.58" width="1.55" height="0.22" fill="#a2a2a2"/>
        <rect x="62.66" y="65.69" width="2.96" height="0.22" fill="#a2a2a2"/>
        <rect x="64.07" y="64.65" width="1.55" height="0.22" fill="#a2a2a2"/>
        <rect x="62.66" y="67.66" width="2.96" height="0.22" fill="#a2a2a2"/>
        <rect x="64.07" y="66.63" width="1.55" height="0.22" fill="#a2a2a2"/>
        <rect x="62.66" y="69.58" width="2.96" height="0.22" fill="#a2a2a2"/>
        <rect x="64.07" y="68.55" width="1.55" height="0.22" fill="#a2a2a2"/>
        <rect x="62.66" y="71.65" width="2.96" height="0.22" fill="#a2a2a2"/>
        <rect x="64.07" y="70.62" width="1.55" height="0.22" fill="#a2a2a2"/>
        <rect x="62.66" y="73.63" width="2.96" height="0.22" fill="#a2a2a2"/>
        <rect x="64.07" y="72.59" width="1.55" height="0.22" fill="#a2a2a2"/>
        <rect x="62.66" y="75.56" width="2.96" height="0.22" fill="#a2a2a2"/>
        <rect x="64.07" y="74.53" width="1.55" height="0.22" fill="#a2a2a2"/>
        <rect x="62.66" y="77.63" width="2.96" height="0.22" fill="#a2a2a2"/>
        <rect x="64.07" y="76.6" width="1.55" height="0.22" fill="#a2a2a2"/>
        <rect x="62.66" y="79.6" width="2.96" height="0.22" fill="#a2a2a2"/>
        <rect x="64.07" y="78.57" width="1.55" height="0.22" fill="#a2a2a2"/>
        <rect x="62.66" y="81.61" width="2.96" height="0.22" fill="#a2a2a2"/>
        <rect x="64.07" y="80.58" width="1.55" height="0.22" fill="#a2a2a2"/>
        <rect x="62.66" y="83.68" width="2.96" height="0.22" fill="#a2a2a2"/>
        <rect x="64.07" y="82.65" width="1.55" height="0.22" fill="#a2a2a2"/>
        <rect x="62.66" y="85.66" width="2.96" height="0.22" fill="#a2a2a2"/>
        <rect x="64.07" y="84.62" width="1.55" height="0.22" fill="#a2a2a2"/>
        <path d="M76.76,58.11H70.08v31a3.72,3.72,0,0,0,7.44,0v-31Zm0,30.74a3,3,0,0,1-3,3h0a3,3,0,0,1-3-3V67.14h6Z" fill="#e3e3e3"/>
        <path d="M77.17,59.11H70.42a1,1,0,0,1-1-1h0a1,1,0,0,1,1-1h6.75a1,1,0,0,1,1,1h0A1,1,0,0,1,77.17,59.11Z" fill="#f2f2f2"/>
        <path d="M77.08,58.82H70.51a.9.9,0,0,1-.9-.91h0a.9.9,0,0,1,.9-.91h6.57a.91.91,0,0,1,.91.91h0A.91.91,0,0,1,77.08,58.82Z" fill="#e3e3e3"/>
        <rect x="73.8" y="61.54" width="2.96" height="0.22" fill="#a2a2a2"/>
        <rect x="73.8" y="63.62" width="2.96" height="0.22" fill="#a2a2a2"/>
        <rect x="75.2" y="62.58" width="1.55" height="0.22" fill="#a2a2a2"/>
        <rect x="73.8" y="65.69" width="2.96" height="0.22" fill="#a2a2a2"/>
        <rect x="75.2" y="64.65" width="1.55" height="0.22" fill="#a2a2a2"/>
        <rect x="73.8" y="67.66" width="2.96" height="0.22" fill="#a2a2a2"/>
        <rect x="75.2" y="66.63" width="1.55" height="0.22" fill="#a2a2a2"/>
        <rect x="73.8" y="69.58" width="2.96" height="0.22" fill="#a2a2a2"/>
        <rect x="75.2" y="68.55" width="1.55" height="0.22" fill="#a2a2a2"/>
        <rect x="73.8" y="71.65" width="2.96" height="0.22" fill="#a2a2a2"/>
        <rect x="75.2" y="70.62" width="1.55" height="0.22" fill="#a2a2a2"/>
        <rect x="73.8" y="73.63" width="2.96" height="0.22" fill="#a2a2a2"/>
        <rect x="75.2" y="72.59" width="1.55" height="0.22" fill="#a2a2a2"/>
        <rect x="73.8" y="75.56" width="2.96" height="0.22" fill="#a2a2a2"/>
        <rect x="75.2" y="74.53" width="1.55" height="0.22" fill="#a2a2a2"/>
        <rect x="73.8" y="77.63" width="2.96" height="0.22" fill="#a2a2a2"/>
        <rect x="75.2" y="76.6" width="1.55" height="0.22" fill="#a2a2a2"/>
        <rect x="73.8" y="79.6" width="2.96" height="0.22" fill="#a2a2a2"/>
        <rect x="75.2" y="78.57" width="1.55" height="0.22" fill="#a2a2a2"/>
        <rect x="73.8" y="81.61" width="2.96" height="0.22" fill="#a2a2a2"/>
        <rect x="75.2" y="80.58" width="1.55" height="0.22" fill="#a2a2a2"/>
        <rect x="73.8" y="83.68" width="2.96" height="0.22" fill="#a2a2a2"/>
        <rect x="75.2" y="82.65" width="1.55" height="0.22" fill="#a2a2a2"/>
        <rect x="73.8" y="85.66" width="2.96" height="0.22" fill="#a2a2a2"/>
        <rect x="75.2" y="84.62" width="1.55" height="0.22" fill="#a2a2a2"/>
        <path d="M77.52,89.11v-30a.91.91,0,0,0,.62-.86v-.13a.92.92,0,0,0-.33-.7.91.91,0,0,0-.73-.37H73.8V92.83h0A3.73,3.73,0,0,0,77.52,89.11Z" fill="#f2f2f2" style="mix-blend-mode: multiply"/>
        <path d="M88,58.11H81.27v31a3.72,3.72,0,0,0,7.44,0v-31Zm0,30.74a3,3,0,0,1-3,3h0a3,3,0,0,1-3-3V76.12h6Z" fill="#e3e3e3"/>
        <path d="M88.36,59.11H81.62a1,1,0,0,1-1-1h0a1,1,0,0,1,1-1h6.74a1,1,0,0,1,1,1h0A1,1,0,0,1,88.36,59.11Z" fill="#f2f2f2"/>
        <path d="M88.27,58.82H81.71a.91.91,0,0,1-.91-.91h0a.91.91,0,0,1,.91-.91h6.56a.91.91,0,0,1,.91.91h0A.91.91,0,0,1,88.27,58.82Z" fill="#e3e3e3"/>
        <rect x="84.99" y="61.54" width="2.96" height="0.22" fill="#a2a2a2"/>
        <rect x="84.99" y="63.62" width="2.96" height="0.22" fill="#a2a2a2"/>
        <rect x="86.4" y="62.58" width="1.55" height="0.22" fill="#a2a2a2"/>
        <rect x="84.99" y="65.69" width="2.96" height="0.22" fill="#a2a2a2"/>
        <rect x="86.4" y="64.65" width="1.55" height="0.22" fill="#a2a2a2"/>
        <rect x="84.99" y="67.66" width="2.96" height="0.22" fill="#a2a2a2"/>
        <rect x="86.4" y="66.63" width="1.55" height="0.22" fill="#a2a2a2"/>
        <rect x="84.99" y="69.58" width="2.96" height="0.22" fill="#a2a2a2"/>
        <rect x="86.4" y="68.55" width="1.55" height="0.22" fill="#a2a2a2"/>
        <rect x="84.99" y="71.65" width="2.96" height="0.22" fill="#a2a2a2"/>
        <rect x="86.4" y="70.62" width="1.55" height="0.22" fill="#a2a2a2"/>
        <rect x="84.99" y="73.63" width="2.96" height="0.22" fill="#a2a2a2"/>
        <rect x="86.4" y="72.59" width="1.55" height="0.22" fill="#a2a2a2"/>
        <rect x="84.99" y="75.56" width="2.96" height="0.22" fill="#a2a2a2"/>
        <rect x="86.4" y="74.53" width="1.55" height="0.22" fill="#a2a2a2"/>
        <rect x="84.99" y="77.63" width="2.96" height="0.22" fill="#a2a2a2"/>
        <rect x="86.4" y="76.6" width="1.55" height="0.22" fill="#a2a2a2"/>
        <rect x="84.99" y="79.6" width="2.96" height="0.22" fill="#a2a2a2"/>
        <rect x="86.4" y="78.57" width="1.55" height="0.22" fill="#a2a2a2"/>
        <rect x="84.99" y="81.61" width="2.96" height="0.22" fill="#a2a2a2"/>
        <rect x="86.4" y="80.58" width="1.55" height="0.22" fill="#a2a2a2"/>
        <rect x="84.99" y="83.68" width="2.96" height="0.22" fill="#a2a2a2"/>
        <rect x="86.4" y="82.65" width="1.55" height="0.22" fill="#a2a2a2"/>
        <rect x="84.99" y="85.66" width="2.96" height="0.22" fill="#a2a2a2"/>
        <rect x="86.4" y="84.62" width="1.55" height="0.22" fill="#a2a2a2"/>
        <path d="M88.71,89.11v-30a.92.92,0,0,0,.63-.86v-.13a.9.9,0,0,0-.34-.7.91.91,0,0,0-.73-.37H85V92.83h0A3.73,3.73,0,0,0,88.71,89.11Z" fill="#f2f2f2" style="mix-blend-mode: multiply"/>
        <path d="M55.28,81.53H93.2v5.61H96V81.91a3.35,3.35,0,0,0-3.36-3.36H55.9a3.36,3.36,0,0,0-3.37,3.36v5.23h2.75Z" fill="#464646"/>
        <path d="M66.38,89.11v-30A.9.9,0,0,0,67,58.2v-.13A1.23,1.23,0,0,0,66,57H62.66V92.83h0A3.73,3.73,0,0,0,66.38,89.11Z" fill="#f2f2f2" style="mix-blend-mode: multiply"/>
      </g>
      <path d="M114.71,52.93a52.19,52.19,0,0,1,.86,6.5l6.18,1,0,5.24-6.1.93a54.21,54.21,0,0,1-.69,6.72l5.52,2.42-1.36,5.09-5.86-.64a54.09,54.09,0,0,1-2.56,6.38l4.52,3.57-2.61,4.61-5.38-2.12a63,63,0,0,1-4.26,5.45l3.45,4.69-3.71,3.8L98,103.09a54.2,54.2,0,0,1-5.43,4.33l2,5.26-4.52,2.66L86.63,111a49.78,49.78,0,0,1-6.46,2.72l.57,5.46-5.07,1.39-2.2-5.08a56.48,56.48,0,0,1-7,.87l-.81,5.5H60.31l-.81-5.5a54.36,54.36,0,0,1-7-.82l-2.25,5-5.07-1.34.62-5.36a49,49,0,0,1-6.6-2.77l-3.35,4.25-4.6-2.63,2-5.17a62.47,62.47,0,0,1-5.5-4.3l-4.54,3.3-3.74-3.73,3.38-4.57a60.92,60.92,0,0,1-4.28-5.48l-5.27,2L10.7,90.15l4.45-3.49a44,44,0,0,1-2.65-6.44l-5.67.6-1.42-5.1,5.43-2.32a63.21,63.21,0,0,1-.78-6.82l-5.94-.9,0-5.29,6-.91A55.69,55.69,0,0,1,11,52.83L5.49,50.34l1.34-5.07,6.07.67a51.26,51.26,0,0,1,2.63-6.17L10.7,35.89l2.68-4.54,5.88,2.29a50.61,50.61,0,0,1,4.07-5.11L19.5,23.31l3.74-3.73,5.26,3.87a59.55,59.55,0,0,1,5.12-4l-2.35-6,4.52-2.65,4.1,5.09A44.19,44.19,0,0,1,46,13.41L45.2,7l5.12-1.39,2.6,6.05a58.08,58.08,0,0,1,6.39-.74l1-6.65h5.27l1,6.7a52.62,52.62,0,0,1,6.36.76l2.68-6.12L80.74,7,80,13.5c-1.31.1-.1.78,6,2.44l4.09-5.09,4.57,2.6-2.4,6.13c1.73,1.24,3.42,2.57,5.08,4l5.33-3.95,3.71,3.71-3.88,5.36a59.55,59.55,0,0,1,4,5.07l6-2.37,2.61,4.57-4.93,4a49.8,49.8,0,0,1,2.61,6.15l6.22-.72,1.36,5Z" fill="none" stroke="#d0e1cf" stroke-miterlimit="10" fill-rule="evenodd"/>
    </g>
  </g>
</svg>
