<svg xmlns="http://www.w3.org/2000/svg" viewBox="0 0 125 125">
  <title>_</title>
  <g>
    <g>
      <path d="M69.06,30.56a.69.69,0,1,1-.6,1.25l-7.28-3.52a.7.7,0,0,1-.33-.93.7.7,0,0,1,.93-.32l7.28,3.52Z" fill="#dce4eb"/>
      <path d="M55.64,20.09l22.69,11A1.41,1.41,0,0,1,79,32.92L71.82,47.69a1.39,1.39,0,0,1-1.85.65l-22.69-11a1.38,1.38,0,0,1-.64-1.85l7.15-14.78a1.38,1.38,0,0,1,1.85-.64ZM77.72,32.31l-.28.57a1.56,1.56,0,0,1-1.36.88l-14.32,2.6q-3.33-6.27-6.68-12.53c-.4-.76-.66-1.23-.32-1.92l.28-.58h0l22.68,11ZM71,46.16l5.34-11c-3.48.66-7,1.26-10.47,1.89L71,46.16Zm-22.3-9.64,21,10.17-5.27-9.42-2.93.53a.69.69,0,0,1-.75-.35l-1.4-2.63-10.66,1.7Zm5-12.38-5.34,11,10.35-1.65c-1.67-3.13-3.37-6.25-5-9.39Z" fill="#b8c8d8" fill-rule="evenodd"/>
    </g>
    <path d="M94.74,45.2V83.74H30.82V45.2a3,3,0,0,1,3-3H91.73A3,3,0,0,1,94.74,45.2Z" fill="#003b71"/>
    <rect x="33.97" y="45.2" width="57.9" height="35.53" fill="#fff"/>
    <path d="M99.07,83.74v1.92a4.69,4.69,0,0,1-4.69,4.69H31.19a4.7,4.7,0,0,1-4.7-4.69V83.74Z" fill="#3b6793"/>
    <path d="M99.05,85.91c0-.08,0-.16,0-.25V83.74H26.49v1.92a1.9,1.9,0,0,0,0,.25Z" fill="#bdc9d9"/>
    <polygon points="69.83 84.94 70.75 83.76 53.16 83.76 54.08 84.94 69.83 84.94" fill="#e6e9ee"/>
    <g>
      <path d="M32.61,87.94a1.18,1.18,0,1,1-1.18-1.18A1.18,1.18,0,0,1,32.61,87.94Z" fill="#003b71"/>
      <path d="M35.8,87.94a1.18,1.18,0,1,1-1.18-1.18A1.18,1.18,0,0,1,35.8,87.94Z" fill="#003b71"/>
      <path d="M39,87.94a1.18,1.18,0,1,1-1.18-1.18A1.18,1.18,0,0,1,39,87.94Z" fill="#003b71"/>
    </g>
    <g>
      <g>
        <g>
          <rect x="42.28" y="48.01" width="0.64" height="29.91" fill="#e6e9ee"/>
          <rect x="45.89" y="48.01" width="0.64" height="29.91" fill="#e6e9ee"/>
          <rect x="49.51" y="48.01" width="0.64" height="29.91" fill="#e6e9ee"/>
          <rect x="53.13" y="48.01" width="0.64" height="29.91" fill="#e6e9ee"/>
          <rect x="56.74" y="48.01" width="0.64" height="29.91" fill="#e6e9ee"/>
          <rect x="60.36" y="48.01" width="0.64" height="29.91" fill="#e6e9ee"/>
          <rect x="63.97" y="48.01" width="0.64" height="29.91" fill="#e6e9ee"/>
          <rect x="67.59" y="48.01" width="0.64" height="29.91" fill="#e6e9ee"/>
          <rect x="71.2" y="48.01" width="0.64" height="29.91" fill="#e6e9ee"/>
          <rect x="74.82" y="48.01" width="0.64" height="29.91" fill="#e6e9ee"/>
          <rect x="78.43" y="48.01" width="0.64" height="29.91" fill="#e6e9ee"/>
          <rect x="82.05" y="48.01" width="0.64" height="29.91" fill="#e6e9ee"/>
        </g>
        <g>
          <rect x="62.6" y="26.89" width="0.64" height="46.84" transform="translate(113.23 -12.6) rotate(90)" fill="#e6e9ee"/>
          <rect x="62.6" y="30.51" width="0.64" height="46.84" transform="translate(116.85 -8.99) rotate(90)" fill="#e6e9ee"/>
          <rect x="62.6" y="34.12" width="0.64" height="46.84" transform="translate(120.46 -5.37) rotate(90)" fill="#e6e9ee"/>
          <rect x="62.6" y="37.74" width="0.64" height="46.84" transform="translate(124.08 -1.76) rotate(90)" fill="#e6e9ee"/>
          <rect x="62.6" y="41.35" width="0.64" height="46.84" transform="translate(127.69 1.86) rotate(90)" fill="#e6e9ee"/>
          <rect x="62.6" y="44.97" width="0.64" height="46.84" transform="translate(131.31 5.47) rotate(90)" fill="#e6e9ee"/>
          <rect x="62.6" y="48.59" width="0.64" height="46.84" transform="translate(134.92 9.09) rotate(90)" fill="#e6e9ee"/>
          <rect x="62.6" y="52.2" width="0.64" height="46.84" transform="translate(138.54 12.7) rotate(90)" fill="#e6e9ee"/>
        </g>
      </g>
      <g>
        <rect x="71.2" y="50.67" width="4.25" height="24.67" fill="#b73d25"/>
        <rect x="63.97" y="57.86" width="4.25" height="17.44" fill="#ffc800"/>
        <rect x="49.51" y="54.25" width="4.25" height="21.06" fill="#96b400"/>
        <rect x="56.74" y="61.48" width="4.25" height="13.83" fill="#007896"/>
      </g>
    </g>
    <path d="M113.68,52.51a54.14,54.14,0,0,1,.86,6.5l6.17,1,0,5.24-6.1.93a54.2,54.2,0,0,1-.7,6.72l5.53,2.42-1.36,5.09-5.87-.64a54,54,0,0,1-2.55,6.38l4.52,3.57-2.61,4.62-5.38-2.13a63,63,0,0,1-4.26,5.45l3.44,4.69-3.7,3.8L97,102.67A52,52,0,0,1,91.57,107l2,5.26-4.52,2.66-3.47-4.33a51.12,51.12,0,0,1-6.45,2.73l.57,5.45-5.07,1.39-2.2-5.07a58.84,58.84,0,0,1-7,.86l-.81,5.5H59.28l-.81-5.5a54.51,54.51,0,0,1-7-.82l-2.25,5-5.07-1.34.62-5.36a50.07,50.07,0,0,1-6.6-2.77l-3.35,4.25-4.59-2.63,2-5.16a63,63,0,0,1-5.5-4.31l-4.55,3.3-3.73-3.73,3.37-4.57a64.78,64.78,0,0,1-4.28-5.48l-5.26,2L9.67,89.73l4.45-3.49a44.08,44.08,0,0,1-2.66-6.44l-5.67.6L4.38,75.3,9.81,73A63.31,63.31,0,0,1,9,66.17l-5.93-.91,0-5.29,6-.91A57.81,57.81,0,0,1,10,52.41L4.45,49.92l1.34-5.07,6.08.67a49.7,49.7,0,0,1,2.63-6.17L9.67,35.47l2.68-4.54,5.88,2.3a48.31,48.31,0,0,1,4.07-5.12l-3.83-5.22,3.73-3.73L27.46,23a63.32,63.32,0,0,1,5.12-4l-2.34-6,4.52-2.66,4.09,5.1A43.14,43.14,0,0,1,44.93,13l-.77-6.46,5.12-1.39,2.61,6.05a58.18,58.18,0,0,1,6.38-.74L59.33,3.8h5.26l1,6.7a50.92,50.92,0,0,1,6.36.77l2.68-6.13,5.07,1.39L79,13.08c-1.3.1-.09.78,6,2.44l4.09-5.09L93.63,13l-2.39,6.12c1.72,1.24,3.41,2.57,5.07,4l5.33-3.95,3.71,3.71-3.87,5.36a59.55,59.55,0,0,1,4,5.07l6-2.37,2.61,4.57-4.93,4a49.8,49.8,0,0,1,2.61,6.15l6.22-.72,1.36,5Z" fill="none" stroke="#d0e1cf" stroke-miterlimit="10" fill-rule="evenodd"/>
  </g>
</svg>
