<svg xmlns="http://www.w3.org/2000/svg" xmlns:xlink="http://www.w3.org/1999/xlink" viewBox="0 0 275 275">
  <defs>
    <clipPath id="clip-path">
      <rect x="136.78" y="-21.85" width="149.74" height="308.89" style="fill: none"/>
    </clipPath>
    <clipPath id="clip-path-2">
      <rect x="-12.92" y="-21.84" width="149.71" height="308.89" style="fill: none"/>
    </clipPath>
  </defs>
  <title>Middle_Gear</title>
  <g id="Middle_Gear" data-name="Middle Gear">
    <g>
      <g style="clip-path: url(#clip-path)">
        <g>
          <circle cx="136.43" cy="139.33" r="105.09" transform="translate(-7.53 7.79) rotate(-3.18)" style="fill: #42863f"/>
          <circle cx="136.09" cy="137.68" r="23.84" style="fill: #5e985c"/>
          <path d="M239.15,117.79a94.52,94.52,0,0,0-8.77-25.56A100,100,0,0,0,222.94,80,106.34,106.34,0,0,0,215,69.92q-2.24-2.46-4.54-4.65-2.83-2.94-5.67-5.45a125.41,125.41,0,0,0-10-7.86,113.89,113.89,0,0,0-12.41-7.17,90.42,90.42,0,0,0-11.87-4.92,99.19,99.19,0,0,0-13.9-3.53,81,81,0,0,0-12.51-1.5q-3.64-.32-7.49-.32-3.53,0-7,.21-6.52.43-12.62,1.39a87.06,87.06,0,0,0-13.8,3.64,88.08,88.08,0,0,0-12,4.92,89.34,89.34,0,0,0-12.41,7.06,95.18,95.18,0,0,0-10.16,7.91q-3,2.57-5.94,5.62-2.19,2.09-4.23,4.33a120.84,120.84,0,0,0-8.13,10.16,92.07,92.07,0,0,0-7.27,12.09A91.09,91.09,0,0,0,37.91,104a97.77,97.77,0,0,0-5.45,26.85q-.32,4-.32,8,0,3.1.11,6a116.07,116.07,0,0,0,1.6,13.37,93.14,93.14,0,0,0,3.32,13.48,95.05,95.05,0,0,0,5.13,12.73,91.64,91.64,0,0,0,7,12,116.53,116.53,0,0,0,8.29,10.86q2.57,2.89,5.24,5.56l4.55,4.33a113.79,113.79,0,0,0,10.91,8.66A91.74,91.74,0,0,0,103,238.17a84.53,84.53,0,0,0,13.16,3.42A108.85,108.85,0,0,0,130,243.3q3.21.21,6.58.16,3.58.05,7.17-.21a97.16,97.16,0,0,0,13.8-1.6,96,96,0,0,0,13.21-3.58,88.5,88.5,0,0,0,12.83-5.35,100.89,100.89,0,0,0,11.87-7.17,117.14,117.14,0,0,0,10.7-8.56,59,59,0,0,0,4.33-4.12q2.83-2.83,5.4-5.72a106.85,106.85,0,0,0,8.34-10.8,116,116,0,0,0,6.9-12,101.05,101.05,0,0,0,5-12.62,90.46,90.46,0,0,0,3.37-13.53A95.83,95.83,0,0,0,241,145q.16-2.94.16-6-.05-4.12-.21-8.13A118.39,118.39,0,0,0,239.15,117.79Zm13.42-2.73a119.18,119.18,0,0,1,1.93,14.55l13.8,2.25-.05,11.71-13.64,2.08a121.18,121.18,0,0,1-1.55,15l12.35,5.4-3,11.39L249.25,176a120.68,120.68,0,0,1-5.72,14.28l10.11,8-5.83,10.32-12-4.76A140.48,140.48,0,0,1,226.26,216l7.7,10.48-8.29,8.5-10.37-7.81a117.31,117.31,0,0,1-12.14,9.68l4.49,11.77-10.11,5.94-7.75-9.68a112.24,112.24,0,0,1-14.44,6.1l1.28,12.19-11.34,3.1L160.37,255a128,128,0,0,1-15.72,1.92l-1.82,12.3H131l-1.82-12.3a123.09,123.09,0,0,1-15.62-1.82l-5,11.12-11.34-3,1.39-12A111.19,111.19,0,0,1,83.79,245l-7.49,9.52L66,248.65l4.49-11.55a139.48,139.48,0,0,1-12.3-9.63l-10.16,7.38-8.34-8.34,7.54-10.21A140.33,140.33,0,0,1,37.69,204l-11.77,4.49L20,198.27,30,190.46a99.09,99.09,0,0,1-5.94-14.39l-12.67,1.34L8.23,166l12.14-5.19a142.18,142.18,0,0,1-1.76-15.24l-13.26-2,.05-11.82,13.48-2a126.32,126.32,0,0,1,1.92-14.87L8.39,109.28l3-11.34L25,99.44a111.36,111.36,0,0,1,5.88-13.8L20,77l6-10.16L39.19,72a112,112,0,0,1,9.09-11.44L39.73,48.85l8.34-8.34,11.77,8.66a133.26,133.26,0,0,1,11.44-8.88L66,26.82l10.11-5.94,9.15,11.39a97,97,0,0,1,13.58-5.56L97.16,12.27l11.44-3.1,5.83,13.53A124.79,124.79,0,0,1,128.71,21l2.35-14.87h11.77l2.25,15a115.84,115.84,0,0,1,14.22,1.71l6-13.69,11.34,3.1L175,26.93a103,103,0,0,1,13.37,5.45L197.54,21l10.21,5.83-5.35,13.69q5.78,4.17,11.34,8.88l11.93-8.82L234,48.85l-8.66,12a133.34,133.34,0,0,1,9,11.34l13.53-5.29,5.83,10.21-11,8.88a110.45,110.45,0,0,1,5.83,13.74l13.9-1.6,3,11.28Z" style="fill: #5e985c;fill-rule: evenodd"/>
          <g>
            <path d="M141.61,180.43q1.71-.2,3.35-.52a42.21,42.21,0,0,0,5.25-1.38,38.86,38.86,0,0,0,5.08-2.2,42.73,42.73,0,0,0,4.75-2.85,38.61,38.61,0,0,0,4.26-3.35q.85-.79,1.71-1.71,1.18-1.11,2.16-2.23a43.89,43.89,0,0,0,3.35-4.33,53.44,53.44,0,0,0,2.76-4.85,33.84,33.84,0,0,0,2-5,35.77,35.77,0,0,0,1.38-5.38q.2-1.18.3-2.46l8.43-.89q-.23,2.46-.59,4.85a45.59,45.59,0,0,1-1.64,6.49,39.28,39.28,0,0,1-2.33,6,56.67,56.67,0,0,1-3.31,5.8,49.09,49.09,0,0,1-4,5.15q-1.21,1.41-2.53,2.72-1.05,1-2.07,2a64.45,64.45,0,0,1-5.15,4,36.09,36.09,0,0,1-5.61,3.38q-3,1.48-6.17,2.62a56.49,56.49,0,0,1-6.36,1.71q-2.79.49-5.84.72Z" style="fill: #5e985c;fill-rule: evenodd"/>
            <path d="M178,134.18q-.23-1.8-.56-3.57a46.67,46.67,0,0,0-1.41-5.48q-1-2.46-2.1-4.79a46.19,46.19,0,0,0-3-4.85,34.77,34.77,0,0,0-3.18-4,18.79,18.79,0,0,0-1.8-1.93q-1.12-1.12-2.26-2.13-2-1.7-4-3.12a39.23,39.23,0,0,0-5-2.85,31.46,31.46,0,0,0-4.76-1.93,33,33,0,0,0-5.51-1.44,21.85,21.85,0,0,0-3-.46l-.85-8.33a47.42,47.42,0,0,1,5.51.72,56.21,56.21,0,0,1,6.62,1.64q2.89,1,5.61,2.33a46.43,46.43,0,0,1,5.9,3.48,48.52,48.52,0,0,1,4.89,3.71q1.31,1.31,2.69,2.62,1.12,1.12,2.16,2.23,2,2.36,3.8,4.79a46.57,46.57,0,0,1,3.48,5.84,45.31,45.31,0,0,1,2.46,5.74,50.26,50.26,0,0,1,1.74,6.53,40,40,0,0,1,.79,6.1Z" style="fill: #5e985c;fill-rule: evenodd"/>
            <path d="M95.27,144.19q.16,1.28.36,2.53a33.19,33.19,0,0,0,1.31,5.38,45,45,0,0,0,2,5.05,38,38,0,0,0,2.82,4.79,43.9,43.9,0,0,0,3.31,4.3q1,1.15,2.07,2.2l1.74,1.74a41.42,41.42,0,0,0,4.39,3.48,37.2,37.2,0,0,0,4.69,2.72,31.56,31.56,0,0,0,5.18,2.16,42.21,42.21,0,0,0,5.25,1.38l3.15.52.92,8.33a53.82,53.82,0,0,1-5.67-.69,64.07,64.07,0,0,1-6.26-1.61,45.11,45.11,0,0,1-6.26-2.53,54.22,54.22,0,0,1-5.54-3.44q-2.69-1.9-5.21-4-1.12-1-2.2-2.13Q100,173,98.88,171.74q-2.2-2.59-4.07-5.18a51.9,51.9,0,0,1-3.25-5.8,47,47,0,0,1-2.46-6.07,55.49,55.49,0,0,1-1.54-6.4,37.89,37.89,0,0,1-.66-5Z" style="fill: #42863f;fill-rule: evenodd"/>
            <path d="M131.64,97.65q-1.44.13-2.82.39a42.31,42.31,0,0,0-5.51,1.38,35.85,35.85,0,0,0-4.79,2,32.51,32.51,0,0,0-4.92,2.82,38.26,38.26,0,0,0-4.07,3.08q-1.18,1-2.36,2.23-.89.89-1.71,1.77a44.46,44.46,0,0,0-3.21,4,43.63,43.63,0,0,0-3,4.85,39.19,39.19,0,0,0-2,4.85,38.61,38.61,0,0,0-1.51,5.44,33.8,33.8,0,0,0-.52,3.67l-8.33.85a39.1,39.1,0,0,1,.75-6.2,65.25,65.25,0,0,1,1.74-6.46,58.79,58.79,0,0,1,2.56-5.9,51.2,51.2,0,0,1,7.35-10.56q1-1.11,2-2.1,1.41-1.41,2.82-2.69a50.29,50.29,0,0,1,4.92-3.74A49.51,49.51,0,0,1,114.92,94a43.69,43.69,0,0,1,12.36-4,36.56,36.56,0,0,1,5.21-.75Z" style="fill: #42863f;fill-rule: evenodd"/>
          </g>
        </g>
      </g>
      <g style="clip-path: url(#clip-path-2)">
        <g>
          <circle cx="136.5" cy="139.3" r="105.09" transform="translate(-7.53 7.8) rotate(-3.18)" style="fill: #0f809c"/>
          <circle cx="136.06" cy="137.68" r="23.84" style="fill: #3393ab"/>
          <path d="M239.11,117.79a94.52,94.52,0,0,0-8.77-25.56A100,100,0,0,0,222.91,80,106.34,106.34,0,0,0,215,69.92q-2.24-2.46-4.54-4.65-2.83-2.94-5.67-5.45a125.41,125.41,0,0,0-10-7.86,113.89,113.89,0,0,0-12.41-7.17,90.42,90.42,0,0,0-11.87-4.92,99.19,99.19,0,0,0-13.9-3.53,81,81,0,0,0-12.51-1.5q-3.64-.32-7.49-.32-3.53,0-7,.21-6.52.43-12.62,1.39a87.06,87.06,0,0,0-13.8,3.64,88.08,88.08,0,0,0-12,4.92,89.34,89.34,0,0,0-12.41,7.06,95.18,95.18,0,0,0-10.16,7.91q-3,2.57-5.94,5.62-2.19,2.09-4.23,4.33a120.84,120.84,0,0,0-8.13,10.16,92.07,92.07,0,0,0-7.27,12.09A91.09,91.09,0,0,0,37.88,104a97.77,97.77,0,0,0-5.45,26.85q-.32,4-.32,8,0,3.1.11,6a116.07,116.07,0,0,0,1.6,13.37,93.14,93.14,0,0,0,3.32,13.48,95.05,95.05,0,0,0,5.13,12.73,91.64,91.64,0,0,0,7,12,116.53,116.53,0,0,0,8.29,10.86q2.57,2.89,5.24,5.56l4.55,4.33a113.79,113.79,0,0,0,10.91,8.66A91.74,91.74,0,0,0,103,238.17a84.53,84.53,0,0,0,13.16,3.42A108.85,108.85,0,0,0,130,243.3q3.21.21,6.58.16,3.58.05,7.17-.21a97.16,97.16,0,0,0,13.8-1.6,96,96,0,0,0,13.21-3.58,88.5,88.5,0,0,0,12.83-5.35,100.89,100.89,0,0,0,11.87-7.17,117.14,117.14,0,0,0,10.7-8.56,59,59,0,0,0,4.33-4.12q2.83-2.83,5.4-5.72a106.85,106.85,0,0,0,8.34-10.8,116,116,0,0,0,6.9-12,101.05,101.05,0,0,0,5-12.62,90.46,90.46,0,0,0,3.37-13.53A95.83,95.83,0,0,0,240.93,145q.16-2.94.16-6-.05-4.12-.21-8.13A118.39,118.39,0,0,0,239.11,117.79Zm13.42-2.73a119.18,119.18,0,0,1,1.93,14.55l13.8,2.25-.05,11.71-13.64,2.08a121.18,121.18,0,0,1-1.55,15l12.35,5.4-3,11.39L249.22,176a120.68,120.68,0,0,1-5.72,14.28l10.11,8-5.83,10.32-12-4.76A140.48,140.48,0,0,1,226.23,216l7.7,10.48-8.29,8.5-10.37-7.81a117.31,117.31,0,0,1-12.14,9.68l4.49,11.77-10.11,5.94-7.75-9.68a112.24,112.24,0,0,1-14.44,6.1l1.28,12.19-11.34,3.1L160.34,255a128,128,0,0,1-15.72,1.92l-1.82,12.3H130.93l-1.82-12.3a123.09,123.09,0,0,1-15.62-1.82l-5,11.12-11.34-3,1.39-12A111.19,111.19,0,0,1,83.76,245l-7.49,9.52L66,248.65l4.49-11.55a139.48,139.48,0,0,1-12.3-9.63L48,234.85l-8.34-8.34,7.54-10.21A140.33,140.33,0,0,1,37.66,204L25.9,208.54,20,198.27,30,190.46A99.09,99.09,0,0,1,24,176.08l-12.67,1.34L8.2,166l12.14-5.19a142.18,142.18,0,0,1-1.76-15.24l-13.26-2,.05-11.82,13.48-2a126.32,126.32,0,0,1,1.92-14.87L8.36,109.28l3-11.34,13.58,1.5a111.36,111.36,0,0,1,5.88-13.8L20,77l6-10.16L39.16,72a112,112,0,0,1,9.09-11.44L39.69,48.85,48,40.51,59.8,49.17a133.26,133.26,0,0,1,11.44-8.88L66,26.82l10.11-5.94,9.15,11.39a97,97,0,0,1,13.58-5.56L97.13,12.27l11.44-3.1L114.4,22.7A124.79,124.79,0,0,1,128.68,21L131,6.18H142.8l2.25,15a115.84,115.84,0,0,1,14.22,1.71l6-13.69,11.34,3.1L175,26.93a103,103,0,0,1,13.37,5.45L197.51,21l10.21,5.83-5.35,13.69q5.78,4.17,11.34,8.88l11.93-8.82,8.29,8.29-8.66,12a133.34,133.34,0,0,1,9,11.34l13.53-5.29,5.83,10.21-11,8.88a110.44,110.44,0,0,1,5.83,13.74l13.9-1.6,3,11.28Z" style="fill: #3393ab;fill-rule: evenodd"/>
          <g>
            <path d="M141.58,180.43q1.71-.2,3.35-.52a42.21,42.21,0,0,0,5.25-1.38,38.86,38.86,0,0,0,5.08-2.2,42.73,42.73,0,0,0,4.75-2.85,38.61,38.61,0,0,0,4.26-3.35q.85-.79,1.71-1.71,1.18-1.11,2.16-2.23a43.89,43.89,0,0,0,3.35-4.33,53.44,53.44,0,0,0,2.76-4.85,33.84,33.84,0,0,0,2-5,35.77,35.77,0,0,0,1.38-5.38q.2-1.18.3-2.46l8.43-.89q-.23,2.46-.59,4.85a45.59,45.59,0,0,1-1.64,6.49,39.28,39.28,0,0,1-2.33,6,56.67,56.67,0,0,1-3.31,5.8,49.09,49.09,0,0,1-4,5.15q-1.21,1.41-2.53,2.72-1.05,1-2.07,2a64.45,64.45,0,0,1-5.15,4,36.09,36.09,0,0,1-5.61,3.38q-3,1.48-6.17,2.62a56.49,56.49,0,0,1-6.36,1.71q-2.79.49-5.84.72Z" style="fill: #0f809c;fill-rule: evenodd"/>
            <path d="M178,134.18q-.23-1.8-.56-3.57a46.67,46.67,0,0,0-1.41-5.48q-1-2.46-2.1-4.79a46.19,46.19,0,0,0-3-4.85,34.77,34.77,0,0,0-3.18-4,18.79,18.79,0,0,0-1.8-1.93q-1.12-1.12-2.26-2.13-2-1.7-4-3.12a39.23,39.23,0,0,0-5-2.85A31.46,31.46,0,0,0,150,99.55a33,33,0,0,0-5.51-1.44,21.85,21.85,0,0,0-3-.46l-.85-8.33a47.42,47.42,0,0,1,5.51.72,56.21,56.21,0,0,1,6.62,1.64q2.89,1,5.61,2.33a46.43,46.43,0,0,1,5.9,3.48,48.52,48.52,0,0,1,4.89,3.71q1.31,1.31,2.69,2.62,1.12,1.12,2.16,2.23,2,2.36,3.8,4.79a46.57,46.57,0,0,1,3.48,5.84,45.31,45.31,0,0,1,2.46,5.74,50.26,50.26,0,0,1,1.74,6.53,40,40,0,0,1,.79,6.1Z" style="fill: #0f809c;fill-rule: evenodd"/>
            <path d="M95.24,144.19q.16,1.28.36,2.53a33.19,33.19,0,0,0,1.31,5.38,45,45,0,0,0,2,5.05,38,38,0,0,0,2.82,4.79,43.9,43.9,0,0,0,3.31,4.3q1,1.15,2.07,2.2l1.74,1.74a41.42,41.42,0,0,0,4.39,3.48,37.2,37.2,0,0,0,4.69,2.72,31.56,31.56,0,0,0,5.18,2.16,42.21,42.21,0,0,0,5.25,1.38l3.15.52.92,8.33a53.82,53.82,0,0,1-5.67-.69,64.07,64.07,0,0,1-6.26-1.61,45.11,45.11,0,0,1-6.26-2.53,54.22,54.22,0,0,1-5.54-3.44q-2.69-1.9-5.21-4-1.12-1-2.2-2.13Q100,173,98.85,171.74q-2.2-2.59-4.07-5.18a51.9,51.9,0,0,1-3.25-5.8,47,47,0,0,1-2.46-6.07,55.49,55.49,0,0,1-1.54-6.4,37.89,37.89,0,0,1-.66-5Z" style="fill: #3393ab;fill-rule: evenodd"/>
            <path d="M131.61,97.65q-1.44.13-2.82.39a42.31,42.31,0,0,0-5.51,1.38,35.85,35.85,0,0,0-4.79,2,32.51,32.51,0,0,0-4.92,2.82,38.26,38.26,0,0,0-4.07,3.08q-1.18,1-2.36,2.23-.89.89-1.71,1.77a44.46,44.46,0,0,0-3.21,4,43.63,43.63,0,0,0-3,4.85,39.19,39.19,0,0,0-2,4.85,38.61,38.61,0,0,0-1.51,5.44,33.8,33.8,0,0,0-.52,3.67l-8.33.85a39.1,39.1,0,0,1,.75-6.2,65.25,65.25,0,0,1,1.74-6.46,58.79,58.79,0,0,1,2.56-5.9,51.2,51.2,0,0,1,7.35-10.56q1-1.11,2-2.1,1.41-1.41,2.82-2.69A50.29,50.29,0,0,1,109,97.38,49.51,49.51,0,0,1,114.89,94a43.69,43.69,0,0,1,12.36-4,36.56,36.56,0,0,1,5.21-.75Z" style="fill: #3393ab;fill-rule: evenodd"/>
          </g>
        </g>
      </g>
    </g>
    <g>
      <path d="M70.61,183.27a5.2,5.2,0,0,1,4.59-1.18,8.71,8.71,0,0,1,4.61,3.37l1.36,1.71,5.72-4.53,1.34,1.69L73.68,195.86l-3-3.77Q66.38,186.63,70.61,183.27Zm9.1,5.05-1.21-1.52a7.22,7.22,0,0,0-3.3-2.68,3.41,3.41,0,0,0-3.12.84,3.2,3.2,0,0,0-1.4,2.65,6.31,6.31,0,0,0,1.63,3.51L73.8,193Z" style="fill: #fff"/>
      <path d="M78.64,170.62l1,1.84-17.24,9.65-1-1.84Z" style="fill: #fff"/>
      <path d="M73.76,159.29l-1.71,1.09,0,.1a5.84,5.84,0,0,1,2.39,1.32,6.34,6.34,0,0,1,1.34,2.26,4.65,4.65,0,0,1,.14,3.41,3.89,3.89,0,0,1-2.43,2.17q-3.95,1.48-6.51-4.76l-.9-2.18-.81.3a3.53,3.53,0,0,0-2,1.51,2.89,2.89,0,0,0,.06,2.38,9.18,9.18,0,0,0,2.38,3.31l-1.28,1.17a10,10,0,0,1-1.61-1.8,9.79,9.79,0,0,1-1.16-2.19,5.29,5.29,0,0,1-.26-3.84,4.61,4.61,0,0,1,2.89-2.37l8.89-3.34Zm.28,5a4.27,4.27,0,0,0-2.1-2.51,4,4,0,0,0-3.22,0l-1.18.44.82,1.94a7.67,7.67,0,0,0,2,3.12,2.36,2.36,0,0,0,2.41.28,2.17,2.17,0,0,0,1.38-1.26A2.87,2.87,0,0,0,74,164.27Z" style="fill: #fff"/>
      <path d="M71,145.08l-8.91,1.26a3.63,3.63,0,0,0-2.41,1.12,3.16,3.16,0,0,0-.49,2.52,4,4,0,0,0,1.61,3,6,6,0,0,0,4,.46l7.23-1,.29,2.09-13.78,1.94-.24-1.7,1.84-.61V154a4.3,4.3,0,0,1-1.83-1.58,5.89,5.89,0,0,1-.92-2.5,5.28,5.28,0,0,1,.67-3.91,5.16,5.16,0,0,1,3.66-1.8l9-1.27Z" style="fill: #fff"/>
      <path d="M71.43,130.15l-9-.78a3.63,3.63,0,0,0-2.6.55,3.15,3.15,0,0,0-1,2.34,4,4,0,0,0,.9,3.29,6,6,0,0,0,3.8,1.35l7.27.63-.18,2.1-13.86-1.2.15-1.71,1.93-.18v-.1a4.3,4.3,0,0,1-1.43-1.95,5.91,5.91,0,0,1-.34-2.64,5.29,5.29,0,0,1,1.53-3.67,5.16,5.16,0,0,1,4-.93l9,.78Z" style="fill: #fff"/>
      <path d="M55.41,120.36a1.4,1.4,0,0,1-.94-.6,1.32,1.32,0,0,1,.44-1.71,1.38,1.38,0,0,1,1.11-.1,1.39,1.39,0,0,1,.94.62,1.23,1.23,0,0,1,.12.93,1.21,1.21,0,0,1-.56.78A1.42,1.42,0,0,1,55.41,120.36Zm17.71,2.13-.52,2-13.49-3.42.52-2Z" style="fill: #fff"/>
      <path d="M77.76,110.09l-8.25-3.59a3.64,3.64,0,0,0-2.64-.3,3.16,3.16,0,0,0-1.74,1.89,4,4,0,0,0-.19,3.41A6,6,0,0,0,68.11,114l6.7,2.91L74,118.82l-12.76-5.55.68-1.57,1.88.45,0-.09a4.3,4.3,0,0,1-.74-2.3,5.89,5.89,0,0,1,.52-2.61,5.28,5.28,0,0,1,2.62-3,5.16,5.16,0,0,1,4.06.38l8.32,3.62Z" style="fill: #fff"/>
      <path d="M75.79,87.87l1.08.78-1.26,2.27a4.55,4.55,0,0,1,2.79.89,4.12,4.12,0,0,1,1.82,3A5.63,5.63,0,0,1,79,98.67a6.3,6.3,0,0,1-.77.89,2.08,2.08,0,0,0,.66,2.14.91.91,0,0,0,1,.11A3.41,3.41,0,0,0,81,100.67l1.44-2a5.52,5.52,0,0,1,2.81-2.25,3.31,3.31,0,0,1,3,.64,4,4,0,0,1,1.77,3.57,9.91,9.91,0,0,1-2.19,5.09,7.38,7.38,0,0,1-3.29,2.81,3.28,3.28,0,0,1-3.19-.48A3.22,3.22,0,0,1,80,106.1a4.14,4.14,0,0,1,.32-2.59,2.2,2.2,0,0,1-1.13.29,2,2,0,0,1-1.17-.4,2.24,2.24,0,0,1-.84-1.11A4.28,4.28,0,0,1,77,100.6a3.74,3.74,0,0,1-2.25.54,4.43,4.43,0,0,1-2.37-.88,4.5,4.5,0,0,1-2-3.18,5.59,5.59,0,0,1,1.28-3.87A7,7,0,0,1,73,91.77ZM73.57,98.54a2.84,2.84,0,0,0,2.27.63,3.29,3.29,0,0,0,2-1.42q1.81-2.5-.62-4.26t-4.37.69a3.09,3.09,0,0,0-.69,2.32A3.22,3.22,0,0,0,73.57,98.54Zm8.88,7.84a1.89,1.89,0,0,0,1.95.23,5.28,5.28,0,0,0,2.07-1.87,7.62,7.62,0,0,0,1.66-3.65,2.43,2.43,0,0,0-1-2.29,1.7,1.7,0,0,0-1.68-.35,5.43,5.43,0,0,0-1.9,1.87l-1.48,2a3.33,3.33,0,0,0-.75,2.21A2.45,2.45,0,0,0,82.45,106.38Z" style="fill: #fff"/>
    </g>
    <g>
      <path d="M191.77,82.37a5.19,5.19,0,0,1-4.26,2.08,8.7,8.7,0,0,1-5.19-2.38l-1.67-1.41-4.7,5.58-1.65-1.39,12-14.2,3.68,3.1Q195.25,78.23,191.77,82.37Zm-9.93-3.13,1.49,1.25a7.22,7.22,0,0,0,3.77,2A3.41,3.41,0,0,0,190,81a3.2,3.2,0,0,0,.84-2.87A6.3,6.3,0,0,0,188.54,75l-1.84-1.55Z" style="fill: #fff"/>
      <path d="M200,90.6a8.28,8.28,0,0,1,.93,1.39l-1.7,1a7.22,7.22,0,0,0-.81-1.3,3.71,3.71,0,0,0-2.89-1.37,5,5,0,0,0-3.41,1.23l-5.79,4.72L185,94.63l10.79-8.79,1.1,1.35L195.05,89l.06.08a6.13,6.13,0,0,1,2.8.12A4.21,4.21,0,0,1,200,90.6Z" style="fill: #fff"/>
      <path d="M203,109.56a7.67,7.67,0,0,1-5.49,1,6,6,0,0,1-3.93-3.26,6.27,6.27,0,0,1-.81-3.33,5.78,5.78,0,0,1,1.15-3.16,8.75,8.75,0,0,1,3-2.52,7.66,7.66,0,0,1,5.47-1,6,6,0,0,1,3.92,3.25,5.88,5.88,0,0,1,.5,5A7.65,7.65,0,0,1,203,109.56Zm-5-9.33a6.6,6.6,0,0,0-3.07,2.87,4.23,4.23,0,0,0,3,5.53,6.57,6.57,0,0,0,4.09-1,6.47,6.47,0,0,0,3-2.86,3.77,3.77,0,0,0-.29-3.44,3.71,3.71,0,0,0-2.68-2.1A6.53,6.53,0,0,0,197.94,100.23Z" style="fill: #fff"/>
      <path d="M202.1,124.08l0-.11a5,5,0,0,1-3.2-3.65,5.17,5.17,0,0,1,.68-4.59,8.22,8.22,0,0,1,4.72-2.87,8.36,8.36,0,0,1,5.56.06,5.13,5.13,0,0,1,3,3.59,5.06,5.06,0,0,1-.83,4.73l0,.16.94-.35.93-.31,5.46-1.5.56,2-19.05,5.23-.45-1.65Zm-1.46-4a3.84,3.84,0,0,0,2,2.71,5.93,5.93,0,0,0,3.91-.07l.43-.12a7,7,0,0,0,3.81-2.07,3.74,3.74,0,0,0,.39-3.36,3.23,3.23,0,0,0-2.14-2.36,7.16,7.16,0,0,0-4.18.13,6.86,6.86,0,0,0-3.62,2A3.31,3.31,0,0,0,200.65,120.11Z" style="fill: #fff"/>
      <path d="M215.35,131.4l-9,.35a3.63,3.63,0,0,0-2.51.87,3.15,3.15,0,0,0-.74,2.46,4,4,0,0,0,1.32,3.14,6,6,0,0,0,3.93.86l7.31-.29.08,2.11-13.9.54-.07-1.74,1.85-.38v-.11a4.2,4.2,0,0,1-1.64-1.73,6,6,0,0,1-.65-2.6,5.32,5.32,0,0,1,1.06-3.85,5.13,5.13,0,0,1,3.81-1.41l9.1-.36Z" style="fill: #fff"/>
      <path d="M200.27,150.49a5.94,5.94,0,0,1,2.59-4.32,7.66,7.66,0,0,1,5.46-.79,7.89,7.89,0,0,1,5.05,2.53,6.06,6.06,0,0,1,1.11,5,9.41,9.41,0,0,1-.54,1.95,6.5,6.5,0,0,1-.75,1.47l-1.66-.93a9.73,9.73,0,0,0,.7-1.43,6.82,6.82,0,0,0,.42-1.41q.68-4.19-4.66-5.06a6.43,6.43,0,0,0-4.05.39,3.6,3.6,0,0,0-1.85,2.8,9.35,9.35,0,0,0,.16,3.64l-1.84-.3A7.61,7.61,0,0,1,200.27,150.49Z" style="fill: #fff"/>
      <path d="M199.14,161.24a6.77,6.77,0,0,0-.26,1.05,7,7,0,0,0-.09.84l-1.53-.5a3.85,3.85,0,0,1,.06-1,7.64,7.64,0,0,1,.27-1.17q1.26-3.84,5.3-2.51l7.87,2.58.62-1.89,1,.32.21,2.17,2.54,1.77-.38,1.16-3.06-1-1.26,3.84-1.56-.51,1.26-3.84-7.78-2.55a2.81,2.81,0,0,0-2,0A2.07,2.07,0,0,0,199.14,161.24Z" style="fill: #fff"/>
      <path d="M195.26,166.55l.88-1.92,12.65,5.81-.88,1.92Zm17,5.3a1.4,1.4,0,0,1,.82.77,1.32,1.32,0,0,1-.74,1.6,1.37,1.37,0,0,1-1.11-.11,1.39,1.39,0,0,1-.81-.78,1.23,1.23,0,0,1,0-.94,1.22,1.22,0,0,1,.69-.66A1.43,1.43,0,0,1,212.29,171.85Z" style="fill: #fff"/>
      <path d="M192.83,183.9a7.67,7.67,0,0,1-3.46-4.38,6,6,0,0,1,1-5,6.27,6.27,0,0,1,2.57-2.27,5.78,5.78,0,0,1,3.33-.46,8.76,8.76,0,0,1,3.62,1.48,7.67,7.67,0,0,1,3.46,4.36,6,6,0,0,1-1.05,5,5.89,5.89,0,0,1-4.2,2.77A7.64,7.64,0,0,1,192.83,183.9Zm5.9-8.8a6.6,6.6,0,0,0-4-1.38,4.23,4.23,0,0,0-3.5,5.21,6.58,6.58,0,0,0,2.78,3.16,6.47,6.47,0,0,0,3.95,1.35,3.77,3.77,0,0,0,2.91-1.86,3.71,3.71,0,0,0,.61-3.35A6.54,6.54,0,0,0,198.73,175.09Z" style="fill: #fff"/>
      <path d="M178.27,188.58l6.17,6.56a3.63,3.63,0,0,0,2.3,1.32,3.15,3.15,0,0,0,2.34-1.05,4,4,0,0,0,1.52-3.05,6,6,0,0,0-1.93-3.54l-5-5.32,1.54-1.44,9.53,10.14-1.25,1.17-1.55-1.15-.07.07a4.32,4.32,0,0,1-.23,2.4,5.92,5.92,0,0,1-1.51,2.19,5.29,5.29,0,0,1-3.59,1.71,5.16,5.16,0,0,1-3.58-2L176.73,190Z" style="fill: #fff"/>
    </g>
  </g>
</svg>
