<svg xmlns="http://www.w3.org/2000/svg" xmlns:xlink="http://www.w3.org/1999/xlink" viewBox="0 0 285 285">
  <defs>
    <clipPath id="clip-path">
      <rect x="140.53" y="-19.65" width="149.74" height="308.89" style="fill: none"/>
    </clipPath>
    <clipPath id="clip-path-2">
      <rect x="-9.18" y="-19.64" width="149.71" height="308.89" style="fill: none"/>
    </clipPath>
  </defs>
  <title>Proposal_page_Illustraton_CenterGear</title>
  <g id="Middle_Gear" data-name="Middle Gear">
    <g>
      <g style="clip-path: url(#clip-path)">
        <g>
          <circle cx="140.18" cy="141.53" r="105.09" transform="translate(-7.64 8) rotate(-3.18)" style="fill: #5d9243"/>
          <circle cx="139.83" cy="139.88" r="23.84" style="fill: #76a35f"/>
          <path d="M242.89,120a94.52,94.52,0,0,0-8.77-25.56,100,100,0,0,0-7.43-12.25,106.34,106.34,0,0,0-7.92-10.05q-2.24-2.46-4.54-4.65-2.83-2.94-5.67-5.45a125.41,125.41,0,0,0-10-7.86A113.89,113.89,0,0,0,186.15,47a90.42,90.42,0,0,0-11.87-4.92,99.19,99.19,0,0,0-13.9-3.53A81,81,0,0,0,147.86,37q-3.64-.32-7.49-.32-3.53,0-7,.21-6.52.43-12.62,1.39A87.06,87.06,0,0,0,107,42a88.08,88.08,0,0,0-12,4.92,89.34,89.34,0,0,0-12.41,7.06,95.18,95.18,0,0,0-10.16,7.91q-3,2.57-5.94,5.62-2.19,2.09-4.23,4.33A120.84,120.84,0,0,0,54.17,82,92.07,92.07,0,0,0,46.89,94a91.09,91.09,0,0,0-5.24,12.19,97.77,97.77,0,0,0-5.45,26.85q-.32,4-.32,8,0,3.1.11,6a116.07,116.07,0,0,0,1.6,13.37,93.14,93.14,0,0,0,3.32,13.48A95.05,95.05,0,0,0,46,186.67a91.64,91.64,0,0,0,7,12,116.53,116.53,0,0,0,8.29,10.86q2.57,2.89,5.24,5.56l4.55,4.33A113.79,113.79,0,0,0,82,228.06a91.74,91.74,0,0,0,24.81,12.3,84.53,84.53,0,0,0,13.16,3.42,108.85,108.85,0,0,0,13.8,1.71q3.21.21,6.58.16,3.58.05,7.17-.21a97.16,97.16,0,0,0,13.8-1.6,96,96,0,0,0,13.21-3.58,88.5,88.5,0,0,0,12.83-5.35,100.89,100.89,0,0,0,11.87-7.17,117.14,117.14,0,0,0,10.7-8.56,59,59,0,0,0,4.33-4.12q2.83-2.83,5.4-5.72a106.85,106.85,0,0,0,8.34-10.8,116,116,0,0,0,6.9-12,101.05,101.05,0,0,0,5-12.62,90.46,90.46,0,0,0,3.37-13.53,95.83,95.83,0,0,0,1.44-13.21q.16-2.94.16-6-.05-4.12-.21-8.13A118.39,118.39,0,0,0,242.89,120Zm13.42-2.73a119.18,119.18,0,0,1,1.93,14.55L272,134,272,145.76l-13.64,2.08a121.18,121.18,0,0,1-1.55,15l12.35,5.4-3,11.39L253,178.22a120.68,120.68,0,0,1-5.72,14.28l10.11,8-5.83,10.32-12-4.76A140.48,140.48,0,0,1,230,218.22l7.7,10.48-8.29,8.5L219,229.4a117.31,117.31,0,0,1-12.14,9.68l4.49,11.77-10.11,5.94-7.75-9.68a112.24,112.24,0,0,1-14.44,6.1l1.28,12.19L169,268.49l-4.92-11.34a128,128,0,0,1-15.72,1.92l-1.82,12.3H134.7l-1.82-12.3a123.09,123.09,0,0,1-15.62-1.82l-5,11.12-11.34-3,1.39-12a111.19,111.19,0,0,1-14.76-6.2L80,256.73l-10.27-5.88,4.49-11.55A139.48,139.48,0,0,1,62,229.67L51.81,237l-8.34-8.34L51,218.49a140.33,140.33,0,0,1-9.57-12.25l-11.77,4.49-5.88-10.27,9.95-7.81a99.09,99.09,0,0,1-5.94-14.39l-12.67,1.34L12,168.22,24.11,163a142.18,142.18,0,0,1-1.76-15.24l-13.26-2,.05-11.82,13.48-2A126.32,126.32,0,0,1,24.54,117l-12.41-5.56,3-11.34,13.58,1.5a111.36,111.36,0,0,1,5.88-13.8l-10.8-8.66,6-10.16,13.16,5.13A112,112,0,0,1,52,62.71L43.47,51l8.34-8.34,11.77,8.66A133.26,133.26,0,0,1,75,42.49L69.78,29l10.11-5.94L89,34.47a97,97,0,0,1,13.58-5.56l-1.71-14.44,11.44-3.1,5.83,13.53a124.79,124.79,0,0,1,14.28-1.66l2.35-14.87h11.77l2.25,15A115.84,115.84,0,0,1,163,25.06l6-13.69,11.34,3.1-1.6,14.65a103,103,0,0,1,13.37,5.45l9.14-11.39L211.5,29l-5.35,13.69q5.78,4.17,11.34,8.88l11.93-8.82L237.7,51,229,63a133.34,133.34,0,0,1,9,11.34l13.53-5.29,5.83,10.21-11,8.88a110.44,110.44,0,0,1,5.83,13.74l13.9-1.6,3,11.28Z" style="fill: #76a35f;fill-rule: evenodd"/>
          <g>
            <path d="M145.36,182.62q1.71-.2,3.35-.52a42.21,42.21,0,0,0,5.25-1.38,38.86,38.86,0,0,0,5.08-2.2,42.73,42.73,0,0,0,4.75-2.85,38.61,38.61,0,0,0,4.26-3.35q.85-.79,1.71-1.71,1.18-1.11,2.16-2.23a43.89,43.89,0,0,0,3.35-4.33,53.44,53.44,0,0,0,2.76-4.85,33.84,33.84,0,0,0,2-5,35.77,35.77,0,0,0,1.38-5.38q.2-1.18.3-2.46l8.43-.89q-.23,2.46-.59,4.85a45.59,45.59,0,0,1-1.64,6.49,39.28,39.28,0,0,1-2.33,6,56.67,56.67,0,0,1-3.31,5.8,49.09,49.09,0,0,1-4,5.15q-1.21,1.41-2.53,2.72-1.05,1-2.07,2a64.45,64.45,0,0,1-5.15,4,36.09,36.09,0,0,1-5.61,3.38q-3,1.48-6.17,2.62a56.49,56.49,0,0,1-6.36,1.71q-2.79.49-5.84.72Z" style="fill: #76a35f;fill-rule: evenodd"/>
            <path d="M181.76,136.38q-.23-1.8-.56-3.57a46.67,46.67,0,0,0-1.41-5.48q-1-2.46-2.1-4.79a46.19,46.19,0,0,0-3-4.85,34.77,34.77,0,0,0-3.18-4,18.8,18.8,0,0,0-1.8-1.93q-1.12-1.12-2.26-2.13-2-1.7-4-3.12a39.23,39.23,0,0,0-5-2.85,31.46,31.46,0,0,0-4.76-1.93,33,33,0,0,0-5.51-1.44,21.85,21.85,0,0,0-3-.46l-.85-8.33a47.42,47.42,0,0,1,5.51.72,56.21,56.21,0,0,1,6.62,1.64q2.89,1,5.61,2.33a46.43,46.43,0,0,1,5.9,3.48,48.52,48.52,0,0,1,4.89,3.71q1.31,1.31,2.69,2.62,1.12,1.12,2.16,2.23,2,2.36,3.8,4.79a46.57,46.57,0,0,1,3.48,5.84,45.31,45.31,0,0,1,2.46,5.74,50.26,50.26,0,0,1,1.74,6.53,40,40,0,0,1,.79,6.1Z" style="fill: #76a35f;fill-rule: evenodd"/>
            <path d="M99,146.38q.16,1.28.36,2.53a33.19,33.19,0,0,0,1.31,5.38,45,45,0,0,0,2,5.05,38,38,0,0,0,2.82,4.79,43.9,43.9,0,0,0,3.31,4.3q1,1.15,2.07,2.2l1.74,1.74a41.42,41.42,0,0,0,4.39,3.48,37.2,37.2,0,0,0,4.69,2.72,31.56,31.56,0,0,0,5.18,2.16,42.21,42.21,0,0,0,5.25,1.38l3.15.52.92,8.33a53.82,53.82,0,0,1-5.67-.69,64.07,64.07,0,0,1-6.26-1.61,45.11,45.11,0,0,1-6.26-2.53,54.22,54.22,0,0,1-5.54-3.44q-2.69-1.9-5.21-4-1.12-1-2.2-2.13-1.31-1.31-2.46-2.59-2.2-2.59-4.07-5.18a51.9,51.9,0,0,1-3.25-5.8,47,47,0,0,1-2.46-6.07,55.49,55.49,0,0,1-1.54-6.4,37.89,37.89,0,0,1-.66-5Z" style="fill: #5d9243;fill-rule: evenodd"/>
            <path d="M135.39,99.84q-1.44.13-2.82.39a42.31,42.31,0,0,0-5.51,1.38,35.85,35.85,0,0,0-4.79,2,32.51,32.51,0,0,0-4.92,2.82,38.26,38.26,0,0,0-4.07,3.08q-1.18,1-2.36,2.23-.89.89-1.71,1.77a44.46,44.46,0,0,0-3.21,4,43.63,43.63,0,0,0-3,4.85,39.19,39.19,0,0,0-2,4.85,38.61,38.61,0,0,0-1.51,5.44,33.8,33.8,0,0,0-.52,3.67l-8.33.85a39.1,39.1,0,0,1,.75-6.2,65.25,65.25,0,0,1,1.74-6.46,58.79,58.79,0,0,1,2.56-5.9A51.2,51.2,0,0,1,103,108.11q1-1.11,2-2.1,1.41-1.41,2.82-2.69a50.29,50.29,0,0,1,4.92-3.74,49.51,49.51,0,0,1,5.84-3.41,43.69,43.69,0,0,1,12.36-4,36.56,36.56,0,0,1,5.21-.75Z" style="fill: #5d9243;fill-rule: evenodd"/>
          </g>
        </g>
      </g>
      <g style="clip-path: url(#clip-path-2)">
        <g>
          <circle cx="140.25" cy="141.5" r="105.09" transform="translate(-7.64 8.01) rotate(-3.18)" style="fill: #0f809c"/>
          <circle cx="139.8" cy="139.88" r="23.84" style="fill: #3393ab"/>
          <path d="M242.86,120a94.52,94.52,0,0,0-8.77-25.56,100,100,0,0,0-7.43-12.25,106.34,106.34,0,0,0-7.92-10.05q-2.24-2.46-4.54-4.65-2.83-2.94-5.67-5.45a125.41,125.41,0,0,0-10-7.86A113.89,113.89,0,0,0,186.12,47a90.42,90.42,0,0,0-11.87-4.92,99.19,99.19,0,0,0-13.9-3.53A81,81,0,0,0,147.83,37q-3.64-.32-7.49-.32-3.53,0-7,.21-6.52.43-12.62,1.39A87.06,87.06,0,0,0,107,42a88.08,88.08,0,0,0-12,4.92,89.34,89.34,0,0,0-12.41,7.06,95.18,95.18,0,0,0-10.16,7.91q-3,2.57-5.94,5.62-2.19,2.09-4.23,4.33A120.84,120.84,0,0,0,54.13,82,92.07,92.07,0,0,0,46.86,94a91.09,91.09,0,0,0-5.24,12.19,97.77,97.77,0,0,0-5.45,26.85q-.32,4-.32,8,0,3.1.11,6a116.07,116.07,0,0,0,1.6,13.37,93.14,93.14,0,0,0,3.32,13.48A95.05,95.05,0,0,0,46,186.67a91.64,91.64,0,0,0,7,12,116.53,116.53,0,0,0,8.29,10.86q2.57,2.89,5.24,5.56L71,219.4a113.79,113.79,0,0,0,10.91,8.66,91.74,91.74,0,0,0,24.81,12.3,84.53,84.53,0,0,0,13.16,3.42,108.85,108.85,0,0,0,13.8,1.71q3.21.21,6.58.16,3.58.05,7.17-.21a97.16,97.16,0,0,0,13.8-1.6,96,96,0,0,0,13.21-3.58,88.5,88.5,0,0,0,12.83-5.35,100.89,100.89,0,0,0,11.87-7.17,117.14,117.14,0,0,0,10.7-8.56,59,59,0,0,0,4.33-4.12q2.83-2.83,5.4-5.72a106.85,106.85,0,0,0,8.34-10.8,116,116,0,0,0,6.9-12,101.05,101.05,0,0,0,5-12.62,90.46,90.46,0,0,0,3.37-13.53,95.83,95.83,0,0,0,1.44-13.21q.16-2.94.16-6-.05-4.12-.21-8.13A118.39,118.39,0,0,0,242.86,120Zm13.42-2.73a119.18,119.18,0,0,1,1.93,14.55L272,134,272,145.76l-13.64,2.08a121.18,121.18,0,0,1-1.55,15l12.35,5.4-3,11.39L253,178.22a120.68,120.68,0,0,1-5.72,14.28l10.11,8-5.83,10.32-12-4.76A140.48,140.48,0,0,1,230,218.22l7.7,10.48-8.29,8.5L219,229.4a117.31,117.31,0,0,1-12.14,9.68l4.49,11.77-10.11,5.94-7.75-9.68a112.24,112.24,0,0,1-14.44,6.1l1.28,12.19L169,268.49l-4.92-11.34a128,128,0,0,1-15.72,1.92l-1.82,12.3H134.67l-1.82-12.3a123.09,123.09,0,0,1-15.62-1.82l-5,11.12-11.34-3,1.39-12a111.19,111.19,0,0,1-14.76-6.2L80,256.73l-10.27-5.88,4.49-11.55a139.48,139.48,0,0,1-12.3-9.63L51.78,237l-8.34-8.34L51,218.49a140.33,140.33,0,0,1-9.57-12.25l-11.77,4.49-5.88-10.27,9.95-7.81a99.09,99.09,0,0,1-5.94-14.39L15.1,179.61l-3.16-11.39L24.08,163a142.18,142.18,0,0,1-1.76-15.24l-13.26-2,.05-11.82,13.48-2A126.32,126.32,0,0,1,24.51,117L12.1,111.48l3-11.34,13.58,1.5a111.36,111.36,0,0,1,5.88-13.8l-10.8-8.66,6-10.16L42.9,74.15A112,112,0,0,1,52,62.71L43.44,51l8.34-8.34,11.77,8.66A133.26,133.26,0,0,1,75,42.49L69.75,29l10.11-5.94L89,34.47a97,97,0,0,1,13.58-5.56l-1.71-14.44,11.44-3.1,5.83,13.53a124.79,124.79,0,0,1,14.28-1.66l2.35-14.87h11.77l2.25,15A115.84,115.84,0,0,1,163,25.06l6-13.69,11.34,3.1-1.6,14.65a103,103,0,0,1,13.37,5.45l9.14-11.39L211.47,29l-5.35,13.69q5.78,4.17,11.34,8.88l11.93-8.82L237.67,51,229,63a133.34,133.34,0,0,1,9,11.34l13.53-5.29,5.83,10.21-11,8.88a110.45,110.45,0,0,1,5.83,13.74l13.9-1.6,3,11.28Z" style="fill: #3393ab;fill-rule: evenodd"/>
          <g>
            <path d="M145.33,182.62q1.71-.2,3.35-.52a42.21,42.21,0,0,0,5.25-1.38,38.86,38.86,0,0,0,5.08-2.2,42.73,42.73,0,0,0,4.75-2.85,38.61,38.61,0,0,0,4.26-3.35q.85-.79,1.71-1.71,1.18-1.11,2.16-2.23a43.89,43.89,0,0,0,3.35-4.33,53.44,53.44,0,0,0,2.76-4.85,33.84,33.84,0,0,0,2-5,35.77,35.77,0,0,0,1.38-5.38q.2-1.18.3-2.46l8.43-.89q-.23,2.46-.59,4.85a45.59,45.59,0,0,1-1.64,6.49,39.28,39.28,0,0,1-2.33,6,56.67,56.67,0,0,1-3.31,5.8,49.09,49.09,0,0,1-4,5.15q-1.21,1.41-2.53,2.72-1.05,1-2.07,2a64.45,64.45,0,0,1-5.15,4,36.09,36.09,0,0,1-5.61,3.38q-3,1.48-6.17,2.62a56.49,56.49,0,0,1-6.36,1.71q-2.79.49-5.84.72Z" style="fill: #0f809c;fill-rule: evenodd"/>
            <path d="M181.73,136.38q-.23-1.8-.56-3.57a46.67,46.67,0,0,0-1.41-5.48q-1-2.46-2.1-4.79a46.19,46.19,0,0,0-3-4.85,34.77,34.77,0,0,0-3.18-4,18.8,18.8,0,0,0-1.8-1.93q-1.12-1.12-2.26-2.13-2-1.7-4-3.12a39.23,39.23,0,0,0-5-2.85,31.46,31.46,0,0,0-4.76-1.93,33,33,0,0,0-5.51-1.44,21.85,21.85,0,0,0-3-.46l-.85-8.33a47.42,47.42,0,0,1,5.51.72,56.21,56.21,0,0,1,6.62,1.64q2.89,1,5.61,2.33a46.43,46.43,0,0,1,5.9,3.48,48.52,48.52,0,0,1,4.89,3.71q1.31,1.31,2.69,2.62,1.12,1.12,2.16,2.23,2,2.36,3.8,4.79a46.57,46.57,0,0,1,3.48,5.84,45.31,45.31,0,0,1,2.46,5.74,50.26,50.26,0,0,1,1.74,6.53,40,40,0,0,1,.79,6.1Z" style="fill: #0f809c;fill-rule: evenodd"/>
            <path d="M99,146.38q.16,1.28.36,2.53a33.19,33.19,0,0,0,1.31,5.38,45,45,0,0,0,2,5.05,38,38,0,0,0,2.82,4.79,43.9,43.9,0,0,0,3.31,4.3q1,1.15,2.07,2.2l1.74,1.74a41.42,41.42,0,0,0,4.39,3.48,37.2,37.2,0,0,0,4.69,2.72,31.56,31.56,0,0,0,5.18,2.16,42.21,42.21,0,0,0,5.25,1.38l3.15.52.92,8.33a53.82,53.82,0,0,1-5.67-.69,64.07,64.07,0,0,1-6.26-1.61,45.11,45.11,0,0,1-6.26-2.53,54.22,54.22,0,0,1-5.54-3.44q-2.69-1.9-5.21-4-1.12-1-2.2-2.13-1.31-1.31-2.46-2.59-2.2-2.59-4.07-5.18a51.9,51.9,0,0,1-3.25-5.8,47,47,0,0,1-2.46-6.07,55.49,55.49,0,0,1-1.54-6.4,37.89,37.89,0,0,1-.66-5Z" style="fill: #3393ab;fill-rule: evenodd"/>
            <path d="M135.36,99.84q-1.44.13-2.82.39a42.31,42.31,0,0,0-5.51,1.38,35.85,35.85,0,0,0-4.79,2,32.51,32.51,0,0,0-4.92,2.82,38.26,38.26,0,0,0-4.07,3.08q-1.18,1-2.36,2.23-.89.89-1.71,1.77a44.46,44.46,0,0,0-3.21,4,43.63,43.63,0,0,0-3,4.85,39.19,39.19,0,0,0-2,4.85,38.61,38.61,0,0,0-1.51,5.44,33.8,33.8,0,0,0-.52,3.67l-8.33.85a39.1,39.1,0,0,1,.75-6.2,65.25,65.25,0,0,1,1.74-6.46,58.79,58.79,0,0,1,2.56-5.9A51.2,51.2,0,0,1,103,108.11q1-1.11,2-2.1,1.41-1.41,2.82-2.69a50.29,50.29,0,0,1,4.92-3.74,49.51,49.51,0,0,1,5.84-3.41,43.69,43.69,0,0,1,12.36-4,36.56,36.56,0,0,1,5.21-.75Z" style="fill: #3393ab;fill-rule: evenodd"/>
          </g>
        </g>
      </g>
    </g>
    <text transform="translate(93.56 188.53) rotate(-128.37)" style="font-size: 26px;fill: #fff;font-family: OpenSans, Open Sans">P</text>
    <text transform="translate(84.51 176.6) rotate(-119.24)" style="font-size: 26px;fill: #fff;font-family: OpenSans, Open Sans">l</text>
    <text transform="translate(81.3 171.59) rotate(-110.59)" style="font-size: 26px;fill: #fff;font-family: OpenSans, Open Sans">a</text>
    <text transform="translate(76.36 158.92) rotate(-98.01)" style="font-size: 26px;fill: #fff;font-family: OpenSans, Open Sans">n</text>
    <text transform="matrix(0.09, -1, 1, 0.09, 74.16, 144.06)" style="font-size: 26px;fill: #fff;font-family: OpenSans, Open Sans">n</text>
    <text transform="matrix(0.25, -0.97, 0.97, 0.25, 75.79, 128.89)" style="font-size: 26px;fill: #fff;font-family: OpenSans, Open Sans">i</text>
    <text transform="translate(76.82 123.06) rotate(-66.5)" style="font-size: 26px;fill: #fff;font-family: OpenSans, Open Sans">n</text>
    <text transform="translate(82.82 109.26) rotate(-54.1)" style="font-size: 26px;fill: #fff;font-family: OpenSans, Open Sans">g</text>
    <text transform="translate(176.09 85.4) rotate(40.1)" style="font-size: 26px;fill: #fff;font-family: OpenSans, Open Sans">P</text>
    <text transform="matrix(0.63, 0.78, -0.78, 0.63, 187.35, 95.1)" style="font-size: 26px;fill: #fff;font-family: OpenSans, Open Sans">r</text>
    <text transform="translate(193.82 102.54) rotate(61.6)" style="font-size: 26px;fill: #fff;font-family: OpenSans, Open Sans">o</text>
    <text transform="matrix(0.26, 0.96, -0.96, 0.26, 200.95, 115.49)" style="font-size: 26px;fill: #fff;font-family: OpenSans, Open Sans">d</text>
    <text transform="translate(205.02 129.93) rotate(87.75)" style="font-size: 26px;fill: #fff;font-family: OpenSans, Open Sans">u</text>
    <text transform="translate(205.52 145.04) rotate(99.27)" style="font-size: 26px;fill: #fff;font-family: OpenSans, Open Sans">c</text>
    <text transform="matrix(-0.31, 0.95, -0.95, -0.31, 203.57, 156.58)" style="font-size: 26px;fill: #fff;font-family: OpenSans, Open Sans">t</text>
    <text transform="translate(200.82 164.81) rotate(114.66)" style="font-size: 26px;fill: #fff;font-family: OpenSans, Open Sans">i</text>
    <text transform="translate(198.71 170.39) rotate(123.84)" style="font-size: 26px;fill: #fff;font-family: OpenSans, Open Sans">o</text>
    <text transform="matrix(-0.73, 0.69, -0.69, -0.73, 190.58, 182.73)" style="font-size: 26px;fill: #fff;font-family: OpenSans, Open Sans">n</text>
  </g>
</svg>
