<svg id="Layer_1" data-name="Layer 1" xmlns="http://www.w3.org/2000/svg" viewBox="0 0 60 60">
  <title>Employees_icon_W@W_timeline</title>
  <g>
    <circle cx="30" cy="29.81" r="20.84" style="fill: #11809c"/>
    <g>
      <path d="M25.53,55.54A26.12,26.12,0,0,1,3.89,29.81q0-1.28.12-2.52A26,26,0,0,1,6.22,19" style="fill: none;stroke: #91b2c4;stroke-miterlimit: 10;stroke-width: 1.6px"/>
      <polygon points="9.19 22.06 9.15 14.08 2.27 18.1 9.19 22.06" style="fill: #91b2c4"/>
    </g>
    <g>
      <path d="M55.14,22.7A26.15,26.15,0,0,1,35.71,55.3" style="fill: none;stroke: #91b2c4;stroke-miterlimit: 10;stroke-width: 1.6px"/>
      <polygon points="36.34 51.08 30 55.92 37.36 59 36.34 51.08" style="fill: #91b2c4"/>
    </g>
    <g>
      <path d="M11.47,11.41A26.08,26.08,0,0,1,30,3.7c8.39,0,15.19,3.1,20.66,10.13l.27.35" style="fill: none;stroke: #91b2c4;stroke-miterlimit: 10;stroke-width: 1.6px"/>
      <polygon points="46.82 15.34 53.84 19.13 53.61 11.16 46.82 15.34" style="fill: #91b2c4"/>
    </g>
    <path d="M39,34a5.57,5.57,0,0,1-2,4.49,10,10,0,0,1-5.66,2v3.6H28.89V40.64a19.54,19.54,0,0,1-7.52-1.51V34.49A20.25,20.25,0,0,0,25,35.82a19.7,19.7,0,0,0,3.84.69V31.06l-1.18-.46a13.15,13.15,0,0,1-4.93-3,5.73,5.73,0,0,1-1.45-4,5.19,5.19,0,0,1,2-4.19,10.14,10.14,0,0,1,5.56-2V14.76H31.3v2.62A20,20,0,0,1,38.57,19l-1.65,4.11a19,19,0,0,0-5.62-1.37v5.19a27,27,0,0,1,4.88,2.29,6.67,6.67,0,0,1,2.13,2.13A5.27,5.27,0,0,1,39,34ZM26.62,23.64a1.67,1.67,0,0,0,.54,1.27,6.37,6.37,0,0,0,1.73,1V21.81Q26.62,22.15,26.62,23.64Zm7.07,10.67a1.58,1.58,0,0,0-.6-1.25A7.84,7.84,0,0,0,31.3,32v4.38Q33.69,36,33.69,34.31Z" style="fill: #fff"/>
  </g>
</svg>
